<?xml version="1.0" encoding="UTF-8" standalone="no"?>
<svg
   version="1.1"
   viewBox="0 0 800.93311 146.08792"
   fill="none"
   stroke="none"
   stroke-linecap="square"
   stroke-miterlimit="10"
   id="svg26"
   sodipodi:docname="cp_overlap_allgather.svg"
   width="800.93311"
   height="146.08792"
   xmlns:inkscape="http://www.inkscape.org/namespaces/inkscape"
   xmlns:sodipodi="http://sodipodi.sourceforge.net/DTD/sodipodi-0.dtd"
   xmlns="http://www.w3.org/2000/svg"
   xmlns:svg="http://www.w3.org/2000/svg">
  <defs
     id="defs26" />
  <sodipodi:namedview
     id="namedview26"
     pagecolor="#ffffff"
     bordercolor="#000000"
     borderopacity="0.25"
     inkscape:showpageshadow="2"
     inkscape:pageopacity="0.0"
     inkscape:pagecheckerboard="0"
     inkscape:deskcolor="#d1d1d1"
     fit-margin-top="20"
     fit-margin-left="20"
     fit-margin-right="20"
     fit-margin-bottom="20" />
  <clipPath
     id="g33484c15c1f_2_3.0">
    <path
       d="M 0,0 H 960 V 540 H 0 Z"
       clip-rule="nonzero"
       id="path1" />
  </clipPath>
  <g
     clip-path="url(#g33484c15c1f_2_3.0)"
     id="g26"
     transform="translate(-139.77953,-307.78217)">
    <path
       fill="#000000"
       fill-opacity="0"
       d="m 437.2021,307.78217 h 166.11023 v 42.01575 H 437.2021 Z"
       fill-rule="evenodd"
       id="path3" />
    <path
       fill="#000000"
       d="m 485.20178,321.2959 h 2.59375 l 5.15625,13.40625 h -2.65625 l -1.04688,-2.76562 h -5.46875 l -1.09375,2.76562 h -2.64062 z m 1.3125,3.5625 -1.78125,4.59375 h 3.5625 z m 8.44153,-3.71875 h 2.46875 v 3.65625 h 1.48437 v 2.14063 h -1.48437 v 7.76562 h -2.46875 v -7.76562 h -1.28125 v -2.14063 h 1.28125 z m 5.59323,0 h 2.46875 v 3.65625 h 1.48437 v 2.14063 h -1.48437 v 7.76562 h -2.46875 v -7.76562 h -1.28125 v -2.14063 h 1.28125 z m 15.21823,9.32813 h -7.98438 q 0.17188,1.0625 0.92188,1.6875 0.75,0.60937 1.92187,0.60937 1.39063,0 2.39063,-0.96875 l 2.09375,0.98438 q -0.78125,1.10937 -1.875,1.64062 -1.09375,0.53125 -2.59375,0.53125 -2.34375,0 -3.8125,-1.46875 -1.45313,-1.46875 -1.45313,-3.6875 0,-2.26562 1.45313,-3.76562 1.46875,-1.5 3.67187,-1.5 2.34375,0 3.8125,1.5 1.46875,1.5 1.46875,3.96875 z m -2.5,-1.95313 q -0.25,-0.82812 -0.96875,-1.34375 -0.71875,-0.53125 -1.67188,-0.53125 -1.04687,0 -1.82812,0.57813 -0.5,0.375 -0.90625,1.29687 z m 4.50507,-3.71875 h 2.48437 v 1 q 0.84375,-0.70312 1.53125,-0.98437 0.6875,-0.28125 1.40625,-0.28125 1.48438,0 2.51563,1.03125 0.85937,0.875 0.85937,2.59375 v 6.54687 h -2.45312 v -4.34375 q 0,-1.78125 -0.17188,-2.35937 -0.15625,-0.57813 -0.54687,-0.875 -0.39063,-0.3125 -0.98438,-0.3125 -0.75,0 -1.29687,0.5 -0.54688,0.5 -0.75,1.39062 -0.10938,0.46875 -0.10938,2.01563 v 3.98437 h -2.48437 z m 11.50805,-3.65625 h 2.46875 v 3.65625 h 1.48438 v 2.14063 h -1.48438 v 7.76562 h -2.46875 v -7.76562 h -1.28125 v -2.14063 h 1.28125 z m 6.26508,-0.4375 q 0.65625,0 1.125,0.48438 0.46875,0.46875 0.46875,1.14062 0,0.67188 -0.46875,1.14063 -0.46875,0.46875 -1.10938,0.46875 -0.67187,0 -1.14062,-0.46875 -0.46875,-0.48438 -0.46875,-1.17188 0,-0.65625 0.46875,-1.125 0.46875,-0.46875 1.125,-0.46875 z m -1.25,4.09375 h 2.5 v 9.90625 h -2.5 z m 9.39465,-0.26562 q 1.40625,0 2.64063,0.70312 1.23437,0.70313 1.92187,1.90625 0.70313,1.20313 0.70313,2.59375 0,1.40625 -0.70313,2.625 -0.6875,1.21875 -1.89062,1.90625 -1.20313,0.6875 -2.65625,0.6875 -2.125,0 -3.64063,-1.51562 -1.5,-1.51563 -1.5,-3.6875 0,-2.3125 1.70313,-3.85938 1.48437,-1.35937 3.42187,-1.35937 z m 0.0469,2.34375 q -1.15625,0 -1.9375,0.8125 -0.76563,0.79687 -0.76563,2.0625 0,1.29687 0.75,2.09375 0.76563,0.79687 1.9375,0.79687 1.17188,0 1.9375,-0.8125 0.78125,-0.8125 0.78125,-2.07812 0,-1.28125 -0.76562,-2.07813 -0.76563,-0.79687 -1.9375,-0.79687 z m 7.23944,-2.07813 h 2.48437 v 1 q 0.84375,-0.70312 1.53125,-0.98437 0.6875,-0.28125 1.40625,-0.28125 1.48438,0 2.51563,1.03125 0.85937,0.875 0.85937,2.59375 v 6.54687 h -2.45312 v -4.34375 q 0,-1.78125 -0.17188,-2.35937 -0.15625,-0.57813 -0.54687,-0.875 -0.39063,-0.3125 -0.98438,-0.3125 -0.75,0 -1.29687,0.5 -0.54688,0.5 -0.75,1.39062 -0.10938,0.46875 -0.10938,2.01563 v 3.98437 h -2.48437 z"
       fill-rule="nonzero"
       id="path4" />
    <path
       fill="#000000"
       fill-opacity="0"
       d="m 139.77953,380.83466 h 166.11024 v 19.40155 H 139.77953 Z"
       fill-rule="evenodd"
       id="path5" />
    <path
       fill="#000000"
       d="m 160.7014,386.56964 -1.53125,1.53125 q -1.46875,-1.54688 -3.40625,-1.54688 -1.70313,0 -2.84375,1.125 -1.14063,1.125 -1.14063,2.73438 0,1.65625 1.1875,2.8125 1.1875,1.15625 2.92188,1.15625 1.14062,0 1.90625,-0.46875 0.78125,-0.48438 1.26562,-1.5 h -3.32812 v -2.04688 h 5.78125 l 0.0156,0.48438 q 0,1.5 -0.78125,2.85937 -0.78125,1.34375 -2.03125,2.0625 -1.23437,0.71875 -2.90625,0.71875 -1.79687,0 -3.20312,-0.78125 -1.39063,-0.78125 -2.21875,-2.21875 -0.8125,-1.4375 -0.8125,-3.10937 0,-2.28125 1.51562,-3.96875 1.78125,-2 4.65625,-2 1.5,0 2.79688,0.54687 1.10937,0.46875 2.15625,1.60938 z m 2.82812,-1.875 h 2.3125 q 1.89063,0 2.71875,0.35937 0.82813,0.34375 1.3125,1.125 0.48438,0.76563 0.48438,1.85938 0,1.20312 -0.64063,2 -0.625,0.79687 -1.70312,1.10937 -0.625,0.17188 -2.29688,0.17188 v 4.875 h -2.1875 z m 2.1875,4.5 h 0.6875 q 0.82813,0 1.14063,-0.10938 0.32812,-0.125 0.5,-0.39062 0.1875,-0.28125 0.1875,-0.65625 0,-0.67188 -0.51563,-0.96875 -0.375,-0.23438 -1.39062,-0.23438 h -0.60938 z m 6.69532,-4.5 h 2.20312 v 7.4375 q 0,0.96875 0.15625,1.375 0.17188,0.39062 0.5625,0.625 0.39063,0.23437 0.9375,0.23437 0.57813,0 0.98438,-0.26562 0.42187,-0.26563 0.57812,-0.67188 0.17188,-0.40625 0.17188,-1.5625 v -7.17187 h 2.1875 v 6.85937 q 0,1.73438 -0.20313,2.40625 -0.1875,0.67188 -0.73437,1.29688 -0.54688,0.625 -1.26563,0.9375 -0.71875,0.29687 -1.67187,0.29687 -1.25,0 -2.1875,-0.57812 -0.92188,-0.57813 -1.32813,-1.4375 -0.39062,-0.875 -0.39062,-2.92188 z m 25.35937,2.03125 -1.53125,1.45312 q -1.5625,-1.64062 -3.51562,-1.64062 -1.64063,0 -2.78125,1.125 -1.125,1.125 -1.125,2.76562 0,1.15625 0.5,2.04688 0.5,0.89062 1.40625,1.40625 0.92187,0.5 2.04687,0.5 0.95313,0 1.73438,-0.35938 0.79687,-0.35937 1.73437,-1.29687 l 1.48438,1.54687 q -1.26563,1.25 -2.40625,1.73438 -1.125,0.48437 -2.57813,0.48437 -2.6875,0 -4.39062,-1.70312 -1.70313,-1.70313 -1.70313,-4.35938 0,-1.71875 0.76563,-3.04687 0.78125,-1.34375 2.23437,-2.15625 1.45313,-0.8125 3.125,-0.8125 1.42188,0 2.73438,0.60937 1.3125,0.59375 2.26562,1.70313 z m 5.67969,0.75 q 1.20312,0 2.25,0.60937 1.0625,0.59375 1.65625,1.625 0.59375,1.03125 0.59375,2.21875 0,1.20313 -0.59375,2.25 -0.59375,1.04688 -1.625,1.64063 -1.03125,0.59375 -2.28125,0.59375 -1.82813,0 -3.125,-1.29688 -1.28125,-1.3125 -1.28125,-3.17187 0,-1.98438 1.45312,-3.3125 1.28125,-1.15625 2.95313,-1.15625 z m 0.0312,2 q -1,0 -1.65625,0.70312 -0.65625,0.6875 -0.65625,1.76563 0,1.10937 0.64062,1.79687 0.65625,0.6875 1.65625,0.6875 1,0 1.65625,-0.6875 0.67188,-0.70312 0.67188,-1.79687 0,-1.09375 -0.65625,-1.78125 -0.64063,-0.6875 -1.65625,-0.6875 z m 6.19531,-1.78125 h 2.14063 v 0.96875 q 0.54687,-0.59375 1.21875,-0.89063 0.67187,-0.29687 1.45312,-0.29687 0.79688,0 1.4375,0.39062 0.64063,0.39063 1.03125,1.14063 0.51563,-0.75 1.25,-1.14063 0.73438,-0.39062 1.60938,-0.39062 0.90625,0 1.59375,0.42187 0.6875,0.42188 0.98437,1.10938 0.3125,0.67187 0.3125,2.20312 v 4.98438 h -2.15625 v -4.3125 q 0,-1.45313 -0.35937,-1.95313 -0.35938,-0.51562 -1.07813,-0.51562 -0.54687,0 -0.98437,0.3125 -0.42188,0.3125 -0.64063,0.85937 -0.20312,0.54688 -0.20312,1.76563 v 3.84375 h -2.15625 v -4.125 q 0,-1.14063 -0.17188,-1.64063 -0.15625,-0.51562 -0.5,-0.76562 -0.32812,-0.25 -0.8125,-0.25 -0.53125,0 -0.96875,0.3125 -0.42187,0.3125 -0.64062,0.89062 -0.21875,0.5625 -0.21875,1.79688 v 3.78125 h -2.14063 z m 17.17969,0 v 0.9375 q 0.57813,-0.57813 1.25,-0.85938 0.67188,-0.29687 1.4375,-0.29687 1.65625,0 2.8125,1.26562 1.17188,1.25 1.17188,3.21875 0,1.89063 -1.20313,3.17188 -1.20312,1.28125 -2.84375,1.28125 -0.73437,0 -1.375,-0.26563 -0.625,-0.26562 -1.25,-0.85937 v 4.01562 h -2.125 v -11.60937 z m 2.23438,1.75 q -1,0 -1.67188,0.6875 -0.65625,0.6875 -0.65625,1.79687 0,1.125 0.65625,1.82813 0.67188,0.70312 1.67188,0.70312 0.98437,0 1.64062,-0.70312 0.67188,-0.71875 0.67188,-1.82813 0,-1.09375 -0.65625,-1.78125 -0.65625,-0.70312 -1.65625,-0.70312 z m 6.20312,-1.75 h 2.15625 v 4.09375 q 0,1.1875 0.15625,1.65625 0.17188,0.46875 0.53125,0.73437 0.35938,0.25 0.89063,0.25 0.53125,0 0.90625,-0.25 0.375,-0.26562 0.54687,-0.75 0.14063,-0.375 0.14063,-1.57812 v -4.15625 h 2.14062 v 3.59375 q 0,2.23437 -0.35937,3.04687 -0.42188,1 -1.26563,1.54688 -0.82812,0.53125 -2.125,0.53125 -1.39062,0 -2.26562,-0.625 -0.85938,-0.625 -1.20313,-1.75 -0.25,-0.76563 -0.25,-2.8125 z m 9.86719,-3.14063 h 2.125 v 3.14063 h 1.26562 v 1.82812 h -1.26562 v 6.67188 h -2.125 v -6.67188 h -1.09375 v -1.82812 h 1.09375 z m 10.8125,3.14063 h 2.12501 v 8.5 h -2.12501 v -0.90625 q -0.625,0.59375 -1.25,0.85937 -0.625,0.26563 -1.35938,0.26563 -1.65625,0 -2.85937,-1.28125 -1.20313,-1.28125 -1.20313,-3.17188 0,-1.96875 1.15625,-3.21875 1.17188,-1.26562 2.84375,-1.26562 0.76563,0 1.4375,0.29687 0.67188,0.28125 1.23438,0.85938 z m -2.23438,1.75 q -1,0 -1.65625,0.70312 -0.65625,0.6875 -0.65625,1.78125 0,1.10938 0.67188,1.82813 0.67187,0.70312 1.64062,0.70312 1.01563,0 1.67188,-0.70312 0.67189,-0.70313 0.67189,-1.82813 0,-1.10937 -0.67189,-1.79687 -0.65625,-0.6875 -1.67188,-0.6875 z m 6.78127,-4.89063 h 2.125 v 3.14063 h 1.26562 v 1.82812 h -1.26562 v 6.67188 h -2.125 v -6.67188 h -1.09375 v -1.82812 h 1.09375 z m 5.375,-0.35937 q 0.5625,0 0.95312,0.40625 0.40625,0.40625 0.40625,0.98437 0,0.5625 -0.40625,0.96875 -0.39062,0.40625 -0.9375,0.40625 -0.57812,0 -0.98437,-0.40625 -0.39063,-0.42187 -0.39063,-1 0,-0.5625 0.39063,-0.95312 0.40625,-0.40625 0.96875,-0.40625 z m -1.07813,3.5 h 2.14063 v 8.5 h -2.14063 z m 8.07032,-0.21875 q 1.20312,0 2.25,0.60937 1.0625,0.59375 1.65625,1.625 0.59375,1.03125 0.59375,2.21875 0,1.20313 -0.59375,2.25 -0.59375,1.04688 -1.625,1.64063 -1.03125,0.59375 -2.28125,0.59375 -1.82813,0 -3.125,-1.29688 -1.28125,-1.3125 -1.28125,-3.17187 0,-1.98438 1.45312,-3.3125 1.28125,-1.15625 2.95313,-1.15625 z m 0.0312,2 q -1,0 -1.65625,0.70312 -0.65625,0.6875 -0.65625,1.76563 0,1.10937 0.64062,1.79687 0.65625,0.6875 1.65625,0.6875 1,0 1.65625,-0.6875 0.67188,-0.70312 0.67188,-1.79687 0,-1.09375 -0.65625,-1.78125 -0.64063,-0.6875 -1.65625,-0.6875 z m 6.21093,-1.78125 h 2.125 v 0.85937 q 0.73438,-0.60937 1.3125,-0.84375 0.59375,-0.23437 1.21875,-0.23437 1.26563,0 2.14063,0.875 0.75,0.75 0.75,2.21875 v 5.625 h -2.10938 v -3.73438 q 0,-1.51562 -0.14062,-2.01562 -0.14063,-0.5 -0.48438,-0.76563 -0.32812,-0.26562 -0.82812,-0.26562 -0.65625,0 -1.125,0.4375 -0.45313,0.4375 -0.64063,1.20312 -0.0937,0.39063 -0.0937,1.71875 v 3.42188 h -2.125 z m 10.77344,-0.21875 q 0.5,0 0.85938,0.35937 0.35937,0.35938 0.35937,0.85938 0,0.5 -0.35937,0.85937 -0.35938,0.35938 -0.85938,0.35938 -0.51562,0 -0.875,-0.34375 -0.35937,-0.35938 -0.35937,-0.875 0,-0.5 0.35937,-0.85938 0.35938,-0.35937 0.875,-0.35937 z m 0,6.48437 q 0.5,0 0.85938,0.35938 0.35937,0.35937 0.35937,0.85937 0,0.51563 -0.35937,0.875 -0.35938,0.35938 -0.85938,0.35938 -0.51562,0 -0.875,-0.35938 -0.35937,-0.35937 -0.35937,-0.875 0,-0.5 0.35937,-0.85937 0.35938,-0.35938 0.875,-0.35938 z"
       fill-rule="nonzero"
       id="path6" />
    <path
       fill="#000000"
       fill-opacity="0"
       d="m 139.77953,422.7244 h 186.96062 v 19.40158 H 139.77953 Z"
       fill-rule="evenodd"
       id="path7" />
    <path
       fill="#000000"
       d="m 160.7014,428.4594 -1.53125,1.53125 q -1.46875,-1.54687 -3.40625,-1.54687 -1.70313,0 -2.84375,1.125 -1.14063,1.125 -1.14063,2.73437 0,1.65625 1.1875,2.8125 1.1875,1.15625 2.92188,1.15625 1.14062,0 1.90625,-0.46875 0.78125,-0.48437 1.26562,-1.5 h -3.32812 v -2.04687 h 5.78125 l 0.0156,0.48437 q 0,1.5 -0.78125,2.85938 -0.78125,1.34375 -2.03125,2.0625 -1.23437,0.71875 -2.90625,0.71875 -1.79687,0 -3.20312,-0.78125 -1.39063,-0.78125 -2.21875,-2.21875 -0.8125,-1.4375 -0.8125,-3.10938 0,-2.28125 1.51562,-3.96875 1.78125,-2 4.65625,-2 1.5,0 2.79688,0.54688 1.10937,0.46875 2.15625,1.60937 z m 2.82812,-1.875 h 2.3125 q 1.89063,0 2.71875,0.35938 0.82813,0.34375 1.3125,1.125 0.48438,0.76562 0.48438,1.85937 0,1.20313 -0.64063,2 -0.625,0.79688 -1.70312,1.10938 -0.625,0.17187 -2.29688,0.17187 v 4.875 h -2.1875 z m 2.1875,4.5 h 0.6875 q 0.82813,0 1.14063,-0.10937 0.32812,-0.125 0.5,-0.39063 0.1875,-0.28125 0.1875,-0.65625 0,-0.67187 -0.51563,-0.96875 -0.375,-0.23437 -1.39062,-0.23437 h -0.60938 z m 6.69532,-4.5 h 2.20312 v 7.4375 q 0,0.96875 0.15625,1.375 0.17188,0.39063 0.5625,0.625 0.39063,0.23438 0.9375,0.23438 0.57813,0 0.98438,-0.26563 0.42187,-0.26562 0.57812,-0.67187 0.17188,-0.40625 0.17188,-1.5625 v -7.17188 h 2.1875 v 6.85938 q 0,1.73437 -0.20313,2.40625 -0.1875,0.67187 -0.73437,1.29687 -0.54688,0.625 -1.26563,0.9375 -0.71875,0.29688 -1.67187,0.29688 -1.25,0 -2.1875,-0.57813 -0.92188,-0.57812 -1.32813,-1.4375 -0.39062,-0.875 -0.39062,-2.92187 z m 25.35937,2.03125 -1.53125,1.45313 q -1.5625,-1.64063 -3.51562,-1.64063 -1.64063,0 -2.78125,1.125 -1.125,1.125 -1.125,2.76563 0,1.15625 0.5,2.04687 0.5,0.89063 1.40625,1.40625 0.92187,0.5 2.04687,0.5 0.95313,0 1.73438,-0.35937 0.79687,-0.35938 1.73437,-1.29688 l 1.48438,1.54688 q -1.26563,1.25 -2.40625,1.73437 -1.125,0.48438 -2.57813,0.48438 -2.6875,0 -4.39062,-1.70313 -1.70313,-1.70312 -1.70313,-4.35937 0,-1.71875 0.76563,-3.04688 0.78125,-1.34375 2.23437,-2.15625 1.45313,-0.8125 3.125,-0.8125 1.42188,0 2.73438,0.60938 1.3125,0.59375 2.26562,1.70312 z m 5.67969,0.75 q 1.20312,0 2.25,0.60938 1.0625,0.59375 1.65625,1.625 0.59375,1.03125 0.59375,2.21875 0,1.20312 -0.59375,2.25 -0.59375,1.04687 -1.625,1.64062 -1.03125,0.59375 -2.28125,0.59375 -1.82813,0 -3.125,-1.29687 -1.28125,-1.3125 -1.28125,-3.17188 0,-1.98437 1.45312,-3.3125 1.28125,-1.15625 2.95313,-1.15625 z m 0.0312,2 q -1,0 -1.65625,0.70313 -0.65625,0.6875 -0.65625,1.76562 0,1.10938 0.64062,1.79688 0.65625,0.6875 1.65625,0.6875 1,0 1.65625,-0.6875 0.67188,-0.70313 0.67188,-1.79688 0,-1.09375 -0.65625,-1.78125 -0.64063,-0.6875 -1.65625,-0.6875 z m 6.19531,-1.78125 h 2.14063 v 0.96875 q 0.54687,-0.59375 1.21875,-0.89062 0.67187,-0.29688 1.45312,-0.29688 0.79688,0 1.4375,0.39063 0.64063,0.39062 1.03125,1.14062 0.51563,-0.75 1.25,-1.14062 0.73438,-0.39063 1.60938,-0.39063 0.90625,0 1.59375,0.42188 0.6875,0.42187 0.98437,1.10937 0.3125,0.67188 0.3125,2.20313 v 4.98437 h -2.15625 v -4.3125 q 0,-1.45312 -0.35937,-1.95312 -0.35938,-0.51563 -1.07813,-0.51563 -0.54687,0 -0.98437,0.3125 -0.42188,0.3125 -0.64063,0.85938 -0.20312,0.54687 -0.20312,1.76562 v 3.84375 h -2.15625 v -4.125 q 0,-1.14062 -0.17188,-1.64062 -0.15625,-0.51563 -0.5,-0.76563 -0.32812,-0.25 -0.8125,-0.25 -0.53125,0 -0.96875,0.3125 -0.42187,0.3125 -0.64062,0.89063 -0.21875,0.5625 -0.21875,1.79687 v 3.78125 h -2.14063 z m 15.03906,0 h 2.14063 v 0.96875 q 0.54687,-0.59375 1.21875,-0.89062 0.67187,-0.29688 1.45312,-0.29688 0.79688,0 1.4375,0.39063 0.64063,0.39062 1.03125,1.14062 0.51563,-0.75 1.25,-1.14062 0.73438,-0.39063 1.60938,-0.39063 0.90625,0 1.59375,0.42188 0.6875,0.42187 0.98437,1.10937 0.3125,0.67188 0.3125,2.20313 v 4.98437 h -2.15625 v -4.3125 q 0,-1.45312 -0.35937,-1.95312 -0.35938,-0.51563 -1.07813,-0.51563 -0.54687,0 -0.98437,0.3125 -0.42188,0.3125 -0.64063,0.85938 -0.20312,0.54687 -0.20312,1.76562 v 3.84375 h -2.15625 v -4.125 q 0,-1.14062 -0.17188,-1.64062 -0.15625,-0.51563 -0.5,-0.76563 -0.32812,-0.25 -0.8125,-0.25 -0.53125,0 -0.96875,0.3125 -0.42187,0.3125 -0.64062,0.89063 -0.21875,0.5625 -0.21875,1.79687 v 3.78125 h -2.14063 z m 15.05469,0 h 2.15625 v 4.09375 q 0,1.1875 0.15625,1.65625 0.17188,0.46875 0.53125,0.73438 0.35938,0.25 0.89063,0.25 0.53125,0 0.90625,-0.25 0.375,-0.26563 0.54687,-0.75 0.14063,-0.375 0.14063,-1.57813 v -4.15625 h 2.14062 v 3.59375 q 0,2.23438 -0.35937,3.04688 -0.42188,1 -1.26563,1.54687 -0.82812,0.53125 -2.125,0.53125 -1.39062,0 -2.26562,-0.625 -0.85938,-0.625 -1.20313,-1.75 -0.25,-0.76562 -0.25,-2.8125 z m 9.60156,0 h 2.125 v 0.85938 q 0.73438,-0.60938 1.3125,-0.84375 0.59375,-0.23438 1.21875,-0.23438 1.26563,0 2.14065,0.875 0.75,0.75 0.75,2.21875 v 5.625 h -2.1094 v -3.73437 q 0,-1.51563 -0.14062,-2.01563 -0.14063,-0.5 -0.48438,-0.76562 -0.32812,-0.26563 -0.82812,-0.26563 -0.65625,0 -1.125,0.4375 -0.45313,0.4375 -0.64063,1.20313 -0.0937,0.39062 -0.0937,1.71875 v 3.42187 h -2.125 z m 10.44533,-3.5 q 0.5625,0 0.95313,0.40625 0.40625,0.40625 0.40625,0.98438 0,0.5625 -0.40625,0.96875 -0.39063,0.40625 -0.9375,0.40625 -0.57813,0 -0.98438,-0.40625 -0.39062,-0.42188 -0.39062,-1 0,-0.5625 0.39062,-0.95313 0.40625,-0.40625 0.96875,-0.40625 z m -1.07812,3.5 h 2.14062 v 8.5 h -2.14062 z m 12.39844,1.71875 -1.78125,0.96875 q -0.5,-0.51562 -0.98438,-0.71875 -0.48437,-0.20312 -1.14062,-0.20312 -1.20313,0 -1.9375,0.71875 -0.73438,0.70312 -0.73438,1.82812 0,1.07813 0.70313,1.76563 0.71875,0.6875 1.875,0.6875 1.42187,0 2.21875,-0.96875 l 1.6875,1.14062 q -1.375,1.78125 -3.85938,1.78125 -2.25,0 -3.51562,-1.32812 -1.26563,-1.32813 -1.26563,-3.10938 0,-1.23437 0.60938,-2.26562 0.625,-1.04688 1.71875,-1.64063 1.10937,-0.59375 2.48437,-0.59375 1.26563,0 2.26563,0.5 1.01562,0.5 1.65625,1.4375 z m 8.19531,-1.71875 h 2.125 v 8.5 h -2.125 v -0.90625 q -0.625,0.59375 -1.25,0.85938 -0.625,0.26562 -1.35938,0.26562 -1.65625,0 -2.85937,-1.28125 -1.20313,-1.28125 -1.20313,-3.17187 0,-1.96875 1.15625,-3.21875 1.17188,-1.26563 2.84375,-1.26563 0.76563,0 1.4375,0.29688 0.67188,0.28125 1.23438,0.85937 z m -2.23438,1.75 q -1,0 -1.65625,0.70313 -0.65625,0.6875 -0.65625,1.78125 0,1.10937 0.67188,1.82812 0.67187,0.70313 1.64062,0.70313 1.01563,0 1.67188,-0.70313 0.67187,-0.70312 0.67187,-1.82812 0,-1.10938 -0.67187,-1.79688 -0.65625,-0.6875 -1.67188,-0.6875 z m 6.78125,-4.89062 h 2.125 v 3.14062 h 1.26563 v 1.82813 h -1.26563 v 6.67187 h -2.125 v -6.67187 h -1.09375 v -1.82813 h 1.09375 z m 5.375,-0.35938 q 0.5625,0 0.95313,0.40625 0.40625,0.40625 0.40625,0.98438 0,0.5625 -0.40625,0.96875 -0.39063,0.40625 -0.9375,0.40625 -0.57813,0 -0.98438,-0.40625 -0.39062,-0.42188 -0.39062,-1 0,-0.5625 0.39062,-0.95313 0.40625,-0.40625 0.96875,-0.40625 z m -1.07812,3.5 h 2.14062 v 8.5 h -2.14062 z m 8.07031,-0.21875 q 1.20313,0 2.25,0.60938 1.0625,0.59375 1.65625,1.625 0.59375,1.03125 0.59375,2.21875 0,1.20312 -0.59375,2.25 -0.59375,1.04687 -1.625,1.64062 -1.03125,0.59375 -2.28125,0.59375 -1.82812,0 -3.125,-1.29687 -1.28125,-1.3125 -1.28125,-3.17188 0,-1.98437 1.45313,-3.3125 1.28125,-1.15625 2.95312,-1.15625 z m 0.0312,2 q -1,0 -1.65625,0.70313 -0.65625,0.6875 -0.65625,1.76562 0,1.10938 0.64063,1.79688 0.65625,0.6875 1.65625,0.6875 1,0 1.65625,-0.6875 0.67187,-0.70313 0.67187,-1.79688 0,-1.09375 -0.65625,-1.78125 -0.64062,-0.6875 -1.65625,-0.6875 z m 6.21094,-1.78125 h 2.125 v 0.85938 q 0.73437,-0.60938 1.3125,-0.84375 0.59375,-0.23438 1.21875,-0.23438 1.26562,0 2.14062,0.875 0.75,0.75 0.75,2.21875 v 5.625 h -2.10937 v -3.73437 q 0,-1.51563 -0.14063,-2.01563 -0.14062,-0.5 -0.48437,-0.76562 -0.32813,-0.26563 -0.82813,-0.26563 -0.65625,0 -1.125,0.4375 -0.45312,0.4375 -0.64062,1.20313 -0.0937,0.39062 -0.0937,1.71875 v 3.42187 h -2.125 z m 10.77344,-0.21875 q 0.5,0 0.85937,0.35938 0.35938,0.35937 0.35938,0.85937 0,0.5 -0.35938,0.85938 -0.35937,0.35937 -0.85937,0.35937 -0.51563,0 -0.875,-0.34375 -0.35938,-0.35937 -0.35938,-0.875 0,-0.5 0.35938,-0.85937 0.35937,-0.35938 0.875,-0.35938 z m 0,6.48438 q 0.5,0 0.85937,0.35937 0.35938,0.35938 0.35938,0.85938 0,0.51562 -0.35938,0.875 -0.35937,0.35937 -0.85937,0.35937 -0.51563,0 -0.875,-0.35937 -0.35938,-0.35938 -0.35938,-0.875 0,-0.5 0.35938,-0.85938 0.35937,-0.35937 0.875,-0.35937 z"
       fill-rule="nonzero"
       id="path8" />
    <path
       fill="#4ea5b7"
       d="m 323.89798,376.57233 v 0 c 0,-3.85593 3.12582,-6.98178 6.98175,-6.98178 h 87.35931 c 1.85169,0 3.62751,0.73559 4.93686,2.04492 1.30933,1.30933 2.04489,3.08518 2.04489,4.93686 v 27.92621 c 0,3.85592 -3.12582,6.98178 -6.98175,6.98178 h -87.35931 c -3.85593,0 -6.98175,-3.12586 -6.98175,-6.98178 z"
       fill-rule="evenodd"
       id="path9" />
    <path
       stroke="#000000"
       stroke-width="1"
       stroke-linejoin="round"
       stroke-linecap="butt"
       d="m 323.89798,376.57233 v 0 c 0,-3.85593 3.12582,-6.98178 6.98175,-6.98178 h 87.35931 c 1.85169,0 3.62751,0.73559 4.93686,2.04492 1.30933,1.30933 2.04489,3.08518 2.04489,4.93686 v 27.92621 c 0,3.85592 -3.12582,6.98178 -6.98175,6.98178 h -87.35931 c -3.85593,0 -6.98175,-3.12586 -6.98175,-6.98178 z"
       fill-rule="evenodd"
       id="path10" />
    <path
       fill="#ffffff"
       d="m 342.07605,386.61917 h 1.48437 l 2.9375,7.65625 h -1.51562 l -0.59375,-1.57813 h -3.125 l -0.625,1.57813 h -1.51563 z m 0.75,2.03125 -1.01563,2.625 h 2.03125 z m 4.8204,-2.125 h 1.42188 v 2.09375 h 0.82812 v 1.21875 h -0.82812 v 4.4375 h -1.42188 v -4.4375 h -0.73437 v -1.21875 h 0.73437 z m 3.1948,0 h 1.42187 v 2.09375 h 0.82813 v 1.21875 h -0.82813 v 4.4375 h -1.42187 v -4.4375 h -0.73438 v -1.21875 h 0.73438 z m 3.02292,2.09375 h 1.42187 v 0.57812 q 0.48438,-0.40625 0.875,-0.5625 0.39063,-0.17187 0.79688,-0.17187 0.84375,0 1.4375,0.59375 0.48437,0.5 0.48437,1.48437 v 3.73438 h -1.40625 v -2.48438 q 0,-1.01562 -0.0937,-1.34375 -0.0781,-0.32812 -0.3125,-0.5 -0.21875,-0.1875 -0.5625,-0.1875 -0.42187,0 -0.73437,0.29688 -0.3125,0.28125 -0.42188,0.79687 -0.0625,0.26563 -0.0625,1.14063 v 2.28125 h -1.42187 z m 7.66043,-2.34375 h 1.79687 q -0.9375,1.04687 -1.39062,2.28125 -0.45313,1.21875 -0.45313,2.79687 0,1.6875 0.51563,2.98438 0.39062,1 1.32812,2.15625 h -1.79687 q -0.84375,-1.32813 -1.17188,-2.46875 -0.32812,-1.15625 -0.32812,-2.71875 0,-1.53125 0.34375,-2.67188 0.35937,-1.15625 1.15625,-2.35937 z m 9.50125,6.875 1.32812,1.73437 h -1.71875 l -0.67187,-0.875 q -0.84375,0.45313 -1.875,0.45313 -1.71875,0 -2.85938,-1.1875 -1.14062,-1.1875 -1.14062,-2.82813 0,-1.09375 0.53125,-2.01562 0.53125,-0.92188 1.45312,-1.45313 0.9375,-0.54687 2,-0.54687 1.625,0 2.79688,1.17187 1.17187,1.17188 1.17187,2.875 0,1.54688 -1.01562,2.67188 z m -0.90625,-1.17188 q 0.46875,-0.6875 0.46875,-1.51562 0,-1.09375 -0.73438,-1.84375 -0.73437,-0.76563 -1.78125,-0.76563 -1.07812,0 -1.79687,0.75 -0.71875,0.73438 -0.71875,1.875 0,1.26563 0.90625,2 0.71875,0.57813 1.625,0.57813 0.51562,0 0.96875,-0.20313 l -1.35938,-1.76562 h 1.73438 z m 3.69958,-5.70312 q 0.375,0 0.64063,0.28125 0.26562,0.26562 0.26562,0.65625 0,0.375 -0.26562,0.64062 -0.26563,0.26563 -0.64063,0.26563 -0.375,0 -0.64062,-0.26563 -0.26563,-0.28125 -0.26563,-0.67187 0,-0.375 0.26563,-0.64063 0.26562,-0.26562 0.64062,-0.26562 z m -0.71875,2.34375 h 1.42188 v 5.65625 h -1.42188 z m 3.39853,4.21875 1.01563,0.5 -1.29688,2.20312 -0.70312,-0.34375 z m 5.4473,-6.21875 h 1.46875 v 2.64062 l 2.07812,-2.64062 h 1.75 l -2.67187,3.42187 2.9375,4.23438 h -1.73438 l -2.35937,-3.39063 v 3.39063 h -1.46875 z m 6.99875,-0.34375 q 0.375,0 0.64062,0.28125 0.26563,0.26562 0.26563,0.65625 0,0.375 -0.26563,0.64062 -0.26562,0.26563 -0.64062,0.26563 -0.375,0 -0.64063,-0.26563 -0.26562,-0.28125 -0.26562,-0.67187 0,-0.375 0.26562,-0.64063 0.26563,-0.26562 0.64063,-0.26562 z m -0.71875,2.34375 h 1.42187 v 5.65625 h -1.42187 z m 3.39856,4.21875 1.01562,0.5 -1.29687,2.20312 -0.70313,-0.34375 z m 4.85354,-6.21875 h 1.5 l 1.92188,5.4375 1.95312,-5.4375 h 1.5 l -2.76562,7.65625 h -1.40625 z m 8.44583,-0.34375 q 0.375,0 0.64063,0.28125 0.26562,0.26562 0.26562,0.65625 0,0.375 -0.26562,0.64062 -0.26563,0.26563 -0.64063,0.26563 -0.375,0 -0.64062,-0.26563 -0.26563,-0.28125 -0.26563,-0.67187 0,-0.375 0.26563,-0.64063 0.26562,-0.26562 0.64062,-0.26562 z m -0.71875,2.34375 h 1.42188 v 5.65625 h -1.42188 z m 4.07041,7.875 h -1.79688 q 0.92188,-1.04688 1.375,-2.26563 0.45313,-1.21875 0.45313,-2.79687 0,-1.70313 -0.5,-2.98438 -0.39063,-1 -1.32813,-2.17187 h 1.79688 q 0.82812,1.32812 1.15625,2.48437 0.32812,1.15625 0.32812,2.71875 0,1.51563 -0.34375,2.67188 -0.34375,1.15625 -1.14062,2.34375 z"
       fill-rule="nonzero"
       id="path11" />
    <path
       fill="#4ea5b7"
       d="m 820.2756,414.7245 v 0 c 0,-2.08163 1.6875,-3.7691 3.7691,-3.7691 h 112.3988 c 0.99964,0 1.95832,0.39709 2.66517,1.10394 0.70684,0.70685 1.10394,1.66553 1.10394,2.66516 v 15.07596 c 0,2.08163 -1.6875,3.7691 -3.76911,3.7691 H 824.0447 v 0 c -2.0816,0 -3.7691,-1.68747 -3.7691,-3.7691 z"
       fill-rule="evenodd"
       id="path12" />
    <path
       stroke="#000000"
       stroke-width="1"
       stroke-linejoin="round"
       stroke-linecap="butt"
       d="m 820.2756,414.7245 v 0 c 0,-2.08163 1.6875,-3.7691 3.7691,-3.7691 h 112.3988 c 0.99964,0 1.95832,0.39709 2.66517,1.10394 0.70684,0.70685 1.10394,1.66553 1.10394,2.66516 v 15.07596 c 0,2.08163 -1.6875,3.7691 -3.76911,3.7691 H 824.0447 v 0 c -2.0816,0 -3.7691,-1.68747 -3.7691,-3.7691 z"
       fill-rule="evenodd"
       id="path13" />
    <path
       fill="#ffffff"
       d="m 838.9865,417.48434 h 4.75 v 1.78125 h -2.95313 v 1.73437 h 2.95313 v 1.75 h -2.95313 v 4.3125 h -1.79687 z m 9.49103,2.3125 q 1,0 1.875,0.5 0.89062,0.5 1.39062,1.35937 0.5,0.85938 0.5,1.85938 0,1 -0.5,1.875 -0.5,0.875 -1.35937,1.375 -0.85938,0.48437 -1.89063,0.48437 -1.53125,0 -2.60937,-1.07812 -1.07813,-1.09375 -1.07813,-2.64063 0,-1.65625 1.21875,-2.76562 1.07813,-0.96875 2.45313,-0.96875 z m 0.0312,1.67187 q -0.82813,0 -1.375,0.57813 -0.54688,0.57812 -0.54688,1.46875 0,0.9375 0.53125,1.51562 0.54688,0.5625 1.39063,0.5625 0.82812,0 1.375,-0.57812 0.5625,-0.57813 0.5625,-1.5 0,-0.90625 -0.54688,-1.46875 -0.54687,-0.57813 -1.39062,-0.57813 z m 4.76617,-1.48437 h 1.51563 v 0.89062 q 0.25,-0.53125 0.65625,-0.79687 0.42187,-0.28125 0.90625,-0.28125 0.34375,0 0.71875,0.1875 l -0.54688,1.53125 q -0.3125,-0.15625 -0.51562,-0.15625 -0.40625,0 -0.70313,0.51562 -0.28125,0.5 -0.28125,1.98438 l 0.0156,0.34375 v 2.85937 h -1.76563 z m 3.8877,0 h 1.73437 l 1.4375,4.03125 1.53125,-4.03125 h 1.0625 l 1.5,3.98437 1.42188,-3.98437 h 1.75 l -2.57813,7.07812 h -1.125 l -1.51562,-4.03125 -1.54688,4.03125 h -1.125 z m 16.67553,0 h 1.78125 v 7.07812 h -1.78125 v -0.75 q -0.51562,0.5 -1.04687,0.71875 -0.51563,0.21875 -1.125,0.21875 -1.375,0 -2.375,-1.0625 -1,-1.07812 -1,-2.65625 0,-1.64062 0.96875,-2.6875 0.96875,-1.04687 2.34375,-1.04687 0.64062,0 1.20312,0.25 0.5625,0.23437 1.03125,0.71875 z m -1.85937,1.45312 q -0.82813,0 -1.375,0.59375 -0.54688,0.57813 -0.54688,1.48438 0,0.92187 0.54688,1.51562 0.5625,0.59375 1.375,0.59375 0.84375,0 1.39062,-0.57812 0.5625,-0.59375 0.5625,-1.53125 0,-0.9375 -0.5625,-1.5 -0.54687,-0.57813 -1.39062,-0.57813 z m 5.01739,-1.45312 h 1.51563 v 0.89062 q 0.25,-0.53125 0.65625,-0.79687 0.42187,-0.28125 0.90625,-0.28125 0.34375,0 0.71875,0.1875 l -0.54688,1.53125 q -0.3125,-0.15625 -0.51562,-0.15625 -0.40625,0 -0.70313,0.51562 -0.28125,0.5 -0.28125,1.98438 l 0.0156,0.34375 v 2.85937 h -1.76563 z m 9.90326,-2.73438 h 1.78125 v 9.8125 h -1.78125 v -0.75 q -0.51562,0.5 -1.04687,0.71875 -0.51563,0.21875 -1.125,0.21875 -1.375,0 -2.375,-1.0625 -1,-1.07812 -1,-2.65625 0,-1.64062 0.96875,-2.6875 0.96875,-1.04687 2.34375,-1.04687 0.64062,0 1.20312,0.25 0.5625,0.23437 1.03125,0.71875 z m -1.85937,4.1875 q -0.82813,0 -1.375,0.59375 -0.54688,0.57813 -0.54688,1.48438 0,0.92187 0.54688,1.51562 0.5625,0.59375 1.375,0.59375 0.84375,0 1.39062,-0.57812 0.5625,-0.59375 0.5625,-1.53125 0,-0.9375 -0.5625,-1.5 -0.54687,-0.57813 -1.39062,-0.57813 z m 10.91827,-1.45312 v 0.78125 q 0.48438,-0.48438 1.04688,-0.71875 0.5625,-0.25 1.20312,-0.25 1.375,0 2.34375,1.04687 0.96875,1.04688 0.96875,2.6875 0,1.57813 -1,2.65625 -1,1.0625 -2.375,1.0625 -0.60937,0 -1.14062,-0.21875 -0.51563,-0.21875 -1.04688,-0.71875 v 3.34375 h -1.76562 v -9.67187 z m 1.875,1.45312 q -0.84375,0 -1.40625,0.57813 -0.54687,0.5625 -0.54687,1.5 0,0.9375 0.54687,1.53125 0.5625,0.57812 1.40625,0.57812 0.8125,0 1.35938,-0.59375 0.5625,-0.59375 0.5625,-1.51562 0,-0.90625 -0.54688,-1.48438 -0.54687,-0.59375 -1.375,-0.59375 z m 10.3924,-1.45312 h 1.78125 v 7.07812 h -1.78125 v -0.75 q -0.51563,0.5 -1.04688,0.71875 -0.51562,0.21875 -1.125,0.21875 -1.375,0 -2.375,-1.0625 -1,-1.07812 -1,-2.65625 0,-1.64062 0.96875,-2.6875 0.96875,-1.04687 2.34375,-1.04687 0.64063,0 1.20313,0.25 0.5625,0.23437 1.03125,0.71875 z m -1.85938,1.45312 q -0.82812,0 -1.375,0.59375 -0.54687,0.57813 -0.54687,1.48438 0,0.92187 0.54687,1.51562 0.5625,0.59375 1.375,0.59375 0.84375,0 1.39063,-0.57812 0.5625,-0.59375 0.5625,-1.53125 0,-0.9375 -0.5625,-1.5 -0.54688,-0.57813 -1.39063,-0.57813 z m 9.7674,-0.46875 -1.10938,1.10938 q -0.65625,-0.67188 -1.20312,-0.67188 -0.3125,0 -0.48438,0.125 -0.15625,0.125 -0.15625,0.3125 0,0.15625 0.10938,0.28125 0.10937,0.10938 0.53125,0.3125 l 0.64062,0.32813 q 1.03125,0.51562 1.40625,1.04687 0.39063,0.51563 0.39063,1.21875 0,0.95313 -0.70313,1.59375 -0.6875,0.625 -1.84375,0.625 -1.54687,0 -2.46875,-1.21875 l 1.09375,-1.1875 q 0.3125,0.35938 0.71875,0.59375 0.42188,0.21875 0.75,0.21875 0.35938,0 0.5625,-0.17187 0.21875,-0.17188 0.21875,-0.39063 0,-0.40625 -0.76562,-0.79687 l -0.60938,-0.29688 q -1.71875,-0.875 -1.71875,-2.17187 0,-0.84375 0.64063,-1.4375 0.65625,-0.59375 1.67187,-0.59375 0.6875,0 1.29688,0.3125 0.60937,0.29687 1.03125,0.85937 z m 5.86365,0 -1.10938,1.10938 q -0.65625,-0.67188 -1.20312,-0.67188 -0.3125,0 -0.48438,0.125 -0.15625,0.125 -0.15625,0.3125 0,0.15625 0.10938,0.28125 0.10937,0.10938 0.53125,0.3125 l 0.64062,0.32813 q 1.03125,0.51562 1.40625,1.04687 0.39063,0.51563 0.39063,1.21875 0,0.95313 -0.70313,1.59375 -0.6875,0.625 -1.84375,0.625 -1.54687,0 -2.46875,-1.21875 l 1.09375,-1.1875 q 0.3125,0.35938 0.71875,0.59375 0.42188,0.21875 0.75,0.21875 0.35938,0 0.5625,-0.17187 0.21875,-0.17188 0.21875,-0.39063 0,-0.40625 -0.76562,-0.79687 l -0.60938,-0.29688 q -1.71875,-0.875 -1.71875,-2.17187 0,-0.84375 0.64063,-1.4375 0.65625,-0.59375 1.67187,-0.59375 0.6875,0 1.29688,0.3125 0.60937,0.29687 1.03125,0.85937 z"
       fill-rule="nonzero"
       id="path14" />
    <path
       fill="#e889ab"
       d="m 323.85297,418.46207 v 0 c 0,-3.8559 3.12582,-6.98175 6.98175,-6.98175 h 218.82385 c 1.85169,0 3.62756,0.73556 4.93689,2.04492 1.30933,1.30933 2.04492,3.08518 2.04492,4.93683 v 27.92624 c 0,3.85593 -3.12585,6.98178 -6.98181,6.98178 H 330.83472 c -3.85593,0 -6.98175,-3.12585 -6.98175,-6.98178 z"
       fill-rule="evenodd"
       id="path15" />
    <path
       stroke="#000000"
       stroke-width="1"
       stroke-linejoin="round"
       stroke-linecap="butt"
       d="m 323.85297,418.46207 v 0 c 0,-3.8559 3.12582,-6.98175 6.98175,-6.98175 h 218.82385 c 1.85169,0 3.62756,0.73556 4.93689,2.04492 1.30933,1.30933 2.04492,3.08518 2.04492,4.93683 v 27.92624 c 0,3.85593 -3.12585,6.98178 -6.98181,6.98178 H 330.83472 c -3.85593,0 -6.98175,-3.12585 -6.98175,-6.98178 z"
       fill-rule="evenodd"
       id="path16" />
    <path
       fill="#ffffff"
       d="m 418.00952,427.64706 h 1.84375 l 3.6875,9.57812 h -1.90625 l -0.75,-1.96875 h -3.89063 l -0.78125,1.96875 h -1.90625 z m 0.9375,2.54687 -1.28125,3.28125 h 2.54687 z m 14.84381,-0.98437 -1.28125,1.28125 q -1.21875,-1.29688 -2.84375,-1.29688 -1.40625,0 -2.35937,0.9375 -0.95313,0.9375 -0.95313,2.28125 0,1.39063 0.98438,2.35938 0.98437,0.95312 2.4375,0.95312 0.9375,0 1.57812,-0.39062 0.65625,-0.40625 1.0625,-1.25 h -2.78125 v -1.71875 h 4.8125 l 0.0156,0.40625 q 0,1.25 -0.65625,2.39062 -0.64063,1.125 -1.67188,1.71875 -1.03125,0.57813 -2.4375,0.57813 -1.48437,0 -2.65625,-0.64063 -1.15625,-0.64062 -1.84375,-1.84375 -0.6875,-1.20312 -0.6875,-2.57812 0,-1.90625 1.26563,-3.3125 1.48437,-1.67188 3.875,-1.67188 1.25,0 2.34375,0.45313 0.90625,0.39062 1.79687,1.34375 z m 3.72479,-1.98438 h 2.25 q -1.15625,1.3125 -1.73437,2.84375 -0.5625,1.53125 -0.5625,3.5 0,2.125 0.64062,3.73438 0.48438,1.25 1.65625,2.6875 h -2.25 q -1.03125,-1.64063 -1.45312,-3.07813 -0.40625,-1.45312 -0.40625,-3.40625 0,-1.90625 0.4375,-3.34375 0.4375,-1.4375 1.42187,-2.9375 z m 3.70374,0.42188 h 1.84375 v 3.29687 l 2.59375,-3.29687 h 2.1875 l -3.34375,4.28125 3.67187,5.29687 h -2.15625 l -2.95312,-4.25 v 4.25 h -1.84375 z m 8.90564,7.78125 1.26562,0.625 -1.60937,2.75 -0.875,-0.42188 z m 2.33838,-7.78125 h 1.875 l 2.40625,6.8125 2.45312,-6.8125 h 1.875 l -3.45312,9.57812 H 455.854 Z m 11.56668,12.34375 h -2.25 q 1.15625,-1.29688 1.71875,-2.82813 0.57812,-1.53125 0.57812,-3.5 0,-2.125 -0.625,-3.73437 -0.5,-1.23438 -1.67187,-2.70313 h 2.25 q 1.04687,1.65625 1.45312,3.10938 0.42188,1.4375 0.42188,3.39062 0,1.90625 -0.4375,3.34375 -0.4375,1.4375 -1.4375,2.92188 z"
       fill-rule="nonzero"
       id="path17" />
    <path
       fill="#4ea5b7"
       d="m 556.64075,376.57233 v 0 c 0,-3.85593 3.12585,-6.98178 6.98175,-6.98178 h 87.35931 c 1.85169,0 3.62751,0.73559 4.93689,2.04492 1.30933,1.30933 2.04486,3.08518 2.04486,4.93686 v 27.92621 c 0,3.85592 -3.12579,6.98178 -6.98175,6.98178 H 563.6225 c -3.8559,0 -6.98175,-3.12586 -6.98175,-6.98178 z"
       fill-rule="evenodd"
       id="path18" />
    <path
       stroke="#000000"
       stroke-width="1"
       stroke-linejoin="round"
       stroke-linecap="butt"
       d="m 556.64075,376.57233 v 0 c 0,-3.85593 3.12585,-6.98178 6.98175,-6.98178 h 87.35931 c 1.85169,0 3.62751,0.73559 4.93689,2.04492 1.30933,1.30933 2.04486,3.08518 2.04486,4.93686 v 27.92621 c 0,3.85592 -3.12579,6.98178 -6.98175,6.98178 H 563.6225 c -3.8559,0 -6.98175,-3.12586 -6.98175,-6.98178 z"
       fill-rule="evenodd"
       id="path19" />
    <path
       fill="#ffffff"
       d="m 568.0538,387.2923 h 1.28125 l 2.57813,6.70312 h -1.3125 l -0.53125,-1.375 h -2.73438 l -0.54687,1.375 h -1.32813 z m 0.65625,1.78125 -0.90625,2.29687 h 1.78125 z m 4.21295,-1.85938 h 1.23438 v 1.82813 h 0.73437 v 1.0625 h -0.73437 v 3.89062 H 572.923 v -3.89062 h -0.64062 v -1.0625 h 0.64062 z m 2.79663,0 h 1.23438 v 1.82813 h 0.73437 v 1.0625 h -0.73437 v 3.89062 h -1.23438 v -3.89062 h -0.64062 v -1.0625 h 0.64062 z m 2.64038,1.82813 h 1.25 v 0.5 q 0.42188,-0.35938 0.76563,-0.48438 0.34375,-0.14062 0.70312,-0.14062 0.73438,0 1.25,0.51562 0.4375,0.4375 0.4375,1.28125 v 3.28125 h -1.23437 v -2.17187 q 0,-0.89063 -0.0781,-1.17188 -0.0781,-0.29687 -0.28125,-0.45312 -0.20312,-0.15625 -0.48437,-0.15625 -0.39063,0 -0.65625,0.26562 -0.26563,0.25 -0.375,0.6875 -0.0469,0.23438 -0.0469,1.01563 v 1.98437 h -1.25 z m 6.70716,-2.04688 h 1.57812 q -0.8125,0.92188 -1.21875,2 -0.39062,1.0625 -0.39062,2.4375 0,1.48438 0.4375,2.60938 0.34375,0.875 1.17187,1.89062 h -1.57812 q -0.73438,-1.15625 -1.03125,-2.15625 -0.28125,-1.01562 -0.28125,-2.375 0,-1.34375 0.29687,-2.34375 0.3125,-1.01562 1.01563,-2.0625 z m 8.32483,6.01563 1.15625,1.51562 h -1.5 l -0.59375,-0.76562 q -0.73438,0.40625 -1.64063,0.40625 -1.5,0 -2.5,-1.03125 -1,-1.04688 -1,-2.5 0,-0.95313 0.45313,-1.75 0.46875,-0.8125 1.28125,-1.28125 0.82812,-0.48438 1.75,-0.48438 1.4375,0 2.45312,1.03125 1.01563,1.03125 1.01563,2.51563 0,1.35937 -0.875,2.34375 z m -0.79688,-1.03125 q 0.40625,-0.59375 0.40625,-1.32813 0,-0.95312 -0.64062,-1.60937 -0.64063,-0.67188 -1.5625,-0.67188 -0.9375,0 -1.57813,0.65625 -0.625,0.64063 -0.625,1.64063 0,1.10937 0.79688,1.75 0.625,0.51562 1.42187,0.51562 0.45313,0 0.85938,-0.1875 l -1.20313,-1.53125 h 1.51563 z m 3.22479,-4.98438 q 0.32813,0 0.5625,0.25 0.23438,0.23438 0.23438,0.5625 0,0.32813 -0.23438,0.5625 -0.21875,0.23438 -0.54687,0.23438 -0.32813,0 -0.5625,-0.23438 -0.23438,-0.23437 -0.23438,-0.57812 0,-0.32813 0.21875,-0.5625 0.23438,-0.23438 0.5625,-0.23438 z m -0.625,2.04688 h 1.25 v 4.95312 h -1.25 z m 2.97077,3.6875 0.89062,0.45312 -1.125,1.92188 -0.60937,-0.29688 z m 4.78229,-5.4375 h 1.28125 v 2.3125 l 1.8125,-2.3125 h 1.54687 l -2.34375,2.98437 2.5625,3.71875 h -1.51562 l -2.0625,-2.96875 v 2.96875 h -1.28125 z m 6.11267,-0.29688 q 0.32812,0 0.5625,0.25 0.23437,0.23438 0.23437,0.5625 0,0.32813 -0.23437,0.5625 -0.21875,0.23438 -0.54688,0.23438 -0.32812,0 -0.5625,-0.23438 -0.23437,-0.23437 -0.23437,-0.57812 0,-0.32813 0.21875,-0.5625 0.23437,-0.23438 0.5625,-0.23438 z m -0.625,2.04688 h 1.25 v 4.95312 h -1.25 z m 3.98639,1.03125 v -1.70313 h 1.14062 v 1.70313 h 1.70313 v 1.14062 h -1.70313 v 1.70313 h -1.14062 v -1.70313 h -1.70313 v -1.14062 z m 4.89465,-2.78125 h 1.90625 v 6.70312 h -1.26563 v -5.5 h -1.375 z m 4.9118,5.4375 0.89063,0.45312 -1.125,1.92188 -0.60938,-0.29688 z m 4.25098,-5.4375 h 1.3125 l 1.6875,4.76562 1.70312,-4.76562 h 1.3125 l -2.40625,6.70312 h -1.23437 z m 7.39093,-0.29688 q 0.32812,0 0.5625,0.25 0.23437,0.23438 0.23437,0.5625 0,0.32813 -0.23437,0.5625 -0.21875,0.23438 -0.54688,0.23438 -0.32812,0 -0.5625,-0.23438 -0.23437,-0.23437 -0.23437,-0.57812 0,-0.32813 0.21875,-0.5625 0.23437,-0.23438 0.5625,-0.23438 z m -0.625,2.04688 h 1.25 v 4.95312 h -1.25 z m 3.98639,1.03125 v -1.70313 h 1.14062 v 1.70313 h 1.70313 v 1.14062 h -1.70313 v 1.70313 h -1.14062 v -1.70313 h -1.70313 v -1.14062 z m 4.89465,-2.78125 h 1.90625 v 6.70312 h -1.26562 v -5.5 h -1.375 z m 5.50556,8.64062 h -1.57813 q 0.8125,-0.90625 1.20313,-1.96875 0.40625,-1.07812 0.40625,-2.45312 0,-1.5 -0.4375,-2.625 -0.34375,-0.85938 -1.17188,-1.89063 h 1.57813 q 0.73437,1.15625 1.01562,2.17188 0.29688,1 0.29688,2.375 0,1.34375 -0.3125,2.34375 -0.29688,1 -1,2.04687 z"
       fill-rule="nonzero"
       id="path20" />
    <path
       fill="#4ea5b7"
       d="m 657.96356,376.57233 v 0 c 0,-3.85593 3.12585,-6.98178 6.98181,-6.98178 h 87.35925 c 1.85169,0 3.62756,0.73559 4.93689,2.04492 1.30933,1.30933 2.04492,3.08518 2.04492,4.93686 v 27.92621 c 0,3.85592 -3.12585,6.98178 -6.98181,6.98178 h -87.35925 c -3.85596,0 -6.98181,-3.12586 -6.98181,-6.98178 z"
       fill-rule="evenodd"
       id="path21" />
    <path
       stroke="#000000"
       stroke-width="1"
       stroke-linejoin="round"
       stroke-linecap="butt"
       d="m 657.96356,376.57233 v 0 c 0,-3.85593 3.12585,-6.98178 6.98181,-6.98178 h 87.35925 c 1.85169,0 3.62756,0.73559 4.93689,2.04492 1.30933,1.30933 2.04492,3.08518 2.04492,4.93686 v 27.92621 c 0,3.85592 -3.12585,6.98178 -6.98181,6.98178 h -87.35925 c -3.85596,0 -6.98181,-3.12586 -6.98181,-6.98178 z"
       fill-rule="evenodd"
       id="path22" />
    <path
       fill="#ffffff"
       d="m 669.37665,387.2923 h 1.28125 l 2.57813,6.70312 h -1.3125 l -0.53125,-1.375 h -2.73438 l -0.54687,1.375 h -1.32813 z m 0.65625,1.78125 -0.90625,2.29687 h 1.78125 z m 4.21295,-1.85938 h 1.23438 v 1.82813 h 0.73437 v 1.0625 h -0.73437 v 3.89062 h -1.23438 v -3.89062 h -0.64062 v -1.0625 h 0.64062 z m 2.79657,0 h 1.23438 v 1.82813 h 0.73437 v 1.0625 h -0.73437 v 3.89062 h -1.23438 v -3.89062 h -0.64062 v -1.0625 h 0.64062 z m 2.64038,1.82813 h 1.25 v 0.5 q 0.42188,-0.35938 0.76563,-0.48438 0.34375,-0.14062 0.70312,-0.14062 0.73438,0 1.25,0.51562 0.4375,0.4375 0.4375,1.28125 v 3.28125 h -1.23437 v -2.17187 q 0,-0.89063 -0.0781,-1.17188 -0.0781,-0.29687 -0.28125,-0.45312 -0.20312,-0.15625 -0.48437,-0.15625 -0.39063,0 -0.65625,0.26562 -0.26563,0.25 -0.375,0.6875 -0.0469,0.23438 -0.0469,1.01563 v 1.98437 h -1.25 z m 6.70716,-2.04688 h 1.57812 q -0.8125,0.92188 -1.21875,2 -0.39062,1.0625 -0.39062,2.4375 0,1.48438 0.4375,2.60938 0.34375,0.875 1.17187,1.89062 h -1.57812 q -0.73438,-1.15625 -1.03125,-2.15625 -0.28125,-1.01562 -0.28125,-2.375 0,-1.34375 0.29687,-2.34375 0.3125,-1.01562 1.01563,-2.0625 z m 8.32489,6.01563 1.15625,1.51562 h -1.5 l -0.59375,-0.76562 q -0.73438,0.40625 -1.64063,0.40625 -1.5,0 -2.5,-1.03125 -1,-1.04688 -1,-2.5 0,-0.95313 0.45313,-1.75 0.46875,-0.8125 1.28125,-1.28125 0.82812,-0.48438 1.75,-0.48438 1.4375,0 2.45312,1.03125 1.01563,1.03125 1.01563,2.51563 0,1.35937 -0.875,2.34375 z m -0.79688,-1.03125 q 0.40625,-0.59375 0.40625,-1.32813 0,-0.95312 -0.64062,-1.60937 -0.64063,-0.67188 -1.5625,-0.67188 -0.9375,0 -1.57813,0.65625 -0.625,0.64063 -0.625,1.64063 0,1.10937 0.79688,1.75 0.625,0.51562 1.42187,0.51562 0.45313,0 0.85938,-0.1875 l -1.20313,-1.53125 h 1.51563 z m 3.22479,-4.98438 q 0.32813,0 0.5625,0.25 0.23438,0.23438 0.23438,0.5625 0,0.32813 -0.23438,0.5625 -0.21875,0.23438 -0.54687,0.23438 -0.32813,0 -0.5625,-0.23438 -0.23438,-0.23437 -0.23438,-0.57812 0,-0.32813 0.21875,-0.5625 0.23438,-0.23438 0.5625,-0.23438 z m -0.625,2.04688 h 1.25 v 4.95312 h -1.25 z m 2.97077,3.6875 0.89062,0.45312 -1.125,1.92188 -0.60937,-0.29688 z m 4.78222,-5.4375 h 1.28125 v 2.3125 l 1.8125,-2.3125 h 1.54688 l -2.34375,2.98437 2.5625,3.71875 h -1.51563 l -2.0625,-2.96875 v 2.96875 h -1.28125 z m 6.11267,-0.29688 q 0.32813,0 0.5625,0.25 0.23438,0.23438 0.23438,0.5625 0,0.32813 -0.23438,0.5625 -0.21875,0.23438 -0.54687,0.23438 -0.32813,0 -0.5625,-0.23438 -0.23438,-0.23437 -0.23438,-0.57812 0,-0.32813 0.21875,-0.5625 0.23438,-0.23438 0.5625,-0.23438 z m -0.625,2.04688 h 1.25 v 4.95312 h -1.25 z m 3.98639,1.03125 v -1.70313 h 1.14063 v 1.70313 h 1.70312 v 1.14062 h -1.70312 v 1.70313 h -1.14063 v -1.70313 h -1.70312 v -1.14062 z m 4.98841,-0.625 h -1.25 q 0.0625,-1.07813 0.6875,-1.70313 0.625,-0.625 1.625,-0.625 0.60937,0 1.07812,0.26563 0.46875,0.25 0.73438,0.73437 0.28125,0.48438 0.28125,1 0,0.59375 -0.34375,1.28125 -0.32813,0.6875 -1.23438,1.625 l -0.75,0.79688 h 2.39063 v 1.17187 h -4.64063 v -0.60937 l 2.0625,-2.10938 q 0.76563,-0.76562 1,-1.21875 0.25,-0.46875 0.25,-0.84375 0,-0.39062 -0.26562,-0.64062 -0.25,-0.25 -0.65625,-0.25 -0.40625,0 -0.6875,0.3125 -0.26563,0.29687 -0.28125,0.8125 z m 4.81805,3.28125 0.89063,0.45312 -1.125,1.92188 -0.60938,-0.29688 z m 4.25104,-5.4375 h 1.3125 l 1.6875,4.76562 1.70312,-4.76562 h 1.3125 l -2.40625,6.70312 h -1.23437 z m 7.39087,-0.29688 q 0.32812,0 0.5625,0.25 0.23437,0.23438 0.23437,0.5625 0,0.32813 -0.23437,0.5625 -0.21875,0.23438 -0.54688,0.23438 -0.32812,0 -0.5625,-0.23438 -0.23437,-0.23437 -0.23437,-0.57812 0,-0.32813 0.21875,-0.5625 0.23437,-0.23438 0.5625,-0.23438 z m -0.625,2.04688 h 1.25 v 4.95312 h -1.25 z m 3.98639,1.03125 v -1.70313 h 1.14062 v 1.70313 h 1.70313 v 1.14062 h -1.70313 v 1.70313 h -1.14062 v -1.70313 h -1.70313 v -1.14062 z m 4.9884,-0.625 h -1.25 q 0.0625,-1.07813 0.6875,-1.70313 0.625,-0.625 1.625,-0.625 0.60938,0 1.07813,0.26563 0.46875,0.25 0.73437,0.73437 0.28125,0.48438 0.28125,1 0,0.59375 -0.34375,1.28125 -0.32812,0.6875 -1.23437,1.625 l -0.75,0.79688 h 2.39062 v 1.17187 h -4.64062 v -0.60937 l 2.0625,-2.10938 q 0.76562,-0.76562 1,-1.21875 0.25,-0.46875 0.25,-0.84375 0,-0.39062 -0.26563,-0.64062 -0.25,-0.25 -0.65625,-0.25 -0.40625,0 -0.6875,0.3125 -0.26562,0.29687 -0.28125,0.8125 z m 5.4118,6.48437 h -1.57812 q 0.8125,-0.90625 1.20312,-1.96875 0.40625,-1.07812 0.40625,-2.45312 0,-1.5 -0.4375,-2.625 -0.34375,-0.85938 -1.17187,-1.89063 h 1.57812 q 0.73438,1.15625 1.01563,2.17188 0.29687,1 0.29687,2.375 0,1.34375 -0.3125,2.34375 -0.29687,1 -1,2.04687 z"
       fill-rule="nonzero"
       id="path23" />
    <path
       fill="#e889ab"
       d="m 820.2756,385.0664 v 0 c 0,-2.0816 1.6875,-3.7691 3.7691,-3.7691 h 112.3988 c 0.99964,0 1.95832,0.39712 2.66517,1.10394 0.70684,0.70685 1.10394,1.66553 1.10394,2.66516 v 15.07599 c 0,2.0816 -1.6875,3.7691 -3.76911,3.7691 H 824.0447 v 0 c -2.0816,0 -3.7691,-1.6875 -3.7691,-3.7691 z"
       fill-rule="evenodd"
       id="path24" />
    <path
       stroke="#000000"
       stroke-width="1"
       stroke-linejoin="round"
       stroke-linecap="butt"
       d="m 820.2756,385.0664 v 0 c 0,-2.0816 1.6875,-3.7691 3.7691,-3.7691 h 112.3988 c 0.99964,0 1.95832,0.39712 2.66517,1.10394 0.70684,0.70685 1.10394,1.66553 1.10394,2.66516 v 15.07599 c 0,2.0816 -1.6875,3.7691 -3.76911,3.7691 H 824.0447 v 0 c -2.0816,0 -3.7691,-1.6875 -3.7691,-3.7691 z"
       fill-rule="evenodd"
       id="path25" />
    <path
       fill="#ffffff"
       d="m 842.00336,388.68814 h 1.48438 l 2.9375,7.65625 h -1.51563 l -0.59375,-1.57813 h -3.125 l -0.625,1.57813 h -1.51562 z m 0.75,2.03125 -1.01562,2.625 h 2.03125 z m 4.49231,-2.21875 h 1.42187 v 7.84375 h -1.42187 z m 2.55475,0 h 1.42187 v 7.84375 h -1.42187 z m 9.92981,1.4375 -1.01563,1.01562 q -0.98437,-1.03125 -2.28125,-1.03125 -1.125,0 -1.89062,0.75 -0.75,0.75 -0.75,1.82813 0,1.10937 0.78125,1.875 0.79687,0.76562 1.95312,0.76562 0.75,0 1.26563,-0.3125 0.53125,-0.32812 0.84375,-1 h -2.21875 v -1.35937 h 3.84375 l 0.0156,0.3125 q 0,1 -0.51562,1.90625 -0.51563,0.90625 -1.34375,1.375 -0.82813,0.46875 -1.95313,0.46875 -1.1875,0 -2.125,-0.51563 -0.92187,-0.51562 -1.46875,-1.46875 -0.54687,-0.95312 -0.54687,-2.0625 0,-1.53125 1,-2.65625 1.1875,-1.32812 3.10937,-1.32812 1,0 1.85938,0.35937 0.73437,0.3125 1.4375,1.07813 z m 5.91833,0.75 h 1.40625 v 5.65625 h -1.40625 v -0.59375 q -0.42187,0.39062 -0.84375,0.5625 -0.42187,0.17187 -0.90625,0.17187 -1.09375,0 -1.90625,-0.84375 -0.79687,-0.85937 -0.79687,-2.10937 0,-1.3125 0.78125,-2.15625 0.78125,-0.84375 1.875,-0.84375 0.51562,0 0.95312,0.20312 0.45313,0.1875 0.84375,0.57813 z m -1.5,1.15625 q -0.65625,0 -1.09375,0.46875 -0.4375,0.46875 -0.4375,1.20312 0,0.71875 0.4375,1.20313 0.45313,0.46875 1.09375,0.46875 0.67188,0 1.10938,-0.46875 0.45312,-0.46875 0.45312,-1.21875 0,-0.73438 -0.45312,-1.1875 -0.4375,-0.46875 -1.10938,-0.46875 z m 4.51917,-3.25 h 1.42187 v 2.09375 h 0.82813 v 1.21875 h -0.82813 v 4.4375 h -1.42187 v -4.4375 h -0.73438 v -1.21875 h 0.73438 z m 3.02295,-0.0937 h 1.42187 v 2.75 q 0.40625,-0.35938 0.82813,-0.53125 0.42187,-0.1875 0.85937,-0.1875 0.84375,0 1.42188,0.59375 0.48437,0.5 0.48437,1.48437 v 3.73438 h -1.39062 v -2.48438 q 0,-0.98437 -0.0937,-1.32812 -0.0937,-0.34375 -0.32813,-0.51563 -0.21875,-0.17187 -0.5625,-0.17187 -0.42187,0 -0.73437,0.28125 -0.3125,0.28125 -0.42188,0.78125 -0.0625,0.25 -0.0625,1.15625 v 2.28125 h -1.42187 z m 12.06665,5.42187 h -4.5625 q 0.0937,0.60938 0.51562,0.96875 0.4375,0.34375 1.10938,0.34375 0.79687,0 1.35937,-0.54687 l 1.20313,0.5625 q -0.45313,0.625 -1.07813,0.9375 -0.625,0.29687 -1.48437,0.29687 -1.32813,0 -2.17188,-0.82812 -0.82812,-0.84375 -0.82812,-2.10938 0,-1.29687 0.82812,-2.15625 0.84375,-0.85937 2.09375,-0.85937 1.34375,0 2.17188,0.85937 0.84375,0.85938 0.84375,2.26563 z m -1.42188,-1.10937 q -0.14062,-0.48438 -0.5625,-0.78125 -0.40625,-0.29688 -0.95312,-0.29688 -0.59375,0 -1.04688,0.34375 -0.28125,0.20313 -0.51562,0.73438 z m 2.24335,-2.125 h 1.21875 v 0.70312 q 0.1875,-0.42187 0.51562,-0.64062 0.32813,-0.21875 0.71875,-0.21875 0.28125,0 0.57813,0.15625 l -0.4375,1.21875 q -0.25,-0.125 -0.40625,-0.125 -0.32813,0 -0.5625,0.40625 -0.21875,0.40625 -0.21875,1.59375 v 0.26562 2.29688 h -1.40625 z m 9.20209,-2 h 1.48437 l 2.9375,7.65625 h -1.51562 l -0.59375,-1.57813 h -3.125 l -0.625,1.57813 h -1.51563 z m 0.75,2.03125 -1.01563,2.625 h 2.03125 z m 10.19537,1.10937 -1.1875,0.65625 q -0.32812,-0.35937 -0.65625,-0.48437 -0.32812,-0.14063 -0.76562,-0.14063 -0.79688,0 -1.29688,0.48438 -0.48437,0.46875 -0.48437,1.21875 0,0.71875 0.46875,1.17187 0.48437,0.45313 1.25,0.45313 0.95312,0 1.48437,-0.64063 l 1.125,0.76563 q -0.92187,1.17187 -2.57812,1.17187 -1.48438,0 -2.34375,-0.875 -0.84375,-0.89062 -0.84375,-2.07812 0,-0.8125 0.40625,-1.5 0.42187,-0.70313 1.15625,-1.09375 0.73437,-0.40625 1.64062,-0.40625 0.84375,0 1.51563,0.34375 0.67187,0.32812 1.10937,0.95312 z m 1.44647,-3.23437 h 1.42188 v 2.09375 h 0.82812 v 1.21875 h -0.82812 v 4.4375 h -1.42188 v -4.4375 h -0.73437 v -1.21875 h 0.73437 z m 3.58545,-0.25 q 0.375,0 0.64063,0.28125 0.26562,0.26562 0.26562,0.65625 0,0.375 -0.26562,0.64062 -0.26563,0.26563 -0.64063,0.26563 -0.375,0 -0.64062,-0.26563 -0.26563,-0.28125 -0.26563,-0.67187 0,-0.375 0.26563,-0.64063 0.26562,-0.26562 0.64062,-0.26562 z m -0.71875,2.34375 h 1.42188 v 5.65625 h -1.42188 z m 2.10163,0 h 1.45312 l 1.42188,3.32812 1.42187,-3.32812 h 1.45313 l -2.42188,5.65625 h -0.90625 z m 10.04626,0.78125 -0.89062,0.89062 q -0.53125,-0.53125 -0.96875,-0.53125 -0.23438,0 -0.375,0.10938 -0.125,0.0937 -0.125,0.23437 0,0.125 0.0781,0.21875 0.0937,0.0937 0.42188,0.26563 l 0.51562,0.25 q 0.82813,0.40625 1.125,0.82812 0.3125,0.42188 0.3125,0.98438 0,0.76562 -0.5625,1.26562 -0.54687,0.5 -1.46875,0.5 -1.23437,0 -1.98437,-0.96875 l 0.875,-0.95312 q 0.25,0.29687 0.57812,0.48437 0.34375,0.17188 0.60938,0.17188 0.28125,0 0.45312,-0.125 0.17188,-0.14063 0.17188,-0.32813 0,-0.32812 -0.625,-0.64062 l -0.46875,-0.23438 q -1.375,-0.6875 -1.375,-1.73437 0,-0.67188 0.51562,-1.14063 0.51563,-0.48437 1.32813,-0.48437 0.54687,0 1.03125,0.25 0.48437,0.23437 0.82812,0.6875 z"
       fill-rule="nonzero"
       id="path26" />
  </g>
</svg>
