<?xml version="1.0" encoding="UTF-8" standalone="no"?>
<svg
   version="1.1"
   viewBox="0 0 800.93311 146.36089"
   fill="none"
   stroke="none"
   stroke-linecap="square"
   stroke-miterlimit="10"
   id="svg32"
   sodipodi:docname="cp_overlap_all2all.svg"
   width="800.93311"
   height="146.36089"
   xmlns:inkscape="http://www.inkscape.org/namespaces/inkscape"
   xmlns:sodipodi="http://sodipodi.sourceforge.net/DTD/sodipodi-0.dtd"
   xmlns="http://www.w3.org/2000/svg"
   xmlns:svg="http://www.w3.org/2000/svg">
  <defs
     id="defs32" />
  <sodipodi:namedview
     id="namedview32"
     pagecolor="#ffffff"
     bordercolor="#000000"
     borderopacity="0.25"
     inkscape:showpageshadow="2"
     inkscape:pageopacity="0.0"
     inkscape:pagecheckerboard="0"
     inkscape:deskcolor="#d1d1d1"
     fit-margin-top="20"
     fit-margin-left="20"
     fit-margin-right="20"
     fit-margin-bottom="20" />
  <clipPath
     id="g32fab39dd2f_0_37.0">
    <path
       d="M 0,0 H 960 V 540 H 0 Z"
       clip-rule="nonzero"
       id="path1" />
  </clipPath>
  <g
     clip-path="url(#g32fab39dd2f_0_37.0)"
     id="g32"
     transform="translate(-127.78346,-39.367455)">
    <path
       fill="#000000"
       fill-opacity="0"
       d="M 425.20602,39.367455 H 591.31628 V 81.383202 H 425.20602 Z"
       fill-rule="evenodd"
       id="path3" />
    <path
       fill="#000000"
       d="m 473.20572,52.881203 h 2.59375 l 5.15625,13.40625 h -2.65625 l -1.04688,-2.765625 h -5.46875 l -1.09375,2.765625 h -2.64062 z m 1.3125,3.5625 -1.78125,4.59375 h 3.5625 z m 8.44153,-3.71875 h 2.46875 v 3.65625 h 1.48437 v 2.140625 h -1.48437 v 7.765625 h -2.46875 v -7.765625 h -1.28125 v -2.140625 h 1.28125 z m 5.59323,0 h 2.46875 v 3.65625 h 1.48437 v 2.140625 h -1.48437 v 7.765625 h -2.46875 v -7.765625 h -1.28125 v -2.140625 h 1.28125 z m 15.21823,9.328125 h -7.98438 q 0.17188,1.0625 0.92188,1.6875 0.75,0.609375 1.92187,0.609375 1.39063,0 2.39063,-0.96875 l 2.09375,0.984375 q -0.78125,1.109375 -1.875,1.640625 -1.09375,0.53125 -2.59375,0.53125 -2.34375,0 -3.8125,-1.46875 -1.45313,-1.46875 -1.45313,-3.6875 0,-2.265625 1.45313,-3.765625 1.46875,-1.5 3.67187,-1.5 2.34375,0 3.8125,1.5 1.46875,1.5 1.46875,3.96875 z m -2.5,-1.953125 q -0.25,-0.828125 -0.96875,-1.34375 -0.71875,-0.53125 -1.67188,-0.53125 -1.04687,0 -1.82812,0.578125 -0.5,0.375 -0.90625,1.296875 z m 4.50504,-3.71875 h 2.48437 v 1 q 0.84375,-0.703125 1.53125,-0.984375 0.6875,-0.28125 1.40625,-0.28125 1.48438,0 2.51563,1.03125 0.85937,0.875 0.85937,2.59375 v 6.546875 H 512.12 v -4.34375 q 0,-1.78125 -0.17188,-2.359375 -0.15625,-0.578125 -0.54687,-0.875 -0.39063,-0.3125 -0.98438,-0.3125 -0.75,0 -1.29687,0.5 -0.54688,0.5 -0.75,1.390625 -0.10938,0.46875 -0.10938,2.015625 v 3.984375 h -2.48437 z m 11.50805,-3.65625 h 2.46875 v 3.65625 h 1.48438 v 2.140625 h -1.48438 v 7.765625 h -2.46875 v -7.765625 h -1.28125 v -2.140625 h 1.28125 z m 6.26514,-0.4375 q 0.65625,0 1.125,0.484375 0.46875,0.46875 0.46875,1.140625 0,0.671875 -0.46875,1.140625 -0.46875,0.46875 -1.10938,0.46875 -0.67187,0 -1.14062,-0.46875 -0.46875,-0.484375 -0.46875,-1.171875 0,-0.65625 0.46875,-1.125 0.46875,-0.46875 1.125,-0.46875 z m -1.25,4.09375 h 2.5 v 9.90625 h -2.5 z m 9.39465,-0.265625 q 1.40625,0 2.64063,0.703125 1.23437,0.703125 1.92187,1.90625 0.70313,1.203125 0.70313,2.59375 0,1.40625 -0.70313,2.625 -0.6875,1.21875 -1.89062,1.90625 -1.20313,0.6875 -2.65625,0.6875 -2.125,0 -3.64063,-1.515625 -1.5,-1.515625 -1.5,-3.6875 0,-2.3125 1.70313,-3.859375 1.48437,-1.359375 3.42187,-1.359375 z m 0.0469,2.34375 q -1.15625,0 -1.9375,0.8125 -0.76563,0.796875 -0.76563,2.0625 0,1.296875 0.75,2.09375 0.76563,0.796875 1.9375,0.796875 1.17188,0 1.9375,-0.8125 0.78125,-0.8125 0.78125,-2.078125 0,-1.28125 -0.76562,-2.078125 -0.76563,-0.796875 -1.9375,-0.796875 z m 7.23938,-2.078125 h 2.48437 v 1 q 0.84375,-0.703125 1.53125,-0.984375 0.6875,-0.28125 1.40625,-0.28125 1.48438,0 2.51563,1.03125 0.85937,0.875 0.85937,2.59375 v 6.546875 h -2.45312 v -4.34375 q 0,-1.78125 -0.17188,-2.359375 -0.15625,-0.578125 -0.54687,-0.875 -0.39063,-0.3125 -0.98438,-0.3125 -0.75,0 -1.29687,0.5 -0.54688,0.5 -0.75,1.390625 -0.10938,0.46875 -0.10938,2.015625 v 3.984375 h -2.48437 z"
       fill-rule="nonzero"
       id="path4" />
    <path
       fill="#000000"
       fill-opacity="0"
       d="M 127.78346,112.41995 H 293.8937 v 19.40157 H 127.78346 Z"
       fill-rule="evenodd"
       id="path5" />
    <path
       fill="#000000"
       d="m 148.70534,118.15494 -1.53125,1.53125 q -1.46875,-1.54687 -3.40625,-1.54687 -1.70313,0 -2.84375,1.125 -1.14063,1.125 -1.14063,2.73437 0,1.65625 1.1875,2.8125 1.1875,1.15625 2.92188,1.15625 1.14062,0 1.90625,-0.46875 0.78125,-0.48437 1.26562,-1.5 h -3.32812 v -2.04687 h 5.78125 l 0.0156,0.48437 q 0,1.5 -0.78125,2.85938 -0.78125,1.34375 -2.03125,2.0625 -1.23437,0.71876 -2.90625,0.71876 -1.79687,0 -3.20312,-0.78126 -1.39063,-0.78125 -2.21875,-2.21875 -0.8125,-1.4375 -0.8125,-3.10938 0,-2.28125 1.51562,-3.96875 1.78125,-2 4.65625,-2 1.5,0 2.79688,0.54688 1.10937,0.46875 2.15625,1.60937 z m 2.82812,-1.875 h 2.3125 q 1.89063,0 2.71875,0.35938 0.82813,0.34375 1.3125,1.125 0.48438,0.76562 0.48438,1.85937 0,1.20313 -0.64063,2 -0.625,0.79688 -1.70312,1.10938 -0.625,0.17187 -2.29688,0.17187 v 4.875 h -2.1875 z m 2.1875,4.5 h 0.6875 q 0.82813,0 1.14063,-0.10937 0.32812,-0.125 0.5,-0.39063 0.1875,-0.28125 0.1875,-0.65625 0,-0.67187 -0.51563,-0.96875 -0.375,-0.23437 -1.39062,-0.23437 h -0.60938 z m 6.69532,-4.5 h 2.20312 v 7.4375 q 0,0.96875 0.15625,1.375 0.17188,0.39063 0.5625,0.625 0.39063,0.23438 0.9375,0.23438 0.57813,0 0.98438,-0.26563 0.42187,-0.26562 0.57812,-0.67187 0.17188,-0.40625 0.17188,-1.5625 v -7.17188 h 2.1875 v 6.85938 q 0,1.73437 -0.20313,2.40625 -0.1875,0.67187 -0.73437,1.29687 -0.54688,0.625 -1.26563,0.9375 -0.71875,0.29689 -1.67187,0.29689 -1.25,0 -2.1875,-0.57813 -0.92188,-0.57813 -1.32813,-1.4375 -0.39062,-0.875 -0.39062,-2.92188 z m 25.35937,2.03125 -1.53125,1.45313 q -1.5625,-1.64063 -3.51562,-1.64063 -1.64063,0 -2.78125,1.125 -1.125,1.125 -1.125,2.76563 0,1.15625 0.5,2.04687 0.5,0.89063 1.40625,1.40625 0.92187,0.5 2.04687,0.5 0.95313,0 1.73438,-0.35937 0.79687,-0.35938 1.73437,-1.29688 l 1.48438,1.54688 q -1.26563,1.25 -2.40625,1.73437 -1.125,0.48439 -2.57813,0.48439 -2.6875,0 -4.39062,-1.70313 -1.70313,-1.70313 -1.70313,-4.35938 0,-1.71875 0.76563,-3.04687 0.78125,-1.34375 2.23437,-2.15625 1.45313,-0.8125 3.125,-0.8125 1.42188,0 2.73438,0.60937 1.3125,0.59375 2.26562,1.70312 z m 5.67969,0.75 q 1.20312,0 2.25,0.60938 1.0625,0.59375 1.65625,1.625 0.59375,1.03125 0.59375,2.21875 0,1.20312 -0.59375,2.25 -0.59375,1.04687 -1.625,1.64062 -1.03125,0.59375 -2.28125,0.59375 -1.82813,0 -3.125,-1.29687 -1.28125,-1.3125 -1.28125,-3.17188 0,-1.98437 1.45312,-3.3125 1.28125,-1.15625 2.95313,-1.15625 z m 0.0312,2 q -1,0 -1.65625,0.70313 -0.65625,0.6875 -0.65625,1.76562 0,1.10938 0.64062,1.79688 0.65625,0.6875 1.65625,0.6875 1,0 1.65625,-0.6875 0.67188,-0.70313 0.67188,-1.79688 0,-1.09375 -0.65625,-1.78125 -0.64063,-0.6875 -1.65625,-0.6875 z m 6.19531,-1.78125 h 2.14063 v 0.96875 q 0.54687,-0.59375 1.21875,-0.89062 0.67187,-0.29688 1.45312,-0.29688 0.79688,0 1.4375,0.39063 0.64063,0.39062 1.03125,1.14062 0.51563,-0.75 1.25,-1.14062 0.73438,-0.39063 1.60938,-0.39063 0.90625,0 1.59375,0.42188 0.6875,0.42187 0.98437,1.10937 0.3125,0.67188 0.3125,2.20313 v 4.98437 h -2.15625 v -4.3125 q 0,-1.45312 -0.35937,-1.95312 -0.35938,-0.51563 -1.07813,-0.51563 -0.54687,0 -0.98437,0.3125 -0.42188,0.3125 -0.64063,0.85938 -0.20312,0.54687 -0.20312,1.76562 v 3.84375 h -2.15625 v -4.125 q 0,-1.14062 -0.17188,-1.64062 -0.15625,-0.51563 -0.5,-0.76563 -0.32812,-0.25 -0.8125,-0.25 -0.53125,0 -0.96875,0.3125 -0.42187,0.3125 -0.64062,0.89063 -0.21875,0.5625 -0.21875,1.79687 v 3.78125 h -2.14063 z m 17.17969,0 v 0.9375 q 0.57813,-0.57812 1.25,-0.85937 0.67188,-0.29688 1.4375,-0.29688 1.65625,0 2.8125,1.26563 1.17188,1.25 1.17188,3.21875 0,1.89062 -1.20313,3.17187 -1.20312,1.28125 -2.84375,1.28125 -0.73437,0 -1.375,-0.26562 -0.625,-0.26563 -1.25,-0.85938 v 4.01564 h -2.125 v -11.60939 z m 2.23438,1.75 q -1,0 -1.67188,0.6875 -0.65625,0.6875 -0.65625,1.79688 0,1.125 0.65625,1.82812 0.67188,0.70313 1.67188,0.70313 0.98437,0 1.64062,-0.70313 0.67188,-0.71875 0.67188,-1.82812 0,-1.09375 -0.65625,-1.78125 -0.65625,-0.70313 -1.65625,-0.70313 z m 6.20312,-1.75 h 2.15625 v 4.09375 q 0,1.1875 0.15625,1.65625 0.17188,0.46875 0.53125,0.73438 0.35938,0.25 0.89063,0.25 0.53125,0 0.90625,-0.25 0.375,-0.26563 0.54687,-0.75 0.14063,-0.375 0.14063,-1.57813 v -4.15625 h 2.14062 v 3.59375 q 0,2.23438 -0.35937,3.04688 -0.42188,1 -1.26563,1.54687 -0.82812,0.53125 -2.125,0.53125 -1.39062,0 -2.26562,-0.625 -0.85938,-0.625 -1.20313,-1.75 -0.25,-0.76562 -0.25,-2.8125 z m 9.86719,-3.14062 h 2.125 v 3.14062 h 1.26562 v 1.82813 h -1.26562 v 6.67187 h -2.125 v -6.67187 h -1.09375 v -1.82813 h 1.09375 z m 10.8125,3.14062 h 2.125 v 8.5 h -2.125 v -0.90625 q -0.625,0.59375 -1.25,0.85938 -0.625,0.26562 -1.35938,0.26562 -1.65625,0 -2.85937,-1.28125 -1.20313,-1.28125 -1.20313,-3.17187 0,-1.96875 1.15625,-3.21875 1.17188,-1.26563 2.84375,-1.26563 0.76563,0 1.4375,0.29688 0.67188,0.28125 1.23438,0.85937 z m -2.23438,1.75 q -1,0 -1.65625,0.70313 -0.65625,0.6875 -0.65625,1.78125 0,1.10937 0.67188,1.82812 0.67187,0.70313 1.64062,0.70313 1.01563,0 1.67188,-0.70313 0.67187,-0.70312 0.67187,-1.82812 0,-1.10938 -0.67187,-1.79688 -0.65625,-0.6875 -1.67188,-0.6875 z m 6.78125,-4.89062 h 2.125 v 3.14062 h 1.26563 v 1.82813 h -1.26563 v 6.67187 h -2.125 v -6.67187 h -1.09375 v -1.82813 h 1.09375 z m 5.375,-0.35938 q 0.5625,0 0.95313,0.40625 0.40625,0.40625 0.40625,0.98438 0,0.5625 -0.40625,0.96875 -0.39063,0.40625 -0.9375,0.40625 -0.57813,0 -0.98438,-0.40625 -0.39062,-0.42188 -0.39062,-1 0,-0.5625 0.39062,-0.95313 0.40625,-0.40625 0.96875,-0.40625 z m -1.07812,3.5 h 2.14062 v 8.5 h -2.14062 z m 8.07033,-0.21875 q 1.20312,0 2.25,0.60938 1.0625,0.59375 1.65625,1.625 0.59375,1.03125 0.59375,2.21875 0,1.20312 -0.59375,2.25 -0.59375,1.04687 -1.625,1.64062 -1.03125,0.59375 -2.28125,0.59375 -1.82813,0 -3.125,-1.29687 -1.28125,-1.3125 -1.28125,-3.17188 0,-1.98437 1.45312,-3.3125 1.28125,-1.15625 2.95313,-1.15625 z m 0.0312,2 q -1,0 -1.65625,0.70313 -0.65625,0.6875 -0.65625,1.76562 0,1.10938 0.64062,1.79688 0.65625,0.6875 1.65625,0.6875 1,0 1.65625,-0.6875 0.67188,-0.70313 0.67188,-1.79688 0,-1.09375 -0.65625,-1.78125 -0.64063,-0.6875 -1.65625,-0.6875 z m 6.21093,-1.78125 h 2.125 v 0.85938 q 0.73438,-0.60938 1.3125,-0.84375 0.59375,-0.23438 1.21875,-0.23438 1.26563,0 2.14063,0.875 0.75,0.75 0.75,2.21875 v 5.625 h -2.10938 v -3.73437 q 0,-1.51563 -0.14062,-2.01563 -0.14063,-0.5 -0.48438,-0.76562 -0.32812,-0.26563 -0.82812,-0.26563 -0.65625,0 -1.125,0.4375 -0.45313,0.4375 -0.64063,1.20313 -0.0937,0.39062 -0.0937,1.71875 v 3.42187 h -2.125 z m 10.77344,-0.21875 q 0.5,0 0.85938,0.35938 0.35937,0.35937 0.35937,0.85937 0,0.5 -0.35937,0.85938 -0.35938,0.35937 -0.85938,0.35937 -0.51562,0 -0.875,-0.34375 -0.35937,-0.35937 -0.35937,-0.875 0,-0.5 0.35937,-0.85937 0.35938,-0.35938 0.875,-0.35938 z m 0,6.48438 q 0.5,0 0.85938,0.35937 0.35937,0.35938 0.35937,0.85938 0,0.51562 -0.35937,0.875 -0.35938,0.35937 -0.85938,0.35937 -0.51562,0 -0.875,-0.35937 -0.35937,-0.35938 -0.35937,-0.875 0,-0.5 0.35937,-0.85938 0.35938,-0.35937 0.875,-0.35937 z"
       fill-rule="nonzero"
       id="path6" />
    <path
       fill="#000000"
       fill-opacity="0"
       d="m 127.78346,154.30971 h 186.96062 v 19.40158 H 127.78346 Z"
       fill-rule="evenodd"
       id="path7" />
    <path
       fill="#000000"
       d="m 148.70534,160.04471 -1.53125,1.53125 q -1.46875,-1.54688 -3.40625,-1.54688 -1.70313,0 -2.84375,1.125 -1.14063,1.125 -1.14063,2.73438 0,1.65625 1.1875,2.8125 1.1875,1.15625 2.92188,1.15625 1.14062,0 1.90625,-0.46875 0.78125,-0.48438 1.26562,-1.5 h -3.32812 v -2.04688 h 5.78125 l 0.0156,0.48438 q 0,1.5 -0.78125,2.85937 -0.78125,1.34375 -2.03125,2.0625 -1.23437,0.71875 -2.90625,0.71875 -1.79687,0 -3.20312,-0.78125 -1.39063,-0.78125 -2.21875,-2.21875 -0.8125,-1.4375 -0.8125,-3.10937 0,-2.28125 1.51562,-3.96875 1.78125,-2 4.65625,-2 1.5,0 2.79688,0.54687 1.10937,0.46875 2.15625,1.60938 z m 2.82812,-1.875 h 2.3125 q 1.89063,0 2.71875,0.35937 0.82813,0.34375 1.3125,1.125 0.48438,0.76563 0.48438,1.85938 0,1.20312 -0.64063,2 -0.625,0.79687 -1.70312,1.10937 -0.625,0.17188 -2.29688,0.17188 v 4.875 h -2.1875 z m 2.1875,4.5 h 0.6875 q 0.82813,0 1.14063,-0.10938 0.32812,-0.125 0.5,-0.39062 0.1875,-0.28125 0.1875,-0.65625 0,-0.67188 -0.51563,-0.96875 -0.375,-0.23438 -1.39062,-0.23438 h -0.60938 z m 6.69532,-4.5 h 2.20312 v 7.4375 q 0,0.96875 0.15625,1.375 0.17188,0.39062 0.5625,0.625 0.39063,0.23437 0.9375,0.23437 0.57813,0 0.98438,-0.26562 0.42187,-0.26563 0.57812,-0.67188 0.17188,-0.40625 0.17188,-1.5625 v -7.17187 h 2.1875 v 6.85937 q 0,1.73438 -0.20313,2.40625 -0.1875,0.67188 -0.73437,1.29688 -0.54688,0.625 -1.26563,0.9375 -0.71875,0.29687 -1.67187,0.29687 -1.25,0 -2.1875,-0.57812 -0.92188,-0.57813 -1.32813,-1.4375 -0.39062,-0.875 -0.39062,-2.92188 z m 25.35937,2.03125 -1.53125,1.45312 q -1.5625,-1.64062 -3.51562,-1.64062 -1.64063,0 -2.78125,1.125 -1.125,1.125 -1.125,2.76562 0,1.15625 0.5,2.04688 0.5,0.89062 1.40625,1.40625 0.92187,0.5 2.04687,0.5 0.95313,0 1.73438,-0.35938 0.79687,-0.35937 1.73437,-1.29687 l 1.48438,1.54687 q -1.26563,1.25 -2.40625,1.73438 -1.125,0.48437 -2.57813,0.48437 -2.6875,0 -4.39062,-1.70312 -1.70313,-1.70313 -1.70313,-4.35938 0,-1.71875 0.76563,-3.04687 0.78125,-1.34375 2.23437,-2.15625 1.45313,-0.8125 3.125,-0.8125 1.42188,0 2.73438,0.60937 1.3125,0.59375 2.26562,1.70313 z m 5.67969,0.75 q 1.20312,0 2.25,0.60937 1.0625,0.59375 1.65625,1.625 0.59375,1.03125 0.59375,2.21875 0,1.20313 -0.59375,2.25 -0.59375,1.04688 -1.625,1.64063 -1.03125,0.59375 -2.28125,0.59375 -1.82813,0 -3.125,-1.29688 -1.28125,-1.3125 -1.28125,-3.17187 0,-1.98438 1.45312,-3.3125 1.28125,-1.15625 2.95313,-1.15625 z m 0.0312,2 q -1,0 -1.65625,0.70312 -0.65625,0.6875 -0.65625,1.76563 0,1.10937 0.64062,1.79687 0.65625,0.6875 1.65625,0.6875 1,0 1.65625,-0.6875 0.67188,-0.70312 0.67188,-1.79687 0,-1.09375 -0.65625,-1.78125 -0.64063,-0.6875 -1.65625,-0.6875 z m 6.19531,-1.78125 h 2.14063 v 0.96875 q 0.54687,-0.59375 1.21875,-0.89063 0.67187,-0.29687 1.45312,-0.29687 0.79688,0 1.4375,0.39062 0.64063,0.39063 1.03125,1.14063 0.51563,-0.75 1.25,-1.14063 0.73438,-0.39062 1.60938,-0.39062 0.90625,0 1.59375,0.42187 0.6875,0.42188 0.98437,1.10938 0.3125,0.67187 0.3125,2.20312 v 4.98438 h -2.15625 v -4.3125 q 0,-1.45313 -0.35937,-1.95313 -0.35938,-0.51562 -1.07813,-0.51562 -0.54687,0 -0.98437,0.3125 -0.42188,0.3125 -0.64063,0.85937 -0.20312,0.54688 -0.20312,1.76563 v 3.84375 h -2.15625 v -4.125 q 0,-1.14063 -0.17188,-1.64063 -0.15625,-0.51562 -0.5,-0.76562 -0.32812,-0.25 -0.8125,-0.25 -0.53125,0 -0.96875,0.3125 -0.42187,0.3125 -0.64062,0.89062 -0.21875,0.5625 -0.21875,1.79688 v 3.78125 h -2.14063 z m 15.03906,0 h 2.14063 v 0.96875 q 0.54687,-0.59375 1.21875,-0.89063 0.67187,-0.29687 1.45312,-0.29687 0.79688,0 1.4375,0.39062 0.64063,0.39063 1.03125,1.14063 0.51563,-0.75 1.25,-1.14063 0.73438,-0.39062 1.60938,-0.39062 0.90625,0 1.59375,0.42187 0.6875,0.42188 0.98437,1.10938 0.3125,0.67187 0.3125,2.20312 v 4.98438 h -2.15625 v -4.3125 q 0,-1.45313 -0.35937,-1.95313 -0.35938,-0.51562 -1.07813,-0.51562 -0.54687,0 -0.98437,0.3125 -0.42188,0.3125 -0.64063,0.85937 -0.20312,0.54688 -0.20312,1.76563 v 3.84375 h -2.15625 v -4.125 q 0,-1.14063 -0.17188,-1.64063 -0.15625,-0.51562 -0.5,-0.76562 -0.32812,-0.25 -0.8125,-0.25 -0.53125,0 -0.96875,0.3125 -0.42187,0.3125 -0.64062,0.89062 -0.21875,0.5625 -0.21875,1.79688 v 3.78125 h -2.14063 z m 15.05469,0 h 2.15625 v 4.09375 q 0,1.1875 0.15625,1.65625 0.17188,0.46875 0.53125,0.73437 0.35938,0.25 0.89063,0.25 0.53125,0 0.90625,-0.25 0.375,-0.26562 0.54687,-0.75 0.14063,-0.375 0.14063,-1.57812 v -4.15625 h 2.14062 v 3.59375 q 0,2.23437 -0.35937,3.04687 -0.42188,1 -1.26563,1.54688 -0.82812,0.53125 -2.125,0.53125 -1.39062,0 -2.26562,-0.625 -0.85938,-0.625 -1.20313,-1.75 -0.25,-0.76563 -0.25,-2.8125 z m 9.60156,0 h 2.125 v 0.85937 q 0.73438,-0.60937 1.3125,-0.84375 0.59375,-0.23437 1.21875,-0.23437 1.26563,0 2.14063,0.875 0.75,0.75 0.75,2.21875 v 5.625 h -2.10938 v -3.73438 q 0,-1.51562 -0.14062,-2.01562 -0.14063,-0.5 -0.48438,-0.76563 -0.32812,-0.26562 -0.82812,-0.26562 -0.65625,0 -1.125,0.4375 -0.45313,0.4375 -0.64063,1.20312 -0.0937,0.39063 -0.0937,1.71875 v 3.42188 h -2.125 z m 10.44532,-3.5 q 0.5625,0 0.95312,0.40625 0.40625,0.40625 0.40625,0.98437 0,0.5625 -0.40625,0.96875 -0.39062,0.40625 -0.9375,0.40625 -0.57812,0 -0.98437,-0.40625 -0.39063,-0.42187 -0.39063,-1 0,-0.5625 0.39063,-0.95312 0.40625,-0.40625 0.96875,-0.40625 z m -1.07813,3.5 h 2.14063 v 8.5 h -2.14063 z m 12.39846,1.71875 -1.78125,0.96875 q -0.5,-0.51563 -0.98438,-0.71875 -0.48439,-0.20313 -1.14064,-0.20313 -1.20312,0 -1.9375,0.71875 -0.73437,0.70313 -0.73437,1.82813 0,1.07812 0.70312,1.76562 0.71875,0.6875 1.875,0.6875 1.42189,0 2.21877,-0.96875 l 1.6875,1.14063 q -1.375,1.78125 -3.85939,1.78125 -2.25,0 -3.51563,-1.32813 -1.26562,-1.32812 -1.26562,-3.10937 0,-1.23438 0.60937,-2.26563 0.625,-1.04687 1.71875,-1.64062 1.10938,-0.59375 2.48438,-0.59375 1.26564,0 2.26564,0.5 1.01562,0.5 1.65625,1.4375 z m 8.19531,-1.71875 h 2.125 v 8.5 h -2.125 v -0.90625 q -0.625,0.59375 -1.25,0.85937 -0.625,0.26563 -1.35938,0.26563 -1.65625,0 -2.85937,-1.28125 -1.20313,-1.28125 -1.20313,-3.17188 0,-1.96875 1.15625,-3.21875 1.17188,-1.26562 2.84375,-1.26562 0.76563,0 1.4375,0.29687 0.67188,0.28125 1.23438,0.85938 z m -2.23438,1.75 q -1,0 -1.65625,0.70312 -0.65625,0.6875 -0.65625,1.78125 0,1.10938 0.67188,1.82813 0.67187,0.70312 1.64062,0.70312 1.01563,0 1.67188,-0.70312 0.67187,-0.70313 0.67187,-1.82813 0,-1.10937 -0.67187,-1.79687 -0.65625,-0.6875 -1.67188,-0.6875 z m 6.78125,-4.89063 h 2.125 v 3.14063 h 1.26563 v 1.82812 h -1.26563 v 6.67188 h -2.125 v -6.67188 h -1.09375 v -1.82812 h 1.09375 z m 5.375,-0.35937 q 0.5625,0 0.95313,0.40625 0.40625,0.40625 0.40625,0.98437 0,0.5625 -0.40625,0.96875 -0.39063,0.40625 -0.9375,0.40625 -0.57813,0 -0.98438,-0.40625 -0.39062,-0.42187 -0.39062,-1 0,-0.5625 0.39062,-0.95312 0.40625,-0.40625 0.96875,-0.40625 z m -1.07812,3.5 h 2.14062 v 8.5 h -2.14062 z m 8.07031,-0.21875 q 1.20313,0 2.25,0.60937 1.0625,0.59375 1.65625,1.625 0.59375,1.03125 0.59375,2.21875 0,1.20313 -0.59375,2.25 -0.59375,1.04688 -1.625,1.64063 -1.03125,0.59375 -2.28125,0.59375 -1.82812,0 -3.125,-1.29688 -1.28125,-1.3125 -1.28125,-3.17187 0,-1.98438 1.45313,-3.3125 1.28125,-1.15625 2.95312,-1.15625 z m 0.0312,2 q -1,0 -1.65625,0.70312 -0.65625,0.6875 -0.65625,1.76563 0,1.10937 0.64063,1.79687 0.65625,0.6875 1.65625,0.6875 1,0 1.65625,-0.6875 0.67187,-0.70312 0.67187,-1.79687 0,-1.09375 -0.65625,-1.78125 -0.64062,-0.6875 -1.65625,-0.6875 z m 6.21094,-1.78125 h 2.125 v 0.85937 q 0.73437,-0.60937 1.3125,-0.84375 0.59375,-0.23437 1.21875,-0.23437 1.26562,0 2.14062,0.875 0.75,0.75 0.75,2.21875 v 5.625 h -2.10937 v -3.73438 q 0,-1.51562 -0.14063,-2.01562 -0.14062,-0.5 -0.48437,-0.76563 -0.32813,-0.26562 -0.82813,-0.26562 -0.65625,0 -1.125,0.4375 -0.45312,0.4375 -0.64062,1.20312 -0.0937,0.39063 -0.0937,1.71875 v 3.42188 h -2.125 z m 10.77344,-0.21875 q 0.5,0 0.85937,0.35937 0.35938,0.35938 0.35938,0.85938 0,0.5 -0.35938,0.85937 -0.35937,0.35938 -0.85937,0.35938 -0.51563,0 -0.875,-0.34375 -0.35938,-0.35938 -0.35938,-0.875 0,-0.5 0.35938,-0.85938 0.35937,-0.35937 0.875,-0.35937 z m 0,6.48437 q 0.5,0 0.85937,0.35938 0.35938,0.35937 0.35938,0.85937 0,0.51563 -0.35938,0.875 -0.35937,0.35938 -0.85937,0.35938 -0.51563,0 -0.875,-0.35938 -0.35938,-0.35937 -0.35938,-0.875 0,-0.5 0.35938,-0.85937 0.35937,-0.35938 0.875,-0.35938 z"
       fill-rule="nonzero"
       id="path8" />
    <path
       fill="#4ea5b7"
       d="m 311.90283,108.15762 v 0 c 0,-3.85593 3.12582,-6.98177 6.98175,-6.98177 h 121.28058 c 1.85165,0 3.6275,0.73558 4.93683,2.04491 1.30936,1.30933 2.04492,3.08518 2.04492,4.93686 v 27.92622 c 0,3.85593 -3.12582,6.98177 -6.98175,6.98177 H 318.88458 c -3.85593,0 -6.98175,-3.12584 -6.98175,-6.98177 z"
       fill-rule="evenodd"
       id="path9" />
    <path
       stroke="#000000"
       stroke-width="1"
       stroke-linejoin="round"
       stroke-linecap="butt"
       d="m 311.90283,108.15762 v 0 c 0,-3.85593 3.12582,-6.98177 6.98175,-6.98177 h 121.28058 c 1.85165,0 3.6275,0.73558 4.93683,2.04491 1.30936,1.30933 2.04492,3.08518 2.04492,4.93686 v 27.92622 c 0,3.85593 -3.12582,6.98177 -6.98175,6.98177 H 318.88458 c -3.85593,0 -6.98175,-3.12584 -6.98175,-6.98177 z"
       fill-rule="evenodd"
       id="path10" />
    <path
       fill="#ffffff"
       d="m 338.90622,117.34261 h 1.84375 l 3.6875,9.57812 h -1.90625 l -0.75,-1.96875 h -3.89062 l -0.78125,1.96875 h -1.90625 z m 0.9375,2.54687 -1.28125,3.28125 h 2.54688 z m 6.01569,-2.65625 h 1.78125 v 2.60938 h 1.04687 v 1.53125 h -1.04687 v 5.54687 h -1.78125 v -5.54687 h -0.90625 v -1.53125 h 0.90625 z m 3.99582,0 h 1.78125 v 2.60938 h 1.04687 v 1.53125 h -1.04687 v 5.54687 h -1.78125 v -5.54687 h -0.90625 v -1.53125 h 0.90625 z m 3.77709,2.60938 h 1.78125 v 0.71875 q 0.60938,-0.5 1.09375,-0.70313 0.48438,-0.20312 1,-0.20312 1.0625,0 1.79688,0.73437 0.60937,0.625 0.60937,1.85938 v 4.67187 h -1.75 v -3.10937 q 0,-1.26563 -0.125,-1.67188 -0.10937,-0.42187 -0.39062,-0.64062 -0.28125,-0.21875 -0.70313,-0.21875 -0.53125,0 -0.92187,0.35937 -0.39063,0.35938 -0.53125,1 -0.0781,0.32813 -0.0781,1.4375 v 2.84375 h -1.78125 z m 9.5763,-2.92188 h 2.25 q -1.15625,1.3125 -1.73438,2.84375 -0.5625,1.53125 -0.5625,3.5 0,2.125 0.64063,3.73438 0.48437,1.25 1.65625,2.6875 h -2.25 q -1.03125,-1.64063 -1.45313,-3.07813 -0.40625,-1.45312 -0.40625,-3.40625 0,-1.90625 0.4375,-3.34375 0.4375,-1.4375 1.42188,-2.9375 z m 11.90689,8.59375 1.65625,2.15625 h -2.15625 l -0.84375,-1.07812 q -1.04688,0.5625 -2.34375,0.5625 -2.15625,0 -3.57813,-1.48438 -1.42187,-1.48437 -1.42187,-3.54687 0,-1.35938 0.65625,-2.5 0.67187,-1.15625 1.82812,-1.82813 1.17188,-0.6875 2.5,-0.6875 2.03125,0 3.48438,1.46875 1.46875,1.46875 1.46875,3.59375 0,1.9375 -1.25,3.34375 z m -1.14063,-1.46875 q 0.57813,-0.85937 0.57813,-1.89062 0,-1.35938 -0.92188,-2.3125 -0.92187,-0.95313 -2.21875,-0.95313 -1.34375,0 -2.25,0.92188 -0.90625,0.92187 -0.90625,2.35937 0,1.57813 1.14063,2.5 0.89062,0.73438 2.03125,0.73438 0.65625,0 1.21875,-0.26563 l -1.70313,-2.20312 h 2.17188 z m 4.61542,-7.125 q 0.46875,0 0.79688,0.34375 0.34375,0.34375 0.34375,0.8125 0,0.48438 -0.34375,0.82813 -0.32813,0.32812 -0.78125,0.32812 -0.48438,0 -0.8125,-0.34375 -0.32813,-0.34375 -0.32813,-0.82812 0,-0.46875 0.32813,-0.79688 0.32812,-0.34375 0.79687,-0.34375 z m -0.89062,2.92188 h 1.78125 v 7.07812 h -1.78125 z m 4.24225,5.28125 1.26562,0.625 -1.60937,2.75 -0.875,-0.42188 z m 6.81741,-7.78125 h 1.84375 v 3.29687 l 2.59375,-3.29687 h 2.1875 l -3.34375,4.28125 3.67187,5.29687 h -2.15625 l -2.95312,-4.25 v 4.25 h -1.84375 z m 8.74936,-0.42188 q 0.46875,0 0.79687,0.34375 0.34375,0.34375 0.34375,0.8125 0,0.48438 -0.34375,0.82813 -0.32812,0.32812 -0.78125,0.32812 -0.48437,0 -0.8125,-0.34375 -0.32812,-0.34375 -0.32812,-0.82812 0,-0.46875 0.32812,-0.79688 0.32813,-0.34375 0.79688,-0.34375 z m -0.89063,2.92188 h 1.78125 v 7.07812 h -1.78125 z m 4.24225,5.28125 1.26563,0.625 -1.60938,2.75 -0.875,-0.42188 z m 6.06741,-7.78125 h 1.875 l 2.40625,6.8125 2.45313,-6.8125 h 1.875 l -3.45313,9.57812 h -1.76562 z m 10.56669,-0.42188 q 0.46875,0 0.79687,0.34375 0.34375,0.34375 0.34375,0.8125 0,0.48438 -0.34375,0.82813 -0.32812,0.32812 -0.78125,0.32812 -0.48437,0 -0.8125,-0.34375 -0.32812,-0.34375 -0.32812,-0.82812 0,-0.46875 0.32812,-0.79688 0.32813,-0.34375 0.79688,-0.34375 z m -0.89063,2.92188 h 1.78125 v 7.07812 h -1.78125 z m 5.086,9.84375 h -2.25 q 1.15625,-1.29688 1.71875,-2.82813 0.57812,-1.53125 0.57812,-3.5 0,-2.125 -0.625,-3.73437 -0.5,-1.23438 -1.67187,-2.70313 h 2.25 q 1.04687,1.65625 1.45312,3.10938 0.42188,1.4375 0.42188,3.39062 0,1.90625 -0.4375,3.34375 -0.4375,1.4375 -1.4375,2.92188 z"
       fill-rule="nonzero"
       id="path11" />
    <path
       fill="#b6d7a8"
       d="m 808.27954,118.53813 v 0 c 0,-2.08162 1.6875,-3.7691 3.7691,-3.7691 h 112.3988 c 0.99964,0 1.95832,0.3971 2.66517,1.10394 0.70684,0.70685 1.10394,1.66553 1.10394,2.66516 v 15.07597 c 0,2.08161 -1.6875,3.76911 -3.76911,3.76911 h -112.3988 v 0 c -2.0816,0 -3.7691,-1.6875 -3.7691,-3.76911 z"
       fill-rule="evenodd"
       id="path12" />
    <path
       stroke="#000000"
       stroke-width="1"
       stroke-linejoin="round"
       stroke-linecap="butt"
       d="m 808.27954,118.53813 v 0 c 0,-2.08162 1.6875,-3.7691 3.7691,-3.7691 h 112.3988 c 0.99964,0 1.95832,0.3971 2.66517,1.10394 0.70684,0.70685 1.10394,1.66553 1.10394,2.66516 v 15.07597 c 0,2.08161 -1.6875,3.76911 -3.76911,3.76911 h -112.3988 v 0 c -2.0816,0 -3.7691,-1.6875 -3.7691,-3.76911 z"
       fill-rule="evenodd"
       id="path13" />
    <path
       fill="#ffffff"
       d="m 843.125,122.15987 h 1.54687 q 1.25,0 1.79688,0.23437 0.5625,0.23438 0.875,0.75 0.32812,0.51563 0.32812,1.23438 0,0.8125 -0.42187,1.34375 -0.42188,0.53125 -1.14063,0.73437 -0.42187,0.125 -1.53125,0.125 v 3.23438 H 843.125 Z m 1.45312,3 h 0.45313 q 0.54687,0 0.76562,-0.0781 0.21875,-0.0781 0.32813,-0.25 0.125,-0.1875 0.125,-0.45312 0,-0.4375 -0.34375,-0.64063 -0.25,-0.15625 -0.92188,-0.15625 h -0.40625 z m 5.49939,-0.53125 h -1.42187 q 0.0625,-1.23438 0.78125,-1.9375 0.71875,-0.71875 1.84375,-0.71875 0.70312,0 1.23437,0.29687 0.53125,0.28125 0.84375,0.84375 0.32813,0.54688 0.32813,1.125 0,0.6875 -0.39063,1.46875 -0.39062,0.78125 -1.42187,1.85938 l -0.85938,0.90625 h 2.73438 v 1.34375 h -5.29688 v -0.70313 l 2.35938,-2.40624 q 0.85937,-0.875 1.14062,-1.39063 0.28125,-0.53125 0.28125,-0.96875 0,-0.4375 -0.29687,-0.71875 -0.28125,-0.29687 -0.75,-0.29687 -0.46875,0 -0.78125,0.35937 -0.3125,0.34375 -0.32813,0.9375 z m 4.98377,-2.46875 h 1.54687 q 1.25,0 1.79688,0.23437 0.5625,0.23438 0.875,0.75 0.32812,0.51563 0.32812,1.23438 0,0.8125 -0.42187,1.34375 -0.42188,0.53125 -1.14063,0.73437 -0.42187,0.125 -1.53125,0.125 v 3.23438 h -1.45312 z m 1.45312,3 h 0.45313 q 0.54687,0 0.76562,-0.0781 0.21875,-0.0781 0.32813,-0.25 0.125,-0.1875 0.125,-0.45312 0,-0.4375 -0.34375,-0.64063 -0.25,-0.15625 -0.92188,-0.15625 h -0.40625 z m 9.82459,-3 h 1.48437 l 2.9375,7.65625 h -1.51562 l -0.59375,-1.57813 h -3.125 l -0.625,1.57813 h -1.51563 z m 0.75,2.03125 -1.01563,2.625 h 2.03125 z m 10.19537,1.10937 -1.1875,0.65625 q -0.32812,-0.35937 -0.65625,-0.48437 -0.32812,-0.14063 -0.76562,-0.14063 -0.79688,0 -1.29688,0.48438 -0.48437,0.46875 -0.48437,1.21875 0,0.71875 0.46875,1.17187 0.48437,0.45313 1.25,0.45313 0.95312,0 1.48437,-0.64063 l 1.125,0.76563 q -0.92187,1.17187 -2.57812,1.17187 -1.48438,0 -2.34375,-0.875 -0.84375,-0.89062 -0.84375,-2.07812 0,-0.8125 0.40625,-1.5 0.42187,-0.70312 1.15625,-1.09375 0.73437,-0.40625 1.64062,-0.40625 0.84375,0 1.51563,0.34375 0.67187,0.32813 1.10937,0.95312 z m 1.44648,-3.23437 h 1.42187 v 2.09375 h 0.82813 v 1.21875 h -0.82813 v 4.4375 h -1.42187 v -4.4375 h -0.73438 v -1.21875 h 0.73438 z m 3.58544,-0.25 q 0.375,0 0.64063,0.28125 0.26562,0.26562 0.26562,0.65625 0,0.375 -0.26562,0.64062 -0.26563,0.26563 -0.64063,0.26563 -0.375,0 -0.64062,-0.26563 -0.26563,-0.28125 -0.26563,-0.67187 0,-0.375 0.26563,-0.64063 0.26562,-0.26562 0.64062,-0.26562 z m -0.71875,2.34375 h 1.42188 v 5.65625 h -1.42188 z m 2.10163,0 h 1.45312 l 1.42188,3.32812 1.42187,-3.32812 h 1.45313 l -2.42188,5.65625 h -0.90625 z m 10.04626,0.78125 -0.89062,0.89062 q -0.53125,-0.53125 -0.96875,-0.53125 -0.23438,0 -0.375,0.10938 -0.125,0.0937 -0.125,0.23437 0,0.125 0.0781,0.21875 0.0937,0.0937 0.42188,0.26563 l 0.51562,0.25 q 0.82813,0.40625 1.125,0.82812 0.3125,0.42188 0.3125,0.98438 0,0.76562 -0.5625,1.26562 -0.54687,0.5 -1.46875,0.5 -1.23437,0 -1.98437,-0.96875 l 0.875,-0.95312 q 0.25,0.29687 0.57812,0.48437 0.34375,0.17188 0.60938,0.17188 0.28125,0 0.45312,-0.125 0.17188,-0.14063 0.17188,-0.32813 0,-0.32812 -0.625,-0.64062 L 891.4173,127.363 q -1.375,-0.6875 -1.375,-1.73438 0,-0.67187 0.51562,-1.14062 0.51563,-0.48438 1.32813,-0.48438 0.54687,0 1.03125,0.25 0.48437,0.23438 0.82812,0.6875 z"
       fill-rule="nonzero"
       id="path14" />
    <path
       fill="#4ea5b7"
       d="m 808.27954,146.30978 v 0 c 0,-2.08162 1.6875,-3.7691 3.7691,-3.7691 h 112.3988 c 0.99964,0 1.95832,0.39711 2.66517,1.10394 0.70684,0.70685 1.10394,1.66554 1.10394,2.66516 v 15.07597 c 0,2.08162 -1.6875,3.76911 -3.76911,3.76911 h -112.3988 v 0 c -2.0816,0 -3.7691,-1.68749 -3.7691,-3.76911 z"
       fill-rule="evenodd"
       id="path15" />
    <path
       stroke="#000000"
       stroke-width="1"
       stroke-linejoin="round"
       stroke-linecap="butt"
       d="m 808.27954,146.30978 v 0 c 0,-2.08162 1.6875,-3.7691 3.7691,-3.7691 h 112.3988 c 0.99964,0 1.95832,0.39711 2.66517,1.10394 0.70684,0.70685 1.10394,1.66554 1.10394,2.66516 v 15.07597 c 0,2.08162 -1.6875,3.76911 -3.76911,3.76911 h -112.3988 v 0 c -2.0816,0 -3.7691,-1.68749 -3.7691,-3.76911 z"
       fill-rule="evenodd"
       id="path16" />
    <path
       fill="#ffffff"
       d="m 826.9905,149.06964 h 4.75 v 1.78125 h -2.95313 v 1.73437 h 2.95313 v 1.75 h -2.95313 v 4.3125 h -1.79687 z m 9.49097,2.3125 q 1,0 1.875,0.5 0.89062,0.5 1.39062,1.35937 0.5,0.85938 0.5,1.85938 0,1 -0.5,1.875 -0.5,0.875 -1.35937,1.375 -0.85938,0.48437 -1.89063,0.48437 -1.53125,0 -2.60937,-1.07812 -1.07813,-1.09375 -1.07813,-2.64063 0,-1.65625 1.21875,-2.76562 1.07813,-0.96875 2.45313,-0.96875 z m 0.0312,1.67187 q -0.82813,0 -1.375,0.57813 -0.54688,0.57812 -0.54688,1.46875 0,0.9375 0.53125,1.51562 0.54688,0.5625 1.39063,0.5625 0.82812,0 1.375,-0.57812 0.5625,-0.57813 0.5625,-1.5 0,-0.90625 -0.54688,-1.46875 -0.54687,-0.57813 -1.39062,-0.57813 z m 4.76623,-1.48437 h 1.51563 v 0.89062 q 0.25,-0.53125 0.65625,-0.79687 0.42187,-0.28125 0.90625,-0.28125 0.34375,0 0.71875,0.1875 l -0.54688,1.53125 q -0.3125,-0.15625 -0.51562,-0.15625 -0.40625,0 -0.70313,0.51562 -0.28125,0.5 -0.28125,1.98438 l 0.0156,0.34375 v 2.85937 h -1.76563 z m 3.88764,0 h 1.73437 l 1.4375,4.03125 1.53125,-4.03125 h 1.0625 l 1.5,3.98437 1.42188,-3.98437 h 1.75 l -2.57813,7.07812 h -1.125 l -1.51562,-4.03125 -1.54688,4.03125 h -1.125 z m 16.67553,0 h 1.78125 v 7.07812 h -1.78125 v -0.75 q -0.51562,0.5 -1.04687,0.71875 -0.51563,0.21875 -1.125,0.21875 -1.375,0 -2.375,-1.0625 -1,-1.07812 -1,-2.65625 0,-1.64062 0.96875,-2.6875 0.96875,-1.04687 2.34375,-1.04687 0.64062,0 1.20312,0.25 0.5625,0.23437 1.03125,0.71875 z m -1.85937,1.45312 q -0.82813,0 -1.375,0.59375 -0.54688,0.57813 -0.54688,1.48438 0,0.92187 0.54688,1.51562 0.5625,0.59375 1.375,0.59375 0.84375,0 1.39062,-0.57812 0.5625,-0.59375 0.5625,-1.53125 0,-0.9375 -0.5625,-1.5 -0.54687,-0.57813 -1.39062,-0.57813 z m 5.01739,-1.45312 h 1.51563 v 0.89062 q 0.25,-0.53125 0.65625,-0.79687 0.42187,-0.28125 0.90625,-0.28125 0.34375,0 0.71875,0.1875 l -0.54688,1.53125 q -0.3125,-0.15625 -0.51562,-0.15625 -0.40625,0 -0.70313,0.51562 -0.28125,0.5 -0.28125,1.98438 l 0.0156,0.34375 v 2.85937 h -1.76563 z m 9.90332,-2.73438 h 1.78125 v 9.8125 h -1.78125 v -0.75 q -0.51562,0.5 -1.04687,0.71875 -0.51563,0.21875 -1.125,0.21875 -1.375,0 -2.375,-1.0625 -1,-1.07812 -1,-2.65625 0,-1.64062 0.96875,-2.6875 0.96875,-1.04687 2.34375,-1.04687 0.64062,0 1.20312,0.25 0.5625,0.23437 1.03125,0.71875 z m -1.85937,4.1875 q -0.82813,0 -1.375,0.59375 -0.54688,0.57813 -0.54688,1.48438 0,0.92187 0.54688,1.51562 0.5625,0.59375 1.375,0.59375 0.84375,0 1.39062,-0.57812 0.5625,-0.59375 0.5625,-1.53125 0,-0.9375 -0.5625,-1.5 -0.54687,-0.57813 -1.39062,-0.57813 z m 10.91827,-1.45312 v 0.78125 q 0.48438,-0.48438 1.04688,-0.71875 0.5625,-0.25 1.20312,-0.25 1.375,0 2.34375,1.04687 0.96875,1.04688 0.96875,2.6875 0,1.57813 -1,2.65625 -1,1.0625 -2.375,1.0625 -0.60937,0 -1.14062,-0.21875 -0.51563,-0.21875 -1.04688,-0.71875 v 3.34375 h -1.76562 v -9.67187 z m 1.875,1.45312 q -0.84375,0 -1.40625,0.57813 -0.54687,0.5625 -0.54687,1.5 0,0.9375 0.54687,1.53125 0.5625,0.57812 1.40625,0.57812 0.8125,0 1.35938,-0.59375 0.5625,-0.59375 0.5625,-1.51562 0,-0.90625 -0.54688,-1.48438 -0.54687,-0.59375 -1.375,-0.59375 z m 10.3924,-1.45312 h 1.78125 v 7.07812 h -1.78125 v -0.75 q -0.51563,0.5 -1.04688,0.71875 -0.51562,0.21875 -1.125,0.21875 -1.375,0 -2.375,-1.0625 -1,-1.07812 -1,-2.65625 0,-1.64062 0.96875,-2.6875 0.96875,-1.04687 2.34375,-1.04687 0.64063,0 1.20313,0.25 0.5625,0.23437 1.03125,0.71875 z m -1.85938,1.45312 q -0.82812,0 -1.375,0.59375 -0.54687,0.57813 -0.54687,1.48438 0,0.92187 0.54687,1.51562 0.5625,0.59375 1.375,0.59375 0.84375,0 1.39063,-0.57812 0.5625,-0.59375 0.5625,-1.53125 0,-0.9375 -0.5625,-1.5 -0.54688,-0.57813 -1.39063,-0.57813 z m 9.7674,-0.46875 -1.10938,1.10938 q -0.65625,-0.67188 -1.20312,-0.67188 -0.3125,0 -0.48438,0.125 -0.15625,0.125 -0.15625,0.3125 0,0.15625 0.10938,0.28125 0.10937,0.10938 0.53125,0.3125 l 0.64062,0.32813 q 1.03125,0.51562 1.40625,1.04687 0.39063,0.51563 0.39063,1.21875 0,0.95313 -0.70313,1.59375 -0.6875,0.625 -1.84375,0.625 -1.54687,0 -2.46875,-1.21875 l 1.09375,-1.1875 q 0.3125,0.35938 0.71875,0.59375 0.42188,0.21875 0.75,0.21875 0.35938,0 0.5625,-0.17187 0.21875,-0.17188 0.21875,-0.39063 0,-0.40625 -0.76562,-0.79687 l -0.60938,-0.29688 q -1.71875,-0.875 -1.71875,-2.17187 0,-0.84375 0.64063,-1.4375 0.65625,-0.59375 1.67187,-0.59375 0.6875,0 1.29688,0.3125 0.60937,0.29687 1.03125,0.85937 z m 5.86358,0 -1.10937,1.10938 q -0.65625,-0.67188 -1.20313,-0.67188 -0.3125,0 -0.48437,0.125 -0.15625,0.125 -0.15625,0.3125 0,0.15625 0.10937,0.28125 0.10938,0.10938 0.53125,0.3125 l 0.64063,0.32813 q 1.03125,0.51562 1.40625,1.04687 0.39062,0.51563 0.39062,1.21875 0,0.95313 -0.70312,1.59375 -0.6875,0.625 -1.84375,0.625 -1.54688,0 -2.46875,-1.21875 l 1.09375,-1.1875 q 0.3125,0.35938 0.71875,0.59375 0.42187,0.21875 0.75,0.21875 0.35937,0 0.5625,-0.17187 0.21875,-0.17188 0.21875,-0.39063 0,-0.40625 -0.76563,-0.79687 l -0.60937,-0.29688 q -1.71875,-0.875 -1.71875,-2.17187 0,-0.84375 0.64062,-1.4375 0.65625,-0.59375 1.67188,-0.59375 0.6875,0 1.29687,0.3125 0.60938,0.29687 1.03125,0.85937 z"
       fill-rule="nonzero"
       id="path17" />
    <path
       fill="#b6d7a8"
       d="m 311.8557,150.04738 v 0 c 0,-3.85591 3.12582,-6.98177 6.98175,-6.98177 H 456.9684 c 1.85169,0 3.62753,0.73558 4.93686,2.04493 1.30933,1.30932 2.04492,3.08517 2.04492,4.93684 v 27.92624 c 0,3.85593 -3.12585,6.98176 -6.98178,6.98176 H 318.83745 c -3.85593,0 -6.98175,-3.12583 -6.98175,-6.98176 z"
       fill-rule="evenodd"
       id="path18" />
    <path
       stroke="#000000"
       stroke-width="1"
       stroke-linejoin="round"
       stroke-linecap="butt"
       d="m 311.8557,150.04738 v 0 c 0,-3.85591 3.12582,-6.98177 6.98175,-6.98177 H 456.9684 c 1.85169,0 3.62753,0.73558 4.93686,2.04493 1.30933,1.30932 2.04492,3.08517 2.04492,4.93684 v 27.92624 c 0,3.85593 -3.12585,6.98176 -6.98178,6.98176 H 318.83745 c -3.85593,0 -6.98175,-3.12583 -6.98175,-6.98176 z"
       fill-rule="evenodd"
       id="path19" />
    <path
       fill="#ffffff"
       d="m 334.91818,159.23238 h 4.75 v 1.78125 h -2.95313 v 1.73437 h 2.95313 v 1.75 h -2.95313 v 4.3125 h -1.79687 z m 13.25662,6.54687 h -5.70312 q 0.125,0.76563 0.65625,1.21875 0.54687,0.4375 1.375,0.4375 1,0 1.71875,-0.70312 l 1.48437,0.70312 q -0.54687,0.79688 -1.32812,1.1875 -0.78125,0.375 -1.85938,0.375 -1.67187,0 -2.71875,-1.04687 -1.04687,-1.0625 -1.04687,-2.64063 0,-1.625 1.04687,-2.6875 1.04688,-1.07812 2.625,-1.07812 1.67188,0 2.71875,1.07812 1.04688,1.0625 1.04688,2.82813 z m -1.78125,-1.39062 q -0.17187,-0.59375 -0.6875,-0.96875 -0.51562,-0.375 -1.20312,-0.375 -0.73438,0 -1.29688,0.42187 -0.35937,0.26563 -0.65625,0.92188 z m 3.43808,-5.26563 h 1.78125 v 2.60938 h 1.04688 v 1.53125 h -1.04688 v 5.54687 h -1.78125 v -5.54687 h -0.90625 v -1.53125 h 0.90625 z m 10.71457,4.03125 -1.46875,0.82813 q -0.42187,-0.4375 -0.82812,-0.60938 -0.40625,-0.17187 -0.95313,-0.17187 -1,0 -1.625,0.59375 -0.60937,0.59375 -0.60937,1.53125 0,0.90625 0.59375,1.48437 0.59375,0.5625 1.5625,0.5625 1.1875,0 1.85937,-0.8125 l 1.39063,0.95313 q -1.14063,1.48437 -3.21875,1.48437 -1.85938,0 -2.92188,-1.10937 -1.0625,-1.10938 -1.0625,-2.59375 0,-1.03125 0.51563,-1.89063 0.51562,-0.875 1.4375,-1.35937 0.92187,-0.5 2.0625,-0.5 1.04687,0 1.89062,0.42187 0.84375,0.42188 1.375,1.1875 z m 1.60996,-4.15625 h 1.76562 v 3.45313 q 0.51563,-0.45313 1.04688,-0.67188 0.53125,-0.23437 1.0625,-0.23437 1.0625,0 1.78125,0.73437 0.60937,0.625 0.60937,1.85938 v 4.67187 h -1.75 v -3.10937 q 0,-1.21875 -0.125,-1.65625 -0.10937,-0.4375 -0.39062,-0.65625 -0.28125,-0.21875 -0.70313,-0.21875 -0.53125,0 -0.92187,0.35937 -0.39063,0.35938 -0.53125,0.98438 -0.0781,0.3125 -0.0781,1.45312 v 2.84375 h -1.76562 z m 11.93032,0.23438 h 1.84375 v 3.29687 l 2.59375,-3.29687 h 2.1875 l -3.34375,4.28125 3.67188,5.29687 h -2.15625 l -2.95313,-4.25 v 4.25 h -1.84375 z m 8.74939,-0.42188 q 0.46875,0 0.79688,0.34375 0.34375,0.34375 0.34375,0.8125 0,0.48438 -0.34375,0.82813 -0.32813,0.32812 -0.78125,0.32812 -0.48438,0 -0.8125,-0.34375 -0.32813,-0.34375 -0.32813,-0.82812 0,-0.46875 0.32813,-0.79688 0.32812,-0.34375 0.79687,-0.34375 z m -0.89062,2.92188 h 1.78125 v 7.07812 h -1.78125 z m 5.67975,1.48437 v -2.4375 h 1.625 v 2.4375 h 2.4375 v 1.625 H 389.25 v 2.4375 h -1.625 v -2.4375 h -2.4375 v -1.625 z m 6.99817,-3.98437 h 2.73437 v 9.57812 h -1.8125 v -7.85937 h -1.96875 z m 7.02703,7.78125 1.26563,0.625 -1.60938,2.75 -0.875,-0.42188 z m 6.06742,-7.78125 h 1.875 l 2.40625,6.8125 2.45312,-6.8125 h 1.875 l -3.45312,9.57812 h -1.76563 z m 8.8948,10.57812 h 6.8125 v 0.67188 h -6.8125 z m 8.33594,-11 q 0.46875,0 0.79688,0.34375 0.34375,0.34375 0.34375,0.8125 0,0.48438 -0.34375,0.82813 -0.32813,0.32812 -0.78125,0.32812 -0.48438,0 -0.8125,-0.34375 -0.32813,-0.34375 -0.32813,-0.82812 0,-0.46875 0.32813,-0.79688 0.32812,-0.34375 0.79687,-0.34375 z m -0.89062,2.92188 h 1.78125 v 7.07812 h -1.78125 z m 5.67975,1.48437 v -2.4375 h 1.625 v 2.4375 h 2.4375 v 1.625 h -2.4375 v 2.4375 h -1.625 v -2.4375 h -2.4375 v -1.625 z m 6.99816,-3.98437 h 2.73438 v 9.57812 h -1.8125 v -7.85937 h -1.96875 z"
       fill-rule="nonzero"
       id="path20" />
    <path
       fill="#b6d7a8"
       d="m 463.9502,150.04738 v 0 c 0,-3.85591 3.12582,-6.98177 6.98175,-6.98177 h 138.13098 c 1.85169,0 3.6275,0.73558 4.93683,2.04493 1.30933,1.30932 2.04492,3.08517 2.04492,4.93684 v 27.92624 c 0,3.85593 -3.12585,6.98176 -6.98175,6.98176 H 470.93195 c -3.85593,0 -6.98175,-3.12583 -6.98175,-6.98176 z"
       fill-rule="evenodd"
       id="path21" />
    <path
       stroke="#000000"
       stroke-width="1"
       stroke-linejoin="round"
       stroke-linecap="butt"
       d="m 463.9502,150.04738 v 0 c 0,-3.85591 3.12582,-6.98177 6.98175,-6.98177 h 138.13098 c 1.85169,0 3.6275,0.73558 4.93683,2.04493 1.30933,1.30932 2.04492,3.08517 2.04492,4.93684 v 27.92624 c 0,3.85593 -3.12585,6.98176 -6.98175,6.98176 H 470.93195 c -3.85593,0 -6.98175,-3.12583 -6.98175,-6.98176 z"
       fill-rule="evenodd"
       id="path22" />
    <path
       fill="#ffffff"
       d="m 483.68063,159.23238 h 4.75 v 1.78125 h -2.95313 v 1.73437 h 2.95313 v 1.75 h -2.95313 v 4.3125 h -1.79687 z m 13.25662,6.54687 h -5.70312 q 0.125,0.76563 0.65625,1.21875 0.54687,0.4375 1.375,0.4375 1,0 1.71875,-0.70312 l 1.48437,0.70312 q -0.54687,0.79688 -1.32812,1.1875 -0.78125,0.375 -1.85938,0.375 -1.67187,0 -2.71875,-1.04687 -1.04687,-1.0625 -1.04687,-2.64063 0,-1.625 1.04687,-2.6875 1.04688,-1.07812 2.625,-1.07812 1.67188,0 2.71875,1.07812 1.04688,1.0625 1.04688,2.82813 z m -1.78125,-1.39062 q -0.17187,-0.59375 -0.6875,-0.96875 -0.51562,-0.375 -1.20312,-0.375 -0.73438,0 -1.29688,0.42187 -0.35937,0.26563 -0.65625,0.92188 z m 3.43808,-5.26563 h 1.78125 v 2.60938 h 1.04688 v 1.53125 h -1.04688 v 5.54687 h -1.78125 v -5.54687 h -0.90625 v -1.53125 h 0.90625 z m 10.7146,4.03125 -1.46875,0.82813 q -0.42187,-0.4375 -0.82812,-0.60938 -0.40625,-0.17187 -0.95313,-0.17187 -1,0 -1.625,0.59375 -0.60937,0.59375 -0.60937,1.53125 0,0.90625 0.59375,1.48437 0.59375,0.5625 1.5625,0.5625 1.1875,0 1.85937,-0.8125 l 1.39063,0.95313 q -1.14063,1.48437 -3.21875,1.48437 -1.85938,0 -2.92188,-1.10937 -1.0625,-1.10938 -1.0625,-2.59375 0,-1.03125 0.51563,-1.89063 0.51562,-0.875 1.4375,-1.35937 0.92187,-0.5 2.0625,-0.5 1.04687,0 1.89062,0.42187 0.84375,0.42188 1.375,1.1875 z m 1.60996,-4.15625 h 1.76562 v 3.45313 q 0.51563,-0.45313 1.04688,-0.67188 0.53125,-0.23437 1.0625,-0.23437 1.0625,0 1.78125,0.73437 0.60937,0.625 0.60937,1.85938 v 4.67187 h -1.75 v -3.10937 q 0,-1.21875 -0.125,-1.65625 -0.10937,-0.4375 -0.39062,-0.65625 -0.28125,-0.21875 -0.70313,-0.21875 -0.53125,0 -0.92187,0.35937 -0.39063,0.35938 -0.53125,0.98438 -0.0781,0.3125 -0.0781,1.45312 v 2.84375 h -1.76562 z m 11.93029,0.23438 h 1.84375 v 3.29687 l 2.59375,-3.29687 h 2.1875 l -3.34375,4.28125 3.67188,5.29687 h -2.15625 l -2.95313,-4.25 v 4.25 h -1.84375 z m 7.07752,10.57812 h 6.8125 v 0.67188 h -6.8125 z m 8.33594,-11 q 0.46875,0 0.79687,0.34375 0.34375,0.34375 0.34375,0.8125 0,0.48438 -0.34375,0.82813 -0.32812,0.32812 -0.78125,0.32812 -0.48437,0 -0.8125,-0.34375 -0.32812,-0.34375 -0.32812,-0.82812 0,-0.46875 0.32812,-0.79688 0.32813,-0.34375 0.79688,-0.34375 z m -0.89063,2.92188 h 1.78125 v 7.07812 h -1.78125 z m 5.67975,1.48437 v -2.4375 h 1.625 v 2.4375 h 2.4375 v 1.625 h -2.4375 v 2.4375 h -1.625 v -2.4375 h -2.4375 v -1.625 z m 7.13879,-0.89062 h -1.78125 q 0.0781,-1.54688 0.96875,-2.4375 0.90625,-0.89063 2.3125,-0.89063 0.875,0 1.54688,0.375 0.67187,0.35938 1.0625,1.0625 0.40625,0.6875 0.40625,1.40625 0,0.84375 -0.48438,1.82813 -0.48437,0.98437 -1.78125,2.32812 l -1.07812,1.125 h 3.42187 v 1.6875 h -6.64062 v -0.875 l 2.96875,-3.01562 q 1.07812,-1.09375 1.42187,-1.75 0.35938,-0.65625 0.35938,-1.1875 0,-0.5625 -0.375,-0.92188 -0.35938,-0.35937 -0.9375,-0.35937 -0.59375,0 -0.98438,0.4375 -0.39062,0.4375 -0.40625,1.1875 z m 6.88642,4.6875 1.26562,0.625 -1.60937,2.75 -0.875,-0.42188 z m 6.06744,-7.78125 h 1.875 l 2.40625,6.8125 2.45313,-6.8125 h 1.875 l -3.45313,9.57812 h -1.76562 z m 8.89478,10.57812 h 6.8125 v 0.67188 h -6.8125 z m 8.33593,-11 q 0.46875,0 0.79688,0.34375 0.34375,0.34375 0.34375,0.8125 0,0.48438 -0.34375,0.82813 -0.32813,0.32812 -0.78125,0.32812 -0.48438,0 -0.8125,-0.34375 -0.32813,-0.34375 -0.32813,-0.82812 0,-0.46875 0.32813,-0.79688 0.32812,-0.34375 0.79687,-0.34375 z m -0.89062,2.92188 h 1.78125 v 7.07812 h -1.78125 z m 5.67975,1.48437 v -2.4375 h 1.625 v 2.4375 h 2.4375 v 1.625 h -2.4375 v 2.4375 h -1.625 v -2.4375 h -2.4375 v -1.625 z m 7.13879,-0.89062 h -1.78125 q 0.0781,-1.54688 0.96875,-2.4375 0.90625,-0.89063 2.3125,-0.89063 0.875,0 1.54688,0.375 0.67187,0.35938 1.0625,1.0625 0.40625,0.6875 0.40625,1.40625 0,0.84375 -0.48438,1.82813 -0.48437,0.98437 -1.78125,2.32812 l -1.07812,1.125 h 3.42187 v 1.6875 h -6.64062 v -0.875 l 2.96875,-3.01562 q 1.07812,-1.09375 1.42187,-1.75 0.35938,-0.65625 0.35938,-1.1875 0,-0.5625 -0.375,-0.92188 -0.35938,-0.35937 -0.9375,-0.35937 -0.59375,0 -0.98438,0.4375 -0.39062,0.4375 -0.40625,1.1875 z"
       fill-rule="nonzero"
       id="path23" />
    <path
       fill="#4ea5b7"
       d="m 463.951,107.88465 v 0 c 0,-3.85592 3.12582,-6.98177 6.98175,-6.98177 h 121.28058 c 1.85169,0 3.6275,0.73558 4.93683,2.04492 1.30933,1.30933 2.04492,3.08517 2.04492,4.93685 v 27.92623 c 0,3.85593 -3.12585,6.98177 -6.98175,6.98177 H 470.93275 c -3.85593,0 -6.98175,-3.12584 -6.98175,-6.98177 z"
       fill-rule="evenodd"
       id="path24" />
    <path
       stroke="#000000"
       stroke-width="1"
       stroke-linejoin="round"
       stroke-linecap="butt"
       d="m 463.951,107.88465 v 0 c 0,-3.85592 3.12582,-6.98177 6.98175,-6.98177 h 121.28058 c 1.85169,0 3.6275,0.73558 4.93683,2.04492 1.30933,1.30933 2.04492,3.08517 2.04492,4.93685 v 27.92623 c 0,3.85593 -3.12585,6.98177 -6.98175,6.98177 H 470.93275 c -3.85593,0 -6.98175,-3.12584 -6.98175,-6.98177 z"
       fill-rule="evenodd"
       id="path25" />
    <path
       fill="#ffffff"
       d="m 475.49164,117.06964 h 1.84375 l 3.6875,9.57813 h -1.90625 l -0.75,-1.96875 h -3.89062 l -0.78125,1.96875 h -1.90625 z m 0.9375,2.54688 -1.28125,3.28125 h 2.54688 z m 6.01569,-2.65625 h 1.78125 v 2.60937 h 1.04687 v 1.53125 h -1.04687 v 5.54688 h -1.78125 v -5.54688 h -0.90625 v -1.53125 h 0.90625 z m 3.99582,0 h 1.78125 v 2.60937 h 1.04687 v 1.53125 h -1.04687 v 5.54688 h -1.78125 v -5.54688 h -0.90625 v -1.53125 h 0.90625 z m 3.77709,2.60937 h 1.78125 v 0.71875 q 0.60938,-0.5 1.09375,-0.70312 0.48438,-0.20313 1,-0.20313 1.0625,0 1.79688,0.73438 0.60937,0.625 0.60937,1.85937 v 4.67188 h -1.75 v -3.10938 q 0,-1.26562 -0.125,-1.67187 -0.10937,-0.42188 -0.39062,-0.64063 -0.28125,-0.21875 -0.70313,-0.21875 -0.53125,0 -0.92187,0.35938 -0.39063,0.35937 -0.53125,1 -0.0781,0.32812 -0.0781,1.4375 v 2.84375 h -1.78125 z m 9.5763,-2.92187 h 2.25 q -1.15625,1.3125 -1.73438,2.84375 -0.5625,1.53125 -0.5625,3.5 0,2.125 0.64063,3.73437 0.48437,1.25 1.65625,2.6875 h -2.25 q -1.03125,-1.64063 -1.45313,-3.07813 -0.40625,-1.45312 -0.40625,-3.40625 0,-1.90625 0.4375,-3.34375 0.4375,-1.4375 1.42188,-2.93749 z m 11.90689,8.59375 1.65625,2.15625 h -2.15625 l -0.84375,-1.07813 q -1.04688,0.5625 -2.34375,0.5625 -2.15625,0 -3.57813,-1.48437 -1.42187,-1.48438 -1.42187,-3.54688 0,-1.35937 0.65625,-2.5 0.67187,-1.15625 1.82812,-1.82812 1.17188,-0.6875 2.5,-0.6875 2.03125,0 3.48438,1.46875 1.46875,1.46875 1.46875,3.59375 0,1.9375 -1.25,3.34375 z m -1.14063,-1.46875 q 0.57813,-0.85938 0.57813,-1.89063 0,-1.35937 -0.92188,-2.3125 -0.92187,-0.95312 -2.21875,-0.95312 -1.34375,0 -2.25,0.92187 -0.90625,0.92188 -0.90625,2.35938 0,1.57812 1.14063,2.5 0.89062,0.73437 2.03125,0.73437 0.65625,0 1.21875,-0.26562 l -1.70313,-2.20313 h 2.17188 z m 4.61542,-7.125 q 0.46875,0 0.79688,0.34375 0.34375,0.34375 0.34375,0.8125 0,0.48437 -0.34375,0.82812 -0.32813,0.32813 -0.78125,0.32813 -0.48438,0 -0.8125,-0.34375 -0.32813,-0.34375 -0.32813,-0.82813 0,-0.46875 0.32813,-0.79687 0.32812,-0.34375 0.79687,-0.34375 z m -0.89062,2.92187 h 1.78125 v 7.07813 h -1.78125 z m 4.24225,5.28125 1.26562,0.625 -1.60937,2.75 -0.875,-0.42188 z m 6.81738,-7.78125 h 1.84375 v 3.29688 l 2.59375,-3.29688 h 2.1875 l -3.34375,4.28125 3.67187,5.29688 h -2.15625 l -2.95312,-4.25 v 4.25 h -1.84375 z m 8.74939,-0.42187 q 0.46875,0 0.79687,0.34375 0.34375,0.34375 0.34375,0.8125 0,0.48437 -0.34375,0.82812 -0.32812,0.32813 -0.78125,0.32813 -0.48437,0 -0.8125,-0.34375 -0.32812,-0.34375 -0.32812,-0.82813 0,-0.46875 0.32812,-0.79687 0.32813,-0.34375 0.79688,-0.34375 z m -0.89063,2.92187 h 1.78125 v 7.07813 h -1.78125 z m 5.67975,1.48438 v -2.4375 h 1.625 v 2.4375 h 2.4375 v 1.625 h -2.4375 v 2.4375 h -1.625 v -2.4375 h -2.4375 v -1.625 z m 6.99817,-3.98438 h 2.73438 v 9.57813 h -1.8125 v -7.85938 h -1.96875 z m 7.02704,7.78125 1.26562,0.625 -1.60937,2.75 -0.875,-0.42188 z m 6.06744,-7.78125 h 1.875 l 2.40625,6.8125 2.45313,-6.8125 h 1.875 l -3.45313,9.57813 h -1.76562 z m 10.56665,-0.42187 q 0.46875,0 0.79688,0.34375 0.34375,0.34375 0.34375,0.8125 0,0.48437 -0.34375,0.82812 -0.32813,0.32813 -0.78125,0.32813 -0.48438,0 -0.8125,-0.34375 -0.32813,-0.34375 -0.32813,-0.82813 0,-0.46875 0.32813,-0.79687 0.32812,-0.34375 0.79687,-0.34375 z m -0.89062,2.92187 h 1.78125 v 7.07813 h -1.78125 z m 5.67975,1.48438 v -2.4375 h 1.625 v 2.4375 h 2.4375 v 1.625 h -2.4375 v 2.4375 h -1.625 v -2.4375 h -2.4375 v -1.625 z m 6.99817,-3.98438 h 2.73437 v 9.57813 h -1.8125 v -7.85938 h -1.96875 z m 7.87078,12.34375 h -2.25 q 1.15625,-1.29688 1.71875,-2.82813 0.57813,-1.53125 0.57813,-3.5 0,-2.125 -0.625,-3.73437 -0.5,-1.23438 -1.67188,-2.70313 h 2.25 q 1.04688,1.65625 1.45313,3.10938 0.42187,1.4375 0.42187,3.39062 0,1.90625 -0.4375,3.34375 -0.4375,1.4375 -1.4375,2.92188 z"
       fill-rule="nonzero"
       id="path26" />
    <path
       fill="#b6d7a8"
       d="m 615.99744,150.32034 v 0 c 0,-3.85591 3.12585,-6.98177 6.98175,-6.98177 h 138.13098 c 1.85169,0 3.6275,0.73558 4.93683,2.04493 1.30933,1.30932 2.04492,3.08517 2.04492,4.93684 v 27.92624 c 0,3.85593 -3.12585,6.98176 -6.98175,6.98176 H 622.97919 c -3.8559,0 -6.98175,-3.12583 -6.98175,-6.98176 z"
       fill-rule="evenodd"
       id="path27" />
    <path
       stroke="#000000"
       stroke-width="1"
       stroke-linejoin="round"
       stroke-linecap="butt"
       d="m 615.99744,150.32034 v 0 c 0,-3.85591 3.12585,-6.98177 6.98175,-6.98177 h 138.13098 c 1.85169,0 3.6275,0.73558 4.93683,2.04493 1.30933,1.30932 2.04492,3.08517 2.04492,4.93684 v 27.92624 c 0,3.85593 -3.12585,6.98176 -6.98175,6.98176 H 622.97919 c -3.8559,0 -6.98175,-3.12583 -6.98175,-6.98176 z"
       fill-rule="evenodd"
       id="path28" />
    <path
       fill="#ffffff"
       d="m 635.7279,159.50534 h 4.75 v 1.78125 h -2.95313 v 1.73437 h 2.95313 v 1.75 h -2.95313 v 4.3125 h -1.79687 z m 13.25659,6.54687 h -5.70312 q 0.125,0.76563 0.65625,1.21875 0.54687,0.4375 1.375,0.4375 1,0 1.71875,-0.70312 l 1.48437,0.70312 q -0.54687,0.79688 -1.32812,1.1875 -0.78125,0.375 -1.85938,0.375 -1.67187,0 -2.71875,-1.04687 -1.04687,-1.0625 -1.04687,-2.64063 0,-1.625 1.04687,-2.6875 1.04688,-1.07812 2.625,-1.07812 1.67188,0 2.71875,1.07812 1.04688,1.0625 1.04688,2.82813 z m -1.78125,-1.39062 q -0.17187,-0.59375 -0.6875,-0.96875 -0.51562,-0.375 -1.20312,-0.375 -0.73438,0 -1.29688,0.42187 -0.35937,0.26563 -0.65625,0.92188 z m 3.43811,-5.26563 h 1.78125 v 2.60938 h 1.04688 v 1.53125 h -1.04688 v 5.54687 h -1.78125 v -5.54687 h -0.90625 v -1.53125 h 0.90625 z m 10.71454,4.03125 -1.46875,0.82813 q -0.42187,-0.4375 -0.82812,-0.60938 -0.40625,-0.17187 -0.95313,-0.17187 -1,0 -1.625,0.59375 -0.60937,0.59375 -0.60937,1.53125 0,0.90625 0.59375,1.48437 0.59375,0.5625 1.5625,0.5625 1.1875,0 1.85937,-0.8125 l 1.39063,0.95313 q -1.14063,1.48437 -3.21875,1.48437 -1.85938,0 -2.92188,-1.10937 -1.0625,-1.10938 -1.0625,-2.59375 0,-1.03125 0.51563,-1.89063 0.51562,-0.875 1.4375,-1.35937 0.92187,-0.5 2.0625,-0.5 1.04687,0 1.89062,0.42187 0.84375,0.42188 1.375,1.1875 z m 1.60999,-4.15625 h 1.76562 v 3.45313 q 0.51563,-0.45313 1.04688,-0.67188 0.53125,-0.23437 1.0625,-0.23437 1.0625,0 1.78125,0.73437 0.60937,0.625 0.60937,1.85938 v 4.67187 h -1.75 v -3.10937 q 0,-1.21875 -0.125,-1.65625 -0.10937,-0.4375 -0.39062,-0.65625 -0.28125,-0.21875 -0.70313,-0.21875 -0.53125,0 -0.92187,0.35937 -0.39063,0.35938 -0.53125,0.98438 -0.0781,0.3125 -0.0781,1.45312 v 2.84375 h -1.76562 z m 11.93029,0.23438 h 1.84375 v 3.29687 l 2.59375,-3.29687 h 2.1875 l -3.34375,4.28125 3.67188,5.29687 h -2.15625 l -2.95313,-4.25 v 4.25 h -1.84375 z m 7.07752,10.57812 h 6.8125 v 0.67188 h -6.8125 z m 8.33594,-11 q 0.46875,0 0.79687,0.34375 0.34375,0.34375 0.34375,0.8125 0,0.48438 -0.34375,0.82813 -0.32812,0.32812 -0.78125,0.32812 -0.48437,0 -0.8125,-0.34375 -0.32812,-0.34375 -0.32812,-0.82812 0,-0.46875 0.32812,-0.79688 0.32813,-0.34375 0.79688,-0.34375 z m -0.89063,2.92188 h 1.78125 v 7.07812 H 689.419 Z m 5.67975,1.48437 v -2.4375 h 1.625 v 2.4375 h 2.4375 v 1.625 h -2.4375 v 2.4375 h -1.625 v -2.4375 h -2.4375 v -1.625 z m 7.34192,-1.60937 h -1.75 q 0.14062,-1.0625 0.76562,-1.71875 0.875,-0.89063 2.1875,-0.89063 1.17188,0 1.96875,0.75 0.8125,0.75 0.8125,1.78125 0,0.625 -0.35937,1.15625 -0.34375,0.53125 -1.01563,0.85938 0.875,0.25 1.35938,0.90625 0.5,0.64062 0.5,1.51562 0,1.29688 -0.95313,2.1875 -0.9375,0.89063 -2.42187,0.89063 -1.39063,0 -2.26563,-0.82813 -0.875,-0.84375 -0.96875,-2.29687 h 1.8125 q 0.10938,0.73437 0.51563,1.09375 0.40625,0.35937 1.01562,0.35937 0.625,0 1.04688,-0.40625 0.42187,-0.40625 0.42187,-1 0,-0.65625 -0.5625,-1.09375 -0.5625,-0.45312 -1.64062,-0.46875 v -1.5625 q 0.65625,-0.0469 0.98437,-0.20312 0.32813,-0.15625 0.5,-0.42188 0.1875,-0.26562 0.1875,-0.5625 0,-0.39062 -0.28125,-0.64062 -0.26562,-0.26563 -0.71875,-0.26563 -0.39062,0 -0.70312,0.23438 -0.3125,0.23437 -0.4375,0.625 z m 6.68329,5.40625 1.26562,0.625 -1.60937,2.75 -0.875,-0.42188 z m 6.06744,-7.78125 h 1.875 l 2.40625,6.8125 2.45313,-6.8125 h 1.875 l -3.45313,9.57812 h -1.76562 z m 8.89478,10.57812 h 6.8125 v 0.67188 h -6.8125 z m 8.33593,-11 q 0.46875,0 0.79688,0.34375 0.34375,0.34375 0.34375,0.8125 0,0.48438 -0.34375,0.82813 -0.32813,0.32812 -0.78125,0.32812 -0.48438,0 -0.8125,-0.34375 -0.32813,-0.34375 -0.32813,-0.82812 0,-0.46875 0.32813,-0.79688 0.32812,-0.34375 0.79687,-0.34375 z m -0.89062,2.92188 h 1.78125 v 7.07812 h -1.78125 z m 5.67975,1.48437 v -2.4375 h 1.625 v 2.4375 h 2.4375 v 1.625 h -2.4375 v 2.4375 h -1.625 v -2.4375 h -2.4375 v -1.625 z m 7.34192,-1.60937 h -1.75 q 0.14062,-1.0625 0.76562,-1.71875 0.875,-0.89063 2.1875,-0.89063 1.17188,0 1.96875,0.75 0.8125,0.75 0.8125,1.78125 0,0.625 -0.35937,1.15625 -0.34375,0.53125 -1.01563,0.85938 0.875,0.25 1.35938,0.90625 0.5,0.64062 0.5,1.51562 0,1.29688 -0.95313,2.1875 -0.9375,0.89063 -2.42187,0.89063 -1.39063,0 -2.26563,-0.82813 -0.875,-0.84375 -0.96875,-2.29687 h 1.8125 q 0.10938,0.73437 0.51563,1.09375 0.40625,0.35937 1.01562,0.35937 0.625,0 1.04688,-0.40625 0.42187,-0.40625 0.42187,-1 0,-0.65625 -0.5625,-1.09375 -0.5625,-0.45312 -1.64062,-0.46875 v -1.5625 q 0.65625,-0.0469 0.98437,-0.20312 0.32813,-0.15625 0.5,-0.42188 0.1875,-0.26562 0.1875,-0.5625 0,-0.39062 -0.28125,-0.64062 -0.26562,-0.26563 -0.71875,-0.26563 -0.39062,0 -0.70312,0.23438 -0.3125,0.23437 -0.4375,0.625 z"
       fill-rule="nonzero"
       id="path29" />
    <path
       fill="#4ea5b7"
       d="m 615.9982,108.15762 v 0 c 0,-3.85593 3.12585,-6.98177 6.98175,-6.98177 h 121.28058 c 1.85169,0 3.6275,0.73558 4.93683,2.04491 1.30933,1.30933 2.04492,3.08518 2.04492,4.93686 v 27.92622 c 0,3.85593 -3.12585,6.98177 -6.98175,6.98177 H 622.97995 c -3.8559,0 -6.98175,-3.12584 -6.98175,-6.98177 z"
       fill-rule="evenodd"
       id="path30" />
    <path
       stroke="#000000"
       stroke-width="1"
       stroke-linejoin="round"
       stroke-linecap="butt"
       d="m 615.9982,108.15762 v 0 c 0,-3.85593 3.12585,-6.98177 6.98175,-6.98177 h 121.28058 c 1.85169,0 3.6275,0.73558 4.93683,2.04491 1.30933,1.30933 2.04492,3.08518 2.04492,4.93686 v 27.92622 c 0,3.85593 -3.12585,6.98177 -6.98175,6.98177 H 622.97995 c -3.8559,0 -6.98175,-3.12584 -6.98175,-6.98177 z"
       fill-rule="evenodd"
       id="path31" />
    <path
       fill="#ffffff"
       d="m 627.5389,117.34261 h 1.84375 l 3.6875,9.57812 h -1.90625 l -0.75,-1.96875 h -3.89063 l -0.78125,1.96875 h -1.90625 z m 0.9375,2.54687 -1.28125,3.28125 h 2.54687 z m 6.01569,-2.65625 h 1.78125 v 2.60938 h 1.04687 v 1.53125 h -1.04687 v 5.54687 h -1.78125 v -5.54687 h -0.90625 v -1.53125 h 0.90625 z m 3.99585,0 h 1.78125 v 2.60938 h 1.04687 v 1.53125 h -1.04687 v 5.54687 h -1.78125 v -5.54687 h -0.90625 v -1.53125 h 0.90625 z m 3.7771,2.60938 h 1.78125 v 0.71875 q 0.60937,-0.5 1.09375,-0.70313 0.48437,-0.20312 1,-0.20312 1.0625,0 1.79687,0.73437 0.60938,0.625 0.60938,1.85938 v 4.67187 h -1.75 v -3.10937 q 0,-1.26563 -0.125,-1.67188 -0.10938,-0.42187 -0.39063,-0.64062 -0.28125,-0.21875 -0.70312,-0.21875 -0.53125,0 -0.92188,0.35937 -0.39062,0.35938 -0.53125,1 -0.0781,0.32813 -0.0781,1.4375 v 2.84375 h -1.78125 z m 9.57629,-2.92188 h 2.25 q -1.15625,1.3125 -1.73438,2.84375 -0.5625,1.53125 -0.5625,3.5 0,2.125 0.64063,3.73438 0.48437,1.25 1.65625,2.6875 h -2.25 q -1.03125,-1.64063 -1.45313,-3.07813 -0.40625,-1.45312 -0.40625,-3.40625 0,-1.90625 0.4375,-3.34375 0.4375,-1.4375 1.42188,-2.9375 z m 11.90686,8.59375 1.65625,2.15625 h -2.15625 l -0.84375,-1.07812 q -1.04688,0.5625 -2.34375,0.5625 -2.15625,0 -3.57813,-1.48438 -1.42187,-1.48437 -1.42187,-3.54687 0,-1.35938 0.65625,-2.5 0.67187,-1.15625 1.82812,-1.82813 1.17188,-0.6875 2.5,-0.6875 2.03125,0 3.48438,1.46875 1.46875,1.46875 1.46875,3.59375 0,1.9375 -1.25,3.34375 z m -1.14063,-1.46875 q 0.57813,-0.85937 0.57813,-1.89062 0,-1.35938 -0.92188,-2.3125 -0.92187,-0.95313 -2.21875,-0.95313 -1.34375,0 -2.25,0.92188 -0.90625,0.92187 -0.90625,2.35937 0,1.57813 1.14063,2.5 0.89062,0.73438 2.03125,0.73438 0.65625,0 1.21875,-0.26563 l -1.70313,-2.20312 h 2.17188 z m 4.61542,-7.125 q 0.46875,0 0.79688,0.34375 0.34375,0.34375 0.34375,0.8125 0,0.48438 -0.34375,0.82813 -0.32813,0.32812 -0.78125,0.32812 -0.48438,0 -0.8125,-0.34375 -0.32813,-0.34375 -0.32813,-0.82812 0,-0.46875 0.32813,-0.79688 0.32812,-0.34375 0.79687,-0.34375 z m -0.89062,2.92188 h 1.78125 v 7.07812 h -1.78125 z m 4.24225,5.28125 1.26562,0.625 -1.60937,2.75 -0.875,-0.42188 z m 6.81744,-7.78125 h 1.84375 v 3.29687 l 2.59375,-3.29687 h 2.1875 l -3.34375,4.28125 3.67187,5.29687 h -2.15625 l -2.95312,-4.25 v 4.25 h -1.84375 z m 8.74933,-0.42188 q 0.46875,0 0.79687,0.34375 0.34375,0.34375 0.34375,0.8125 0,0.48438 -0.34375,0.82813 -0.32812,0.32812 -0.78125,0.32812 -0.48437,0 -0.8125,-0.34375 -0.32812,-0.34375 -0.32812,-0.82812 0,-0.46875 0.32812,-0.79688 0.32813,-0.34375 0.79688,-0.34375 z m -0.89063,2.92188 h 1.78125 v 7.07812 h -1.78125 z m 5.67975,1.48437 v -2.4375 h 1.625 v 2.4375 h 2.4375 v 1.625 h -2.4375 v 2.4375 h -1.625 v -2.4375 h -2.4375 v -1.625 z m 7.13886,-0.89062 h -1.78125 q 0.0781,-1.54688 0.96875,-2.4375 0.90625,-0.89063 2.3125,-0.89063 0.875,0 1.54687,0.375 0.67188,0.35938 1.0625,1.0625 0.40625,0.6875 0.40625,1.40625 0,0.84375 -0.48437,1.82813 -0.48438,0.98437 -1.78125,2.32812 l -1.07813,1.125 h 3.42188 v 1.6875 h -6.64063 v -0.875 l 2.96875,-3.01562 q 1.07813,-1.09375 1.42188,-1.75 0.35937,-0.65625 0.35937,-1.1875 0,-0.5625 -0.375,-0.92188 -0.35937,-0.35937 -0.9375,-0.35937 -0.59375,0 -0.98437,0.4375 -0.39063,0.4375 -0.40625,1.1875 z m 6.88641,4.6875 1.26563,0.625 -1.60938,2.75 -0.875,-0.42188 z m 6.06738,-7.78125 h 1.875 l 2.40625,6.8125 2.45313,-6.8125 h 1.875 l -3.45313,9.57812 h -1.76562 z m 10.56665,-0.42188 q 0.46875,0 0.79688,0.34375 0.34375,0.34375 0.34375,0.8125 0,0.48438 -0.34375,0.82813 -0.32813,0.32812 -0.78125,0.32812 -0.48438,0 -0.8125,-0.34375 -0.32813,-0.34375 -0.32813,-0.82812 0,-0.46875 0.32813,-0.79688 0.32812,-0.34375 0.79687,-0.34375 z m -0.89062,2.92188 h 1.78125 v 7.07812 h -1.78125 z m 5.67975,1.48437 v -2.4375 h 1.625 v 2.4375 h 2.4375 v 1.625 h -2.4375 v 2.4375 h -1.625 v -2.4375 h -2.4375 v -1.625 z m 7.13885,-0.89062 h -1.78125 q 0.0781,-1.54688 0.96875,-2.4375 0.90625,-0.89063 2.3125,-0.89063 0.875,0 1.54688,0.375 0.67187,0.35938 1.0625,1.0625 0.40625,0.6875 0.40625,1.40625 0,0.84375 -0.48438,1.82813 -0.48437,0.98437 -1.78125,2.32812 l -1.07812,1.125 h 3.42187 v 1.6875 h -6.64062 v -0.875 l 2.96875,-3.01562 q 1.07812,-1.09375 1.42187,-1.75 0.35938,-0.65625 0.35938,-1.1875 0,-0.5625 -0.375,-0.92188 -0.35938,-0.35937 -0.9375,-0.35937 -0.59375,0 -0.98438,0.4375 -0.39062,0.4375 -0.40625,1.1875 z m 7.73017,9.25 h -2.25 q 1.15625,-1.29688 1.71875,-2.82813 0.57812,-1.53125 0.57812,-3.5 0,-2.125 -0.625,-3.73437 -0.5,-1.23438 -1.67187,-2.70313 h 2.25 q 1.04687,1.65625 1.45312,3.10938 0.42188,1.4375 0.42188,3.39062 0,1.90625 -0.4375,3.34375 -0.4375,1.4375 -1.4375,2.92188 z"
       fill-rule="nonzero"
       id="path32" />
  </g>
</svg>
