<?xml version="1.0" encoding="UTF-8" standalone="no"?>
<svg
   version="1.1"
   viewBox="0 0 856.93304 166.11024"
   fill="none"
   stroke="none"
   stroke-linecap="square"
   stroke-miterlimit="10"
   id="svg61"
   sodipodi:docname="dp_overlap3.svg"
   width="856.93304"
   height="166.11024"
   xmlns:inkscape="http://www.inkscape.org/namespaces/inkscape"
   xmlns:sodipodi="http://sodipodi.sourceforge.net/DTD/sodipodi-0.dtd"
   xmlns="http://www.w3.org/2000/svg"
   xmlns:svg="http://www.w3.org/2000/svg">
  <defs
     id="defs61" />
  <sodipodi:namedview
     id="namedview61"
     pagecolor="#ffffff"
     bordercolor="#000000"
     borderopacity="0.25"
     inkscape:showpageshadow="2"
     inkscape:pageopacity="0.0"
     inkscape:pagecheckerboard="0"
     inkscape:deskcolor="#d1d1d1"
     fit-margin-top="20"
     fit-margin-left="20"
     fit-margin-right="20"
     fit-margin-bottom="20" />
  <clipPath
     id="g32fab39dd2f_0_141.0">
    <path
       d="M 0,0 H 960 V 540 H 0 Z"
       clip-rule="nonzero"
       id="path1" />
  </clipPath>
  <g
     clip-path="url(#g32fab39dd2f_0_141.0)"
     id="g61"
     transform="translate(-85.55118,-205.24147)">
    <path
       fill="#000000"
       fill-opacity="0"
       d="m 209.82152,217.58792 h 166.11024 v 42.01575 H 209.82152 Z"
       fill-rule="evenodd"
       id="path3" />
    <path
       fill="#000000"
       d="m 258.2471,231.10167 h 6.65625 v 2.5 h -4.125 v 2.42188 h 4.125 v 2.45312 h -4.125 v 6.03125 h -2.53125 z m 13.2984,3.23438 q 1.40625,0 2.64063,0.70312 1.23437,0.70313 1.92187,1.90625 0.70313,1.20313 0.70313,2.59375 0,1.40625 -0.70313,2.625 -0.6875,1.21875 -1.89062,1.90625 -1.20313,0.6875 -2.65625,0.6875 -2.125,0 -3.64063,-1.51562 -1.5,-1.51563 -1.5,-3.6875 0,-2.3125 1.70313,-3.85938 1.48437,-1.35937 3.42187,-1.35937 z m 0.0469,2.34375 q -1.15625,0 -1.9375,0.8125 -0.76563,0.79687 -0.76563,2.0625 0,1.29687 0.75,2.09375 0.76563,0.79687 1.9375,0.79687 1.17188,0 1.9375,-0.8125 0.78125,-0.8125 0.78125,-2.07812 0,-1.28125 -0.76562,-2.07813 -0.76563,-0.79687 -1.9375,-0.79687 z m 6.66128,-2.07813 h 2.14063 v 1.25 q 0.34375,-0.75 0.90625,-1.125 0.57812,-0.39062 1.26562,-0.39062 0.48438,0 1.01563,0.26562 l -0.78125,2.14063 q -0.4375,-0.21875 -0.71875,-0.21875 -0.57813,0 -0.96875,0.71875 -0.39063,0.70312 -0.39063,2.78125 v 0.46875 4.01562 h -2.46875 z m 5.45111,0 h 2.4375 l 1.98438,5.64063 2.15625,-5.64063 h 1.48437 l 2.10938,5.5625 1.98437,-5.5625 h 2.45313 l -3.60938,9.90625 h -1.57812 l -2.125,-5.64062 -2.17188,5.64062 h -1.5625 z m 23.34323,0 h 2.48438 v 9.90625 h -2.4844 v -1.04687 q -0.71875,0.6875 -1.45312,1 -0.73438,0.29687 -1.59375,0.29687 -1.92188,0 -3.32813,-1.48437 -1.40625,-1.48438 -1.40625,-3.70313 0,-2.29687 1.35938,-3.76562 1.35937,-1.46875 3.29687,-1.46875 0.89063,0 1.67188,0.34375 0.79687,0.34375 1.45312,1.01562 z m -2.60937,2.03125 q -1.15625,0 -1.92188,0.82813 -0.76562,0.8125 -0.76562,2.07812 0,1.28125 0.78125,2.125 0.78125,0.82813 1.90625,0.82813 1.1875,0 1.95312,-0.8125 0.78125,-0.82813 0.78125,-2.14063 0,-1.29687 -0.78125,-2.09375 -0.76562,-0.8125 -1.95312,-0.8125 z m 7.01916,-2.03125 h 2.14063 v 1.25 q 0.34375,-0.75 0.90625,-1.125 0.57812,-0.39062 1.26562,-0.39062 0.48438,0 1.01563,0.26562 l -0.78125,2.14063 q -0.4375,-0.21875 -0.71875,-0.21875 -0.57813,0 -0.96875,0.71875 -0.39063,0.70312 -0.39063,2.78125 v 0.46875 4.01562 h -2.46875 z m 13.87296,-3.82812 h 2.48437 v 13.73437 h -2.48437 v -1.04687 q -0.71875,0.6875 -1.45313,1 -0.73437,0.29687 -1.59375,0.29687 -1.92187,0 -3.32812,-1.48437 -1.40625,-1.48438 -1.40625,-3.70313 0,-2.29687 1.35937,-3.76562 1.35938,-1.46875 3.29688,-1.46875 0.89062,0 1.67187,0.34375 0.79688,0.34375 1.45313,1.01562 z m -2.60938,5.85937 q -1.15625,0 -1.92187,0.82813 -0.76563,0.8125 -0.76563,2.07812 0,1.28125 0.78125,2.125 0.78125,0.82813 1.90625,0.82813 1.1875,0 1.95313,-0.8125 0.78125,-0.82813 0.78125,-2.14063 0,-1.29687 -0.78125,-2.09375 -0.76563,-0.8125 -1.95313,-0.8125 z"
       fill-rule="nonzero"
       id="path4" />
    <path
       fill="#000000"
       fill-opacity="0"
       d="M 395.64304,217.21785 H 561.7533 v 42.01573 H 395.64304 Z"
       fill-rule="evenodd"
       id="path5" />
    <path
       fill="#000000"
       d="M 434.51794,244.13785 V 230.7316 h 2.10937 q 1.82813,0 2.67188,0.25 1.20312,0.3125 1.90625,1.1875 0.71875,0.85937 0.71875,2.03125 0,0.76562 -0.32813,1.39062 -0.3125,0.625 -1.04687,1.17188 1.21875,0.5625 1.78125,1.4375 0.5625,0.85937 0.5625,2.03125 0,1.125 -0.57813,2.0625 -0.57812,0.92187 -1.5,1.39062 -0.92187,0.45313 -2.54687,0.45313 z m 2.54687,-10.96875 v 2.82812 h 0.5625 q 0.92188,0 1.375,-0.39062 0.45313,-0.39063 0.45313,-1.0625 0,-0.64063 -0.4375,-1 -0.42188,-0.375 -1.29688,-0.375 z m 0,5.10937 v 3.42188 h 0.64063 q 1.57812,0 2.125,-0.39063 0.5625,-0.40625 0.5625,-1.17187 0,-0.85938 -0.65625,-1.35938 -0.64063,-0.5 -2.14063,-0.5 z m 15.32209,-4.04687 h 2.48437 v 9.90625 h -2.48437 v -1.04688 q -0.71875,0.6875 -1.45313,1 -0.73437,0.29688 -1.59375,0.29688 -1.92187,0 -3.32812,-1.48438 -1.40625,-1.48437 -1.40625,-3.70312 0,-2.29688 1.35937,-3.76563 1.35938,-1.46875 3.29688,-1.46875 0.89062,0 1.67187,0.34375 0.79688,0.34375 1.45313,1.01563 z m -2.60938,2.03125 q -1.15625,0 -1.92187,0.82812 -0.76563,0.8125 -0.76563,2.07813 0,1.28125 0.78125,2.125 0.78125,0.82812 1.90625,0.82812 1.1875,0 1.95313,-0.8125 0.78125,-0.82812 0.78125,-2.14062 0,-1.29688 -0.78125,-2.09375 -0.76563,-0.8125 -1.95313,-0.8125 z m 17.30042,-0.0312 -2.0625,1.14062 q -0.57813,-0.60937 -1.15625,-0.84375 -0.5625,-0.25 -1.32813,-0.25 -1.39062,0 -2.26562,0.84375 -0.85938,0.82813 -0.85938,2.14063 0,1.26562 0.82813,2.0625 0.84375,0.79687 2.1875,0.79687 1.67187,0 2.59375,-1.14062 l 1.95312,1.34375 q -1.59375,2.0625 -4.5,2.0625 -2.60937,0 -4.09375,-1.54688 -1.46875,-1.54687 -1.46875,-3.625 0,-1.4375 0.71875,-2.64062 0.71875,-1.21875 2,-1.90625 1.29688,-0.70313 2.89063,-0.70313 1.46875,0 2.64062,0.59375 1.1875,0.59375 1.92188,1.67188 z m 2.27069,-5.82813 h 2.48437 v 7.90625 l 3.65625,-4.07812 h 3.125 l -4.26562,4.75 4.78125,5.15625 h -3.09375 l -4.20313,-4.5625 v 4.5625 h -2.48437 z m 9.69708,3.82813 h 2.4375 l 1.98438,5.64062 2.15625,-5.64062 h 1.48437 l 2.10938,5.5625 1.98437,-5.5625 h 2.45313 l -3.60938,9.90625 h -1.57812 l -2.125,-5.64063 -2.17188,5.64063 h -1.5625 z m 23.34323,0 h 2.48438 v 9.90625 h -2.48438 v -1.04688 q -0.71875,0.6875 -1.45312,1 -0.73438,0.29688 -1.59375,0.29688 -1.92188,0 -3.32813,-1.48438 -1.40625,-1.48437 -1.40625,-3.70312 0,-2.29688 1.35938,-3.76563 1.35937,-1.46875 3.29687,-1.46875 0.89063,0 1.67188,0.34375 0.79687,0.34375 1.45312,1.01563 z m -2.60937,2.03125 q -1.15625,0 -1.92188,0.82812 -0.76562,0.8125 -0.76562,2.07813 0,1.28125 0.78125,2.125 0.78125,0.82812 1.90625,0.82812 1.1875,0 1.95312,-0.8125 0.78125,-0.82812 0.78125,-2.14062 0,-1.29688 -0.78125,-2.09375 -0.76562,-0.8125 -1.95312,-0.8125 z m 7.01916,-2.03125 h 2.14063 v 1.25 q 0.34375,-0.75 0.90625,-1.125 0.57812,-0.39063 1.26562,-0.39063 0.48438,0 1.0156,0.26563 l -0.78122,2.14062 q -0.4375,-0.21875 -0.71875,-0.21875 -0.57813,0 -0.96875,0.71875 -0.39063,0.70313 -0.39063,2.78125 v 0.46875 4.01563 h -2.46875 z m 13.87296,-3.82813 h 2.48437 v 13.73438 h -2.48437 v -1.04688 q -0.71875,0.6875 -1.45313,1 -0.73437,0.29688 -1.59375,0.29688 -1.92187,0 -3.32812,-1.48438 -1.40625,-1.48437 -1.40625,-3.70312 0,-2.29688 1.35937,-3.76563 1.35938,-1.46875 3.29688,-1.46875 0.89062,0 1.67187,0.34375 0.79688,0.34375 1.45313,1.01563 z m -2.60938,5.85938 q -1.15625,0 -1.92187,0.82812 -0.76563,0.8125 -0.76563,2.07813 0,1.28125 0.78125,2.125 0.78125,0.82812 1.90625,0.82812 1.1875,0 1.95313,-0.8125 0.78125,-0.82812 0.78125,-2.14062 0,-1.29688 -0.78125,-2.09375 -0.76563,-0.8125 -1.95313,-0.8125 z"
       fill-rule="nonzero"
       id="path6" />
    <path
       fill="#000000"
       fill-opacity="0"
       d="m 85.55118,290.6404 h 166.11024 v 19.40158 H 85.55118 Z"
       fill-rule="evenodd"
       id="path7" />
    <path
       fill="#000000"
       d="m 106.47305,296.37543 -1.53125,1.53125 q -1.46875,-1.54688 -3.40625,-1.54688 -1.703125,0 -2.84375,1.125 -1.140625,1.125 -1.140625,2.73438 0,1.65625 1.1875,2.8125 1.1875,1.15625 2.921875,1.15625 1.14063,0 1.90625,-0.46875 0.78125,-0.48438 1.26563,-1.5 h -3.32813 v -2.04688 h 5.78125 l 0.0156,0.48438 q 0,1.5 -0.78125,2.85937 -0.78125,1.34375 -2.03125,2.0625 -1.23438,0.71875 -2.90625,0.71875 -1.79688,0 -3.20313,-0.78125 -1.390625,-0.78125 -2.21875,-2.21875 -0.8125,-1.4375 -0.8125,-3.10937 0,-2.28125 1.515625,-3.96875 1.78125,-2 4.656255,-2 1.5,0 2.79687,0.54687 1.10938,0.46875 2.15625,1.60938 z m 2.82813,-1.875 h 2.3125 q 1.89062,0 2.71875,0.35937 0.82812,0.34375 1.3125,1.125 0.48437,0.76563 0.48437,1.85938 0,1.20312 -0.64062,2 -0.625,0.79687 -1.70313,1.10937 -0.625,0.17188 -2.29687,0.17188 v 4.875 h -2.1875 z m 2.1875,4.5 h 0.6875 q 0.82812,0 1.14062,-0.10938 0.32813,-0.125 0.5,-0.39062 0.1875,-0.28125 0.1875,-0.65625 0,-0.67188 -0.51562,-0.96875 -0.375,-0.23438 -1.39063,-0.23438 h -0.60937 z m 6.69531,-4.5 h 2.20312 v 7.4375 q 0,0.96875 0.15625,1.375 0.17188,0.39062 0.5625,0.625 0.39063,0.23437 0.9375,0.23437 0.57813,0 0.98438,-0.26562 0.42187,-0.26563 0.57812,-0.67188 0.17188,-0.40625 0.17188,-1.5625 v -7.17187 h 2.1875 v 6.85937 q 0,1.73438 -0.20313,2.40625 -0.1875,0.67188 -0.73437,1.29688 -0.54688,0.625 -1.26563,0.9375 -0.71875,0.29687 -1.67187,0.29687 -1.25,0 -2.1875,-0.57812 -0.92188,-0.57813 -1.32813,-1.4375 -0.39062,-0.875 -0.39062,-2.92188 z m 25.35937,2.03125 -1.53125,1.45312 q -1.5625,-1.64062 -3.51562,-1.64062 -1.64063,0 -2.78125,1.125 -1.125,1.125 -1.125,2.76562 0,1.15625 0.5,2.04688 0.5,0.89062 1.40625,1.40625 0.92187,0.5 2.04687,0.5 0.95313,0 1.73438,-0.35938 0.79687,-0.35937 1.73437,-1.29687 l 1.48438,1.54687 q -1.26563,1.25 -2.40625,1.73438 -1.125,0.48437 -2.57813,0.48437 -2.6875,0 -4.39062,-1.70312 -1.70313,-1.70313 -1.70313,-4.35938 0,-1.71875 0.76563,-3.04687 0.78125,-1.34375 2.23437,-2.15625 1.45313,-0.8125 3.125,-0.8125 1.42188,0 2.73438,0.60937 1.3125,0.59375 2.26562,1.70313 z m 5.67969,0.75 q 1.20312,0 2.25,0.60937 1.0625,0.59375 1.65625,1.625 0.59375,1.03125 0.59375,2.21875 0,1.20313 -0.59375,2.25 -0.59375,1.04688 -1.625,1.64063 -1.03125,0.59375 -2.28125,0.59375 -1.82813,0 -3.125,-1.29688 -1.28125,-1.3125 -1.28125,-3.17187 0,-1.98438 1.45312,-3.3125 1.28125,-1.15625 2.95313,-1.15625 z m 0.0312,2 q -1,0 -1.65625,0.70312 -0.65625,0.6875 -0.65625,1.76563 0,1.10937 0.64062,1.79687 0.65625,0.6875 1.65625,0.6875 1,0 1.65625,-0.6875 0.67188,-0.70312 0.67188,-1.79687 0,-1.09375 -0.65625,-1.78125 -0.64063,-0.6875 -1.65625,-0.6875 z m 6.19531,-1.78125 h 2.14063 v 0.96875 q 0.54687,-0.59375 1.21875,-0.89063 0.67187,-0.29687 1.45312,-0.29687 0.79688,0 1.4375,0.39062 0.64063,0.39063 1.03125,1.14063 0.51563,-0.75 1.25,-1.14063 0.73438,-0.39062 1.60938,-0.39062 0.90625,0 1.59375,0.42187 0.6875,0.42188 0.98437,1.10938 0.3125,0.67187 0.3125,2.20312 v 4.98438 h -2.15625 v -4.3125 q 0,-1.45313 -0.35937,-1.95313 -0.35938,-0.51562 -1.07813,-0.51562 -0.54687,0 -0.98437,0.3125 -0.42188,0.3125 -0.64063,0.85937 -0.20312,0.54688 -0.20312,1.76563 v 3.84375 h -2.15625 v -4.125 q 0,-1.14063 -0.17188,-1.64063 -0.15625,-0.51562 -0.5,-0.76562 -0.32812,-0.25 -0.8125,-0.25 -0.53125,0 -0.96875,0.3125 -0.42187,0.3125 -0.64062,0.89062 -0.21875,0.5625 -0.21875,1.79688 v 3.78125 h -2.14063 z m 17.17969,0 v 0.9375 q 0.57813,-0.57813 1.25,-0.85938 0.67188,-0.29687 1.4375,-0.29687 1.65625,0 2.8125,1.26562 1.17188,1.25 1.17188,3.21875 0,1.89063 -1.20313,3.17188 -1.20312,1.28125 -2.84375,1.28125 -0.73437,0 -1.375,-0.26563 -0.625,-0.26562 -1.25,-0.85937 v 4.01562 h -2.125 v -11.60937 z m 2.23438,1.75 q -1,0 -1.67188,0.6875 -0.65625,0.6875 -0.65625,1.79687 0,1.125 0.65625,1.82813 0.67188,0.70312 1.67188,0.70312 0.98437,0 1.64062,-0.70312 0.67188,-0.71875 0.67188,-1.82813 0,-1.09375 -0.65625,-1.78125 -0.65625,-0.70312 -1.65625,-0.70312 z m 6.20312,-1.75 h 2.15625 v 4.09375 q 0,1.1875 0.15625,1.65625 0.17188,0.46875 0.53125,0.73437 0.35938,0.25 0.89063,0.25 0.53125,0 0.90625,-0.25 0.375,-0.26562 0.54687,-0.75 0.14063,-0.375 0.14063,-1.57812 v -4.15625 h 2.14062 v 3.59375 q 0,2.23437 -0.35937,3.04687 -0.42188,1 -1.26563,1.54688 -0.82812,0.53125 -2.125,0.53125 -1.39062,0 -2.26562,-0.625 -0.85938,-0.625 -1.20313,-1.75 -0.25,-0.76563 -0.25,-2.8125 z m 9.86719,-3.14063 h 2.125 v 3.14063 h 1.26562 v 1.82812 h -1.26562 v 6.67188 h -2.125 v -6.67188 h -1.09375 v -1.82812 h 1.09375 z m 10.8125,3.14063 h 2.125 v 8.5 h -2.125 v -0.90625 q -0.625,0.59375 -1.25,0.85937 -0.625,0.26563 -1.35938,0.26563 -1.65625,0 -2.85937,-1.28125 -1.20313,-1.28125 -1.20313,-3.17188 0,-1.96875 1.15625,-3.21875 1.17188,-1.26562 2.84375,-1.26562 0.76563,0 1.4375,0.29687 0.67188,0.28125 1.23438,0.85938 z m -2.23438,1.75 q -1,0 -1.65625,0.70312 -0.65625,0.6875 -0.65625,1.78125 0,1.10938 0.67188,1.82813 0.67187,0.70312 1.64062,0.70312 1.01563,0 1.67188,-0.70312 0.67187,-0.70313 0.67187,-1.82813 0,-1.10937 -0.67187,-1.79687 -0.65625,-0.6875 -1.67188,-0.6875 z m 6.78125,-4.89063 h 2.125 v 3.14063 h 1.26563 v 1.82812 h -1.26563 v 6.67188 h -2.125 v -6.67188 h -1.09375 v -1.82812 h 1.09375 z m 5.375,-0.35937 q 0.5625,0 0.95313,0.40625 0.40625,0.40625 0.40625,0.98437 0,0.5625 -0.40625,0.96875 -0.39063,0.40625 -0.9375,0.40625 -0.57813,0 -0.98438,-0.40625 -0.39062,-0.42187 -0.39062,-1 0,-0.5625 0.39062,-0.95312 0.40625,-0.40625 0.96875,-0.40625 z m -1.07812,3.5 h 2.14062 v 8.5 h -2.14062 z m 8.07031,-0.21875 q 1.20313,0 2.25,0.60937 1.0625,0.59375 1.65625,1.625 0.59375,1.03125 0.59375,2.21875 0,1.20313 -0.59375,2.25 -0.59375,1.04688 -1.625,1.64063 -1.03125,0.59375 -2.28125,0.59375 -1.82812,0 -3.125,-1.29688 -1.28125,-1.3125 -1.28125,-3.17187 0,-1.98438 1.45313,-3.3125 1.28125,-1.15625 2.95312,-1.15625 z m 0.0312,2 q -1,0 -1.65625,0.70312 -0.65625,0.6875 -0.65625,1.76563 0,1.10937 0.64063,1.79687 0.65625,0.6875 1.65625,0.6875 1,0 1.65625,-0.6875 0.67187,-0.70312 0.67187,-1.79687 0,-1.09375 -0.65625,-1.78125 -0.64062,-0.6875 -1.65625,-0.6875 z m 6.21094,-1.78125 h 2.125 v 0.85937 q 0.73437,-0.60937 1.3125,-0.84375 0.59375,-0.23437 1.21875,-0.23437 1.26562,0 2.14062,0.875 0.75,0.75 0.75,2.21875 v 5.625 h -2.10937 v -3.73438 q 0,-1.51562 -0.14063,-2.01562 -0.14062,-0.5 -0.48437,-0.76563 -0.32813,-0.26562 -0.82813,-0.26562 -0.65625,0 -1.125,0.4375 -0.45312,0.4375 -0.64062,1.20312 -0.0937,0.39063 -0.0937,1.71875 v 3.42188 h -2.125 z m 10.77344,-0.21875 q 0.5,0 0.85937,0.35937 0.35938,0.35938 0.35938,0.85938 0,0.5 -0.35938,0.85937 -0.35937,0.35938 -0.85937,0.35938 -0.51563,0 -0.875,-0.34375 -0.35938,-0.35938 -0.35938,-0.875 0,-0.5 0.35938,-0.85938 0.35937,-0.35937 0.875,-0.35937 z m 0,6.48437 q 0.5,0 0.85937,0.35938 0.35938,0.35937 0.35938,0.85937 0,0.51563 -0.35938,0.875 -0.35937,0.35938 -0.85937,0.35938 -0.51563,0 -0.875,-0.35938 -0.35938,-0.35937 -0.35938,-0.875 0,-0.5 0.35938,-0.85937 0.35937,-0.35938 0.875,-0.35938 z"
       fill-rule="nonzero"
       id="path8" />
    <path
       fill="#000000"
       fill-opacity="0"
       d="m 85.55118,332.53018 h 186.96063 v 19.40158 H 85.55118 Z"
       fill-rule="evenodd"
       id="path9" />
    <path
       fill="#000000"
       d="m 106.47305,338.2652 -1.53125,1.53125 q -1.46875,-1.54688 -3.40625,-1.54688 -1.703125,0 -2.84375,1.125 -1.140625,1.125 -1.140625,2.73438 0,1.65625 1.1875,2.8125 1.1875,1.15625 2.921875,1.15625 1.14063,0 1.90625,-0.46875 0.78125,-0.48438 1.26563,-1.5 h -3.32813 v -2.04688 h 5.78125 l 0.0156,0.48438 q 0,1.5 -0.78125,2.85937 -0.78125,1.34375 -2.03125,2.0625 -1.23438,0.71875 -2.90625,0.71875 -1.79688,0 -3.20313,-0.78125 -1.390625,-0.78125 -2.21875,-2.21875 -0.8125,-1.4375 -0.8125,-3.10937 0,-2.28125 1.515625,-3.96875 1.78125,-2 4.656255,-2 1.5,0 2.79687,0.54687 1.10938,0.46875 2.15625,1.60938 z m 2.82813,-1.875 h 2.3125 q 1.89062,0 2.71875,0.35937 0.82812,0.34375 1.3125,1.125 0.48437,0.76563 0.48437,1.85938 0,1.20312 -0.64062,2 -0.625,0.79687 -1.70313,1.10937 -0.625,0.17188 -2.29687,0.17188 v 4.875 h -2.1875 z m 2.1875,4.5 h 0.6875 q 0.82812,0 1.14062,-0.10938 0.32813,-0.125 0.5,-0.39062 0.1875,-0.28125 0.1875,-0.65625 0,-0.67188 -0.51562,-0.96875 -0.375,-0.23438 -1.39063,-0.23438 h -0.60937 z m 6.69531,-4.5 h 2.20312 v 7.4375 q 0,0.96875 0.15625,1.375 0.17188,0.39062 0.5625,0.625 0.39063,0.23437 0.9375,0.23437 0.57813,0 0.98438,-0.26562 0.42187,-0.26563 0.57812,-0.67188 0.17188,-0.40625 0.17188,-1.5625 v -7.17187 h 2.1875 v 6.85937 q 0,1.73438 -0.20313,2.40625 -0.1875,0.67188 -0.73437,1.29688 -0.54688,0.625 -1.26563,0.9375 -0.71875,0.29687 -1.67187,0.29687 -1.25,0 -2.1875,-0.57812 -0.92188,-0.57813 -1.32813,-1.4375 -0.39062,-0.875 -0.39062,-2.92188 z m 25.35937,2.03125 -1.53125,1.45312 q -1.5625,-1.64062 -3.51562,-1.64062 -1.64063,0 -2.78125,1.125 -1.125,1.125 -1.125,2.76562 0,1.15625 0.5,2.04688 0.5,0.89062 1.40625,1.40625 0.92187,0.5 2.04687,0.5 0.95313,0 1.73438,-0.35938 0.79687,-0.35937 1.73437,-1.29687 l 1.48438,1.54687 q -1.26563,1.25 -2.40625,1.73438 -1.125,0.48437 -2.57813,0.48437 -2.6875,0 -4.39062,-1.70312 -1.70313,-1.70313 -1.70313,-4.35938 0,-1.71875 0.76563,-3.04687 0.78125,-1.34375 2.23437,-2.15625 1.45313,-0.8125 3.125,-0.8125 1.42188,0 2.73438,0.60937 1.3125,0.59375 2.26562,1.70313 z m 5.67969,0.75 q 1.20312,0 2.25,0.60937 1.0625,0.59375 1.65625,1.625 0.59375,1.03125 0.59375,2.21875 0,1.20313 -0.59375,2.25 -0.59375,1.04688 -1.625,1.64063 -1.03125,0.59375 -2.28125,0.59375 -1.82813,0 -3.125,-1.29688 -1.28125,-1.3125 -1.28125,-3.17187 0,-1.98438 1.45312,-3.3125 1.28125,-1.15625 2.95313,-1.15625 z m 0.0312,2 q -1,0 -1.65625,0.70312 -0.65625,0.6875 -0.65625,1.76563 0,1.10937 0.64062,1.79687 0.65625,0.6875 1.65625,0.6875 1,0 1.65625,-0.6875 0.67188,-0.70312 0.67188,-1.79687 0,-1.09375 -0.65625,-1.78125 -0.64063,-0.6875 -1.65625,-0.6875 z m 6.19531,-1.78125 h 2.14063 v 0.96875 q 0.54687,-0.59375 1.21875,-0.89063 0.67187,-0.29687 1.45312,-0.29687 0.79688,0 1.4375,0.39062 0.64063,0.39063 1.03125,1.14063 0.51563,-0.75 1.25,-1.14063 0.73438,-0.39062 1.60938,-0.39062 0.90625,0 1.59375,0.42187 0.6875,0.42188 0.98437,1.10938 0.3125,0.67187 0.3125,2.20312 v 4.98438 h -2.15625 v -4.3125 q 0,-1.45313 -0.35937,-1.95313 -0.35938,-0.51562 -1.07813,-0.51562 -0.54687,0 -0.98437,0.3125 -0.42188,0.3125 -0.64063,0.85937 -0.20312,0.54688 -0.20312,1.76563 v 3.84375 h -2.15625 v -4.125 q 0,-1.14063 -0.17188,-1.64063 -0.15625,-0.51562 -0.5,-0.76562 -0.32812,-0.25 -0.8125,-0.25 -0.53125,0 -0.96875,0.3125 -0.42187,0.3125 -0.64062,0.89062 -0.21875,0.5625 -0.21875,1.79688 v 3.78125 h -2.14063 z m 15.03906,0 h 2.14063 v 0.96875 q 0.54687,-0.59375 1.21875,-0.89063 0.67187,-0.29687 1.45312,-0.29687 0.79688,0 1.4375,0.39062 0.64063,0.39063 1.03125,1.14063 0.51563,-0.75 1.25,-1.14063 0.73438,-0.39062 1.60938,-0.39062 0.90625,0 1.59375,0.42187 0.6875,0.42188 0.98437,1.10938 0.3125,0.67187 0.3125,2.20312 v 4.98438 h -2.15625 v -4.3125 q 0,-1.45313 -0.35937,-1.95313 -0.35938,-0.51562 -1.07813,-0.51562 -0.54687,0 -0.98437,0.3125 -0.42188,0.3125 -0.64063,0.85937 -0.20312,0.54688 -0.20312,1.76563 v 3.84375 h -2.15625 v -4.125 q 0,-1.14063 -0.17188,-1.64063 -0.15625,-0.51562 -0.5,-0.76562 -0.32812,-0.25 -0.8125,-0.25 -0.53125,0 -0.96875,0.3125 -0.42187,0.3125 -0.64062,0.89062 -0.21875,0.5625 -0.21875,1.79688 v 3.78125 h -2.14063 z m 15.05469,0 h 2.15625 v 4.09375 q 0,1.1875 0.15625,1.65625 0.17188,0.46875 0.53125,0.73437 0.35938,0.25 0.89063,0.25 0.53125,0 0.90625,-0.25 0.375,-0.26562 0.54687,-0.75 0.14063,-0.375 0.14063,-1.57812 v -4.15625 h 2.14062 v 3.59375 q 0,2.23437 -0.35937,3.04687 -0.42188,1 -1.26563,1.54688 -0.82812,0.53125 -2.125,0.53125 -1.39062,0 -2.26562,-0.625 -0.85938,-0.625 -1.20313,-1.75 -0.25,-0.76563 -0.25,-2.8125 z m 9.60156,0 h 2.125 v 0.85937 q 0.73438,-0.60937 1.3125,-0.84375 0.59375,-0.23437 1.21875,-0.23437 1.26563,0 2.14063,0.875 0.75,0.75 0.75,2.21875 v 5.625 h -2.10938 v -3.73438 q 0,-1.51562 -0.14062,-2.01562 -0.14063,-0.5 -0.48438,-0.76563 -0.32812,-0.26562 -0.82812,-0.26562 -0.65625,0 -1.125,0.4375 -0.45313,0.4375 -0.64063,1.20312 -0.0937,0.39063 -0.0937,1.71875 v 3.42188 h -2.125 z m 10.44532,-3.5 q 0.5625,0 0.95312,0.40625 0.40625,0.40625 0.40625,0.98437 0,0.5625 -0.40625,0.96875 -0.39062,0.40625 -0.9375,0.40625 -0.57812,0 -0.98437,-0.40625 -0.39063,-0.42187 -0.39063,-1 0,-0.5625 0.39063,-0.95312 0.40625,-0.40625 0.96875,-0.40625 z m -1.07813,3.5 h 2.14063 v 8.5 h -2.14063 z m 12.39844,1.71875 -1.78125,0.96875 q -0.5,-0.51563 -0.98438,-0.71875 -0.48437,-0.20313 -1.14062,-0.20313 -1.20313,0 -1.9375,0.71875 -0.73438,0.70313 -0.73438,1.82813 0,1.07812 0.70313,1.76562 0.71875,0.6875 1.875,0.6875 1.42187,0 2.21875,-0.96875 l 1.6875,1.14063 q -1.375,1.78125 -3.85938,1.78125 -2.25,0 -3.51562,-1.32813 -1.26563,-1.32812 -1.26563,-3.10937 0,-1.23438 0.60938,-2.26563 0.625,-1.04687 1.71875,-1.64062 1.10937,-0.59375 2.48437,-0.59375 1.26563,0 2.26563,0.5 1.01562,0.5 1.65625,1.4375 z m 8.19531,-1.71875 h 2.125 v 8.5 h -2.125 v -0.90625 q -0.625,0.59375 -1.25,0.85937 -0.625,0.26563 -1.35937,0.26563 -1.65625,0 -2.85938,-1.28125 -1.20312,-1.28125 -1.20312,-3.17188 0,-1.96875 1.15625,-3.21875 1.17187,-1.26562 2.84375,-1.26562 0.76562,0 1.4375,0.29687 0.67187,0.28125 1.23437,0.85938 z m -2.23437,1.75 q -1,0 -1.65625,0.70312 -0.65625,0.6875 -0.65625,1.78125 0,1.10938 0.67187,1.82813 0.67188,0.70312 1.64063,0.70312 1.01562,0 1.67187,-0.70312 0.67188,-0.70313 0.67188,-1.82813 0,-1.10937 -0.67188,-1.79687 -0.65625,-0.6875 -1.67187,-0.6875 z m 6.78125,-4.89063 h 2.125 v 3.14063 h 1.26562 v 1.82812 h -1.26562 v 6.67188 h -2.125 v -6.67188 h -1.09375 v -1.82812 h 1.09375 z m 5.375,-0.35937 q 0.5625,0 0.95312,0.40625 0.40625,0.40625 0.40625,0.98437 0,0.5625 -0.40625,0.96875 -0.39062,0.40625 -0.9375,0.40625 -0.57812,0 -0.98437,-0.40625 -0.39063,-0.42187 -0.39063,-1 0,-0.5625 0.39063,-0.95312 0.40625,-0.40625 0.96875,-0.40625 z m -1.07813,3.5 h 2.14063 v 8.5 h -2.14063 z m 8.07031,-0.21875 q 1.20313,0 2.25,0.60937 1.0625,0.59375 1.65625,1.625 0.59375,1.03125 0.59375,2.21875 0,1.20313 -0.59375,2.25 -0.59375,1.04688 -1.625,1.64063 -1.03125,0.59375 -2.28125,0.59375 -1.82812,0 -3.125,-1.29688 -1.28125,-1.3125 -1.28125,-3.17187 0,-1.98438 1.45313,-3.3125 1.28125,-1.15625 2.95312,-1.15625 z m 0.0312,2 q -1,0 -1.65625,0.70312 -0.65625,0.6875 -0.65625,1.76563 0,1.10937 0.64063,1.79687 0.65625,0.6875 1.65625,0.6875 1,0 1.65625,-0.6875 0.67187,-0.70312 0.67187,-1.79687 0,-1.09375 -0.65625,-1.78125 -0.64062,-0.6875 -1.65625,-0.6875 z m 6.21094,-1.78125 h 2.125 v 0.85937 q 0.73438,-0.60937 1.3125,-0.84375 0.59375,-0.23437 1.21875,-0.23437 1.26563,0 2.14063,0.875 0.75,0.75 0.75,2.21875 v 5.625 h -2.10938 v -3.73438 q 0,-1.51562 -0.14062,-2.01562 -0.14063,-0.5 -0.48438,-0.76563 -0.32812,-0.26562 -0.82812,-0.26562 -0.65625,0 -1.125,0.4375 -0.45313,0.4375 -0.64063,1.20312 -0.0937,0.39063 -0.0937,1.71875 v 3.42188 h -2.125 z m 10.77344,-0.21875 q 0.5,0 0.85937,0.35937 0.35938,0.35938 0.35938,0.85938 0,0.5 -0.35938,0.85937 -0.35937,0.35938 -0.85937,0.35938 -0.51563,0 -0.875,-0.34375 -0.35938,-0.35938 -0.35938,-0.875 0,-0.5 0.35938,-0.85938 0.35937,-0.35937 0.875,-0.35937 z m 0,6.48437 q 0.5,0 0.85937,0.35938 0.35938,0.35937 0.35938,0.85937 0,0.51563 -0.35938,0.875 -0.35937,0.35938 -0.85937,0.35938 -0.51563,0 -0.875,-0.35938 -0.35938,-0.35937 -0.35938,-0.875 0,-0.5 0.35938,-0.85937 0.35937,-0.35938 0.875,-0.35938 z"
       fill-rule="nonzero"
       id="path10" />
    <path
       fill="#8e7cc3"
       d="m 414.74014,328.26785 v 0 c 0,-3.85593 3.12585,-6.98175 6.98178,-6.98175 h 58.72937 c 1.85169,0 3.62753,0.73556 4.93686,2.04489 1.30933,1.30936 2.04492,3.08518 2.04492,4.93686 v 27.92624 c 0,3.85593 -3.12585,6.98175 -6.98178,6.98175 h -58.72937 c -3.85593,0 -6.98178,-3.12582 -6.98178,-6.98175 z"
       fill-rule="evenodd"
       id="path11" />
    <path
       stroke="#000000"
       stroke-width="1"
       stroke-linejoin="round"
       stroke-linecap="butt"
       d="m 414.74014,328.26785 v 0 c 0,-3.85593 3.12585,-6.98175 6.98178,-6.98175 h 58.72937 c 1.85169,0 3.62753,0.73556 4.93686,2.04489 1.30933,1.30936 2.04492,3.08518 2.04492,4.93686 v 27.92624 c 0,3.85593 -3.12585,6.98175 -6.98178,6.98175 h -58.72937 c -3.85593,0 -6.98178,-3.12582 -6.98178,-6.98175 z"
       fill-rule="evenodd"
       id="path12" />
    <path
       fill="#ffffff"
       d="m 449.9619,340.78348 h -1.42187 q 0.0625,-1.23438 0.78125,-1.9375 0.71875,-0.71875 1.84375,-0.71875 0.70312,0 1.23437,0.29687 0.53125,0.28125 0.84375,0.84375 0.32813,0.54688 0.32813,1.125 0,0.6875 -0.39063,1.46875 -0.39062,0.78125 -1.42187,1.85938 l -0.85938,0.90625 h 2.73438 v 1.34375 h -5.29688 v -0.70313 l 2.35938,-2.40625 q 0.85937,-0.875 1.14062,-1.39062 0.28125,-0.53125 0.28125,-0.96875 0,-0.4375 -0.29687,-0.71875 -0.28125,-0.29688 -0.75,-0.29688 -0.46875,0 -0.78125,0.35938 -0.3125,0.34375 -0.32813,0.9375 z"
       fill-rule="nonzero"
       id="path13" />
    <path
       fill="#4ea5b7"
       d="m 257.82678,284.51453 v 0 c 0,-2.82669 2.2915,-5.11819 5.11819,-5.11819 h 20.47223 v 0 c 1.35746,0 2.65927,0.53924 3.61914,1.49908 0.95984,0.95984 1.49909,2.26169 1.49909,3.61911 v 31.65335 c 0,2.82672 -2.29151,5.11822 -5.11823,5.11822 h -20.47223 c -2.82669,0 -5.11819,-2.2915 -5.11819,-5.11822 z"
       fill-rule="evenodd"
       id="path14" />
    <path
       stroke="#000000"
       stroke-width="1"
       stroke-linejoin="round"
       stroke-linecap="butt"
       d="m 257.82678,284.51453 v 0 c 0,-2.82669 2.2915,-5.11819 5.11819,-5.11819 h 20.47223 v 0 c 1.35746,0 2.65927,0.53924 3.61914,1.49908 0.95984,0.95984 1.49909,2.26169 1.49909,3.61911 v 31.65335 c 0,2.82672 -2.29151,5.11822 -5.11823,5.11822 h -20.47223 c -2.82669,0 -5.11819,-2.2915 -5.11819,-5.11822 z"
       fill-rule="evenodd"
       id="path15" />
    <path
       fill="#ffffff"
       d="m 273.15195,295.3287 q 1.04687,0 1.79687,0.51563 0.76563,0.51562 1.17188,1.57812 0.42187,1.04688 0.42187,2.9375 0,1.90625 -0.42187,2.96875 -0.42188,1.0625 -1.14063,1.5625 -0.70312,0.48438 -1.78125,0.48438 -1.07812,0 -1.8125,-0.5 -0.73437,-0.5 -1.15625,-1.51563 -0.40625,-1.03125 -0.40625,-2.90625 0,-2.64062 0.8125,-3.82812 0.90625,-1.29688 2.51563,-1.29688 z m 0.0469,1.73438 q -0.46875,0 -0.82812,0.29687 -0.34375,0.29688 -0.54688,1.01563 -0.1875,0.71875 -0.1875,2.10937 0,1.8125 0.4375,2.51563 0.4375,0.6875 1.125,0.6875 0.65625,0 1.04688,-0.65625 0.48437,-0.79688 0.48437,-2.65625 0,-1.89063 -0.4375,-2.59375 -0.42187,-0.71875 -1.09375,-0.71875 z"
       fill-rule="nonzero"
       id="path16" />
    <path
       fill="#4ea5b7"
       d="m 288.53543,284.51453 v 0 c 0,-2.82669 2.2915,-5.11819 5.11823,-5.11819 h 20.47222 v 0 c 1.35743,0 2.65928,0.53924 3.61911,1.49908 0.95987,0.95984 1.49909,2.26169 1.49909,3.61911 v 31.65335 c 0,2.82672 -2.29147,5.11822 -5.1182,5.11822 h -20.47223 c -2.82672,0 -5.11822,-2.2915 -5.11822,-5.11822 z"
       fill-rule="evenodd"
       id="path17" />
    <path
       stroke="#000000"
       stroke-width="1"
       stroke-linejoin="round"
       stroke-linecap="butt"
       d="m 288.53543,284.51453 v 0 c 0,-2.82669 2.2915,-5.11819 5.11823,-5.11819 h 20.47222 v 0 c 1.35743,0 2.65928,0.53924 3.61911,1.49908 0.95987,0.95984 1.49909,2.26169 1.49909,3.61911 v 31.65335 c 0,2.82672 -2.29147,5.11822 -5.1182,5.11822 h -20.47223 c -2.82672,0 -5.11822,-2.2915 -5.11822,-5.11822 z"
       fill-rule="evenodd"
       id="path18" />
    <path
       fill="#ffffff"
       d="m 302.345,295.56308 h 2.73438 v 9.57813 h -1.8125 v -7.85938 h -1.96875 z"
       fill-rule="nonzero"
       id="path19" />
    <path
       fill="#e38a42"
       d="m 351.72598,286.37808 v 0 c 0,-3.85593 3.12582,-6.98175 6.98175,-6.98175 h 48.08371 c 1.85169,0 3.62753,0.73556 4.93686,2.04489 1.30933,1.30936 2.04492,3.08518 2.04492,4.93686 v 27.92624 c 0,3.85593 -3.12585,6.98178 -6.98178,6.98178 h -48.08371 c -3.85593,0 -6.98175,-3.12585 -6.98175,-6.98178 z"
       fill-rule="evenodd"
       id="path20" />
    <path
       stroke="#000000"
       stroke-width="1"
       stroke-linejoin="round"
       stroke-linecap="butt"
       d="m 351.72598,286.37808 v 0 c 0,-3.85593 3.12582,-6.98175 6.98175,-6.98175 h 48.08371 c 1.85169,0 3.62753,0.73556 4.93686,2.04489 1.30933,1.30936 2.04492,3.08518 2.04492,4.93686 v 27.92624 c 0,3.85593 -3.12585,6.98178 -6.98178,6.98178 h -48.08371 c -3.85593,0 -6.98175,-3.12585 -6.98175,-6.98178 z"
       fill-rule="evenodd"
       id="path21" />
    <path
       fill="#ffffff"
       d="m 381.34546,298.65683 h -1.78125 q 0.0781,-1.54687 0.96875,-2.4375 0.90625,-0.89062 2.3125,-0.89062 0.875,0 1.54687,0.375 0.67188,0.35937 1.0625,1.0625 0.40625,0.6875 0.40625,1.40625 0,0.84375 -0.48437,1.82812 -0.48438,0.98438 -1.78125,2.32813 l -1.07813,1.125 h 3.42188 v 1.6875 h -6.64063 v -0.875 l 2.96875,-3.01563 q 1.07813,-1.09375 1.42188,-1.75 0.35937,-0.65625 0.35937,-1.1875 0,-0.5625 -0.375,-0.92187 -0.35937,-0.35938 -0.9375,-0.35938 -0.59375,0 -0.98437,0.4375 -0.39063,0.4375 -0.40625,1.1875 z"
       fill-rule="nonzero"
       id="path22" />
    <path
       fill="#8e7cc3"
       d="m 822.04724,280.7586 v 0 c 0,-2.0816 1.6875,-3.7691 3.7691,-3.7691 h 112.3988 c 0.99964,0 1.95832,0.39709 2.66517,1.10394 0.70684,0.70685 1.10394,1.66553 1.10394,2.66516 v 15.07596 c 0,2.08163 -1.6875,3.7691 -3.76911,3.7691 h -112.3988 v 0 c -2.0816,0 -3.7691,-1.68747 -3.7691,-3.7691 z"
       fill-rule="evenodd"
       id="path23" />
    <path
       stroke="#000000"
       stroke-width="1"
       stroke-linejoin="round"
       stroke-linecap="butt"
       d="m 822.04724,280.7586 v 0 c 0,-2.0816 1.6875,-3.7691 3.7691,-3.7691 h 112.3988 c 0.99964,0 1.95832,0.39709 2.66517,1.10394 0.70684,0.70685 1.10394,1.66553 1.10394,2.66516 v 15.07596 c 0,2.08163 -1.6875,3.7691 -3.76911,3.7691 h -112.3988 v 0 c -2.0816,0 -3.7691,-1.68747 -3.7691,-3.7691 z"
       fill-rule="evenodd"
       id="path24" />
    <path
       fill="#ffffff"
       d="m 841.6365,284.38034 h 1.48437 l 2.9375,7.65625 h -1.51562 l -0.59375,-1.57813 h -3.125 l -0.625,1.57813 h -1.51563 z m 0.75,2.03125 -1.01563,2.625 h 2.03125 z m 4.49231,-2.21875 h 1.42187 v 7.84375 h -1.42187 z m 2.55481,0 h 1.42187 v 7.84375 h -1.42187 z m 2.961,0.1875 h 1.54687 q 1.26563,0 1.79688,0.23437 0.54687,0.21875 0.875,0.75 0.32812,0.51563 0.32812,1.23438 0,0.76562 -0.35937,1.28125 -0.35938,0.5 -1.09375,0.75 l 1.8125,3.40625 h -1.59375 l -1.71875,-3.23438 h -0.125 v 3.23438 h -1.46875 z m 1.46875,3 h 0.45312 q 0.6875,0 0.95313,-0.1875 0.26562,-0.1875 0.26562,-0.60938 0,-0.25 -0.14062,-0.42187 -0.125,-0.1875 -0.34375,-0.26563 -0.21875,-0.0937 -0.79688,-0.0937 h -0.39062 z m 10.13458,2.23437 h -4.5625 q 0.0937,0.60938 0.51563,0.96875 0.4375,0.34375 1.10937,0.34375 0.79688,0 1.35938,-0.54687 l 1.20312,0.5625 q -0.45312,0.625 -1.07812,0.9375 -0.625,0.29687 -1.48438,0.29687 -1.32812,0 -2.17187,-0.82812 -0.82813,-0.84375 -0.82813,-2.10938 0,-1.29687 0.82813,-2.15625 0.84375,-0.85937 2.09375,-0.85937 1.34375,0 2.17187,0.85937 0.84375,0.85938 0.84375,2.26563 z m -1.42187,-1.10937 q -0.14063,-0.48438 -0.5625,-0.78125 -0.40625,-0.29688 -0.95313,-0.29688 -0.59375,0 -1.04687,0.34375 -0.28125,0.20313 -0.51563,0.73438 z m 6.75897,-4.3125 h 1.40625 v 7.84375 h -1.40625 v -0.59375 q -0.42188,0.39062 -0.84375,0.5625 -0.42188,0.17187 -0.90625,0.17187 -1.09375,0 -1.90625,-0.84375 -0.79688,-0.85937 -0.79688,-2.10937 0,-1.3125 0.78125,-2.15625 0.78125,-0.84375 1.875,-0.84375 0.51563,0 0.95313,0.20312 0.45312,0.1875 0.84375,0.57813 z m -1.5,3.34375 q -0.65625,0 -1.09375,0.46875 -0.4375,0.46875 -0.4375,1.20312 0,0.71875 0.4375,1.20313 0.45312,0.46875 1.09375,0.46875 0.67187,0 1.10937,-0.46875 0.45313,-0.46875 0.45313,-1.21875 0,-0.73438 -0.45313,-1.1875 -0.4375,-0.46875 -1.10937,-0.46875 z m 4.34729,-1.15625 h 1.4375 v 2.71875 q 0,0.79687 0.10937,1.10937 0.10938,0.3125 0.34375,0.48438 0.23438,0.17187 0.59375,0.17187 0.35938,0 0.59375,-0.17187 0.25,-0.17188 0.375,-0.5 0.0937,-0.25 0.0937,-1.04688 v -2.76562 h 1.42188 v 2.39062 q 0,1.48438 -0.23438,2.03125 -0.28125,0.67188 -0.84375,1.03125 -0.5625,0.34375 -1.42187,0.34375 -0.92188,0 -1.5,-0.40625 -0.57813,-0.42187 -0.8125,-1.17187 -0.15625,-0.51563 -0.15625,-1.85938 z m 11.94165,1.14062 -1.1875,0.65625 q -0.32813,-0.35937 -0.65625,-0.48437 -0.32813,-0.14063 -0.76563,-0.14063 -0.79687,0 -1.29687,0.48438 -0.48438,0.46875 -0.48438,1.21875 0,0.71875 0.46875,1.17187 0.48438,0.45313 1.25,0.45313 0.95313,0 1.48438,-0.64063 l 1.125,0.76563 q -0.92188,1.17187 -2.57813,1.17187 -1.48437,0 -2.34375,-0.875 -0.84375,-0.89062 -0.84375,-2.07812 0,-0.8125 0.40625,-1.5 0.42188,-0.70313 1.15625,-1.09375 0.73438,-0.40625 1.64063,-0.40625 0.84375,0 1.51562,0.34375 0.67188,0.32812 1.10938,0.95312 z m 6.94647,2.09375 h -4.5625 q 0.0937,0.60938 0.51562,0.96875 0.4375,0.34375 1.10938,0.34375 0.79687,0 1.35937,-0.54687 l 1.20313,0.5625 q -0.45313,0.625 -1.07813,0.9375 -0.625,0.29687 -1.48437,0.29687 -1.32813,0 -2.17188,-0.82812 -0.82812,-0.84375 -0.82812,-2.10938 0,-1.29687 0.82812,-2.15625 0.84375,-0.85937 2.09375,-0.85937 1.34375,0 2.17188,0.85937 0.84375,0.85938 0.84375,2.26563 z m -1.42188,-1.10937 q -0.14062,-0.48438 -0.5625,-0.78125 -0.40625,-0.29688 -0.95312,-0.29688 -0.59375,0 -1.04688,0.34375 -0.28125,0.20313 -0.51562,0.73438 z m 12.77167,-2.875 -1.01562,1.01562 q -0.98438,-1.03125 -2.28125,-1.03125 -1.125,0 -1.89063,0.75 -0.75,0.75 -0.75,1.82813 0,1.10937 0.78125,1.875 0.79688,0.76562 1.95313,0.76562 0.75,0 1.26562,-0.3125 0.53125,-0.32812 0.84375,-1 h -2.21875 v -1.35937 h 3.84375 l 0.0156,0.3125 q 0,1 -0.51563,1.90625 -0.51562,0.90625 -1.34375,1.375 -0.82812,0.46875 -1.95312,0.46875 -1.1875,0 -2.125,-0.51563 -0.92188,-0.51562 -1.46875,-1.46875 -0.54688,-0.95312 -0.54688,-2.0625 0,-1.53125 1,-2.65625 1.1875,-1.32812 3.10938,-1.32812 1,0 1.85937,0.35937 0.73438,0.3125 1.4375,1.07813 z m 1.40271,0.75 h 1.21875 v 0.70312 q 0.1875,-0.42187 0.51563,-0.64062 0.32812,-0.21875 0.71875,-0.21875 0.28125,0 0.57812,0.15625 l -0.4375,1.21875 q -0.25,-0.125 -0.40625,-0.125 -0.32812,0 -0.5625,0.40625 -0.21875,0.40625 -0.21875,1.59375 v 0.26562 2.29688 h -1.40625 z m 7.92377,0 h 1.40625 v 5.65625 h -1.40625 v -0.59375 q -0.42188,0.39062 -0.84375,0.5625 -0.42188,0.17187 -0.90625,0.17187 -1.09375,0 -1.90625,-0.84375 -0.79688,-0.85937 -0.79688,-2.10937 0,-1.3125 0.78125,-2.15625 0.78125,-0.84375 1.875,-0.84375 0.51563,0 0.95313,0.20312 0.45312,0.1875 0.84375,0.57813 z m -1.5,1.15625 q -0.65625,0 -1.09375,0.46875 -0.4375,0.46875 -0.4375,1.20312 0,0.71875 0.4375,1.20313 0.45312,0.46875 1.09375,0.46875 0.67187,0 1.10937,-0.46875 0.45313,-0.46875 0.45313,-1.21875 0,-0.73438 -0.45313,-1.1875 -0.4375,-0.46875 -1.10937,-0.46875 z m 8.53479,-3.34375 h 1.40625 v 7.84375 h -1.40625 v -0.59375 q -0.42188,0.39062 -0.84375,0.5625 -0.42188,0.17187 -0.90625,0.17187 -1.09375,0 -1.90625,-0.84375 -0.79688,-0.85937 -0.79688,-2.10937 0,-1.3125 0.78125,-2.15625 0.78125,-0.84375 1.875,-0.84375 0.51563,0 0.95313,0.20312 0.45312,0.1875 0.84375,0.57813 z m -1.5,3.34375 q -0.65625,0 -1.09375,0.46875 -0.4375,0.46875 -0.4375,1.20312 0,0.71875 0.4375,1.20313 0.45312,0.46875 1.09375,0.46875 0.67187,0 1.10937,-0.46875 0.45313,-0.46875 0.45313,-1.21875 0,-0.73438 -0.45313,-1.1875 -0.4375,-0.46875 -1.10937,-0.46875 z m 7.81604,-0.375 -0.89063,0.89062 q -0.53125,-0.53125 -0.96875,-0.53125 -0.23437,0 -0.375,0.10938 -0.125,0.0937 -0.125,0.23437 0,0.125 0.0781,0.21875 0.0937,0.0937 0.42187,0.26563 l 0.51563,0.25 q 0.82812,0.40625 1.125,0.82812 0.3125,0.42188 0.3125,0.98438 0,0.76562 -0.5625,1.26562 -0.54688,0.5 -1.46875,0.5 -1.23438,0 -1.98438,-0.96875 l 0.875,-0.95312 q 0.25,0.29687 0.57813,0.48437 0.34375,0.17188 0.60937,0.17188 0.28125,0 0.45313,-0.125 0.17187,-0.14063 0.17187,-0.32813 0,-0.32812 -0.625,-0.64062 l -0.46875,-0.23438 q -1.375,-0.6875 -1.375,-1.73437 0,-0.67188 0.51563,-1.14063 0.51562,-0.48437 1.32812,-0.48437 0.54688,0 1.03125,0.25 0.48438,0.23437 0.82813,0.6875 z"
       fill-rule="nonzero"
       id="path25" />
    <path
       fill="#4ea5b7"
       d="m 822.04724,308.53027 v 0 c 0,-2.08163 1.6875,-3.7691 3.7691,-3.7691 h 112.3988 c 0.99964,0 1.95832,0.39709 2.66517,1.10394 0.70684,0.70682 1.10394,1.66553 1.10394,2.66516 v 15.07596 c 0,2.0816 -1.6875,3.7691 -3.76911,3.7691 h -112.3988 v 0 c -2.0816,0 -3.7691,-1.6875 -3.7691,-3.7691 z"
       fill-rule="evenodd"
       id="path26" />
    <path
       stroke="#000000"
       stroke-width="1"
       stroke-linejoin="round"
       stroke-linecap="butt"
       d="m 822.04724,308.53027 v 0 c 0,-2.08163 1.6875,-3.7691 3.7691,-3.7691 h 112.3988 c 0.99964,0 1.95832,0.39709 2.66517,1.10394 0.70684,0.70682 1.10394,1.66553 1.10394,2.66516 v 15.07596 c 0,2.0816 -1.6875,3.7691 -3.76911,3.7691 h -112.3988 v 0 c -2.0816,0 -3.7691,-1.6875 -3.7691,-3.7691 z"
       fill-rule="evenodd"
       id="path27" />
    <path
       fill="#ffffff"
       d="m 840.7582,311.29013 h 4.75 v 1.78125 h -2.95313 v 1.73437 h 2.95313 v 1.75 h -2.95313 v 4.3125 h -1.79687 z m 9.49103,2.3125 q 1,0 1.875,0.5 0.89062,0.5 1.39062,1.35937 0.5,0.85938 0.5,1.85938 0,1 -0.5,1.875 -0.5,0.875 -1.35937,1.375 -0.85938,0.48437 -1.89063,0.48437 -1.53125,0 -2.60937,-1.07812 -1.07813,-1.09375 -1.07813,-2.64063 0,-1.65625 1.21875,-2.76562 1.07813,-0.96875 2.45313,-0.96875 z m 0.0312,1.67187 q -0.82813,0 -1.375,0.57813 -0.54688,0.57812 -0.54688,1.46875 0,0.9375 0.53125,1.51562 0.54688,0.5625 1.39063,0.5625 0.82812,0 1.375,-0.57812 0.5625,-0.57813 0.5625,-1.5 0,-0.90625 -0.54688,-1.46875 -0.54687,-0.57813 -1.39062,-0.57813 z m 4.76617,-1.48437 h 1.51563 v 0.89062 q 0.25,-0.53125 0.65625,-0.79687 0.42187,-0.28125 0.90625,-0.28125 0.34375,0 0.71875,0.1875 l -0.54688,1.53125 q -0.3125,-0.15625 -0.51562,-0.15625 -0.40625,0 -0.70313,0.51562 -0.28125,0.5 -0.28125,1.98438 l 0.0156,0.34375 v 2.85937 h -1.76563 z m 3.8877,0 h 1.73437 l 1.4375,4.03125 1.53125,-4.03125 h 1.0625 l 1.5,3.98437 1.42188,-3.98437 h 1.75 l -2.57813,7.07812 h -1.125 l -1.51562,-4.03125 -1.54688,4.03125 h -1.125 z m 16.67553,0 h 1.78125 v 7.07812 h -1.78125 v -0.75 q -0.51562,0.5 -1.04687,0.71875 -0.51563,0.21875 -1.125,0.21875 -1.375,0 -2.375,-1.0625 -1,-1.07812 -1,-2.65625 0,-1.64062 0.96875,-2.6875 0.96875,-1.04687 2.34375,-1.04687 0.64062,0 1.20312,0.25 0.5625,0.23437 1.03125,0.71875 z m -1.85937,1.45312 q -0.82813,0 -1.375,0.59375 -0.54688,0.57813 -0.54688,1.48438 0,0.92187 0.54688,1.51562 0.5625,0.59375 1.375,0.59375 0.84375,0 1.39062,-0.57812 0.5625,-0.59375 0.5625,-1.53125 0,-0.9375 -0.5625,-1.5 -0.54687,-0.57813 -1.39062,-0.57813 z m 5.01739,-1.45312 h 1.51563 v 0.89062 q 0.25,-0.53125 0.65625,-0.79687 0.42187,-0.28125 0.90625,-0.28125 0.34375,0 0.71875,0.1875 l -0.54688,1.53125 q -0.3125,-0.15625 -0.51562,-0.15625 -0.40625,0 -0.70313,0.51562 -0.28125,0.5 -0.28125,1.98438 l 0.0156,0.34375 v 2.85937 h -1.76563 z m 9.90326,-2.73438 h 1.78125 v 9.8125 h -1.78125 v -0.75 q -0.51562,0.5 -1.04687,0.71875 -0.51563,0.21875 -1.125,0.21875 -1.375,0 -2.375,-1.0625 -1,-1.07812 -1,-2.65625 0,-1.64062 0.96875,-2.6875 0.96875,-1.04687 2.34375,-1.04687 0.64062,0 1.20312,0.25 0.5625,0.23437 1.03125,0.71875 z m -1.85937,4.1875 q -0.82813,0 -1.375,0.59375 -0.54688,0.57813 -0.54688,1.48438 0,0.92187 0.54688,1.51562 0.5625,0.59375 1.375,0.59375 0.84375,0 1.39062,-0.57812 0.5625,-0.59375 0.5625,-1.53125 0,-0.9375 -0.5625,-1.5 -0.54687,-0.57813 -1.39062,-0.57813 z m 10.91827,-1.45312 v 0.78125 q 0.48438,-0.48438 1.04688,-0.71875 0.5625,-0.25 1.20312,-0.25 1.375,0 2.34375,1.04687 0.96875,1.04688 0.96875,2.6875 0,1.57813 -1,2.65625 -1,1.0625 -2.375,1.0625 -0.60937,0 -1.14062,-0.21875 -0.51563,-0.21875 -1.04688,-0.71875 v 3.34375 h -1.76562 v -9.67187 z m 1.875,1.45312 q -0.84375,0 -1.40625,0.57813 -0.54687,0.5625 -0.54687,1.5 0,0.9375 0.54687,1.53125 0.5625,0.57812 1.40625,0.57812 0.8125,0 1.35938,-0.59375 0.5625,-0.59375 0.5625,-1.51562 0,-0.90625 -0.54688,-1.48438 -0.54687,-0.59375 -1.375,-0.59375 z m 10.3924,-1.45312 h 1.78125 v 7.07812 h -1.78125 v -0.75 q -0.51563,0.5 -1.04688,0.71875 -0.51562,0.21875 -1.125,0.21875 -1.375,0 -2.375,-1.0625 -1,-1.07812 -1,-2.65625 0,-1.64062 0.96875,-2.6875 0.96875,-1.04687 2.34375,-1.04687 0.64063,0 1.20313,0.25 0.5625,0.23437 1.03125,0.71875 z m -1.85938,1.45312 q -0.82812,0 -1.375,0.59375 -0.54687,0.57813 -0.54687,1.48438 0,0.92187 0.54687,1.51562 0.5625,0.59375 1.375,0.59375 0.84375,0 1.39063,-0.57812 0.5625,-0.59375 0.5625,-1.53125 0,-0.9375 -0.5625,-1.5 -0.54688,-0.57813 -1.39063,-0.57813 z m 9.7674,-0.46875 -1.10938,1.10938 q -0.65625,-0.67188 -1.20312,-0.67188 -0.3125,0 -0.48438,0.125 -0.15625,0.125 -0.15625,0.3125 0,0.15625 0.10938,0.28125 0.10937,0.10938 0.53125,0.3125 l 0.64062,0.32813 q 1.03125,0.51562 1.40625,1.04687 0.39063,0.51563 0.39063,1.21875 0,0.95313 -0.70313,1.59375 -0.6875,0.625 -1.84375,0.625 -1.54687,0 -2.46875,-1.21875 l 1.09375,-1.1875 q 0.3125,0.35938 0.71875,0.59375 0.42188,0.21875 0.75,0.21875 0.35938,0 0.5625,-0.17187 0.21875,-0.17188 0.21875,-0.39063 0,-0.40625 -0.76562,-0.79687 l -0.60938,-0.29688 q -1.71875,-0.875 -1.71875,-2.17187 0,-0.84375 0.64063,-1.4375 0.65625,-0.59375 1.67187,-0.59375 0.6875,0 1.29688,0.3125 0.60937,0.29687 1.03125,0.85937 z m 5.86365,0 -1.10938,1.10938 q -0.65625,-0.67188 -1.20312,-0.67188 -0.3125,0 -0.48438,0.125 -0.15625,0.125 -0.15625,0.3125 0,0.15625 0.10938,0.28125 0.10937,0.10938 0.53125,0.3125 l 0.64062,0.32813 q 1.03125,0.51562 1.40625,1.04687 0.39063,0.51563 0.39063,1.21875 0,0.95313 -0.70313,1.59375 -0.6875,0.625 -1.84375,0.625 -1.54687,0 -2.46875,-1.21875 l 1.09375,-1.1875 q 0.3125,0.35938 0.71875,0.59375 0.42188,0.21875 0.75,0.21875 0.35938,0 0.5625,-0.17187 0.21875,-0.17188 0.21875,-0.39063 0,-0.40625 -0.76562,-0.79687 l -0.60938,-0.29688 q -1.71875,-0.875 -1.71875,-2.17187 0,-0.84375 0.64063,-1.4375 0.65625,-0.59375 1.67187,-0.59375 0.6875,0 1.29688,0.3125 0.60937,0.29687 1.03125,0.85937 z"
       fill-rule="nonzero"
       id="path28" />
    <path
       fill="#e38a42"
       d="m 822.04724,339.8636 v 0 c 0,-2.0816 1.6875,-3.7691 3.7691,-3.7691 h 112.3988 c 0.99964,0 1.95832,0.39709 2.66517,1.10394 0.70684,0.70685 1.10394,1.66553 1.10394,2.66516 v 15.07596 c 0,2.08163 -1.6875,3.7691 -3.76911,3.7691 h -112.3988 v 0 c -2.0816,0 -3.7691,-1.68747 -3.7691,-3.7691 z"
       fill-rule="evenodd"
       id="path29" />
    <path
       stroke="#000000"
       stroke-width="1"
       stroke-linejoin="round"
       stroke-linecap="butt"
       d="m 822.04724,339.8636 v 0 c 0,-2.0816 1.6875,-3.7691 3.7691,-3.7691 h 112.3988 c 0.99964,0 1.95832,0.39709 2.66517,1.10394 0.70684,0.70685 1.10394,1.66553 1.10394,2.66516 v 15.07596 c 0,2.08163 -1.6875,3.7691 -3.76911,3.7691 h -112.3988 v 0 c -2.0816,0 -3.7691,-1.68747 -3.7691,-3.7691 z"
       fill-rule="evenodd"
       id="path30" />
    <path
       fill="#ffffff"
       d="m 833.9262,352.20157 v -9.57813 h 1.5 q 1.3125,0 1.92187,0.17188 0.85938,0.23437 1.35938,0.85937 0.51562,0.60938 0.51562,1.45313 0,0.54687 -0.23437,1 -0.23438,0.4375 -0.75,0.82812 0.875,0.40625 1.26562,1.03125 0.40625,0.60938 0.40625,1.4375 0,0.8125 -0.42187,1.48438 -0.40625,0.65625 -1.0625,0.98437 -0.65625,0.32813 -1.8125,0.32813 z m 1.82812,-7.82813 v 2.01563 h 0.39063 q 0.65625,0 0.98437,-0.28125 0.32813,-0.28125 0.32813,-0.76563 0,-0.45312 -0.3125,-0.70312 -0.29688,-0.26563 -0.92188,-0.26563 z m 0,3.64063 v 2.45312 h 0.45313 q 1.125,0 1.51562,-0.28125 0.40625,-0.29687 0.40625,-0.84375 0,-0.60937 -0.46875,-0.96875 -0.46875,-0.35937 -1.53125,-0.35937 z m 10.93451,-2.89063 h 1.78125 v 7.07813 h -1.78125 v -0.75 q -0.51562,0.5 -1.04687,0.71875 -0.51563,0.21875 -1.125,0.21875 -1.375,0 -2.375,-1.0625 -1,-1.07813 -1,-2.65625 0,-1.64063 0.96875,-2.6875 0.96875,-1.04688 2.34375,-1.04688 0.64062,0 1.20312,0.25 0.5625,0.23438 1.03125,0.71875 z m -1.85937,1.45313 q -0.82813,0 -1.375,0.59375 -0.54688,0.57812 -0.54688,1.48437 0,0.92188 0.54688,1.51563 0.5625,0.59375 1.375,0.59375 0.84375,0 1.39062,-0.57813 0.5625,-0.59375 0.5625,-1.53125 0,-0.9375 -0.5625,-1.5 -0.54687,-0.57812 -1.39062,-0.57812 z m 12.36114,-0.0312 -1.46875,0.82812 q -0.42187,-0.4375 -0.82812,-0.60937 -0.40625,-0.17188 -0.95313,-0.17188 -1,0 -1.625,0.59375 -0.60937,0.59375 -0.60937,1.53125 0,0.90625 0.59375,1.48438 0.59375,0.5625 1.5625,0.5625 1.1875,0 1.85937,-0.8125 l 1.39063,0.95312 q -1.14063,1.48438 -3.21875,1.48438 -1.85938,0 -2.92188,-1.10938 -1.0625,-1.10937 -1.0625,-2.59375 0,-1.03125 0.51563,-1.89062 0.51562,-0.875 1.4375,-1.35938 0.92187,-0.5 2.0625,-0.5 1.04687,0 1.89062,0.42188 0.84375,0.42187 1.375,1.1875 z m 1.60993,-4.15625 h 1.78125 v 5.65625 l 2.60937,-2.92188 h 2.23438 l -3.04688,3.39063 3.42188,3.6875 h -2.21875 l -3,-3.26563 v 3.26563 h -1.78125 z m 6.93451,2.73437 h 1.73437 l 1.4375,4.03125 1.53125,-4.03125 h 1.0625 l 1.5,3.98438 1.42188,-3.98438 h 1.75 l -2.57813,7.07813 h -1.125 l -1.51562,-4.03125 -1.54688,4.03125 h -1.125 z m 16.67553,0 h 1.78125 v 7.07813 h -1.78125 v -0.75 q -0.51562,0.5 -1.04687,0.71875 -0.51563,0.21875 -1.125,0.21875 -1.375,0 -2.375,-1.0625 -1,-1.07813 -1,-2.65625 0,-1.64063 0.96875,-2.6875 0.96875,-1.04688 2.34375,-1.04688 0.64062,0 1.20312,0.25 0.5625,0.23438 1.03125,0.71875 z m -1.85937,1.45313 q -0.82813,0 -1.375,0.59375 -0.54688,0.57812 -0.54688,1.48437 0,0.92188 0.54688,1.51563 0.5625,0.59375 1.375,0.59375 0.84375,0 1.39062,-0.57813 0.5625,-0.59375 0.5625,-1.53125 0,-0.9375 -0.5625,-1.5 -0.54687,-0.57812 -1.39062,-0.57812 z m 5.01739,-1.45313 h 1.51563 v 0.89063 q 0.25,-0.53125 0.65625,-0.79688 0.42187,-0.28125 0.90625,-0.28125 0.34375,0 0.71875,0.1875 l -0.54688,1.53125 q -0.3125,-0.15625 -0.51562,-0.15625 -0.40625,0 -0.70313,0.51563 -0.28125,0.5 -0.28125,1.98437 l 0.0156,0.34375 v 2.85938 h -1.76563 z m 9.90326,-2.73437 h 1.78125 v 9.8125 h -1.78125 v -0.75 q -0.51562,0.5 -1.04687,0.71875 -0.51563,0.21875 -1.125,0.21875 -1.375,0 -2.375,-1.0625 -1,-1.07813 -1,-2.65625 0,-1.64063 0.96875,-2.6875 0.96875,-1.04688 2.34375,-1.04688 0.64062,0 1.20312,0.25 0.5625,0.23438 1.03125,0.71875 z m -1.85937,4.1875 q -0.82813,0 -1.375,0.59375 -0.54688,0.57812 -0.54688,1.48437 0,0.92188 0.54688,1.51563 0.5625,0.59375 1.375,0.59375 0.84375,0 1.39062,-0.57813 0.5625,-0.59375 0.5625,-1.53125 0,-0.9375 -0.5625,-1.5 -0.54687,-0.57812 -1.39062,-0.57812 z m 10.91827,-1.45313 v 0.78125 q 0.48438,-0.48437 1.04688,-0.71875 0.5625,-0.25 1.20312,-0.25 1.375,0 2.34375,1.04688 0.96875,1.04687 0.96875,2.6875 0,1.57812 -1,2.65625 -1,1.0625 -2.375,1.0625 -0.60937,0 -1.14062,-0.21875 -0.51563,-0.21875 -1.04688,-0.71875 v 3.34375 h -1.76562 v -9.67188 z m 1.875,1.45313 q -0.84375,0 -1.40625,0.57812 -0.54687,0.5625 -0.54687,1.5 0,0.9375 0.54687,1.53125 0.5625,0.57813 1.40625,0.57813 0.8125,0 1.35938,-0.59375 0.5625,-0.59375 0.5625,-1.51563 0,-0.90625 -0.54688,-1.48437 -0.54687,-0.59375 -1.375,-0.59375 z m 10.3924,-1.45313 h 1.78125 v 7.07813 h -1.78125 v -0.75 q -0.51563,0.5 -1.04688,0.71875 -0.51562,0.21875 -1.125,0.21875 -1.375,0 -2.375,-1.0625 -1,-1.07813 -1,-2.65625 0,-1.64063 0.96875,-2.6875 0.96875,-1.04688 2.34375,-1.04688 0.64063,0 1.20313,0.25 0.5625,0.23438 1.03125,0.71875 z m -1.85938,1.45313 q -0.82812,0 -1.375,0.59375 -0.54687,0.57812 -0.54687,1.48437 0,0.92188 0.54687,1.51563 0.5625,0.59375 1.375,0.59375 0.84375,0 1.39063,-0.57813 0.5625,-0.59375 0.5625,-1.53125 0,-0.9375 -0.5625,-1.5 -0.54688,-0.57812 -1.39063,-0.57812 z m 9.7674,-0.46875 -1.10938,1.10937 q -0.65625,-0.67187 -1.20312,-0.67187 -0.3125,0 -0.48438,0.125 -0.15625,0.125 -0.15625,0.3125 0,0.15625 0.10938,0.28125 0.10937,0.10937 0.53125,0.3125 l 0.64062,0.32812 q 1.03125,0.51563 1.40625,1.04688 0.39063,0.51562 0.39063,1.21875 0,0.95312 -0.70313,1.59375 -0.6875,0.625 -1.84375,0.625 -1.54687,0 -2.46875,-1.21875 l 1.09375,-1.1875 q 0.3125,0.35937 0.71875,0.59375 0.42188,0.21875 0.75,0.21875 0.35938,0 0.5625,-0.17188 0.21875,-0.17187 0.21875,-0.39062 0,-0.40625 -0.76562,-0.79688 l -0.60938,-0.29687 q -1.71875,-0.875 -1.71875,-2.17188 0,-0.84375 0.64063,-1.4375 0.65625,-0.59375 1.67187,-0.59375 0.6875,0 1.29688,0.3125 0.60937,0.29688 1.03125,0.85938 z m 5.86365,0 -1.10938,1.10937 q -0.65625,-0.67187 -1.20312,-0.67187 -0.3125,0 -0.48438,0.125 -0.15625,0.125 -0.15625,0.3125 0,0.15625 0.10938,0.28125 0.10937,0.10937 0.53125,0.3125 l 0.64062,0.32812 q 1.03125,0.51563 1.40625,1.04688 0.39063,0.51562 0.39063,1.21875 0,0.95312 -0.70313,1.59375 -0.6875,0.625 -1.84375,0.625 -1.54687,0 -2.46875,-1.21875 l 1.09375,-1.1875 q 0.3125,0.35937 0.71875,0.59375 0.42188,0.21875 0.75,0.21875 0.35938,0 0.5625,-0.17188 0.21875,-0.17187 0.21875,-0.39062 0,-0.40625 -0.76562,-0.79688 l -0.60938,-0.29687 q -1.71875,-0.875 -1.71875,-2.17188 0,-0.84375 0.64063,-1.4375 0.65625,-0.59375 1.67187,-0.59375 0.6875,0 1.29688,0.3125 0.60937,0.29688 1.03125,0.85938 z"
       fill-rule="nonzero"
       id="path31" />
    <path
       fill="#4ea5b7"
       d="m 319.75357,284.51453 v 0 c 0,-2.82669 2.2915,-5.11819 5.11823,-5.11819 h 20.47222 v 0 c 1.35743,0 2.65928,0.53924 3.61911,1.49908 0.95987,0.95984 1.49912,2.26169 1.49912,3.61911 v 31.65335 c 0,2.82672 -2.29151,5.11822 -5.11823,5.11822 H 324.8718 c -2.82673,0 -5.11823,-2.2915 -5.11823,-5.11822 z"
       fill-rule="evenodd"
       id="path32" />
    <path
       stroke="#000000"
       stroke-width="1"
       stroke-linejoin="round"
       stroke-linecap="butt"
       d="m 319.75357,284.51453 v 0 c 0,-2.82669 2.2915,-5.11819 5.11823,-5.11819 h 20.47222 v 0 c 1.35743,0 2.65928,0.53924 3.61911,1.49908 0.95987,0.95984 1.49912,2.26169 1.49912,3.61911 v 31.65335 c 0,2.82672 -2.29151,5.11822 -5.11823,5.11822 H 324.8718 c -2.82673,0 -5.11823,-2.2915 -5.11823,-5.11822 z"
       fill-rule="evenodd"
       id="path33" />
    <path
       fill="#ffffff"
       d="m 333.70377,298.65683 h -1.78125 q 0.0781,-1.54687 0.96875,-2.4375 0.90625,-0.89062 2.3125,-0.89062 0.875,0 1.54688,0.375 0.67187,0.35937 1.0625,1.0625 0.40625,0.6875 0.40625,1.40625 0,0.84375 -0.48438,1.82812 -0.48437,0.98438 -1.78125,2.32813 l -1.07812,1.125 h 3.42187 v 1.6875 h -6.64062 v -0.875 l 2.96875,-3.01563 q 1.07812,-1.09375 1.42187,-1.75 0.35938,-0.65625 0.35938,-1.1875 0,-0.5625 -0.375,-0.92187 -0.35938,-0.35938 -0.9375,-0.35938 -0.59375,0 -0.98438,0.4375 -0.39062,0.4375 -0.40625,1.1875 z"
       fill-rule="nonzero"
       id="path34" />
    <path
       fill="#e38a42"
       d="m 414.74146,286.37677 v 0 c 0,-3.85593 3.12582,-6.98175 6.98175,-6.98175 h 48.08371 c 1.85169,0 3.62753,0.73556 4.93686,2.04489 1.30933,1.30936 2.04492,3.08518 2.04492,4.93686 v 27.92624 c 0,3.85593 -3.12585,6.98178 -6.98178,6.98178 h -48.08371 c -3.85593,0 -6.98175,-3.12585 -6.98175,-6.98178 z"
       fill-rule="evenodd"
       id="path35" />
    <path
       stroke="#000000"
       stroke-width="1"
       stroke-linejoin="round"
       stroke-linecap="butt"
       d="m 414.74146,286.37677 v 0 c 0,-3.85593 3.12582,-6.98175 6.98175,-6.98175 h 48.08371 c 1.85169,0 3.62753,0.73556 4.93686,2.04489 1.30933,1.30936 2.04492,3.08518 2.04492,4.93686 v 27.92624 c 0,3.85593 -3.12585,6.98178 -6.98178,6.98178 h -48.08371 c -3.85593,0 -6.98175,-3.12585 -6.98175,-6.98178 z"
       fill-rule="evenodd"
       id="path36" />
    <path
       fill="#ffffff"
       d="m 444.2203,295.56177 h 2.73437 v 9.57813 h -1.8125 v -7.85938 h -1.96875 z"
       fill-rule="nonzero"
       id="path37" />
    <path
       fill="#e38a42"
       d="m 477.7529,286.37677 v 0 c 0,-3.85593 3.12585,-6.98175 6.98175,-6.98175 h 48.08371 c 1.85169,0 3.62756,0.73556 4.93689,2.04489 1.30933,1.30936 2.04486,3.08518 2.04486,4.93686 v 27.92624 c 0,3.85593 -3.12579,6.98178 -6.98175,6.98178 h -48.08371 c -3.8559,0 -6.98175,-3.12585 -6.98175,-6.98178 z"
       fill-rule="evenodd"
       id="path38" />
    <path
       stroke="#000000"
       stroke-width="1"
       stroke-linejoin="round"
       stroke-linecap="butt"
       d="m 477.7529,286.37677 v 0 c 0,-3.85593 3.12585,-6.98175 6.98175,-6.98175 h 48.08371 c 1.85169,0 3.62756,0.73556 4.93689,2.04489 1.30933,1.30936 2.04486,3.08518 2.04486,4.93686 v 27.92624 c 0,3.85593 -3.12579,6.98178 -6.98175,6.98178 h -48.08371 c -3.8559,0 -6.98175,-3.12585 -6.98175,-6.98178 z"
       fill-rule="evenodd"
       id="path39" />
    <path
       fill="#ffffff"
       d="m 508.74738,295.3274 q 1.04688,0 1.79688,0.51562 0.76562,0.51563 1.17187,1.57813 0.42188,1.04687 0.42188,2.9375 0,1.90625 -0.42188,2.96875 -0.42187,1.0625 -1.14062,1.5625 -0.70313,0.48437 -1.78125,0.48437 -1.07813,0 -1.8125,-0.5 -0.73438,-0.5 -1.15625,-1.51562 -0.40625,-1.03125 -0.40625,-2.90625 0,-2.64063 0.8125,-3.82813 0.90625,-1.29687 2.51562,-1.29687 z m 0.0469,1.73437 q -0.46875,0 -0.82813,0.29688 -0.34375,0.29687 -0.54687,1.01562 -0.1875,0.71875 -0.1875,2.10938 0,1.8125 0.4375,2.51562 0.4375,0.6875 1.125,0.6875 0.65625,0 1.04687,-0.65625 0.48438,-0.79687 0.48438,-2.65625 0,-1.89062 -0.4375,-2.59375 -0.42188,-0.71875 -1.09375,-0.71875 z"
       fill-rule="nonzero"
       id="path40" />
    <path
       fill="#8e7cc3"
       d="m 487.41577,328.26785 v 0 c 0,-3.85593 3.12585,-6.98175 6.98178,-6.98175 h 58.7294 c 1.85169,0 3.6275,0.73556 4.93683,2.04489 1.30933,1.30936 2.04492,3.08518 2.04492,4.93686 v 27.92624 c 0,3.85593 -3.12585,6.98175 -6.98175,6.98175 h -58.7294 c -3.85593,0 -6.98178,-3.12582 -6.98178,-6.98175 z"
       fill-rule="evenodd"
       id="path41" />
    <path
       stroke="#000000"
       stroke-width="1"
       stroke-linejoin="round"
       stroke-linecap="butt"
       d="m 487.41577,328.26785 v 0 c 0,-3.85593 3.12585,-6.98175 6.98178,-6.98175 h 58.7294 c 1.85169,0 3.6275,0.73556 4.93683,2.04489 1.30933,1.30936 2.04492,3.08518 2.04492,4.93686 v 27.92624 c 0,3.85593 -3.12585,6.98175 -6.98175,6.98175 h -58.7294 c -3.85593,0 -6.98178,-3.12582 -6.98178,-6.98175 z"
       fill-rule="evenodd"
       id="path42" />
    <path
       fill="#ffffff"
       d="m 522.5282,338.31473 h 2.1875 v 7.65625 h -1.45313 v -6.28125 h -1.57812 z"
       fill-rule="nonzero"
       id="path43" />
    <path
       fill="#000000"
       fill-opacity="0"
       d="m 352.042,225.12743 -0.78738,99.2126"
       fill-rule="evenodd"
       id="path44" />
    <path
       stroke="#000000"
       stroke-width="3"
       stroke-linejoin="round"
       stroke-linecap="butt"
       stroke-dasharray="12, 9"
       d="m 352.042,225.12743 -0.78738,99.2126"
       fill-rule="evenodd"
       id="path45" />
    <path
       fill="#8e7cc3"
       d="m 560.38477,328.26785 v 0 c 0,-3.85593 3.12579,-6.98175 6.98175,-6.98175 h 58.72937 c 1.85169,0 3.6275,0.73556 4.93683,2.04489 1.30939,1.30936 2.04492,3.08518 2.04492,4.93686 v 27.92624 c 0,3.85593 -3.12585,6.98175 -6.98175,6.98175 h -58.72937 c -3.85596,0 -6.98175,-3.12582 -6.98175,-6.98175 z"
       fill-rule="evenodd"
       id="path46" />
    <path
       stroke="#000000"
       stroke-width="1"
       stroke-linejoin="round"
       stroke-linecap="butt"
       d="m 560.38477,328.26785 v 0 c 0,-3.85593 3.12579,-6.98175 6.98175,-6.98175 h 58.72937 c 1.85169,0 3.6275,0.73556 4.93683,2.04489 1.30939,1.30936 2.04492,3.08518 2.04492,4.93686 v 27.92624 c 0,3.85593 -3.12585,6.98175 -6.98175,6.98175 h -58.72937 c -3.85596,0 -6.98175,-3.12582 -6.98175,-6.98175 z"
       fill-rule="evenodd"
       id="path47" />
    <path
       fill="#ffffff"
       d="m 596.70026,338.12723 q 0.84375,0 1.45312,0.40625 0.60938,0.40625 0.9375,1.26562 0.32813,0.84375 0.32813,2.34375 0,1.53125 -0.34375,2.375 -0.32813,0.84375 -0.90625,1.25 -0.5625,0.39063 -1.42188,0.39063 -0.85937,0 -1.45312,-0.39063 -0.57813,-0.40625 -0.92188,-1.21875 -0.32812,-0.82812 -0.32812,-2.32812 0,-2.10938 0.65625,-3.0625 0.71875,-1.03125 2,-1.03125 z m 0.0469,1.375 q -0.375,0 -0.65625,0.25 -0.28125,0.23437 -0.4375,0.8125 -0.15625,0.57812 -0.15625,1.6875 0,1.45312 0.34375,2.01562 0.35938,0.54688 0.90625,0.54688 0.53125,0 0.84375,-0.53125 0.375,-0.64063 0.375,-2.125 0,-1.5 -0.34375,-2.07813 -0.34375,-0.57812 -0.875,-0.57812 z"
       fill-rule="nonzero"
       id="path48" />
    <path
       fill="#000000"
       fill-opacity="0"
       d="m 634.14435,220.39252 -0.78741,99.21262"
       fill-rule="evenodd"
       id="path49" />
    <path
       stroke="#000000"
       stroke-width="3"
       stroke-linejoin="round"
       stroke-linecap="butt"
       stroke-dasharray="12, 9"
       d="m 634.14435,220.39252 -0.78741,99.21262"
       fill-rule="evenodd"
       id="path50" />
    <path
       fill="#000000"
       fill-opacity="0"
       d="M 678.48816,205.24147 V 371.35171 H 636.47241 V 205.24147 Z"
       fill-rule="evenodd"
       id="path51" />
    <path
       fill="#000000"
       d="m 665.30255,252.88129 q 0,2.84375 -2.0625,4.89063 -2.04688,2.04687 -5.01563,2.04687 -2.9375,0 -4.96875,-2.01562 -2.03125,-2.01563 -2.03125,-4.90625 0,-3.01563 2.07813,-5.01563 2.09375,-1.98437 4.96875,-1.98437 1.92187,0 3.53125,0.92187 1.60937,0.9375 2.54687,2.5625 0.95313,1.625 0.95313,3.5 z m -2.5,-0.0312 q 0,-1.85938 -1.29688,-3.125 -1.28125,-1.26563 -3.28125,-1.26563 -2.21875,0 -3.51562,1.59375 -1.01563,1.25 -1.01563,2.84375 0,1.8125 1.3125,3.09375 1.3125,1.28126 3.23438,1.28126 1.92187,0 3.23437,-1.29688 1.32813,-1.28125 1.32813,-3.125 z m -1.32813,11.55896 h -1.09375 q 0.67188,0.6875 1.01563,1.46875 0.34375,0.78125 0.34375,1.67187 0,1.9375 -1.46875,3.29688 -1.46875,1.35937 -3.76563,1.35937 -2.21875,0 -3.70312,-1.40625 -1.48438,-1.40625 -1.48438,-3.32812 0,-0.84375 0.29688,-1.59375 0.3125,-0.73438 1,-1.46875 h -4.67188 v -2.46875 h 13.53125 z m -2.03125,2.625 q 0,-1.17188 -0.8125,-1.95313 -0.79687,-0.78125 -2.09375,-0.78125 -1.3125,0 -2.14062,0.78125 -0.8125,0.78125 -0.8125,1.95313 0,1.14062 0.82812,1.90625 0.84375,0.78125 2.125,0.78125 1.26563,0 2.07813,-0.76563 0.82812,-0.76562 0.82812,-1.92187 z m 5.6875,7.53479 v 2.46875 h -3.65625 v 1.48437 h -2.14062 v -1.48437 h -7.76563 v -2.46875 h 7.76563 v -1.28125 h 2.14062 v 1.28125 z m 0.4375,6.26511 q 0,0.65625 -0.48437,1.125 -0.46875,0.46875 -1.14063,0.46875 -0.67187,0 -1.14062,-0.46875 -0.46875,-0.46875 -0.46875,-1.10938 0,-0.67187 0.46875,-1.14062 0.48437,-0.46875 1.17187,-0.46875 0.65625,0 1.125,0.46875 0.46875,0.46875 0.46875,1.125 z m -4.09375,-1.25 v 2.5 h -9.90625 v -2.5 z m 0,4.72277 v 2.5 h -1.14062 q 0.70312,0.64063 1.04687,1.42188 0.35938,0.78125 0.35938,1.6875 0,0.9375 -0.46875,1.6875 -0.45313,0.75 -1.32813,1.20312 0.875,0.59375 1.32813,1.45313 0.46875,0.85937 0.46875,1.875 0,1.0625 -0.5,1.85937 -0.48438,0.79688 -1.28125,1.14063 -0.79688,0.35937 -2.57813,0.35937 h -5.8125 v -2.5 h 5.03125 q 1.6875,0 2.28125,-0.42187 0.59375,-0.42188 0.59375,-1.25 0,-0.64063 -0.375,-1.15625 -0.35937,-0.5 -1,-0.75 -0.64062,-0.23438 -2.0625,-0.23438 h -4.46875 v -2.51562 h 4.79688 q 1.32812,0 1.92187,-0.20313 0.60938,-0.1875 0.89063,-0.57812 0.29687,-0.39063 0.29687,-0.95313 0,-0.60937 -0.375,-1.125 -0.35937,-0.5 -1.03125,-0.75 -0.65625,-0.25 -2.09375,-0.25 h -4.40625 v -2.5 z m 4.09375,18.53577 q 0,0.65625 -0.48437,1.125 -0.46875,0.46875 -1.14063,0.46875 -0.67187,0 -1.14062,-0.46875 -0.46875,-0.46875 -0.46875,-1.10937 0,-0.67188 0.46875,-1.14063 0.48437,-0.46875 1.17187,-0.46875 0.65625,0 1.125,0.46875 0.46875,0.46875 0.46875,1.125 z m -4.09375,-1.25 v 2.5 h -9.90625 v -2.5 z m 0,4.31653 v 7.60937 l -7.79687,-4.46875 v 4.21875 h -2.10938 v -8.04687 l 7.8125,4.48437 v -3.79687 z m -5.67187,18.94052 v -7.98437 q -1.0625,0.17187 -1.6875,0.92187 -0.60938,0.75 -0.60938,1.92188 0,1.39062 0.96875,2.39062 l -0.98437,2.09375 q -1.10938,-0.78125 -1.64063,-1.875 -0.53125,-1.09375 -0.53125,-2.59375 0,-2.34375 1.46875,-3.8125 1.46875,-1.45312 3.6875,-1.45312 2.26563,0 3.76563,1.45312 1.5,1.46875 1.5,3.67188 0,2.34375 -1.5,3.8125 -1.5,1.46875 -3.96875,1.46875 z m 1.95312,-2.5 q 0.82813,-0.25 1.34375,-0.96875 0.53125,-0.71875 0.53125,-1.67187 0,-1.04688 -0.57812,-1.82813 -0.375,-0.5 -1.29688,-0.90625 z m 3.71875,3.92691 v 2.14063 h -1.25 q 0.75,0.34375 1.125,0.90625 0.39063,0.57812 0.39063,1.26562 0,0.48438 -0.26563,1.01563 l -2.14062,-0.78125 q 0.21875,-0.4375 0.21875,-0.71875 0,-0.57813 -0.71875,-0.96875 -0.70313,-0.39063 -2.78125,-0.39063 h -0.46875 -4.01563 v -2.46875 z"
       fill-rule="nonzero"
       id="path52" />
    <path
       fill="#000000"
       fill-opacity="0"
       d="m 677.877,217.21667 -0.78741,99.21258"
       fill-rule="evenodd"
       id="path53" />
    <path
       stroke="#000000"
       stroke-width="3"
       stroke-linejoin="round"
       stroke-linecap="butt"
       stroke-dasharray="12, 9"
       d="m 677.877,217.21667 -0.78741,99.21258"
       fill-rule="evenodd"
       id="path54" />
    <path
       fill="#000000"
       fill-opacity="0"
       d="m 649.08923,217.58792 h 166.11023 v 42.01575 H 649.08923 Z"
       fill-rule="evenodd"
       id="path55" />
    <path
       fill="#000000"
       d="m 697.51483,231.10167 h 6.65625 v 2.5 h -4.125 v 2.42188 h 4.125 v 2.45312 h -4.125 v 6.03125 h -2.53125 z m 13.2984,3.23438 q 1.40625,0 2.64063,0.70312 1.23437,0.70313 1.92187,1.90625 0.70313,1.20313 0.70313,2.59375 0,1.40625 -0.70313,2.625 -0.6875,1.21875 -1.89062,1.90625 -1.20313,0.6875 -2.65625,0.6875 -2.125,0 -3.64063,-1.51562 -1.5,-1.51563 -1.5,-3.6875 0,-2.3125 1.70313,-3.85938 1.48437,-1.35937 3.42187,-1.35937 z m 0.0469,2.34375 q -1.15625,0 -1.9375,0.8125 -0.76563,0.79687 -0.76563,2.0625 0,1.29687 0.75,2.09375 0.76563,0.79687 1.9375,0.79687 1.17188,0 1.9375,-0.8125 0.78125,-0.8125 0.78125,-2.07812 0,-1.28125 -0.76562,-2.07813 -0.76563,-0.79687 -1.9375,-0.79687 z m 6.66125,-2.07813 h 2.14063 v 1.25 q 0.34375,-0.75 0.90625,-1.125 0.57812,-0.39062 1.26562,-0.39062 0.48438,0 1.01563,0.26562 l -0.78125,2.14063 q -0.4375,-0.21875 -0.71875,-0.21875 -0.57813,0 -0.96875,0.71875 -0.39063,0.70312 -0.39063,2.78125 v 0.46875 4.01562 h -2.46875 z m 5.45111,0 h 2.4375 l 1.98438,5.64063 2.15625,-5.64063 h 1.48437 l 2.10938,5.5625 1.98437,-5.5625 h 2.45313 l -3.60938,9.90625 h -1.57812 l -2.125,-5.64062 -2.17188,5.64062 h -1.5625 z m 23.34326,0 h 2.48438 v 9.90625 h -2.48438 v -1.04687 q -0.71875,0.6875 -1.45312,1 -0.73438,0.29687 -1.59375,0.29687 -1.92188,0 -3.32813,-1.48437 -1.40625,-1.48438 -1.40625,-3.70313 0,-2.29687 1.35938,-3.76562 1.35937,-1.46875 3.29687,-1.46875 0.89063,0 1.67188,0.34375 0.79687,0.34375 1.45312,1.01562 z m -2.60937,2.03125 q -1.15625,0 -1.92188,0.82813 -0.76562,0.8125 -0.76562,2.07812 0,1.28125 0.78125,2.125 0.78125,0.82813 1.90625,0.82813 1.1875,0 1.95312,-0.8125 0.78125,-0.82813 0.78125,-2.14063 0,-1.29687 -0.78125,-2.09375 -0.76562,-0.8125 -1.95312,-0.8125 z m 7.01916,-2.03125 h 2.14063 v 1.25 q 0.34375,-0.75 0.90625,-1.125 0.57812,-0.39062 1.26562,-0.39062 0.48438,0 1.01563,0.26562 l -0.78125,2.14063 q -0.4375,-0.21875 -0.71875,-0.21875 -0.57813,0 -0.96875,0.71875 -0.39063,0.70312 -0.39063,2.78125 v 0.46875 4.01562 h -2.46875 z m 13.87293,-3.82812 h 2.48437 v 13.73437 h -2.48437 v -1.04687 q -0.71875,0.6875 -1.45313,1 -0.73437,0.29687 -1.59375,0.29687 -1.92187,0 -3.32812,-1.48437 -1.40625,-1.48438 -1.40625,-3.70313 0,-2.29687 1.35937,-3.76562 1.35938,-1.46875 3.29688,-1.46875 0.89062,0 1.67187,0.34375 0.79688,0.34375 1.45313,1.01562 z m -2.60938,5.85937 q -1.15625,0 -1.92187,0.82813 -0.76563,0.8125 -0.76563,2.07812 0,1.28125 0.78125,2.125 0.78125,0.82813 1.90625,0.82813 1.1875,0 1.95313,-0.8125 0.78125,-0.82813 0.78125,-2.14063 0,-1.29687 -0.78125,-2.09375 -0.76563,-0.8125 -1.95313,-0.8125 z"
       fill-rule="nonzero"
       id="path56" />
    <path
       fill="#4ea5b7"
       d="m 679.28046,282.10773 v 0 c 0,-2.82672 2.2915,-5.11823 5.11822,-5.11823 h 20.47223 v 0 c 1.35743,0 2.65931,0.53925 3.61914,1.49909 0.95984,0.95987 1.49909,2.26169 1.49909,3.61914 v 31.65332 c 0,2.82672 -2.2915,5.11823 -5.11823,5.11823 h -20.47222 c -2.82673,0 -5.11823,-2.29151 -5.11823,-5.11823 z"
       fill-rule="evenodd"
       id="path57" />
    <path
       stroke="#000000"
       stroke-width="1"
       stroke-linejoin="round"
       stroke-linecap="butt"
       d="m 679.28046,282.10773 v 0 c 0,-2.82672 2.2915,-5.11823 5.11822,-5.11823 h 20.47223 v 0 c 1.35743,0 2.65931,0.53925 3.61914,1.49909 0.95984,0.95987 1.49909,2.26169 1.49909,3.61914 v 31.65332 c 0,2.82672 -2.2915,5.11823 -5.11823,5.11823 h -20.47222 c -2.82673,0 -5.11823,-2.29151 -5.11823,-5.11823 z"
       fill-rule="evenodd"
       id="path58" />
    <path
       fill="#ffffff"
       d="m 694.60565,292.92188 q 1.04687,0 1.79687,0.51562 0.76563,0.51563 1.17188,1.57813 0.42187,1.04687 0.42187,2.9375 0,1.90625 -0.42187,2.96875 -0.42188,1.0625 -1.14063,1.5625 -0.70312,0.48437 -1.78125,0.48437 -1.07812,0 -1.8125,-0.5 -0.73437,-0.5 -1.15625,-1.51562 -0.40625,-1.03125 -0.40625,-2.90625 0,-2.64063 0.8125,-3.82813 0.90625,-1.29687 2.51563,-1.29687 z m 0.0469,1.73437 q -0.46875,0 -0.82812,0.29688 -0.34375,0.29687 -0.54688,1.01562 -0.1875,0.71875 -0.1875,2.10938 0,1.8125 0.4375,2.51562 0.4375,0.6875 1.125,0.6875 0.65625,0 1.04688,-0.65625 0.48437,-0.79687 0.48437,-2.65625 0,-1.89062 -0.4375,-2.59375 -0.42187,-0.71875 -1.09375,-0.71875 z"
       fill-rule="nonzero"
       id="path59" />
    <path
       fill="#000000"
       fill-opacity="0"
       d="m 708.9449,288.1496 h 30.70868 v 19.40158 H 708.9449 Z"
       fill-rule="evenodd"
       id="path60" />
    <path
       fill="#000000"
       d="m 725.9449,301.27524 q 0.5,0 0.85937,0.35937 0.35938,0.35938 0.35938,0.85938 0,0.51562 -0.35938,0.875 -0.35937,0.35937 -0.85937,0.35937 -0.51563,0 -0.875,-0.35937 -0.34375,-0.35938 -0.34375,-0.875 0,-0.5 0.34375,-0.85938 0.35937,-0.35937 0.875,-0.35937 z m -5.32813,0 q 0.5,0 0.85938,0.35937 0.35937,0.35938 0.35937,0.85938 0,0.51562 -0.35937,0.875 -0.35938,0.35937 -0.85938,0.35937 -0.51562,0 -0.875,-0.35937 -0.35937,-0.35938 -0.35937,-0.875 0,-0.5 0.35937,-0.85938 0.35938,-0.35937 0.875,-0.35937 z m 10.65625,0 q 0.51563,0 0.875,0.35937 0.35938,0.35938 0.35938,0.85938 0,0.51562 -0.35938,0.875 -0.35937,0.35937 -0.875,0.35937 -0.5,0 -0.85937,-0.35937 -0.35938,-0.35938 -0.35938,-0.875 0,-0.5 0.35938,-0.85938 0.35937,-0.35937 0.85937,-0.35937 z"
       fill-rule="nonzero"
       id="path61" />
  </g>
</svg>
