<?xml version="1.0" encoding="UTF-8" standalone="no"?>
<svg
   version="1.1"
   viewBox="0 0 945.96716 242.76773"
   fill="none"
   stroke="none"
   stroke-linecap="square"
   stroke-miterlimit="10"
   id="svg132"
   sodipodi:docname="pp_afab.svg"
   width="945.96716"
   height="242.76773"
   xmlns:inkscape="http://www.inkscape.org/namespaces/inkscape"
   xmlns:sodipodi="http://sodipodi.sourceforge.net/DTD/sodipodi-0.dtd"
   xmlns="http://www.w3.org/2000/svg"
   xmlns:svg="http://www.w3.org/2000/svg">
  <defs
     id="defs132" />
  <sodipodi:namedview
     id="namedview132"
     pagecolor="#ffffff"
     bordercolor="#000000"
     borderopacity="0.25"
     inkscape:showpageshadow="2"
     inkscape:pageopacity="0.0"
     inkscape:pagecheckerboard="0"
     inkscape:deskcolor="#d1d1d1"
     fit-margin-top="20"
     fit-margin-left="20"
     fit-margin-right="20"
     fit-margin-bottom="20" />
  <clipPath
     id="g30745188092_0_112.0">
    <path
       d="M 0,0 H 960 V 540 H 0 Z"
       clip-rule="nonzero"
       id="path1" />
  </clipPath>
  <g
     clip-path="url(#g30745188092_0_112.0)"
     id="g132"
     transform="translate(-1.8687664,-129.03937)">
    <path
       fill="#f3f3f3"
       d="M 63.574802,171.58005 H 946.7874 v 36 H 63.574802 Z"
       fill-rule="evenodd"
       id="path3" />
    <path
       stroke="#595959"
       stroke-width="1"
       stroke-linejoin="round"
       stroke-linecap="butt"
       d="M 63.574802,171.58005 H 946.7874 v 36 H 63.574802 Z"
       fill-rule="evenodd"
       id="path4" />
    <path
       fill="#f3f3f3"
       d="M 63.574802,207.58005 H 946.7874 v 36 H 63.574802 Z"
       fill-rule="evenodd"
       id="path5" />
    <path
       stroke="#595959"
       stroke-width="1"
       stroke-linejoin="round"
       stroke-linecap="butt"
       d="M 63.574802,207.58005 H 946.7874 v 36 H 63.574802 Z"
       fill-rule="evenodd"
       id="path6" />
    <path
       fill="#f3f3f3"
       d="M 63.574802,243.58005 H 946.7874 v 36 H 63.574802 Z"
       fill-rule="evenodd"
       id="path7" />
    <path
       stroke="#595959"
       stroke-width="1"
       stroke-linejoin="round"
       stroke-linecap="butt"
       d="M 63.574802,243.58005 H 946.7874 v 36 H 63.574802 Z"
       fill-rule="evenodd"
       id="path8" />
    <path
       fill="#f3f3f3"
       d="M 63.574802,279.58005 H 946.7874 v 36 H 63.574802 Z"
       fill-rule="evenodd"
       id="path9" />
    <path
       stroke="#595959"
       stroke-width="1"
       stroke-linejoin="round"
       stroke-linecap="butt"
       d="M 63.574802,279.58005 H 946.7874 v 36 H 63.574802 Z"
       fill-rule="evenodd"
       id="path10" />
    <path
       fill="#000000"
       fill-opacity="0"
       d="m 17.459318,166.20998 h 32.913383 v 45.25984 H 17.459318 Z"
       fill-rule="evenodd"
       id="path11" />
    <path
       fill="#000000"
       d="m 30.256193,195.68997 v -11.875 l -2.28125,2.40625 -1.0625,-1.09375 3.5625,-3.65625 h 1.546873 v 14.21875 z"
       fill-rule="nonzero"
       id="path12" />
    <path
       fill="#000000"
       fill-opacity="0"
       d="m 17.459318,203.37883 h 32.913383 v 45.25984 H 17.459318 Z"
       fill-rule="evenodd"
       id="path13" />
    <path
       fill="#000000"
       d="m 27.615568,232.85883 v -1.40625 q 3.75,-2.96875 5.156248,-4.3125 1.40625,-1.35938 2.0625,-2.4375 0.671875,-1.07813 0.671875,-2.10938 0,-1.17187 -0.8125,-1.875 -0.8125,-0.71875 -2.15625,-0.71875 -2.499998,0 -3.859373,1.79688 l -1.09375,-1.14063 q 0.8125,-1.07812 2.125,-1.65625 1.3125,-0.57812 2.828123,-0.57812 2.0625,0 3.421875,1.14062 1.359375,1.14063 1.359375,3.03125 0,1.73438 -1.46875,3.64063 -1.453125,1.90625 -5.437498,5.04687 h 6.968748 v 1.57813 z"
       fill-rule="nonzero"
       id="path14" />
    <path
       fill="#000000"
       fill-opacity="0"
       d="m 17.459318,240.54768 h 32.913383 v 45.25984 H 17.459318 Z"
       fill-rule="evenodd"
       id="path15" />
    <path
       fill="#000000"
       d="m 32.13119,270.27768 q -1.812498,0 -3.109373,-0.6875 -1.28125,-0.6875 -1.9375,-1.65625 l 1.03125,-1.10938 q 0.625,0.82813 1.65625,1.35938 1.03125,0.51562 2.312498,0.51562 1.5625,0 2.4375,-0.70312 0.890625,-0.71875 0.890625,-1.95313 0,-1.26562 -0.921875,-1.89062 -0.921875,-0.625 -2.609373,-0.625 h -0.875 l -0.59375,0.0156 v -1.625 l 0.609375,0.0312 h 0.859375 q 1.531248,0 2.406248,-0.625 0.890625,-0.64062 0.890625,-1.71875 0,-1.09375 -0.890625,-1.76562 -0.875,-0.67188 -2.28125,-0.67188 -2.156248,0 -3.749998,1.71875 l -0.984375,-1.10937 q 1.796875,-2.1875 4.859373,-2.1875 2.171875,0 3.5,1.03125 1.328125,1.03125 1.328125,2.76562 0,1.28125 -0.875,2.1875 -0.875,0.90625 -2.203125,1.10938 1.34375,0.10937 2.3125,1.10937 0.96875,0.98438 0.96875,2.39063 0,1.85937 -1.390625,2.98437 -1.375,1.10938 -3.640625,1.10938 z"
       fill-rule="nonzero"
       id="path16" />
    <path
       fill="#000000"
       fill-opacity="0"
       d="m 17.459318,277.71652 h 32.913383 v 45.25986 H 17.459318 Z"
       fill-rule="evenodd"
       id="path17" />
    <path
       fill="#000000"
       d="m 33.896816,307.19653 v -3.60938 h -6.749998 v -1.46875 l 6.093748,-9.14062 h 2.4375 v 9.0625 h 2 v 1.54687 h -2 v 3.60938 z m 0,-12.57813 -4.984373,7.42188 h 4.984373 z"
       fill-rule="nonzero"
       id="path18" />
    <path
       fill="#000000"
       fill-opacity="0"
       d="M 1.8687664,129.03937 H 65.963256 v 45.25984 H 1.8687664 Z"
       fill-rule="evenodd"
       id="path19" />
    <path
       fill="#000000"
       d="m 19.275017,158.80061 q -3.140625,0 -5.234375,-2.09375 -2.078125,-2.10938 -2.078125,-5.29688 0,-3.21875 2.09375,-5.28125 2.109375,-2.0625 5.21875,-2.0625 3.34375,0 5.515625,2.65625 l -1.40625,0.875 q -0.671875,-0.875 -1.75,-1.40625 -1.078125,-0.54687 -2.359375,-0.54687 -2.375,0 -3.9375,1.64062 -1.546875,1.64063 -1.546875,4.125 0,2.53125 1.5625,4.17188 1.578125,1.64062 3.921875,1.64062 1.0625,0 2.078125,-0.42187 1.03125,-0.42188 1.734375,-1.125 v -2.89063 h -4.875 v -1.57812 h 6.640625 v 5.14062 q -2.21875,2.45313 -5.578125,2.45313 z m 8.457016,-0.28125 v -14.21875 h 5.71875 q 2.03125,0 3.25,1.21875 1.21875,1.20312 1.21875,3.0625 0,1.875 -1.25,3.07812 -1.234375,1.20313 -3.21875,1.20313 h -3.9375 v 5.65625 z m 5.515625,-7.23438 q 1.28125,0 2.046875,-0.73437 0.78125,-0.75 0.78125,-1.96875 0,-1.21875 -0.78125,-1.95313 -0.765625,-0.75 -2.046875,-0.75 h -3.734375 v 5.40625 z m 12.816528,7.48438 q -2.75,0 -4.28125,-1.5 -1.53125,-1.5 -1.53125,-4.28125 v -8.6875 h 1.78125 v 8.65625 q 0,1.95312 1.015625,3.09375 1.03125,1.14062 3.015625,1.14062 1.984375,0 3,-1.14062 1.03125,-1.14063 1.03125,-3.09375 v -8.65625 h 1.765625 v 8.67187 q 0,2.78125 -1.5,4.29688 -1.484375,1.5 -4.296875,1.5 z"
       fill-rule="nonzero"
       id="path20" />
    <path
       fill="#4ea5b7"
       d="m 63.574802,171.58005 h 18.236217 v 36 H 63.574802 Z"
       fill-rule="evenodd"
       id="path21" />
    <path
       stroke="#595959"
       stroke-width="1"
       stroke-linejoin="round"
       stroke-linecap="butt"
       d="m 63.574802,171.58005 h 18.236217 v 36 H 63.574802 Z"
       fill-rule="evenodd"
       id="path22" />
    <path
       fill="#ffffff"
       d="m 72.65491,195.44005 v -7.75 l -1.78125,1.8125 -1.296875,-1.35937 3.359375,-3.375 h 1.984375 v 10.67187 z"
       fill-rule="nonzero"
       id="path23" />
    <path
       fill="#4ea5b7"
       d="m 100.04724,171.58005 h 18.23622 v 36 h -18.23622 z"
       fill-rule="evenodd"
       id="path24" />
    <path
       stroke="#595959"
       stroke-width="1"
       stroke-linejoin="round"
       stroke-linecap="butt"
       d="m 100.04724,171.58005 h 18.23622 v 36 h -18.23622 z"
       fill-rule="evenodd"
       id="path25" />
    <path
       fill="#ffffff"
       d="m 109.0006,195.62755 q -1.48438,0 -2.5625,-0.48437 -1.0625,-0.5 -1.65625,-1.21875 l 1.1875,-1.53125 q 0.5625,0.57812 1.35937,0.90625 0.79688,0.3125 1.59375,0.3125 0.96875,0 1.48438,-0.375 0.53125,-0.375 0.53125,-0.98438 0,-0.64062 -0.51563,-0.9375 -0.51562,-0.29687 -1.64062,-0.29687 h -0.35938 l -0.96875,0.0312 v -2.04688 l 0.59375,0.0156 h 0.73438 q 1.96875,0 1.96875,-1.125 0,-0.64063 -0.5625,-0.95313 -0.5625,-0.3125 -1.42188,-0.3125 -1.54687,0 -2.70312,1.09375 l -1.125,-1.42187 q 1.5,-1.6875 4.07812,-1.6875 1.89063,0 2.95313,0.78125 1.07812,0.78125 1.07812,2.10937 0,0.89063 -0.67187,1.57813 -0.65625,0.67187 -1.67188,0.85937 1.10938,0.125 1.79688,0.85938 0.70312,0.71875 0.70312,1.70312 0,1.40625 -1.17187,2.26563 -1.15625,0.85937 -3.03125,0.85937 z"
       fill-rule="nonzero"
       id="path26" />
    <path
       fill="#4ea5b7"
       d="m 81.81102,171.58005 h 18.23622 v 36 H 81.81102 Z"
       fill-rule="evenodd"
       id="path27" />
    <path
       stroke="#595959"
       stroke-width="1"
       stroke-linejoin="round"
       stroke-linecap="butt"
       d="m 81.81102,171.58005 h 18.23622 v 36 H 81.81102 Z"
       fill-rule="evenodd"
       id="path28" />
    <path
       fill="#ffffff"
       d="m 86.87912,195.44005 v -1.78125 q 3.78125,-2.8125 4.71875,-3.79687 0.9375,-0.98438 0.9375,-1.84375 0,-0.625 -0.484375,-1 -0.484375,-0.39063 -1.25,-0.39063 -1.65625,0 -2.859375,1.23438 l -1.296875,-1.51563 q 0.78125,-0.90625 1.875,-1.3125 1.109375,-0.42187 2.234375,-0.42187 1.8125,0 2.9375,0.95312 1.140625,0.9375 1.140625,2.45313 0,1.21875 -0.96875,2.48437 -0.96875,1.25 -3.296875,2.9375 h 4.34375 v 2 z"
       fill-rule="nonzero"
       id="path29" />
    <path
       fill="#4ea5b7"
       d="m 118.28346,171.58005 h 18.23622 v 36 h -18.23622 z"
       fill-rule="evenodd"
       id="path30" />
    <path
       stroke="#595959"
       stroke-width="1"
       stroke-linejoin="round"
       stroke-linecap="butt"
       d="m 118.28346,171.58005 h 18.23622 v 36 h -18.23622 z"
       fill-rule="evenodd"
       id="path31" />
    <path
       fill="#ffffff"
       d="m 128.12556,195.44005 v -2.20312 h -5.09375 v -1.79688 l 4.23438,-6.67187 h 3.14062 v 6.46875 h 1.375 v 2 h -1.375 v 2.20312 z m 0,-8.65625 -2.875,4.45313 h 2.875 z"
       fill-rule="nonzero"
       id="path32" />
    <path
       fill="#4ea5b7"
       d="m 209.46457,243.58005 h 18.23622 v 36 h -18.23622 z"
       fill-rule="evenodd"
       id="path33" />
    <path
       stroke="#595959"
       stroke-width="1"
       stroke-linejoin="round"
       stroke-linecap="butt"
       d="m 209.46457,243.58005 h 18.23622 v 36 h -18.23622 z"
       fill-rule="evenodd"
       id="path34" />
    <path
       fill="#ffffff"
       d="m 217.92178,267.61194 q -1.9375,0 -3.125,-1.09375 l 1,-1.75 q 0.4375,0.42187 0.92187,0.625 0.48438,0.20312 1.20313,0.20312 1.1875,0 1.92187,-0.82812 0.75,-0.84375 0.75,-2.17188 v -0.25 q -0.42187,0.60938 -1.1875,1 -0.75,0.375 -1.5625,0.375 -1.59375,0 -2.625,-0.9375 -1.01562,-0.95312 -1.01562,-2.53125 0,-1.57812 1.15625,-2.60937 1.15625,-1.04688 2.9375,-1.04688 2.15625,0 3.375,1.46875 1.21875,1.46875 1.21875,4.04688 0,2.54687 -1.34375,4.03125 -1.34375,1.46875 -3.625,1.46875 z m 0.5625,-5.82813 q 1.28125,0 2.09375,-1 -0.0781,-0.98437 -0.67188,-1.57812 -0.57812,-0.59375 -1.5,-0.59375 -0.79687,0 -1.34375,0.45312 -0.54687,0.45313 -0.54687,1.10938 0,0.73437 0.54687,1.17187 0.54688,0.4375 1.42188,0.4375 z"
       fill-rule="nonzero"
       id="path35" />
    <path
       fill="#4ea5b7"
       d="m 227.70079,243.58005 h 18.23622 v 36 h -18.23622 z"
       fill-rule="evenodd"
       id="path36" />
    <path
       stroke="#595959"
       stroke-width="1"
       stroke-linejoin="round"
       stroke-linecap="butt"
       d="m 227.70079,243.58005 h 18.23622 v 36 h -18.23622 z"
       fill-rule="evenodd"
       id="path37" />
    <path
       fill="#ffffff"
       d="m 231.82088,267.44006 v -7.75 l -1.78125,1.8125 -1.29688,-1.35937 3.35938,-3.375 h 1.98437 v 10.67187 z m 8.27914,0.1875 q -2.04687,0 -3.23437,-1.5625 -1.17188,-1.5625 -1.17188,-3.95312 0,-1.54688 0.53125,-2.8125 0.53125,-1.28125 1.51563,-1.98438 1,-0.70312 2.35937,-0.70312 2.01563,0 3.21875,1.54687 1.20313,1.53125 1.20313,3.95313 0,2.40625 -1.20313,3.96875 -1.1875,1.54687 -3.21875,1.54687 z m 0,-2.01562 q 1,0 1.54688,-0.89063 0.5625,-0.90625 0.5625,-2.60937 0,-1.73438 -0.5625,-2.60938 -0.5625,-0.875 -1.54688,-0.875 -0.98437,0 -1.54687,0.875 -0.5625,0.875 -0.5625,2.60938 0,1.73437 0.54687,2.625 0.5625,0.875 1.5625,0.875 z"
       fill-rule="nonzero"
       id="path38" />
    <path
       fill="#e889ab"
       d="m 355.372,279.58005 h 36.47244 v 36 H 355.372 Z"
       fill-rule="evenodd"
       id="path39" />
    <path
       stroke="#595959"
       stroke-width="1"
       stroke-linejoin="round"
       stroke-linecap="butt"
       d="m 355.372,279.58005 h 36.47244 v 36 H 355.372 Z"
       fill-rule="evenodd"
       id="path40" />
    <path
       fill="#ffffff"
       d="m 368.7062,303.44006 v -7.75 l -1.78125,1.8125 -1.29687,-1.35937 3.35937,-3.375 h 1.98438 v 10.67187 z m 8.48227,0.1875 q -2.17188,0 -3.39063,-1.45312 -1.21875,-1.45313 -1.21875,-4.04688 0,-2.48437 1.32813,-4 1.32812,-1.51562 3.64062,-1.51562 1.875,0 3.15625,1.09375 l -1.03125,1.75 q -0.42187,-0.42188 -0.92187,-0.625 -0.48438,-0.20313 -1.20313,-0.20313 -1.15625,0 -1.92187,0.875 -0.75,0.85938 -0.75,2.14063 l 0.0156,0.23437 q 0.45313,-0.625 1.1875,-1 0.75,-0.375 1.54688,-0.375 1.59375,0 2.60937,0.95313 1.03125,0.95312 1.03125,2.51562 0,1.59375 -1.15625,2.625 -1.14062,1.03125 -2.92187,1.03125 z m -0.125,-2.01562 q 0.84375,0 1.35937,-0.46875 0.53125,-0.46875 0.53125,-1.09375 0,-0.73438 -0.54687,-1.15625 -0.53125,-0.4375 -1.4375,-0.4375 -1.28125,0 -2.07813,1 0.0781,0.95312 0.64063,1.5625 0.5625,0.59375 1.53125,0.59375 z"
       fill-rule="nonzero"
       id="path41" />
    <path
       fill="#e889ab"
       d="m 391.85175,279.58005 h 36.47244 v 36 h -36.47244 z"
       fill-rule="evenodd"
       id="path42" />
    <path
       stroke="#595959"
       stroke-width="1"
       stroke-linejoin="round"
       stroke-linecap="butt"
       d="m 391.85175,279.58005 h 36.47244 v 36 h -36.47244 z"
       fill-rule="evenodd"
       id="path43" />
    <path
       fill="#ffffff"
       d="m 405.18594,303.44006 v -7.75 l -1.78125,1.8125 -1.29687,-1.35937 3.35937,-3.375 h 1.98438 v 10.67187 z m 8.21664,0.1875 q -2.65625,0 -4.10937,-1.59375 l 1.26562,-1.57812 q 1.14063,1.15625 2.82813,1.15625 0.96875,0 1.46875,-0.45313 0.51562,-0.46875 0.51562,-1.125 0,-0.71875 -0.5,-1.14062 -0.5,-0.4375 -1.42187,-0.4375 -1.34375,0 -2.23438,0.85937 l -1.57812,-0.42187 v -6.125 h 7.32812 v 2 h -5.0625 v 2.60937 q 0.39063,-0.39062 1,-0.64062 0.625,-0.25 1.35938,-0.25 1.4375,0 2.42187,0.95312 1,0.95313 1,2.5 0,1.6875 -1.15625,2.6875 -1.15625,1 -3.125,1 z"
       fill-rule="nonzero"
       id="path44" />
    <path
       fill="#e889ab"
       d="m 428.33148,279.58005 h 36.47244 v 36 h -36.47244 z"
       fill-rule="evenodd"
       id="path45" />
    <path
       stroke="#595959"
       stroke-width="1"
       stroke-linejoin="round"
       stroke-linecap="butt"
       d="m 428.33148,279.58005 h 36.47244 v 36 h -36.47244 z"
       fill-rule="evenodd"
       id="path46" />
    <path
       fill="#ffffff"
       d="m 441.7537,303.44006 v -7.75 l -1.78125,1.8125 -1.29688,-1.35937 3.35938,-3.375 h 1.98437 v 10.67187 z m 8.82602,0 v -2.20312 h -5.09375 v -1.79688 l 4.23437,-6.67187 h 3.14063 v 6.46875 h 1.375 v 2 h -1.375 v 2.20312 z m 0,-8.65625 -2.875,4.45313 h 2.875 z"
       fill-rule="nonzero"
       id="path47" />
    <path
       fill="#e889ab"
       d="m 464.81122,279.58005 h 36.47244 v 36 h -36.47244 z"
       fill-rule="evenodd"
       id="path48" />
    <path
       stroke="#595959"
       stroke-width="1"
       stroke-linejoin="round"
       stroke-linecap="butt"
       d="m 464.81122,279.58005 h 36.47244 v 36 h -36.47244 z"
       fill-rule="evenodd"
       id="path49" />
    <path
       fill="#ffffff"
       d="m 478.31342,303.44006 v -7.75 l -1.78125,1.8125 -1.29688,-1.35937 3.35938,-3.375 h 1.98437 v 10.67187 z m 7.85727,0.1875 q -1.48438,0 -2.5625,-0.48437 -1.0625,-0.5 -1.65625,-1.21875 l 1.1875,-1.53125 q 0.5625,0.57812 1.35937,0.90625 0.79688,0.3125 1.59375,0.3125 0.96875,0 1.48438,-0.375 0.53125,-0.375 0.53125,-0.98438 0,-0.64062 -0.51563,-0.9375 -0.51562,-0.29687 -1.64062,-0.29687 h -0.35938 l -0.96875,0.0312 v -2.04688 l 0.59375,0.0156 h 0.73438 q 1.96875,0 1.96875,-1.125 0,-0.64063 -0.5625,-0.95313 -0.5625,-0.3125 -1.42188,-0.3125 -1.54687,0 -2.70312,1.09375 l -1.125,-1.42187 q 1.5,-1.6875 4.07812,-1.6875 1.89063,0 2.95313,0.78125 1.07812,0.78125 1.07812,2.10937 0,0.89063 -0.67187,1.57813 -0.65625,0.67187 -1.67188,0.85937 1.10938,0.125 1.79688,0.85938 0.70312,0.71875 0.70312,1.70312 0,1.40625 -1.17187,2.26563 -1.15625,0.85937 -3.03125,0.85937 z"
       fill-rule="nonzero"
       id="path50" />
    <path
       fill="#4ea5b7"
       d="m 939.02924,171.58005 h 7.77948 v 36 h -7.77948 z"
       fill-rule="evenodd"
       id="path51" />
    <path
       stroke="#595959"
       stroke-width="1"
       stroke-linejoin="round"
       stroke-linecap="butt"
       d="m 939.02924,171.58005 h 7.77948 v 36 h -7.77948 z"
       fill-rule="evenodd"
       id="path52" />
    <path
       fill="#4ea5b7"
       d="m 518.0184,335.3071 h 127.02362 v 36 H 518.0184 Z"
       fill-rule="evenodd"
       id="path53" />
    <path
       stroke="#595959"
       stroke-width="1"
       stroke-linejoin="round"
       stroke-linecap="butt"
       d="m 518.0184,335.3071 h 127.02362 v 36 H 518.0184 Z"
       fill-rule="evenodd"
       id="path54" />
    <path
       fill="#ffffff"
       d="M 533.8006,359.16708 V 348.4952 h 7.54688 v 2 h -5.28125 v 2.25 h 5.17187 v 2 h -5.17187 v 4.42188 z m 12.66724,0.1875 q -1.79688,0 -2.9375,-1.14063 -1.14063,-1.15625 -1.14063,-2.92187 0,-1.75 1.14063,-2.89063 1.14062,-1.15625 2.9375,-1.15625 1.79687,0 2.9375,1.15625 1.15625,1.14063 1.15625,2.89063 0,1.78125 -1.15625,2.92187 -1.14063,1.14063 -2.9375,1.14063 z m 0,-1.79688 q 0.875,0 1.42187,-0.625 0.5625,-0.64062 0.5625,-1.64062 0,-0.95313 -0.5625,-1.59375 -0.54687,-0.64063 -1.42187,-0.64063 -0.84375,0 -1.40625,0.625 -0.5625,0.60938 -0.5625,1.60938 0,1.03125 0.5625,1.65625 0.5625,0.60937 1.40625,0.60937 z m 5.60589,1.60938 v -7.73438 h 2.03125 v 1.0625 q 0.40625,-0.51562 1.0625,-0.875 0.67188,-0.375 1.39063,-0.375 v 1.98438 l -0.5625,-0.0469 q -0.53125,0 -1.09375,0.26563 -0.54688,0.25 -0.79688,0.60937 v 5.10938 z m 12.54126,0 -1.64062,-5.26563 -1.625,5.26563 h -2.17188 l -2.35937,-7.73438 h 2.10937 l 1.4375,5.20313 1.70313,-5.20313 h 1.8125 l 1.6875,5.20313 1.4375,-5.20313 h 2.10937 l -2.34375,7.73438 z m 10.14777,0 v -0.79688 q -0.84375,0.98438 -2.4375,0.98438 -1.125,0 -1.90625,-0.70313 -0.78125,-0.71875 -0.78125,-1.85937 0,-1.125 0.73437,-1.79688 0.75,-0.6875 1.95313,-0.6875 1.65625,0 2.4375,0.9375 v -1.03125 q 0,-0.59375 -0.46875,-0.9375 -0.45313,-0.35937 -1.21875,-0.35937 -1.28125,0 -2.25,0.90625 l -0.78125,-1.35938 q 1.42187,-1.21875 3.375,-1.21875 1.64062,0 2.51562,0.76563 0.875,0.75 0.875,2.17187 v 4.98438 z m -1.625,-1.1875 q 1.125,0 1.625,-0.67188 v -0.95312 q -0.5,-0.67188 -1.625,-0.67188 -0.60938,0 -1.03125,0.3125 -0.42188,0.29688 -0.42188,0.85938 0,0.53125 0.42188,0.82812 0.42187,0.29688 1.03125,0.29688 z m 5.68805,1.1875 v -7.73438 h 2.03125 v 1.0625 q 0.40625,-0.51562 1.0625,-0.875 0.67187,-0.375 1.39062,-0.375 v 1.98438 l -0.5625,-0.0469 q -0.53125,0 -1.09375,0.26563 -0.54687,0.25 -0.79687,0.60937 v 5.10938 z m 11.05688,0 v -0.98438 q -0.95312,1.17188 -2.375,1.17188 -1.53125,0 -2.48437,-1.09375 -0.9375,-1.10938 -0.9375,-2.95313 0,-1.82812 0.9375,-2.9375 0.95312,-1.125 2.48437,-1.125 1.45313,0 2.375,1.1875 v -3.9375 h 2.0625 v 10.67188 z m -1.75,-1.60938 q 0.51563,0 1,-0.25 0.5,-0.25 0.75,-0.64062 v -2.73438 q -0.25,-0.375 -0.75,-0.625 -0.48437,-0.25 -1,-0.25 -0.85937,0 -1.40625,0.625 -0.54687,0.625 -0.54687,1.625 0,0.98438 0.51562,1.625 0.53125,0.625 1.4375,0.625 z m 14.33142,1.79688 q -1.48437,0 -2.375,-1.17188 v 3.92188 h -2.03125 V 351.4327 h 2.03125 v 0.98438 q 0.92188,-1.17188 2.375,-1.17188 1.53125,0 2.46875,1.07813 0.95313,1.07812 0.95313,2.96875 0,1.85937 -0.9375,2.96875 -0.9375,1.09375 -2.48438,1.09375 z m -0.64062,-1.79688 q 0.875,0 1.40625,-0.625 0.54687,-0.625 0.54687,-1.64062 0,-1 -0.54687,-1.60938 -0.53125,-0.625 -1.40625,-0.625 -0.5,0 -1,0.26563 -0.48438,0.25 -0.73438,0.60937 v 2.73438 q 0.25,0.375 0.73438,0.64062 0.5,0.25 1,0.25 z m 10.18738,1.60938 v -0.79688 q -0.84375,0.98438 -2.4375,0.98438 -1.125,0 -1.90625,-0.70313 -0.78125,-0.71875 -0.78125,-1.85937 0,-1.125 0.73437,-1.79688 0.75,-0.6875 1.95313,-0.6875 1.65625,0 2.4375,0.9375 v -1.03125 q 0,-0.59375 -0.46875,-0.9375 -0.45313,-0.35937 -1.21875,-0.35937 -1.28125,0 -2.25,0.90625 l -0.78125,-1.35938 q 1.42187,-1.21875 3.375,-1.21875 1.64062,0 2.51562,0.76563 0.875,0.75 0.875,2.17187 v 4.98438 z m -1.625,-1.1875 q 1.125,0 1.625,-0.67188 v -0.95312 q -0.5,-0.67188 -1.625,-0.67188 -0.60938,0 -1.03125,0.3125 -0.42188,0.29688 -0.42188,0.85938 0,0.53125 0.42188,0.82812 0.42187,0.29688 1.03125,0.29688 z m 8.46923,1.375 q -1.01562,0 -1.9375,-0.3125 -0.92187,-0.32813 -1.51562,-0.89063 l 0.875,-1.42187 q 0.46875,0.4375 1.23437,0.75 0.76563,0.3125 1.4375,0.3125 1.29688,0 1.29688,-0.82813 0,-0.32812 -0.34375,-0.48437 -0.34375,-0.15625 -0.84375,-0.26563 l -1.10938,-0.23437 q -2.29687,-0.5 -2.29687,-2.29688 0,-1.07812 0.89062,-1.75 0.89063,-0.6875 2.28125,-0.6875 1.79688,0 3.10938,1.0625 l -0.8125,1.39063 q -0.34375,-0.375 -0.95313,-0.64063 -0.60937,-0.26562 -1.32812,-0.26562 -0.5625,0 -0.89063,0.23437 -0.32812,0.21875 -0.32812,0.54688 0,0.28125 0.32812,0.42187 0.34375,0.14063 0.84375,0.25 0.51563,0.10938 1.10938,0.25 0.59375,0.125 1.10937,0.40625 0.51563,0.26563 0.84375,0.73438 0.34375,0.45312 0.34375,1.25 0,1.10937 -0.92187,1.79687 -0.90625,0.67188 -2.42188,0.67188 z m 7.63202,0 q -1.01562,0 -1.9375,-0.3125 -0.92187,-0.32813 -1.51562,-0.89063 l 0.875,-1.42187 q 0.46875,0.4375 1.23437,0.75 0.76563,0.3125 1.4375,0.3125 1.29688,0 1.29688,-0.82813 0,-0.32812 -0.34375,-0.48437 -0.34375,-0.15625 -0.84375,-0.26563 l -1.10938,-0.23437 q -2.29687,-0.5 -2.29687,-2.29688 0,-1.07812 0.89062,-1.75 0.89063,-0.6875 2.28125,-0.6875 1.79688,0 3.10938,1.0625 l -0.8125,1.39063 q -0.34375,-0.375 -0.95313,-0.64063 -0.60937,-0.26562 -1.32812,-0.26562 -0.5625,0 -0.89063,0.23437 -0.32812,0.21875 -0.32812,0.54688 0,0.28125 0.32812,0.42187 0.34375,0.14063 0.84375,0.25 0.51563,0.10938 1.10938,0.25 0.59375,0.125 1.10937,0.40625 0.51563,0.26563 0.84375,0.73438 0.34375,0.45312 0.34375,1.25 0,1.10937 -0.92187,1.79687 -0.90625,0.67188 -2.42188,0.67188 z"
       fill-rule="nonzero"
       id="path55" />
    <path
       fill="#e889ab"
       d="m 669.1642,335.3071 h 127.02362 v 36 H 669.1642 Z"
       fill-rule="evenodd"
       id="path56" />
    <path
       stroke="#595959"
       stroke-width="1"
       stroke-linejoin="round"
       stroke-linecap="butt"
       d="m 669.1642,335.3071 h 127.02362 v 36 H 669.1642 Z"
       fill-rule="evenodd"
       id="path57" />
    <path
       fill="#ffffff"
       d="M 679.06635,359.16708 V 348.4952 h 5.60938 q 1.39062,0 2.23437,0.75 0.84375,0.75 0.84375,1.96875 0,0.96875 -0.53125,1.64063 -0.51562,0.65625 -1.3125,0.8125 0.82813,0.125 1.4375,0.85937 0.60938,0.73438 0.60938,1.76563 0,1.28125 -0.84375,2.07812 -0.82813,0.79688 -2.26563,0.79688 z m 5.10938,-6.40625 q 0.57812,0 0.90625,-0.3125 0.34375,-0.32813 0.34375,-0.82813 0,-0.51562 -0.34375,-0.84375 -0.32813,-0.32812 -0.90625,-0.32812 h -2.84375 v 2.3125 z m 0.0781,4.4375 q 0.65625,0 1.01563,-0.32813 0.35937,-0.32812 0.35937,-0.90625 0,-0.51562 -0.35937,-0.875 -0.34375,-0.375 -1.01563,-0.375 h -2.92187 v 2.48438 z m 9.99866,1.96875 v -0.79688 q -0.84375,0.98438 -2.4375,0.98438 -1.125,0 -1.90625,-0.70313 -0.78125,-0.71875 -0.78125,-1.85937 0,-1.125 0.73437,-1.79688 0.75,-0.6875 1.95313,-0.6875 1.65625,0 2.4375,0.9375 v -1.03125 q 0,-0.59375 -0.46875,-0.9375 -0.45313,-0.35937 -1.21875,-0.35937 -1.28125,0 -2.25,0.90625 l -0.78125,-1.35938 q 1.42187,-1.21875 3.375,-1.21875 1.64062,0 2.51562,0.76563 0.875,0.75 0.875,2.17187 v 4.98438 z m -1.625,-1.1875 q 1.125,0 1.625,-0.67188 v -0.95312 q -0.5,-0.67188 -1.625,-0.67188 -0.60938,0 -1.03125,0.3125 -0.42188,0.29688 -0.42188,0.85938 0,0.53125 0.42188,0.82812 0.42187,0.29688 1.03125,0.29688 z m 9.2818,1.375 q -1.82813,0 -2.96875,-1.14063 -1.125,-1.15625 -1.125,-2.92187 0,-1.73438 1.125,-2.89063 1.14062,-1.15625 2.96875,-1.15625 1.1875,0 1.92187,0.4375 0.75,0.42188 1.125,0.95313 l -1.3125,1.25 q -0.5625,-0.82813 -1.64062,-0.82813 -0.92188,0 -1.51563,0.625 -0.57812,0.60938 -0.57812,1.60938 0,1.01562 0.57812,1.64062 0.59375,0.625 1.51563,0.625 1.04687,0 1.64062,-0.84375 l 1.3125,1.23438 q -0.375,0.54687 -1.125,0.98437 -0.73437,0.42188 -1.92187,0.42188 z m 9.39026,-0.1875 -2.04688,-2.96875 -0.92187,0.98437 v 1.98438 h -2.03125 V 348.4952 h 2.03125 v 6.39063 l 2.92187,-3.45313 h 2.5 l -3.0625,3.51563 3.15625,4.21875 z m 10.34124,0 -1.64062,-5.26563 -1.625,5.26563 h -2.17188 l -2.35937,-7.73438 h 2.10937 l 1.4375,5.20313 1.70313,-5.20313 h 1.8125 l 1.6875,5.20313 1.4375,-5.20313 h 2.10937 l -2.34375,7.73438 z m 10.14777,0 v -0.79688 q -0.84375,0.98438 -2.4375,0.98438 -1.125,0 -1.90625,-0.70313 -0.78125,-0.71875 -0.78125,-1.85937 0,-1.125 0.73437,-1.79688 0.75,-0.6875 1.95313,-0.6875 1.65625,0 2.4375,0.9375 v -1.03125 q 0,-0.59375 -0.46875,-0.9375 -0.45313,-0.35937 -1.21875,-0.35937 -1.28125,0 -2.25,0.90625 l -0.78125,-1.35938 q 1.42187,-1.21875 3.375,-1.21875 1.64062,0 2.51562,0.76563 0.875,0.75 0.875,2.17187 v 4.98438 z m -1.625,-1.1875 q 1.125,0 1.625,-0.67188 v -0.95312 q -0.5,-0.67188 -1.625,-0.67188 -0.60938,0 -1.03125,0.3125 -0.42188,0.29688 -0.42188,0.85938 0,0.53125 0.42188,0.82812 0.42187,0.29688 1.03125,0.29688 z m 5.68805,1.1875 v -7.73438 h 2.03125 v 1.0625 q 0.40625,-0.51562 1.0625,-0.875 0.67187,-0.375 1.39062,-0.375 v 1.98438 l -0.5625,-0.0469 q -0.53125,0 -1.09375,0.26563 -0.54687,0.25 -0.79687,0.60937 v 5.10938 z m 11.05688,0 v -0.98438 q -0.95312,1.17188 -2.375,1.17188 -1.53125,0 -2.48437,-1.09375 -0.9375,-1.10938 -0.9375,-2.95313 0,-1.82812 0.9375,-2.9375 0.95312,-1.125 2.48437,-1.125 1.45313,0 2.375,1.1875 v -3.9375 h 2.0625 v 10.67188 z m -1.75,-1.60938 q 0.51563,0 1,-0.25 0.5,-0.25 0.75,-0.64062 v -2.73438 q -0.25,-0.375 -0.75,-0.625 -0.48437,-0.25 -1,-0.25 -0.85937,0 -1.40625,0.625 -0.54687,0.625 -0.54687,1.625 0,0.98438 0.51562,1.625 0.53125,0.625 1.4375,0.625 z m 14.33136,1.79688 q -1.48437,0 -2.375,-1.17188 v 3.92188 H 755.0836 V 351.4327 h 2.03125 v 0.98438 q 0.92188,-1.17188 2.375,-1.17188 1.53125,0 2.46875,1.07813 0.95313,1.07812 0.95313,2.96875 0,1.85937 -0.9375,2.96875 -0.9375,1.09375 -2.48438,1.09375 z m -0.64062,-1.79688 q 0.875,0 1.40625,-0.625 0.54687,-0.625 0.54687,-1.64062 0,-1 -0.54687,-1.60938 -0.53125,-0.625 -1.40625,-0.625 -0.5,0 -1,0.26563 -0.48438,0.25 -0.73438,0.60937 v 2.73438 q 0.25,0.375 0.73438,0.64062 0.5,0.25 1,0.25 z m 10.18744,1.60938 v -0.79688 q -0.84375,0.98438 -2.4375,0.98438 -1.125,0 -1.90625,-0.70313 -0.78125,-0.71875 -0.78125,-1.85937 0,-1.125 0.73437,-1.79688 0.75,-0.6875 1.95313,-0.6875 1.65625,0 2.4375,0.9375 v -1.03125 q 0,-0.59375 -0.46875,-0.9375 -0.45313,-0.35937 -1.21875,-0.35937 -1.28125,0 -2.25,0.90625 l -0.78125,-1.35938 q 1.42187,-1.21875 3.375,-1.21875 1.64062,0 2.51562,0.76563 0.875,0.75 0.875,2.17187 v 4.98438 z m -1.625,-1.1875 q 1.125,0 1.625,-0.67188 v -0.95312 q -0.5,-0.67188 -1.625,-0.67188 -0.60938,0 -1.03125,0.3125 -0.42188,0.29688 -0.42188,0.85938 0,0.53125 0.42188,0.82812 0.42187,0.29688 1.03125,0.29688 z m 8.46924,1.375 q -1.01563,0 -1.9375,-0.3125 -0.92188,-0.32813 -1.51563,-0.89063 l 0.875,-1.42187 q 0.46875,0.4375 1.23438,0.75 0.76562,0.3125 1.4375,0.3125 1.29687,0 1.29687,-0.82813 0,-0.32812 -0.34375,-0.48437 -0.34375,-0.15625 -0.84375,-0.26563 l -1.10937,-0.23437 q -2.29688,-0.5 -2.29688,-2.29688 0,-1.07812 0.89063,-1.75 0.89062,-0.6875 2.28125,-0.6875 1.79687,0 3.10937,1.0625 l -0.8125,1.39063 q -0.34375,-0.375 -0.95312,-0.64063 -0.60938,-0.26562 -1.32813,-0.26562 -0.5625,0 -0.89062,0.23437 -0.32813,0.21875 -0.32813,0.54688 0,0.28125 0.32813,0.42187 0.34375,0.14063 0.84375,0.25 0.51562,0.10938 1.10937,0.25 0.59375,0.125 1.10938,0.40625 0.51562,0.26563 0.84375,0.73438 0.34375,0.45312 0.34375,1.25 0,1.10937 -0.92188,1.79687 -0.90625,0.67188 -2.42187,0.67188 z m 7.63201,0 q -1.01562,0 -1.9375,-0.3125 -0.92187,-0.32813 -1.51562,-0.89063 l 0.875,-1.42187 q 0.46875,0.4375 1.23437,0.75 0.76563,0.3125 1.4375,0.3125 1.29688,0 1.29688,-0.82813 0,-0.32812 -0.34375,-0.48437 -0.34375,-0.15625 -0.84375,-0.26563 l -1.10938,-0.23437 q -2.29687,-0.5 -2.29687,-2.29688 0,-1.07812 0.89062,-1.75 0.89063,-0.6875 2.28125,-0.6875 1.79688,0 3.10938,1.0625 l -0.8125,1.39063 q -0.34375,-0.375 -0.95313,-0.64063 -0.60937,-0.26562 -1.32812,-0.26562 -0.5625,0 -0.89063,0.23437 -0.32812,0.21875 -0.32812,0.54688 0,0.28125 0.32812,0.42187 0.34375,0.14063 0.84375,0.25 0.51563,0.10938 1.10938,0.25 0.59375,0.125 1.10937,0.40625 0.51563,0.26563 0.84375,0.73438 0.34375,0.45312 0.34375,1.25 0,1.10937 -0.92187,1.79687 -0.90625,0.67188 -2.42188,0.67188 z"
       fill-rule="nonzero"
       id="path58" />
    <path
       fill="#000000"
       fill-opacity="0"
       d="m 116.60105,353.09448 57.63779,-0.12598"
       fill-rule="evenodd"
       id="path59" />
    <path
       stroke="#000000"
       stroke-width="2"
       stroke-linejoin="round"
       stroke-linecap="butt"
       d="m 116.60105,353.09448 45.63782,-0.0997"
       fill-rule="evenodd"
       id="path60" />
    <path
       fill="#000000"
       stroke="#000000"
       stroke-width="2"
       stroke-linecap="butt"
       d="m 162.2461,356.2982 9.06895,-3.3233 -9.08339,-3.2836 z"
       fill-rule="evenodd"
       id="path61" />
    <path
       fill="#efefef"
       d="m 820.3123,335.3071 h 127.02362 v 36 H 820.3123 Z"
       fill-rule="evenodd"
       id="path62" />
    <path
       stroke="#595959"
       stroke-width="1"
       stroke-linejoin="round"
       stroke-linecap="butt"
       d="m 820.3123,335.3071 h 127.02362 v 36 H 820.3123 Z"
       fill-rule="evenodd"
       id="path63" />
    <path
       fill="#000000"
       d="M 844.96655,359.16708 V 348.4952 h 4.20312 q 2.53125,0 4.09375,1.46875 1.5625,1.46875 1.5625,3.875 0,2.39063 -1.5625,3.85938 -1.5625,1.46875 -4.09375,1.46875 z m 4.20312,-2 q 1.48438,0 2.40625,-0.9375 0.9375,-0.9375 0.9375,-2.39063 0,-1.51562 -0.89062,-2.42187 -0.89063,-0.92188 -2.45313,-0.92188 h -1.9375 v 6.67188 z m 10.86304,2.1875 q -1.82812,0 -2.98437,-1.125 -1.14063,-1.125 -1.14063,-2.9375 0,-1.71875 1.14063,-2.875 1.14062,-1.17188 2.85937,-1.17188 1.70313,0 2.78125,1.1875 1.09375,1.17188 1.09375,3.07813 v 0.4375 h -5.75 q 0.0937,0.73437 0.65625,1.26562 0.57813,0.53125 1.5625,0.53125 0.48438,0 1.07813,-0.20312 0.59375,-0.20313 0.98437,-0.5625 l 0.90625,1.3125 q -0.57812,0.51562 -1.4375,0.79687 -0.84375,0.26563 -1.75,0.26563 z m 1.78125,-4.78125 q -0.0469,-0.76563 -0.57812,-1.23438 -0.53125,-0.46875 -1.32813,-0.46875 -0.79687,0 -1.3125,0.48438 -0.51562,0.48437 -0.59375,1.21875 z m 5.44177,4.59375 -3.10937,-7.73438 h 2.17187 l 2.01563,5.375 2.01562,-5.375 h 2.1875 l -3.09375,7.73438 z m 7.20801,-8.5625 q -0.5,0 -0.85937,-0.34375 -0.35938,-0.35938 -0.35938,-0.875 0,-0.5 0.35938,-0.84375 0.35937,-0.34375 0.85937,-0.34375 0.51563,0 0.85938,0.34375 0.35937,0.34375 0.35937,0.84375 0,0.51562 -0.35937,0.875 -0.34375,0.34375 -0.85938,0.34375 z m -1,8.5625 v -7.73438 h 2.03125 v 7.73438 z m 7.64179,0.1875 q -1.82813,0 -2.96875,-1.14063 -1.125,-1.15625 -1.125,-2.92187 0,-1.73438 1.125,-2.89063 1.14062,-1.15625 2.96875,-1.15625 1.1875,0 1.92187,0.4375 0.75,0.42188 1.125,0.95313 l -1.3125,1.25 q -0.5625,-0.82813 -1.64062,-0.82813 -0.92188,0 -1.51563,0.625 -0.57812,0.60938 -0.57812,1.60938 0,1.01562 0.57812,1.64062 0.59375,0.625 1.51563,0.625 1.04687,0 1.64062,-0.84375 l 1.3125,1.23438 q -0.375,0.54687 -1.125,0.98437 -0.73437,0.42188 -1.92187,0.42188 z m 8.01526,0 q -1.82813,0 -2.98438,-1.125 -1.14062,-1.125 -1.14062,-2.9375 0,-1.71875 1.14062,-2.875 1.14063,-1.17188 2.85938,-1.17188 1.70312,0 2.78125,1.1875 1.09375,1.17188 1.09375,3.07813 v 0.4375 h -5.75 q 0.0937,0.73437 0.65625,1.26562 0.57812,0.53125 1.5625,0.53125 0.48437,0 1.07812,-0.20312 0.59375,-0.20313 0.98438,-0.5625 l 0.90625,1.3125 q -0.57813,0.51562 -1.4375,0.79687 -0.84375,0.26563 -1.75,0.26563 z m 1.78125,-4.78125 q -0.0469,-0.76563 -0.57813,-1.23438 -0.53125,-0.46875 -1.32812,-0.46875 -0.79688,0 -1.3125,0.48438 -0.51563,0.48437 -0.59375,1.21875 z m 8.53778,-3.96875 q -0.5,0 -0.85938,-0.34375 -0.35937,-0.35938 -0.35937,-0.875 0,-0.5 0.35937,-0.84375 0.35938,-0.34375 0.85938,-0.34375 0.51562,0 0.85937,0.34375 0.35938,0.34375 0.35938,0.84375 0,0.51562 -0.35938,0.875 -0.34375,0.34375 -0.85937,0.34375 z m -1,8.5625 v -7.73438 h 2.03125 v 7.73438 z m 9.34485,0 v -0.98438 q -0.95313,1.17188 -2.375,1.17188 -1.53125,0 -2.48438,-1.09375 -0.9375,-1.10938 -0.9375,-2.95313 0,-1.82812 0.9375,-2.9375 0.95313,-1.125 2.48438,-1.125 1.45312,0 2.375,1.1875 v -3.9375 h 2.0625 v 10.67188 z m -1.75,-1.60938 q 0.51562,0 1,-0.25 0.5,-0.25 0.75,-0.64062 v -2.73438 q -0.25,-0.375 -0.75,-0.625 -0.48438,-0.25 -1,-0.25 -0.85938,0 -1.40625,0.625 -0.54688,0.625 -0.54688,1.625 0,0.98438 0.51563,1.625 0.53125,0.625 1.4375,0.625 z m 5.82916,1.60938 V 348.4952 h 2.03125 v 10.67188 z m 7.67297,0.1875 q -1.82812,0 -2.98437,-1.125 -1.14063,-1.125 -1.14063,-2.9375 0,-1.71875 1.14063,-2.875 1.14062,-1.17188 2.85937,-1.17188 1.70313,0 2.78125,1.1875 1.09375,1.17188 1.09375,3.07813 v 0.4375 h -5.75 q 0.0937,0.73437 0.65625,1.26562 0.57813,0.53125 1.5625,0.53125 0.48438,0 1.07813,-0.20312 0.59375,-0.20313 0.98437,-0.5625 l 0.90625,1.3125 q -0.57812,0.51562 -1.4375,0.79687 -0.84375,0.26563 -1.75,0.26563 z m 1.78125,-4.78125 q -0.0469,-0.76563 -0.57812,-1.23438 -0.53125,-0.46875 -1.32813,-0.46875 -0.79687,0 -1.3125,0.48438 -0.51562,0.48437 -0.59375,1.21875 z"
       fill-rule="nonzero"
       id="path64" />
    <path
       fill="#000000"
       fill-opacity="0"
       d="m 63.889763,335.3071 h 44.440947 v 36 H 63.889763 Z"
       fill-rule="evenodd"
       id="path65" />
    <path
       fill="#000000"
       d="m 67.40539,359.16708 v -8.67188 h -3.109375 v -2 h 8.5 v 2 h -3.09375 v 8.67188 z m 7.812012,-8.5625 q -0.5,0 -0.859375,-0.34375 -0.359375,-0.35938 -0.359375,-0.875 0,-0.5 0.359375,-0.84375 0.359375,-0.34375 0.859375,-0.34375 0.515625,0 0.859375,0.34375 0.359375,0.34375 0.359375,0.84375 0,0.51562 -0.359375,0.875 -0.34375,0.34375 -0.859375,0.34375 z m -1,8.5625 v -7.73438 h 2.03125 v 7.73438 z m 13.626129,0 v -4.875 q 0,-1.23438 -1.15625,-1.23438 -0.546875,0 -0.96875,0.29688 -0.40625,0.28125 -0.625,0.59375 v 5.21875 h -2.046875 v -4.875 q 0,-1.23438 -1.15625,-1.23438 -0.53125,0 -0.953125,0.29688 -0.421875,0.29687 -0.640625,0.60937 v 5.20313 h -2.03125 v -7.73438 h 2.03125 v 1.01563 q 0.265625,-0.4375 1,-0.8125 0.75,-0.39063 1.515625,-0.39063 1.6875,0 2.15625,1.40625 0.359375,-0.59375 1.09375,-1 0.734375,-0.40625 1.5625,-0.40625 2.265625,0 2.265625,2.34375 v 5.57813 z m 7.678909,0.1875 q -1.828125,0 -2.984375,-1.125 -1.140625,-1.125 -1.140625,-2.9375 0,-1.71875 1.140625,-2.875 1.140625,-1.17188 2.859375,-1.17188 1.703125,0 2.78125,1.1875 1.09375,1.17188 1.09375,3.07813 v 0.4375 h -5.75 q 0.09375,0.73437 0.65625,1.26562 0.578125,0.53125 1.5625,0.53125 0.484375,0 1.078125,-0.20312 0.59375,-0.20313 0.984375,-0.5625 l 0.90625,1.3125 q -0.578125,0.51562 -1.4375,0.79687 -0.84375,0.26563 -1.75,0.26563 z m 1.78125,-4.78125 q -0.04687,-0.76563 -0.578125,-1.23438 -0.53125,-0.46875 -1.328125,-0.46875 -0.796875,0 -1.3125,0.48438 -0.515625,0.48437 -0.59375,1.21875 z"
       fill-rule="nonzero"
       id="path66" />
    <path
       fill="#4ea5b7"
       d="m 154.7559,207.58005 h 18.23622 v 36 H 154.7559 Z"
       fill-rule="evenodd"
       id="path67" />
    <path
       stroke="#595959"
       stroke-width="1"
       stroke-linejoin="round"
       stroke-linecap="butt"
       d="m 154.7559,207.58005 h 18.23622 v 36 H 154.7559 Z"
       fill-rule="evenodd"
       id="path68" />
    <path
       fill="#ffffff"
       d="m 164.16626,231.62755 q -2.17188,0 -3.39063,-1.45312 -1.21875,-1.45313 -1.21875,-4.04688 0,-2.48437 1.32813,-4 1.32812,-1.51562 3.64062,-1.51562 1.875,0 3.15625,1.09375 l -1.03125,1.75 q -0.42187,-0.42188 -0.92187,-0.625 -0.48438,-0.20313 -1.20313,-0.20313 -1.15625,0 -1.92187,0.875 -0.75,0.85938 -0.75,2.14063 l 0.0156,0.23437 q 0.45313,-0.625 1.1875,-1 0.75,-0.375 1.54688,-0.375 1.59375,0 2.60937,0.95313 1.03125,0.95312 1.03125,2.51562 0,1.59375 -1.15625,2.625 -1.14062,1.03125 -2.92187,1.03125 z m -0.125,-2.01562 q 0.84375,0 1.35937,-0.46875 0.53125,-0.46875 0.53125,-1.09375 0,-0.73438 -0.54687,-1.15625 -0.53125,-0.4375 -1.4375,-0.4375 -1.28125,0 -2.07813,1 0.0781,0.95312 0.64063,1.5625 0.5625,0.59375 1.53125,0.59375 z"
       fill-rule="nonzero"
       id="path69" />
    <path
       fill="#4ea5b7"
       d="m 172.99213,207.58005 h 18.23622 v 36 h -18.23622 z"
       fill-rule="evenodd"
       id="path70" />
    <path
       stroke="#595959"
       stroke-width="1"
       stroke-linejoin="round"
       stroke-linecap="butt"
       d="m 172.99213,207.58005 h 18.23622 v 36 h -18.23622 z"
       fill-rule="evenodd"
       id="path71" />
    <path
       fill="#ffffff"
       d="m 179.68773,231.44005 3.82812,-8.67187 h -5.375 v -2 h 8.01563 v 1.57812 l -3.96875,9.09375 z"
       fill-rule="nonzero"
       id="path72" />
    <path
       fill="#4ea5b7"
       d="m 191.22835,207.58005 h 18.23622 v 36 h -18.23622 z"
       fill-rule="evenodd"
       id="path73" />
    <path
       stroke="#595959"
       stroke-width="1"
       stroke-linejoin="round"
       stroke-linecap="butt"
       d="m 191.22835,207.58005 h 18.23622 v 36 h -18.23622 z"
       fill-rule="evenodd"
       id="path74" />
    <path
       fill="#ffffff"
       d="m 200.3422,231.62755 q -1.875,0 -3.07813,-0.79687 -1.20312,-0.79688 -1.20312,-2.15625 0,-0.92188 0.60937,-1.64063 0.625,-0.71875 1.67188,-1.09375 -2.10938,-0.75 -2.10938,-2.51562 0,-1.32813 1.15625,-2.0625 1.17188,-0.75 2.95313,-0.75 1.8125,0 2.95312,0.76562 1.15625,0.75 1.15625,2.04688 0,1.75 -2.125,2.51562 1.09375,0.39063 1.70313,1.125 0.60937,0.73438 0.60937,1.60938 0,1.35937 -1.21875,2.15625 -1.20312,0.79687 -3.07812,0.79687 z m 0,-6.59375 q 0.76562,-0.0937 1.28125,-0.4375 0.51562,-0.35937 0.51562,-0.8125 0,-0.57812 -0.51562,-0.89062 -0.5,-0.32813 -1.28125,-0.32813 -0.79688,0 -1.29688,0.32813 -0.5,0.3125 -0.5,0.89062 0,0.42188 0.5,0.78125 0.5,0.35938 1.29688,0.46875 z m 0,4.64063 q 0.85937,0 1.42187,-0.375 0.5625,-0.375 0.5625,-0.92188 0,-0.5 -0.59375,-0.90625 -0.59375,-0.40625 -1.39062,-0.51562 -0.76563,0.0937 -1.375,0.5 -0.60938,0.40625 -0.60938,0.92187 0,0.59375 0.5625,0.95313 0.57813,0.34375 1.42188,0.34375 z"
       fill-rule="nonzero"
       id="path75" />
    <path
       fill="#4ea5b7"
       d="m 136.51968,207.58005 h 18.23622 v 36 h -18.23622 z"
       fill-rule="evenodd"
       id="path76" />
    <path
       stroke="#595959"
       stroke-width="1"
       stroke-linejoin="round"
       stroke-linecap="butt"
       d="m 136.51968,207.58005 h 18.23622 v 36 h -18.23622 z"
       fill-rule="evenodd"
       id="path77" />
    <path
       fill="#ffffff"
       d="m 145.66441,231.62755 q -2.65625,0 -4.10938,-1.59375 l 1.26563,-1.57812 q 1.14062,1.15625 2.82812,1.15625 0.96875,0 1.46875,-0.45313 0.51563,-0.46875 0.51563,-1.125 0,-0.71875 -0.5,-1.14062 -0.5,-0.4375 -1.42188,-0.4375 -1.34375,0 -2.23437,0.85937 l -1.57813,-0.42187 v -6.125 h 7.32813 v 2 h -5.0625 v 2.60937 q 0.39062,-0.39062 1,-0.64062 0.625,-0.25 1.35937,-0.25 1.4375,0 2.42188,0.95312 1,0.95313 1,2.5 0,1.6875 -1.15625,2.6875 -1.15625,1 -3.125,1 z"
       fill-rule="nonzero"
       id="path78" />
    <path
       fill="#4ea5b7"
       d="m 245.93701,243.58005 h 18.23621 v 36 h -18.23621 z"
       fill-rule="evenodd"
       id="path79" />
    <path
       stroke="#595959"
       stroke-width="1"
       stroke-linejoin="round"
       stroke-linecap="butt"
       d="m 245.93701,243.58005 h 18.23621 v 36 h -18.23621 z"
       fill-rule="evenodd"
       id="path80" />
    <path
       fill="#ffffff"
       d="m 251.7291,267.44006 v -7.75 l -1.78125,1.8125 -1.29688,-1.35937 3.35938,-3.375 h 1.98437 v 10.67187 z m 6.57602,0 v -7.75 l -1.78125,1.8125 -1.29688,-1.35937 3.35938,-3.375 h 1.98437 v 10.67187 z"
       fill-rule="nonzero"
       id="path81" />
    <path
       fill="#4ea5b7"
       d="m 264.1811,243.58005 h 18.23624 v 36 H 264.1811 Z"
       fill-rule="evenodd"
       id="path82" />
    <path
       stroke="#595959"
       stroke-width="1"
       stroke-linejoin="round"
       stroke-linecap="butt"
       d="m 264.1811,243.58005 h 18.23624 v 36 H 264.1811 Z"
       fill-rule="evenodd"
       id="path83" />
    <path
       fill="#ffffff"
       d="m 268.46118,267.44006 v -7.75 l -1.78125,1.8125 -1.29687,-1.35937 3.35937,-3.375 h 1.98438 v 10.67187 z m 4.07602,0 v -1.78125 q 3.78125,-2.8125 4.71875,-3.79687 0.9375,-0.98438 0.9375,-1.84375 0,-0.625 -0.48438,-1 -0.48437,-0.39063 -1.25,-0.39063 -1.65625,0 -2.85937,1.23438 l -1.29688,-1.51563 q 0.78125,-0.90625 1.875,-1.3125 1.10938,-0.42187 2.23438,-0.42187 1.8125,0 2.9375,0.95312 1.14062,0.9375 1.14062,2.45313 0,1.21875 -0.96875,2.48437 -0.96875,1.25 -3.29687,2.9375 h 4.34375 v 2 z"
       fill-rule="nonzero"
       id="path84" />
    <path
       fill="#4ea5b7"
       d="m 282.42126,279.58005 h 18.23621 v 36 h -18.23621 z"
       fill-rule="evenodd"
       id="path85" />
    <path
       stroke="#595959"
       stroke-width="1"
       stroke-linejoin="round"
       stroke-linecap="butt"
       d="m 282.42126,279.58005 h 18.23621 v 36 h -18.23621 z"
       fill-rule="evenodd"
       id="path86" />
    <path
       fill="#ffffff"
       d="m 286.80536,303.44006 v -7.75 l -1.78125,1.8125 -1.29688,-1.35937 3.35938,-3.375 h 1.98437 v 10.67187 z m 7.85727,0.1875 q -1.48438,0 -2.5625,-0.48437 -1.0625,-0.5 -1.65625,-1.21875 l 1.1875,-1.53125 q 0.5625,0.57812 1.35937,0.90625 0.79688,0.3125 1.59375,0.3125 0.96875,0 1.48438,-0.375 0.53125,-0.375 0.53125,-0.98438 0,-0.64062 -0.51563,-0.9375 -0.51562,-0.29687 -1.64062,-0.29687 h -0.35938 l -0.96875,0.0312 v -2.04688 l 0.59375,0.0156 h 0.73438 q 1.96875,0 1.96875,-1.125 0,-0.64063 -0.5625,-0.95313 -0.5625,-0.3125 -1.42188,-0.3125 -1.54687,0 -2.70312,1.09375 l -1.125,-1.42187 q 1.5,-1.6875 4.07812,-1.6875 1.89063,0 2.95313,0.78125 1.07812,0.78125 1.07812,2.10937 0,0.89063 -0.67187,1.57813 -0.65625,0.67187 -1.67188,0.85937 1.10938,0.125 1.79688,0.85938 0.70312,0.71875 0.70312,1.70312 0,1.40625 -1.17187,2.26563 -1.15625,0.85937 -3.03125,0.85937 z"
       fill-rule="nonzero"
       id="path87" />
    <path
       fill="#4ea5b7"
       d="m 318.8937,279.58005 h 18.23621 v 36 H 318.8937 Z"
       fill-rule="evenodd"
       id="path88" />
    <path
       stroke="#595959"
       stroke-width="1"
       stroke-linejoin="round"
       stroke-linecap="butt"
       d="m 318.8937,279.58005 h 18.23621 v 36 H 318.8937 Z"
       fill-rule="evenodd"
       id="path89" />
    <path
       fill="#ffffff"
       d="m 323.1098,303.44006 v -7.75 l -1.78125,1.8125 -1.29688,-1.35937 3.35938,-3.375 h 1.98437 v 10.67187 z m 8.21664,0.1875 q -2.65625,0 -4.10937,-1.59375 l 1.26562,-1.57812 q 1.14063,1.15625 2.82813,1.15625 0.96875,0 1.46875,-0.45313 0.51562,-0.46875 0.51562,-1.125 0,-0.71875 -0.5,-1.14062 -0.5,-0.4375 -1.42187,-0.4375 -1.34375,0 -2.23438,0.85937 l -1.57812,-0.42187 v -6.125 h 7.32812 v 2 h -5.0625 v 2.60937 q 0.39063,-0.39062 1,-0.64062 0.625,-0.25 1.35938,-0.25 1.4375,0 2.42187,0.95312 1,0.95313 1,2.5 0,1.6875 -1.15625,2.6875 -1.15625,1 -3.125,1 z"
       fill-rule="nonzero"
       id="path90" />
    <path
       fill="#4ea5b7"
       d="m 300.65747,279.58005 h 18.23624 v 36 h -18.23624 z"
       fill-rule="evenodd"
       id="path91" />
    <path
       stroke="#595959"
       stroke-width="1"
       stroke-linejoin="round"
       stroke-linecap="butt"
       d="m 300.65747,279.58005 h 18.23624 v 36 h -18.23624 z"
       fill-rule="evenodd"
       id="path92" />
    <path
       fill="#ffffff"
       d="m 304.96158,303.44006 v -7.75 l -1.78125,1.8125 -1.29687,-1.35937 3.35937,-3.375 h 1.98438 v 10.67187 z m 8.82602,0 v -2.20312 h -5.09375 v -1.79688 l 4.23437,-6.67187 h 3.14063 v 6.46875 h 1.375 v 2 h -1.375 v 2.20312 z m 0,-8.65625 -2.875,4.45313 h 2.875 z"
       fill-rule="nonzero"
       id="path93" />
    <path
       fill="#4ea5b7"
       d="m 337.1299,279.58005 h 18.23624 v 36 H 337.1299 Z"
       fill-rule="evenodd"
       id="path94" />
    <path
       stroke="#595959"
       stroke-width="1"
       stroke-linejoin="round"
       stroke-linecap="butt"
       d="m 337.1299,279.58005 h 18.23624 v 36 H 337.1299 Z"
       fill-rule="evenodd"
       id="path95" />
    <path
       fill="#ffffff"
       d="m 341.346,303.44006 v -7.75 l -1.78125,1.8125 -1.29688,-1.35937 3.35938,-3.375 h 1.98437 v 10.67187 z m 8.48227,0.1875 q -2.17188,0 -3.39063,-1.45312 -1.21875,-1.45313 -1.21875,-4.04688 0,-2.48437 1.32813,-4 1.32812,-1.51562 3.64062,-1.51562 1.875,0 3.15625,1.09375 l -1.03125,1.75 q -0.42187,-0.42188 -0.92187,-0.625 -0.48438,-0.20313 -1.20313,-0.20313 -1.15625,0 -1.92187,0.875 -0.75,0.85938 -0.75,2.14063 l 0.0156,0.23437 q 0.45313,-0.625 1.1875,-1 0.75,-0.375 1.54688,-0.375 1.59375,0 2.60937,0.95313 1.03125,0.95312 1.03125,2.51562 0,1.59375 -1.15625,2.625 -1.14062,1.03125 -2.92187,1.03125 z m -0.125,-2.01562 q 0.84375,0 1.35937,-0.46875 0.53125,-0.46875 0.53125,-1.09375 0,-0.73438 -0.54687,-1.15625 -0.53125,-0.4375 -1.4375,-0.4375 -1.28125,0 -2.07813,1 0.0781,0.95312 0.64063,1.5625 0.5625,0.59375 1.53125,0.59375 z"
       fill-rule="nonzero"
       id="path96" />
    <path
       fill="#e889ab"
       d="m 501.2736,243.58005 h 36.47244 v 36 H 501.2736 Z"
       fill-rule="evenodd"
       id="path97" />
    <path
       stroke="#595959"
       stroke-width="1"
       stroke-linejoin="round"
       stroke-linecap="butt"
       d="m 501.2736,243.58005 h 36.47244 v 36 H 501.2736 Z"
       fill-rule="evenodd"
       id="path98" />
    <path
       fill="#ffffff"
       d="m 514.6718,267.44006 v -7.75 l -1.78125,1.8125 -1.29691,-1.35937 3.35941,-3.375 h 1.98437 v 10.67187 z m 4.07599,0 v -1.78125 q 3.78125,-2.8125 4.71875,-3.79687 0.9375,-0.98438 0.9375,-1.84375 0,-0.625 -0.48438,-1 -0.48437,-0.39063 -1.25,-0.39063 -1.65625,0 -2.85937,1.23438 l -1.29688,-1.51563 q 0.78125,-0.90625 1.875,-1.3125 1.10938,-0.42187 2.23438,-0.42187 1.8125,0 2.9375,0.95312 1.14062,0.9375 1.14062,2.45313 0,1.21875 -0.96875,2.48437 -0.96875,1.25 -3.29687,2.9375 h 4.34375 v 2 z"
       fill-rule="nonzero"
       id="path99" />
    <path
       fill="#e889ab"
       d="m 537.7533,243.58005 h 36.47247 v 36 H 537.7533 Z"
       fill-rule="evenodd"
       id="path100" />
    <path
       stroke="#595959"
       stroke-width="1"
       stroke-linejoin="round"
       stroke-linecap="butt"
       d="m 537.7533,243.58005 h 36.47247 v 36 H 537.7533 Z"
       fill-rule="evenodd"
       id="path101" />
    <path
       fill="#ffffff"
       d="m 552.6635,267.44006 v -7.75 l -1.78125,1.8125 -1.29688,-1.35937 3.35938,-3.375 h 1.98437 v 10.67187 z m 6.57605,0 v -7.75 l -1.78125,1.8125 -1.29688,-1.35937 3.35938,-3.375 h 1.98437 v 10.67187 z"
       fill-rule="nonzero"
       id="path102" />
    <path
       fill="#e889ab"
       d="m 574.23303,243.58005 h 36.47247 v 36 h -36.47247 z"
       fill-rule="evenodd"
       id="path103" />
    <path
       stroke="#595959"
       stroke-width="1"
       stroke-linejoin="round"
       stroke-linecap="butt"
       d="m 574.23303,243.58005 h 36.47247 v 36 h -36.47247 z"
       fill-rule="evenodd"
       id="path104" />
    <path
       fill="#ffffff"
       d="m 587.47125,267.44006 v -7.75 l -1.78125,1.8125 -1.29687,-1.35937 3.35937,-3.375 h 1.98438 v 10.67187 z m 8.27918,0.1875 q -2.04688,0 -3.23438,-1.5625 -1.17187,-1.5625 -1.17187,-3.95312 0,-1.54688 0.53125,-2.8125 0.53125,-1.28125 1.51562,-1.98438 1,-0.70312 2.35938,-0.70312 2.01562,0 3.21875,1.54687 1.20312,1.53125 1.20312,3.95313 0,2.40625 -1.20312,3.96875 -1.1875,1.54687 -3.21875,1.54687 z m 0,-2.01562 q 1,0 1.54687,-0.89063 0.5625,-0.90625 0.5625,-2.60937 0,-1.73438 -0.5625,-2.60938 -0.5625,-0.875 -1.54687,-0.875 -0.98438,0 -1.54688,0.875 -0.5625,0.875 -0.5625,2.60938 0,1.73437 0.54688,2.625 0.5625,0.875 1.5625,0.875 z"
       fill-rule="nonzero"
       id="path105" />
    <path
       fill="#e889ab"
       d="m 610.71277,243.58005 h 36.47247 v 36 h -36.47247 z"
       fill-rule="evenodd"
       id="path106" />
    <path
       stroke="#595959"
       stroke-width="1"
       stroke-linejoin="round"
       stroke-linecap="butt"
       d="m 610.71277,243.58005 h 36.47247 v 36 h -36.47247 z"
       fill-rule="evenodd"
       id="path107" />
    <path
       fill="#ffffff"
       d="m 628.28815,267.61194 q -1.9375,0 -3.125,-1.09375 l 1,-1.75 q 0.4375,0.42187 0.92187,0.625 0.48438,0.20312 1.20313,0.20312 1.1875,0 1.92187,-0.82812 0.75,-0.84375 0.75,-2.17188 v -0.25 q -0.42187,0.60938 -1.1875,1 -0.75,0.375 -1.5625,0.375 -1.59375,0 -2.625,-0.9375 -1.01562,-0.95312 -1.01562,-2.53125 0,-1.57812 1.15625,-2.60937 1.15625,-1.04688 2.9375,-1.04688 2.15625,0 3.375,1.46875 1.21875,1.46875 1.21875,4.04688 0,2.54687 -1.34375,4.03125 -1.34375,1.46875 -3.625,1.46875 z m 0.5625,-5.82813 q 1.28125,0 2.09375,-1 -0.0781,-0.98437 -0.67188,-1.57812 -0.57812,-0.59375 -1.5,-0.59375 -0.79687,0 -1.34375,0.45312 -0.54687,0.45313 -0.54687,1.10938 0,0.73437 0.54687,1.17187 0.54688,0.4375 1.42188,0.4375 z"
       fill-rule="nonzero"
       id="path108" />
    <path
       fill="#e889ab"
       d="m 647.18695,207.58005 h 36.47247 v 36 h -36.47247 z"
       fill-rule="evenodd"
       id="path109" />
    <path
       stroke="#595959"
       stroke-width="1"
       stroke-linejoin="round"
       stroke-linecap="butt"
       d="m 647.18695,207.58005 h 36.47247 v 36 h -36.47247 z"
       fill-rule="evenodd"
       id="path110" />
    <path
       fill="#ffffff"
       d="m 665.41895,231.62755 q -1.875,0 -3.07813,-0.79687 -1.20312,-0.79688 -1.20312,-2.15625 0,-0.92188 0.60937,-1.64063 0.625,-0.71875 1.67188,-1.09375 -2.10938,-0.75 -2.10938,-2.51562 0,-1.32813 1.15625,-2.0625 1.17188,-0.75 2.95313,-0.75 1.8125,0 2.95312,0.76562 1.15625,0.75 1.15625,2.04688 0,1.75 -2.125,2.51562 1.09375,0.39063 1.70313,1.125 0.60937,0.73438 0.60937,1.60938 0,1.35937 -1.21875,2.15625 -1.20312,0.79687 -3.07812,0.79687 z m 0,-6.59375 q 0.76562,-0.0937 1.28125,-0.4375 0.51562,-0.35937 0.51562,-0.8125 0,-0.57812 -0.51562,-0.89062 -0.5,-0.32813 -1.28125,-0.32813 -0.79688,0 -1.29688,0.32813 -0.5,0.3125 -0.5,0.89062 0,0.42188 0.5,0.78125 0.5,0.35938 1.29688,0.46875 z m 0,4.64063 q 0.85937,0 1.42187,-0.375 0.5625,-0.375 0.5625,-0.92188 0,-0.5 -0.59375,-0.90625 -0.59375,-0.40625 -1.39062,-0.51562 -0.76563,0.0937 -1.375,0.5 -0.60938,0.40625 -0.60938,0.92187 0,0.59375 0.5625,0.95313 0.57813,0.34375 1.42188,0.34375 z"
       fill-rule="nonzero"
       id="path111" />
    <path
       fill="#e889ab"
       d="m 683.6667,207.58005 h 36.47247 v 36 H 683.6667 Z"
       fill-rule="evenodd"
       id="path112" />
    <path
       stroke="#595959"
       stroke-width="1"
       stroke-linejoin="round"
       stroke-linecap="butt"
       d="m 683.6667,207.58005 h 36.47247 v 36 H 683.6667 Z"
       fill-rule="evenodd"
       id="path113" />
    <path
       fill="#ffffff"
       d="m 699.4804,231.44005 3.82813,-8.67187 h -5.375 v -2 h 8.01562 v 1.57812 l -3.96875,9.09375 z"
       fill-rule="nonzero"
       id="path114" />
    <path
       fill="#e889ab"
       d="m 720.1464,207.58005 h 36.47247 v 36 H 720.1464 Z"
       fill-rule="evenodd"
       id="path115" />
    <path
       stroke="#595959"
       stroke-width="1"
       stroke-linejoin="round"
       stroke-linecap="butt"
       d="m 720.1464,207.58005 h 36.47247 v 36 H 720.1464 Z"
       fill-rule="evenodd"
       id="path116" />
    <path
       fill="#ffffff"
       d="m 738.6749,231.62755 q -2.17188,0 -3.39063,-1.45312 -1.21875,-1.45313 -1.21875,-4.04688 0,-2.48437 1.32813,-4 1.32812,-1.51562 3.64062,-1.51562 1.875,0 3.15625,1.09375 l -1.03125,1.75 q -0.42187,-0.42188 -0.92187,-0.625 -0.48438,-0.20313 -1.20313,-0.20313 -1.15625,0 -1.92187,0.875 -0.75,0.85938 -0.75,2.14063 l 0.0156,0.23437 q 0.45313,-0.625 1.1875,-1 0.75,-0.375 1.54688,-0.375 1.59375,0 2.60937,0.95313 1.03125,0.95312 1.03125,2.51562 0,1.59375 -1.15625,2.625 -1.14062,1.03125 -2.92187,1.03125 z m -0.125,-2.01562 q 0.84375,0 1.35937,-0.46875 0.53125,-0.46875 0.53125,-1.09375 0,-0.73438 -0.54687,-1.15625 -0.53125,-0.4375 -1.4375,-0.4375 -1.28125,0 -2.07813,1 0.0781,0.95312 0.64063,1.5625 0.5625,0.59375 1.53125,0.59375 z"
       fill-rule="nonzero"
       id="path117" />
    <path
       fill="#e889ab"
       d="m 756.62616,207.58005 h 36.47247 v 36 h -36.47247 z"
       fill-rule="evenodd"
       id="path118" />
    <path
       stroke="#595959"
       stroke-width="1"
       stroke-linejoin="round"
       stroke-linecap="butt"
       d="m 756.62616,207.58005 h 36.47247 v 36 h -36.47247 z"
       fill-rule="evenodd"
       id="path119" />
    <path
       fill="#ffffff"
       d="m 774.88904,231.62755 q -2.65625,0 -4.10937,-1.59375 l 1.26562,-1.57812 q 1.14063,1.15625 2.82813,1.15625 0.96875,0 1.46875,-0.45313 0.51562,-0.46875 0.51562,-1.125 0,-0.71875 -0.5,-1.14062 -0.5,-0.4375 -1.42187,-0.4375 -1.34375,0 -2.23438,0.85937 l -1.57812,-0.42187 v -6.125 h 7.32812 v 2 h -5.0625 v 2.60937 q 0.39063,-0.39062 1,-0.64062 0.625,-0.25 1.35938,-0.25 1.4375,0 2.42187,0.95312 1,0.95313 1,2.5 0,1.6875 -1.15625,2.6875 -1.15625,1 -3.125,1 z"
       fill-rule="nonzero"
       id="path120" />
    <path
       fill="#e889ab"
       d="m 793.1082,171.58005 h 36.47247 v 36 H 793.1082 Z"
       fill-rule="evenodd"
       id="path121" />
    <path
       stroke="#595959"
       stroke-width="1"
       stroke-linejoin="round"
       stroke-linecap="butt"
       d="m 793.1082,171.58005 h 36.47247 v 36 H 793.1082 Z"
       fill-rule="evenodd"
       id="path122" />
    <path
       fill="#ffffff"
       d="m 812.0684,195.44005 v -2.20312 h -5.09375 v -1.79688 l 4.23437,-6.67187 h 3.14063 v 6.46875 h 1.375 v 2 h -1.375 v 2.20312 z m 0,-8.65625 -2.875,4.45313 h 2.875 z"
       fill-rule="nonzero"
       id="path123" />
    <path
       fill="#e889ab"
       d="m 829.58795,171.58005 h 36.47247 v 36 h -36.47247 z"
       fill-rule="evenodd"
       id="path124" />
    <path
       stroke="#595959"
       stroke-width="1"
       stroke-linejoin="round"
       stroke-linecap="butt"
       d="m 829.58795,171.58005 h 36.47247 v 36 h -36.47247 z"
       fill-rule="evenodd"
       id="path125" />
    <path
       fill="#ffffff"
       d="m 847.6594,195.62755 q -1.48438,0 -2.5625,-0.48437 -1.0625,-0.5 -1.65625,-1.21875 l 1.1875,-1.53125 q 0.5625,0.57812 1.35937,0.90625 0.79688,0.3125 1.59375,0.3125 0.96875,0 1.48438,-0.375 0.53125,-0.375 0.53125,-0.98438 0,-0.64062 -0.51563,-0.9375 -0.51562,-0.29687 -1.64062,-0.29687 h -0.35938 l -0.96875,0.0312 v -2.04688 l 0.59375,0.0156 h 0.73438 q 1.96875,0 1.96875,-1.125 0,-0.64063 -0.5625,-0.95313 -0.5625,-0.3125 -1.42188,-0.3125 -1.54687,0 -2.70312,1.09375 l -1.125,-1.42187 q 1.5,-1.6875 4.07812,-1.6875 1.89063,0 2.95313,0.78125 1.07812,0.78125 1.07812,2.10937 0,0.89063 -0.67187,1.57813 -0.65625,0.67187 -1.67188,0.85937 1.10938,0.125 1.79688,0.85938 0.70312,0.71875 0.70312,1.70312 0,1.40625 -1.17187,2.26563 -1.15625,0.85937 -3.03125,0.85937 z"
       fill-rule="nonzero"
       id="path126" />
    <path
       fill="#e889ab"
       d="m 866.0677,171.58005 h 36.47247 v 36 H 866.0677 Z"
       fill-rule="evenodd"
       id="path127" />
    <path
       stroke="#595959"
       stroke-width="1"
       stroke-linejoin="round"
       stroke-linecap="butt"
       d="m 866.0677,171.58005 h 36.47247 v 36 H 866.0677 Z"
       fill-rule="evenodd"
       id="path128" />
    <path
       fill="#ffffff"
       d="m 880.2539,195.44005 v -1.78125 q 3.78125,-2.8125 4.71875,-3.79687 0.9375,-0.98438 0.9375,-1.84375 0,-0.625 -0.48437,-1 -0.48438,-0.39063 -1.25,-0.39063 -1.65625,0 -2.85938,1.23438 l -1.29687,-1.51563 q 0.78125,-0.90625 1.875,-1.3125 1.10937,-0.42187 2.23437,-0.42187 1.8125,0 2.9375,0.95312 1.14063,0.9375 1.14063,2.45313 0,1.21875 -0.96875,2.48437 -0.96875,1.25 -3.29688,2.9375 h 4.34375 v 2 z"
       fill-rule="nonzero"
       id="path129" />
    <path
       fill="#e889ab"
       d="m 902.5474,171.58005 h 36.47247 v 36 H 902.5474 Z"
       fill-rule="evenodd"
       id="path130" />
    <path
       stroke="#595959"
       stroke-width="1"
       stroke-linejoin="round"
       stroke-linecap="butt"
       d="m 902.5474,171.58005 h 36.47247 v 36 H 902.5474 Z"
       fill-rule="evenodd"
       id="path131" />
    <path
       fill="#ffffff"
       d="m 920.74567,195.44005 v -7.75 l -1.78125,1.8125 -1.29687,-1.35937 3.35937,-3.375 h 1.98438 v 10.67187 z"
       fill-rule="nonzero"
       id="path132" />
  </g>
</svg>
