<?xml version="1.0" encoding="UTF-8" standalone="no"?>
<svg
   version="1.1"
   viewBox="0 0 800.93311 146.08794"
   fill="none"
   stroke="none"
   stroke-linecap="square"
   stroke-miterlimit="10"
   id="svg36"
   sodipodi:docname="tp_overlap.svg"
   width="800.93311"
   height="146.08794"
   xmlns:inkscape="http://www.inkscape.org/namespaces/inkscape"
   xmlns:sodipodi="http://sodipodi.sourceforge.net/DTD/sodipodi-0.dtd"
   xmlns="http://www.w3.org/2000/svg"
   xmlns:svg="http://www.w3.org/2000/svg">
  <defs
     id="defs36" />
  <sodipodi:namedview
     id="namedview36"
     pagecolor="#ffffff"
     bordercolor="#000000"
     borderopacity="0.25"
     inkscape:showpageshadow="2"
     inkscape:pageopacity="0.0"
     inkscape:pagecheckerboard="0"
     inkscape:deskcolor="#d1d1d1"
     fit-margin-top="20"
     fit-margin-left="20"
     fit-margin-right="20"
     fit-margin-bottom="20" />
  <clipPath
     id="g333f1fe007f_0_438.0">
    <path
       d="M 0,0 H 960 V 540 H 0 Z"
       clip-rule="nonzero"
       id="path1" />
  </clipPath>
  <g
     clip-path="url(#g333f1fe007f_0_438.0)"
     id="g36"
     transform="translate(-127.78346,-39.367455)">
    <path
       fill="#000000"
       fill-opacity="0"
       d="M 425.20602,39.367455 H 591.31628 V 81.383202 H 425.20602 Z"
       fill-rule="evenodd"
       id="path3" />
    <path
       fill="#000000"
       d="m 440.37534,52.881203 h 7.40625 v 2.515625 h -2.4375 v 10.890625 h -2.57813 V 55.396828 h -2.39062 z m 9.14667,0 h 2.71875 q 2.1875,0 3.15625,0.40625 0.96875,0.40625 1.53125,1.3125 0.5625,0.90625 0.5625,2.171875 0,1.40625 -0.73438,2.34375 -0.73437,0.921875 -1.98437,1.28125 -0.75,0.21875 -2.6875,0.21875 v 5.671875 h -2.5625 z m 2.5625,5.25 h 0.79687 q 0.96875,0 1.34375,-0.140625 0.375,-0.140625 0.57813,-0.453125 0.21875,-0.3125 0.21875,-0.765625 0,-0.765625 -0.60938,-1.125 -0.4375,-0.265625 -1.60937,-0.265625 h -0.71875 z m 12.26208,-1.75 h 2.14063 v 1.25 q 0.34375,-0.75 0.90625,-1.125 0.57812,-0.390625 1.26562,-0.390625 0.48438,0 1.01563,0.265625 l -0.78125,2.140625 q -0.4375,-0.21875 -0.71875,-0.21875 -0.57813,0 -0.96875,0.71875 -0.39063,0.703125 -0.39063,2.78125 v 0.46875 4.015625 h -2.46875 z m 16.48236,5.671875 h -7.98437 q 0.17187,1.0625 0.92187,1.6875 0.75,0.609375 1.92188,0.609375 1.39062,0 2.39062,-0.96875 l 2.09375,0.984375 q -0.78125,1.109375 -1.875,1.640625 -1.09375,0.53125 -2.59375,0.53125 -2.34375,0 -3.8125,-1.46875 -1.45312,-1.46875 -1.45312,-3.6875 0,-2.265625 1.45312,-3.765625 1.46875,-1.5 3.67188,-1.5 2.34375,0 3.8125,1.5 1.46875,1.5 1.46875,3.96875 z m -2.5,-1.953125 q -0.25,-0.828125 -0.96875,-1.34375 -0.71875,-0.53125 -1.67187,-0.53125 -1.04688,0 -1.82813,0.578125 -0.5,0.375 -0.90625,1.296875 z m 11.83316,-3.71875 h 2.48438 v 8.484375 q 0,2.515625 -1.01563,3.703125 -1.35937,1.59375 -4.09375,1.59375 -1.45312,0 -2.45312,-0.359375 -0.98438,-0.359375 -1.67188,-1.078125 -0.6875,-0.703125 -1.01562,-1.703125 h 2.75 q 0.35937,0.40625 0.9375,0.625 0.57812,0.21875 1.35937,0.21875 1,0 1.60938,-0.3125 0.60937,-0.3125 0.85937,-0.8125 0.25,-0.484375 0.25,-1.6875 -0.65625,0.65625 -1.375,0.953125 -0.71875,0.28125 -1.625,0.28125 -2,0 -3.375,-1.4375 -1.375,-1.4375 -1.375,-3.640625 0,-2.359375 1.45313,-3.796875 1.32812,-1.296875 3.15625,-1.296875 0.85937,0 1.60937,0.328125 0.76563,0.3125 1.53125,1.03125 z m -2.57812,2.0625 q -1.17188,0 -1.9375,0.796875 -0.76563,0.78125 -0.76563,1.96875 0,1.25 0.78125,2.046875 0.78125,0.78125 1.96875,0.78125 1.15625,0 1.90625,-0.765625 0.75,-0.78125 0.75,-2.046875 0,-1.234375 -0.75,-2 -0.75,-0.78125 -1.95312,-0.78125 z m 8.55041,-6.15625 q 0.65625,0 1.125,0.484375 0.46875,0.46875 0.46875,1.140625 0,0.671875 -0.46875,1.140625 -0.46875,0.46875 -1.10937,0.46875 -0.67188,0 -1.14063,-0.46875 -0.46875,-0.484375 -0.46875,-1.171875 0,-0.65625 0.46875,-1.125 0.46875,-0.46875 1.125,-0.46875 z m -1.25,4.09375 h 2.5 v 9.90625 h -2.5 z m 9.39466,-0.265625 q 1.40625,0 2.64062,0.703125 1.23438,0.703125 1.92188,1.90625 0.70312,1.203125 0.70312,2.59375 0,1.40625 -0.70312,2.625 -0.6875,1.21875 -1.89063,1.90625 -1.20312,0.6875 -2.65625,0.6875 -2.125,0 -3.64062,-1.515625 -1.5,-1.515625 -1.5,-3.6875 0,-2.3125 1.70312,-3.859375 1.48438,-1.359375 3.42188,-1.359375 z m 0.0469,2.34375 q -1.15625,0 -1.9375,0.8125 -0.76562,0.796875 -0.76562,2.0625 0,1.296875 0.75,2.09375 0.76562,0.796875 1.9375,0.796875 1.17187,0 1.9375,-0.8125 0.78125,-0.8125 0.78125,-2.078125 0,-1.28125 -0.76563,-2.078125 -0.76562,-0.796875 -1.9375,-0.796875 z m 7.23941,-2.078125 h 2.48441 v 1 q 0.84375,-0.703125 1.53125,-0.984375 0.6875,-0.28125 1.40625,-0.28125 1.48437,0 2.51562,1.03125 0.85938,0.875 0.85938,2.59375 v 6.546875 h -2.45313 v -4.34375 q 0,-1.78125 -0.17187,-2.359375 -0.15625,-0.578125 -0.54688,-0.875 -0.39062,-0.3125 -0.98437,-0.3125 -0.75,0 -1.29688,0.5 -0.54687,0.5 -0.75,1.390625 -0.10937,0.46875 -0.10937,2.015625 v 3.984375 h -2.48441 z m 18.63406,-4.09375 h 3.14063 q -1.625,1.84375 -2.42188,3.984375 -0.79687,2.140625 -0.79687,4.890625 0,2.96875 0.89062,5.234375 0.6875,1.734375 2.32813,3.765625 h -3.14063 q -1.46875,-2.3125 -2.04687,-4.328125 -0.57813,-2.015625 -0.57813,-4.75 0,-2.671875 0.60938,-4.6875 0.60937,-2.015625 2.01562,-4.109375 z m 6.4466,0.59375 h 2.48437 l 3.10938,9.359375 3.14062,-9.359375 h 2.45313 l 2.26562,13.40625 h -2.46875 l -1.4375,-8.46875 -2.84375,8.46875 h -2.25 l -2.8125,-8.46875 -1.46875,8.46875 h -2.48437 z m 15.49188,0 h 2.54688 v 10.96875 h 3.71875 v 2.4375 h -6.26563 z m 8.19208,0 h 2.71875 q 2.1875,0 3.15625,0.40625 0.96875,0.40625 1.53125,1.3125 0.5625,0.90625 0.5625,2.171875 0,1.40625 -0.73438,2.34375 -0.73437,0.921875 -1.98437,1.28125 -0.75,0.21875 -2.6875,0.21875 v 5.671875 h -2.5625 z m 2.5625,5.25 h 0.79687 q 0.96875,0 1.34375,-0.140625 0.375,-0.140625 0.57813,-0.453125 0.21875,-0.3125 0.21875,-0.765625 0,-0.765625 -0.60938,-1.125 -0.4375,-0.265625 -1.60937,-0.265625 h -0.71875 z m 10.01105,12.03125 h -3.15625 q 1.625,-1.828125 2.42187,-3.953125 0.79688,-2.140625 0.79688,-4.90625 0,-2.984375 -0.89063,-5.234375 -0.6875,-1.734375 -2.32812,-3.78125 h 3.15625 q 1.45312,2.328125 2.03125,4.34375 0.57812,2.015625 0.57812,4.75 0,2.671875 -0.60937,4.6875 -0.60938,2.015625 -2,4.09375 z"
       fill-rule="nonzero"
       id="path4" />
    <path
       fill="#000000"
       fill-opacity="0"
       d="M 127.78346,112.41995 H 293.8937 v 19.40157 H 127.78346 Z"
       fill-rule="evenodd"
       id="path5" />
    <path
       fill="#000000"
       d="m 148.70534,118.15494 -1.53125,1.53125 q -1.46875,-1.54687 -3.40625,-1.54687 -1.70313,0 -2.84375,1.125 -1.14063,1.125 -1.14063,2.73437 0,1.65625 1.1875,2.8125 1.1875,1.15625 2.92188,1.15625 1.14062,0 1.90625,-0.46875 0.78125,-0.48437 1.26562,-1.5 h -3.32812 v -2.04687 h 5.78125 l 0.0156,0.48437 q 0,1.5 -0.78125,2.85938 -0.78125,1.34375 -2.03125,2.0625 -1.23437,0.71876 -2.90625,0.71876 -1.79687,0 -3.20312,-0.78126 -1.39063,-0.78125 -2.21875,-2.21875 -0.8125,-1.4375 -0.8125,-3.10938 0,-2.28125 1.51562,-3.96875 1.78125,-2 4.65625,-2 1.5,0 2.79688,0.54688 1.10937,0.46875 2.15625,1.60937 z m 2.82812,-1.875 h 2.3125 q 1.89063,0 2.71875,0.35938 0.82813,0.34375 1.3125,1.125 0.48438,0.76562 0.48438,1.85937 0,1.20313 -0.64063,2 -0.625,0.79688 -1.70312,1.10938 -0.625,0.17187 -2.29688,0.17187 v 4.875 h -2.1875 z m 2.1875,4.5 h 0.6875 q 0.82813,0 1.14063,-0.10937 0.32812,-0.125 0.5,-0.39063 0.1875,-0.28125 0.1875,-0.65625 0,-0.67187 -0.51563,-0.96875 -0.375,-0.23437 -1.39062,-0.23437 h -0.60938 z m 6.69532,-4.5 h 2.20312 v 7.4375 q 0,0.96875 0.15625,1.375 0.17188,0.39063 0.5625,0.625 0.39063,0.23438 0.9375,0.23438 0.57813,0 0.98438,-0.26563 0.42187,-0.26562 0.57812,-0.67187 0.17188,-0.40625 0.17188,-1.5625 v -7.17188 h 2.1875 v 6.85938 q 0,1.73437 -0.20313,2.40625 -0.1875,0.67187 -0.73437,1.29687 -0.54688,0.625 -1.26563,0.9375 -0.71875,0.29689 -1.67187,0.29689 -1.25,0 -2.1875,-0.57813 -0.92188,-0.57813 -1.32813,-1.4375 -0.39062,-0.875 -0.39062,-2.92188 z m 25.35937,2.03125 -1.53125,1.45313 q -1.5625,-1.64063 -3.51562,-1.64063 -1.64063,0 -2.78125,1.125 -1.125,1.125 -1.125,2.76563 0,1.15625 0.5,2.04687 0.5,0.89063 1.40625,1.40625 0.92187,0.5 2.04687,0.5 0.95313,0 1.73438,-0.35937 0.79687,-0.35938 1.73437,-1.29688 l 1.48438,1.54688 q -1.26563,1.25 -2.40625,1.73437 -1.125,0.48439 -2.57813,0.48439 -2.6875,0 -4.39062,-1.70313 -1.70313,-1.70313 -1.70313,-4.35938 0,-1.71875 0.76563,-3.04687 0.78125,-1.34375 2.23437,-2.15625 1.45313,-0.8125 3.125,-0.8125 1.42188,0 2.73438,0.60937 1.3125,0.59375 2.26562,1.70312 z m 5.67969,0.75 q 1.20312,0 2.25,0.60938 1.0625,0.59375 1.65625,1.625 0.59375,1.03125 0.59375,2.21875 0,1.20312 -0.59375,2.25 -0.59375,1.04687 -1.625,1.64062 -1.03125,0.59375 -2.28125,0.59375 -1.82813,0 -3.125,-1.29687 -1.28125,-1.3125 -1.28125,-3.17188 0,-1.98437 1.45312,-3.3125 1.28125,-1.15625 2.95313,-1.15625 z m 0.0312,2 q -1,0 -1.65625,0.70313 -0.65625,0.6875 -0.65625,1.76562 0,1.10938 0.64062,1.79688 0.65625,0.6875 1.65625,0.6875 1,0 1.65625,-0.6875 0.67188,-0.70313 0.67188,-1.79688 0,-1.09375 -0.65625,-1.78125 -0.64063,-0.6875 -1.65625,-0.6875 z m 6.19531,-1.78125 h 2.14063 v 0.96875 q 0.54687,-0.59375 1.21875,-0.89062 0.67187,-0.29688 1.45312,-0.29688 0.79688,0 1.4375,0.39063 0.64063,0.39062 1.03125,1.14062 0.51563,-0.75 1.25,-1.14062 0.73438,-0.39063 1.60938,-0.39063 0.90625,0 1.59375,0.42188 0.6875,0.42187 0.98437,1.10937 0.3125,0.67188 0.3125,2.20313 v 4.98437 h -2.15625 v -4.3125 q 0,-1.45312 -0.35937,-1.95312 -0.35938,-0.51563 -1.07813,-0.51563 -0.54687,0 -0.98437,0.3125 -0.42188,0.3125 -0.64063,0.85938 -0.20312,0.54687 -0.20312,1.76562 v 3.84375 h -2.15625 v -4.125 q 0,-1.14062 -0.17188,-1.64062 -0.15625,-0.51563 -0.5,-0.76563 -0.32812,-0.25 -0.8125,-0.25 -0.53125,0 -0.96875,0.3125 -0.42187,0.3125 -0.64062,0.89063 -0.21875,0.5625 -0.21875,1.79687 v 3.78125 h -2.14063 z m 17.17969,0 v 0.9375 q 0.57813,-0.57812 1.25,-0.85937 0.67188,-0.29688 1.4375,-0.29688 1.65625,0 2.8125,1.26563 1.17188,1.25 1.17188,3.21875 0,1.89062 -1.20313,3.17187 -1.20312,1.28125 -2.84375,1.28125 -0.73437,0 -1.375,-0.26562 -0.625,-0.26563 -1.25,-0.85938 v 4.01564 h -2.125 v -11.60939 z m 2.23438,1.75 q -1,0 -1.67188,0.6875 -0.65625,0.6875 -0.65625,1.79688 0,1.125 0.65625,1.82812 0.67188,0.70313 1.67188,0.70313 0.98437,0 1.64062,-0.70313 0.67188,-0.71875 0.67188,-1.82812 0,-1.09375 -0.65625,-1.78125 -0.65625,-0.70313 -1.65625,-0.70313 z m 6.20312,-1.75 h 2.15625 v 4.09375 q 0,1.1875 0.15625,1.65625 0.17188,0.46875 0.53125,0.73438 0.35938,0.25 0.89063,0.25 0.53125,0 0.90625,-0.25 0.375,-0.26563 0.54687,-0.75 0.14063,-0.375 0.14063,-1.57813 v -4.15625 h 2.14062 v 3.59375 q 0,2.23438 -0.35937,3.04688 -0.42188,1 -1.26563,1.54687 -0.82812,0.53125 -2.125,0.53125 -1.39062,0 -2.26562,-0.625 -0.85938,-0.625 -1.20313,-1.75 -0.25,-0.76562 -0.25,-2.8125 z m 9.86719,-3.14062 h 2.125 v 3.14062 h 1.26562 v 1.82813 h -1.26562 v 6.67187 h -2.125 v -6.67187 h -1.09375 v -1.82813 h 1.09375 z m 10.8125,3.14062 h 2.125 v 8.5 h -2.125 v -0.90625 q -0.625,0.59375 -1.25,0.85938 -0.625,0.26562 -1.35938,0.26562 -1.65625,0 -2.85937,-1.28125 -1.20313,-1.28125 -1.20313,-3.17187 0,-1.96875 1.15625,-3.21875 1.17188,-1.26563 2.84375,-1.26563 0.76563,0 1.4375,0.29688 0.67188,0.28125 1.23438,0.85937 z m -2.23438,1.75 q -1,0 -1.65625,0.70313 -0.65625,0.6875 -0.65625,1.78125 0,1.10937 0.67188,1.82812 0.67187,0.70313 1.64062,0.70313 1.01563,0 1.67188,-0.70313 0.67187,-0.70312 0.67187,-1.82812 0,-1.10938 -0.67187,-1.79688 -0.65625,-0.6875 -1.67188,-0.6875 z m 6.78125,-4.89062 h 2.125 v 3.14062 h 1.26563 v 1.82813 h -1.26563 v 6.67187 h -2.125 v -6.67187 h -1.09375 v -1.82813 h 1.09375 z m 5.375,-0.35938 q 0.5625,0 0.95313,0.40625 0.40625,0.40625 0.40625,0.98438 0,0.5625 -0.40625,0.96875 -0.39063,0.40625 -0.9375,0.40625 -0.57813,0 -0.98438,-0.40625 -0.39062,-0.42188 -0.39062,-1 0,-0.5625 0.39062,-0.95313 0.40625,-0.40625 0.96875,-0.40625 z m -1.07812,3.5 h 2.14062 v 8.5 h -2.14062 z m 8.07033,-0.21875 q 1.20312,0 2.25,0.60938 1.0625,0.59375 1.65625,1.625 0.59375,1.03125 0.59375,2.21875 0,1.20312 -0.59375,2.25 -0.59375,1.04687 -1.625,1.64062 -1.03125,0.59375 -2.28125,0.59375 -1.82813,0 -3.125,-1.29687 -1.28125,-1.3125 -1.28125,-3.17188 0,-1.98437 1.45312,-3.3125 1.28125,-1.15625 2.95313,-1.15625 z m 0.0312,2 q -1,0 -1.65625,0.70313 -0.65625,0.6875 -0.65625,1.76562 0,1.10938 0.64062,1.79688 0.65625,0.6875 1.65625,0.6875 1,0 1.65625,-0.6875 0.67188,-0.70313 0.67188,-1.79688 0,-1.09375 -0.65625,-1.78125 -0.64063,-0.6875 -1.65625,-0.6875 z m 6.21093,-1.78125 h 2.125 v 0.85938 q 0.73438,-0.60938 1.3125,-0.84375 0.59375,-0.23438 1.21875,-0.23438 1.26563,0 2.14063,0.875 0.75,0.75 0.75,2.21875 v 5.625 h -2.10938 v -3.73437 q 0,-1.51563 -0.14062,-2.01563 -0.14063,-0.5 -0.48438,-0.76562 -0.32812,-0.26563 -0.82812,-0.26563 -0.65625,0 -1.125,0.4375 -0.45313,0.4375 -0.64063,1.20313 -0.0937,0.39062 -0.0937,1.71875 v 3.42187 h -2.125 z m 10.77344,-0.21875 q 0.5,0 0.85938,0.35938 0.35937,0.35937 0.35937,0.85937 0,0.5 -0.35937,0.85938 -0.35938,0.35937 -0.85938,0.35937 -0.51562,0 -0.875,-0.34375 -0.35937,-0.35937 -0.35937,-0.875 0,-0.5 0.35937,-0.85937 0.35938,-0.35938 0.875,-0.35938 z m 0,6.48438 q 0.5,0 0.85938,0.35937 0.35937,0.35938 0.35937,0.85938 0,0.51562 -0.35937,0.875 -0.35938,0.35937 -0.85938,0.35937 -0.51562,0 -0.875,-0.35937 -0.35937,-0.35938 -0.35937,-0.875 0,-0.5 0.35937,-0.85938 0.35938,-0.35937 0.875,-0.35937 z"
       fill-rule="nonzero"
       id="path6" />
    <path
       fill="#000000"
       fill-opacity="0"
       d="m 127.78346,154.30971 h 186.96062 v 19.40158 H 127.78346 Z"
       fill-rule="evenodd"
       id="path7" />
    <path
       fill="#000000"
       d="m 148.70534,160.04471 -1.53125,1.53125 q -1.46875,-1.54688 -3.40625,-1.54688 -1.70313,0 -2.84375,1.125 -1.14063,1.125 -1.14063,2.73438 0,1.65625 1.1875,2.8125 1.1875,1.15625 2.92188,1.15625 1.14062,0 1.90625,-0.46875 0.78125,-0.48438 1.26562,-1.5 h -3.32812 v -2.04688 h 5.78125 l 0.0156,0.48438 q 0,1.5 -0.78125,2.85937 -0.78125,1.34375 -2.03125,2.0625 -1.23437,0.71875 -2.90625,0.71875 -1.79687,0 -3.20312,-0.78125 -1.39063,-0.78125 -2.21875,-2.21875 -0.8125,-1.4375 -0.8125,-3.10937 0,-2.28125 1.51562,-3.96875 1.78125,-2 4.65625,-2 1.5,0 2.79688,0.54687 1.10937,0.46875 2.15625,1.60938 z m 2.82812,-1.875 h 2.3125 q 1.89063,0 2.71875,0.35937 0.82813,0.34375 1.3125,1.125 0.48438,0.76563 0.48438,1.85938 0,1.20312 -0.64063,2 -0.625,0.79687 -1.70312,1.10937 -0.625,0.17188 -2.29688,0.17188 v 4.875 h -2.1875 z m 2.1875,4.5 h 0.6875 q 0.82813,0 1.14063,-0.10938 0.32812,-0.125 0.5,-0.39062 0.1875,-0.28125 0.1875,-0.65625 0,-0.67188 -0.51563,-0.96875 -0.375,-0.23438 -1.39062,-0.23438 h -0.60938 z m 6.69532,-4.5 h 2.20312 v 7.4375 q 0,0.96875 0.15625,1.375 0.17188,0.39062 0.5625,0.625 0.39063,0.23437 0.9375,0.23437 0.57813,0 0.98438,-0.26562 0.42187,-0.26563 0.57812,-0.67188 0.17188,-0.40625 0.17188,-1.5625 v -7.17187 h 2.1875 v 6.85937 q 0,1.73438 -0.20313,2.40625 -0.1875,0.67188 -0.73437,1.29688 -0.54688,0.625 -1.26563,0.9375 -0.71875,0.29687 -1.67187,0.29687 -1.25,0 -2.1875,-0.57812 -0.92188,-0.57813 -1.32813,-1.4375 -0.39062,-0.875 -0.39062,-2.92188 z m 25.35937,2.03125 -1.53125,1.45312 q -1.5625,-1.64062 -3.51562,-1.64062 -1.64063,0 -2.78125,1.125 -1.125,1.125 -1.125,2.76562 0,1.15625 0.5,2.04688 0.5,0.89062 1.40625,1.40625 0.92187,0.5 2.04687,0.5 0.95313,0 1.73438,-0.35938 0.79687,-0.35937 1.73437,-1.29687 l 1.48438,1.54687 q -1.26563,1.25 -2.40625,1.73438 -1.125,0.48437 -2.57813,0.48437 -2.6875,0 -4.39062,-1.70312 -1.70313,-1.70313 -1.70313,-4.35938 0,-1.71875 0.76563,-3.04687 0.78125,-1.34375 2.23437,-2.15625 1.45313,-0.8125 3.125,-0.8125 1.42188,0 2.73438,0.60937 1.3125,0.59375 2.26562,1.70313 z m 5.67969,0.75 q 1.20312,0 2.25,0.60937 1.0625,0.59375 1.65625,1.625 0.59375,1.03125 0.59375,2.21875 0,1.20313 -0.59375,2.25 -0.59375,1.04688 -1.625,1.64063 -1.03125,0.59375 -2.28125,0.59375 -1.82813,0 -3.125,-1.29688 -1.28125,-1.3125 -1.28125,-3.17187 0,-1.98438 1.45312,-3.3125 1.28125,-1.15625 2.95313,-1.15625 z m 0.0312,2 q -1,0 -1.65625,0.70312 -0.65625,0.6875 -0.65625,1.76563 0,1.10937 0.64062,1.79687 0.65625,0.6875 1.65625,0.6875 1,0 1.65625,-0.6875 0.67188,-0.70312 0.67188,-1.79687 0,-1.09375 -0.65625,-1.78125 -0.64063,-0.6875 -1.65625,-0.6875 z m 6.19531,-1.78125 h 2.14063 v 0.96875 q 0.54687,-0.59375 1.21875,-0.89063 0.67187,-0.29687 1.45312,-0.29687 0.79688,0 1.4375,0.39062 0.64063,0.39063 1.03125,1.14063 0.51563,-0.75 1.25,-1.14063 0.73438,-0.39062 1.60938,-0.39062 0.90625,0 1.59375,0.42187 0.6875,0.42188 0.98437,1.10938 0.3125,0.67187 0.3125,2.20312 v 4.98438 h -2.15625 v -4.3125 q 0,-1.45313 -0.35937,-1.95313 -0.35938,-0.51562 -1.07813,-0.51562 -0.54687,0 -0.98437,0.3125 -0.42188,0.3125 -0.64063,0.85937 -0.20312,0.54688 -0.20312,1.76563 v 3.84375 h -2.15625 v -4.125 q 0,-1.14063 -0.17188,-1.64063 -0.15625,-0.51562 -0.5,-0.76562 -0.32812,-0.25 -0.8125,-0.25 -0.53125,0 -0.96875,0.3125 -0.42187,0.3125 -0.64062,0.89062 -0.21875,0.5625 -0.21875,1.79688 v 3.78125 h -2.14063 z m 15.03906,0 h 2.14063 v 0.96875 q 0.54687,-0.59375 1.21875,-0.89063 0.67187,-0.29687 1.45312,-0.29687 0.79688,0 1.4375,0.39062 0.64063,0.39063 1.03125,1.14063 0.51563,-0.75 1.25,-1.14063 0.73438,-0.39062 1.60938,-0.39062 0.90625,0 1.59375,0.42187 0.6875,0.42188 0.98437,1.10938 0.3125,0.67187 0.3125,2.20312 v 4.98438 h -2.15625 v -4.3125 q 0,-1.45313 -0.35937,-1.95313 -0.35938,-0.51562 -1.07813,-0.51562 -0.54687,0 -0.98437,0.3125 -0.42188,0.3125 -0.64063,0.85937 -0.20312,0.54688 -0.20312,1.76563 v 3.84375 h -2.15625 v -4.125 q 0,-1.14063 -0.17188,-1.64063 -0.15625,-0.51562 -0.5,-0.76562 -0.32812,-0.25 -0.8125,-0.25 -0.53125,0 -0.96875,0.3125 -0.42187,0.3125 -0.64062,0.89062 -0.21875,0.5625 -0.21875,1.79688 v 3.78125 h -2.14063 z m 15.05469,0 h 2.15625 v 4.09375 q 0,1.1875 0.15625,1.65625 0.17188,0.46875 0.53125,0.73437 0.35938,0.25 0.89063,0.25 0.53125,0 0.90625,-0.25 0.375,-0.26562 0.54687,-0.75 0.14063,-0.375 0.14063,-1.57812 v -4.15625 h 2.14062 v 3.59375 q 0,2.23437 -0.35937,3.04687 -0.42188,1 -1.26563,1.54688 -0.82812,0.53125 -2.125,0.53125 -1.39062,0 -2.26562,-0.625 -0.85938,-0.625 -1.20313,-1.75 -0.25,-0.76563 -0.25,-2.8125 z m 9.60156,0 h 2.125 v 0.85937 q 0.73438,-0.60937 1.3125,-0.84375 0.59375,-0.23437 1.21875,-0.23437 1.26563,0 2.14063,0.875 0.75,0.75 0.75,2.21875 v 5.625 h -2.10938 v -3.73438 q 0,-1.51562 -0.14062,-2.01562 -0.14063,-0.5 -0.48438,-0.76563 -0.32812,-0.26562 -0.82812,-0.26562 -0.65625,0 -1.125,0.4375 -0.45313,0.4375 -0.64063,1.20312 -0.0937,0.39063 -0.0937,1.71875 v 3.42188 h -2.125 z m 10.44532,-3.5 q 0.5625,0 0.95312,0.40625 0.40625,0.40625 0.40625,0.98437 0,0.5625 -0.40625,0.96875 -0.39062,0.40625 -0.9375,0.40625 -0.57812,0 -0.98437,-0.40625 -0.39063,-0.42187 -0.39063,-1 0,-0.5625 0.39063,-0.95312 0.40625,-0.40625 0.96875,-0.40625 z m -1.07813,3.5 h 2.14063 v 8.5 h -2.14063 z m 12.39846,1.71875 -1.78125,0.96875 q -0.5,-0.51563 -0.98438,-0.71875 -0.48439,-0.20313 -1.14064,-0.20313 -1.20312,0 -1.9375,0.71875 -0.73437,0.70313 -0.73437,1.82813 0,1.07812 0.70312,1.76562 0.71875,0.6875 1.875,0.6875 1.42189,0 2.21877,-0.96875 l 1.6875,1.14063 q -1.375,1.78125 -3.85939,1.78125 -2.25,0 -3.51563,-1.32813 -1.26562,-1.32812 -1.26562,-3.10937 0,-1.23438 0.60937,-2.26563 0.625,-1.04687 1.71875,-1.64062 1.10938,-0.59375 2.48438,-0.59375 1.26564,0 2.26564,0.5 1.01562,0.5 1.65625,1.4375 z m 8.19531,-1.71875 h 2.125 v 8.5 h -2.125 v -0.90625 q -0.625,0.59375 -1.25,0.85937 -0.625,0.26563 -1.35938,0.26563 -1.65625,0 -2.85937,-1.28125 -1.20313,-1.28125 -1.20313,-3.17188 0,-1.96875 1.15625,-3.21875 1.17188,-1.26562 2.84375,-1.26562 0.76563,0 1.4375,0.29687 0.67188,0.28125 1.23438,0.85938 z m -2.23438,1.75 q -1,0 -1.65625,0.70312 -0.65625,0.6875 -0.65625,1.78125 0,1.10938 0.67188,1.82813 0.67187,0.70312 1.64062,0.70312 1.01563,0 1.67188,-0.70312 0.67187,-0.70313 0.67187,-1.82813 0,-1.10937 -0.67187,-1.79687 -0.65625,-0.6875 -1.67188,-0.6875 z m 6.78125,-4.89063 h 2.125 v 3.14063 h 1.26563 v 1.82812 h -1.26563 v 6.67188 h -2.125 v -6.67188 h -1.09375 v -1.82812 h 1.09375 z m 5.375,-0.35937 q 0.5625,0 0.95313,0.40625 0.40625,0.40625 0.40625,0.98437 0,0.5625 -0.40625,0.96875 -0.39063,0.40625 -0.9375,0.40625 -0.57813,0 -0.98438,-0.40625 -0.39062,-0.42187 -0.39062,-1 0,-0.5625 0.39062,-0.95312 0.40625,-0.40625 0.96875,-0.40625 z m -1.07812,3.5 h 2.14062 v 8.5 h -2.14062 z m 8.07031,-0.21875 q 1.20313,0 2.25,0.60937 1.0625,0.59375 1.65625,1.625 0.59375,1.03125 0.59375,2.21875 0,1.20313 -0.59375,2.25 -0.59375,1.04688 -1.625,1.64063 -1.03125,0.59375 -2.28125,0.59375 -1.82812,0 -3.125,-1.29688 -1.28125,-1.3125 -1.28125,-3.17187 0,-1.98438 1.45313,-3.3125 1.28125,-1.15625 2.95312,-1.15625 z m 0.0312,2 q -1,0 -1.65625,0.70312 -0.65625,0.6875 -0.65625,1.76563 0,1.10937 0.64063,1.79687 0.65625,0.6875 1.65625,0.6875 1,0 1.65625,-0.6875 0.67187,-0.70312 0.67187,-1.79687 0,-1.09375 -0.65625,-1.78125 -0.64062,-0.6875 -1.65625,-0.6875 z m 6.21094,-1.78125 h 2.125 v 0.85937 q 0.73437,-0.60937 1.3125,-0.84375 0.59375,-0.23437 1.21875,-0.23437 1.26562,0 2.14062,0.875 0.75,0.75 0.75,2.21875 v 5.625 h -2.10937 v -3.73438 q 0,-1.51562 -0.14063,-2.01562 -0.14062,-0.5 -0.48437,-0.76563 -0.32813,-0.26562 -0.82813,-0.26562 -0.65625,0 -1.125,0.4375 -0.45312,0.4375 -0.64062,1.20312 -0.0937,0.39063 -0.0937,1.71875 v 3.42188 h -2.125 z m 10.77344,-0.21875 q 0.5,0 0.85937,0.35937 0.35938,0.35938 0.35938,0.85938 0,0.5 -0.35938,0.85937 -0.35937,0.35938 -0.85937,0.35938 -0.51563,0 -0.875,-0.34375 -0.35938,-0.35938 -0.35938,-0.875 0,-0.5 0.35938,-0.85938 0.35937,-0.35937 0.875,-0.35937 z m 0,6.48437 q 0.5,0 0.85937,0.35938 0.35938,0.35937 0.35938,0.85937 0,0.51563 -0.35938,0.875 -0.35937,0.35938 -0.85937,0.35938 -0.51563,0 -0.875,-0.35938 -0.35938,-0.35937 -0.35938,-0.875 0,-0.5 0.35938,-0.85937 0.35937,-0.35938 0.875,-0.35938 z"
       fill-rule="nonzero"
       id="path8" />
    <path
       fill="#8e7cc3"
       d="m 583.6302,150.04738 v 0 c 0,-3.85591 3.12585,-6.98177 6.98175,-6.98177 h 83.39081 c 1.85169,0 3.6275,0.73558 4.93683,2.04493 1.30939,1.30932 2.04492,3.08517 2.04492,4.93684 v 27.92624 c 0,3.85593 -3.12585,6.98176 -6.98175,6.98176 h -83.39081 c -3.8559,0 -6.98175,-3.12583 -6.98175,-6.98176 z"
       fill-rule="evenodd"
       id="path9" />
    <path
       stroke="#000000"
       stroke-width="1"
       stroke-linejoin="round"
       stroke-linecap="butt"
       d="m 583.6302,150.04738 v 0 c 0,-3.85591 3.12585,-6.98177 6.98175,-6.98177 h 83.39081 c 1.85169,0 3.6275,0.73558 4.93683,2.04493 1.30939,1.30932 2.04492,3.08517 2.04492,4.93684 v 27.92624 c 0,3.85593 -3.12585,6.98176 -6.98175,6.98176 h -83.39081 c -3.8559,0 -6.98175,-3.12583 -6.98175,-6.98176 z"
       fill-rule="evenodd"
       id="path10" />
    <path
       fill="#ffffff"
       d="m 628.4783,160.09425 h 1.48437 l 2.9375,7.65625 h -1.51562 l -0.59375,-1.57813 h -3.125 l -0.625,1.57813 h -1.51563 z m 0.75,2.03125 -1.01563,2.625 h 2.03125 z m 4.89856,-2.03125 h 1.54687 q 1.26563,0 1.79688,0.23437 0.54687,0.21875 0.875,0.75 0.32812,0.51563 0.32812,1.23438 0,0.76562 -0.35937,1.28125 -0.35938,0.5 -1.09375,0.75 l 1.8125,3.40625 h -1.59375 l -1.71875,-3.23438 h -0.125 v 3.23438 h -1.46875 z m 1.46875,3 h 0.45312 q 0.6875,0 0.95313,-0.1875 0.26562,-0.1875 0.26562,-0.60938 0,-0.25 -0.14062,-0.42187 -0.125,-0.1875 -0.34375,-0.26563 -0.21875,-0.0937 -0.79688,-0.0937 h -0.39062 z"
       fill-rule="nonzero"
       id="path11" />
    <path
       fill="#4ea5b7"
       d="m 395.8874,108.15762 v 0 c 0,-3.85593 3.12585,-6.98177 6.98175,-6.98177 h 48.08371 c 1.85169,0 3.62753,0.73558 4.93686,2.04491 1.30936,1.30933 2.04492,3.08518 2.04492,4.93686 v 27.92622 c 0,3.85593 -3.12585,6.98177 -6.98178,6.98177 h -48.08371 c -3.8559,0 -6.98175,-3.12584 -6.98175,-6.98177 z"
       fill-rule="evenodd"
       id="path12" />
    <path
       stroke="#000000"
       stroke-width="1"
       stroke-linejoin="round"
       stroke-linecap="butt"
       d="m 395.8874,108.15762 v 0 c 0,-3.85593 3.12585,-6.98177 6.98175,-6.98177 h 48.08371 c 1.85169,0 3.62753,0.73558 4.93686,2.04491 1.30936,1.30933 2.04492,3.08518 2.04492,4.93686 v 27.92622 c 0,3.85593 -3.12585,6.98177 -6.98178,6.98177 h -48.08371 c -3.8559,0 -6.98175,-3.12584 -6.98175,-6.98177 z"
       fill-rule="evenodd"
       id="path13" />
    <path
       fill="#ffffff"
       d="m 415.90857,117.34261 h 4.75 v 1.78125 h -2.95313 v 1.73437 h 2.95313 v 1.75 h -2.95313 v 4.3125 h -1.79687 z m 15.16287,1.6875 -1.28125,1.21875 q -1.29687,-1.375 -2.92187,-1.375 -1.375,0 -2.3125,0.9375 -0.9375,0.9375 -0.9375,2.3125 0,0.95312 0.40625,1.70312 0.42187,0.73438 1.1875,1.15625 0.76562,0.42188 1.6875,0.42188 0.79687,0 1.45312,-0.29688 0.65625,-0.29687 1.4375,-1.07812 l 1.25,1.29687 q -1.0625,1.03125 -2.01562,1.4375 -0.9375,0.39063 -2.15625,0.39063 -2.21875,0 -3.64063,-1.40625 -1.42187,-1.42188 -1.42187,-3.625 0,-1.4375 0.64062,-2.54688 0.64063,-1.10937 1.84375,-1.78125 1.21875,-0.6875 2.60938,-0.6875 1.1875,0 2.28125,0.5 1.09375,0.5 1.89062,1.42188 z m 2.68997,-1.6875 h 2.73438 v 9.57812 h -1.8125 v -7.85937 h -1.96875 z"
       fill-rule="nonzero"
       id="path14" />
    <path
       fill="#8e7cc3"
       d="m 808.27954,86.53813 v 0 c 0,-2.081619 1.6875,-3.769104 3.7691,-3.769104 h 112.3988 c 0.99964,0 1.95832,0.397102 2.66517,1.103943 0.70684,0.706848 1.10394,1.665535 1.10394,2.665161 v 15.07597 c 0,2.08162 -1.6875,3.7691 -3.76911,3.7691 h -112.3988 v 0 c -2.0816,0 -3.7691,-1.68748 -3.7691,-3.7691 z"
       fill-rule="evenodd"
       id="path15" />
    <path
       stroke="#000000"
       stroke-width="1"
       stroke-linejoin="round"
       stroke-linecap="butt"
       d="m 808.27954,86.53813 v 0 c 0,-2.081619 1.6875,-3.769104 3.7691,-3.769104 h 112.3988 c 0.99964,0 1.95832,0.397102 2.66517,1.103943 0.70684,0.706848 1.10394,1.665535 1.10394,2.665161 v 15.07597 c 0,2.08162 -1.6875,3.7691 -3.76911,3.7691 h -112.3988 v 0 c -2.0816,0 -3.7691,-1.68748 -3.7691,-3.7691 z"
       fill-rule="evenodd"
       id="path16" />
    <path
       fill="#ffffff"
       d="m 827.87134,90.15987 h 1.48438 l 2.9375,7.65625 h -1.51563 l -0.59375,-1.578125 h -3.125 l -0.625,1.578125 h -1.51562 z m 0.75,2.03125 -1.01562,2.625 h 2.03125 z m 4.49231,-2.21875 h 1.42187 v 7.84375 h -1.42187 z m 2.55481,0 h 1.42187 v 7.84375 h -1.42187 z m 2.96106,0.1875 h 1.54687 q 1.26563,0 1.79688,0.234375 0.54687,0.21875 0.875,0.75 0.32812,0.515625 0.32812,1.234375 0,0.765625 -0.35937,1.28125 -0.35938,0.5 -1.09375,0.75 l 1.8125,3.40625 h -1.59375 l -1.71875,-3.234375 h -0.125 v 3.234375 h -1.46875 z m 1.46875,3 h 0.45312 q 0.6875,0 0.95313,-0.1875 0.26562,-0.1875 0.26562,-0.609375 0,-0.25 -0.14062,-0.421875 -0.125,-0.1875 -0.34375,-0.265625 -0.21875,-0.09375 -0.79688,-0.09375 h -0.39062 z m 10.13458,2.234375 h -4.5625 q 0.0937,0.609375 0.51563,0.96875 0.4375,0.34375 1.10937,0.34375 0.79688,0 1.35938,-0.546875 l 1.20312,0.5625 q -0.45312,0.625 -1.07812,0.9375 -0.625,0.296875 -1.48438,0.296875 -1.32812,0 -2.17187,-0.828125 -0.82813,-0.84375 -0.82813,-2.109375 0,-1.296875 0.82813,-2.15625 0.84375,-0.859375 2.09375,-0.859375 1.34375,0 2.17187,0.859375 0.84375,0.859375 0.84375,2.265625 z m -1.42187,-1.109375 q -0.14063,-0.484375 -0.5625,-0.78125 -0.40625,-0.296875 -0.95313,-0.296875 -0.59375,0 -1.04687,0.34375 -0.28125,0.203125 -0.51563,0.734375 z m 6.75891,-4.3125 h 1.40625 v 7.84375 h -1.40625 v -0.59375 q -0.42188,0.390625 -0.84375,0.5625 -0.42188,0.171875 -0.90625,0.171875 -1.09375,0 -1.90625,-0.84375 -0.79688,-0.859375 -0.79688,-2.109375 0,-1.3125 0.78125,-2.15625 0.78125,-0.84375 1.875,-0.84375 0.51563,0 0.95313,0.203125 0.45312,0.1875 0.84375,0.578125 z m -1.5,3.34375 q -0.65625,0 -1.09375,0.46875 -0.4375,0.46875 -0.4375,1.203125 0,0.71875 0.4375,1.203125 0.45312,0.46875 1.09375,0.46875 0.67187,0 1.10937,-0.46875 0.45313,-0.46875 0.45313,-1.21875 0,-0.734375 -0.45313,-1.1875 -0.4375,-0.46875 -1.10937,-0.46875 z m 4.34729,-1.15625 h 1.4375 v 2.71875 q 0,0.796875 0.10937,1.109375 0.10938,0.3125 0.34375,0.484375 0.23438,0.171875 0.59375,0.171875 0.35938,0 0.59375,-0.171875 0.25,-0.171875 0.375,-0.5 0.0937,-0.25 0.0937,-1.046875 V 92.15987 h 1.42188 v 2.390625 q 0,1.484375 -0.23438,2.03125 -0.28125,0.671875 -0.84375,1.03125 -0.5625,0.34375 -1.42187,0.34375 -0.92188,0 -1.5,-0.40625 -0.57813,-0.421875 -0.8125,-1.171875 -0.15625,-0.515625 -0.15625,-1.859375 z m 11.94171,1.140625 -1.1875,0.65625 q -0.32813,-0.359375 -0.65625,-0.484375 -0.32813,-0.140625 -0.76563,-0.140625 -0.79687,0 -1.29687,0.484375 -0.48438,0.46875 -0.48438,1.21875 0,0.71875 0.46875,1.171875 0.48438,0.453125 1.25,0.453125 0.95313,0 1.48438,-0.640625 l 1.125,0.765625 q -0.92188,1.171875 -2.57813,1.171875 -1.48437,0 -2.34375,-0.875 -0.84375,-0.890625 -0.84375,-2.078125 0,-0.8125 0.40625,-1.5 0.42188,-0.703125 1.15625,-1.09375 0.73438,-0.40625 1.64063,-0.40625 0.84375,0 1.51562,0.34375 0.67188,0.328125 1.10938,0.953125 z m 6.94641,2.09375 h -4.5625 q 0.0937,0.609375 0.51562,0.96875 0.4375,0.34375 1.10938,0.34375 0.79687,0 1.35937,-0.546875 l 1.20313,0.5625 q -0.45313,0.625 -1.07813,0.9375 -0.625,0.296875 -1.48437,0.296875 -1.32813,0 -2.17188,-0.828125 -0.82812,-0.84375 -0.82812,-2.109375 0,-1.296875 0.82812,-2.15625 0.84375,-0.859375 2.09375,-0.859375 1.34375,0 2.17188,0.859375 0.84375,0.859375 0.84375,2.265625 z m -1.42188,-1.109375 q -0.14062,-0.484375 -0.5625,-0.78125 -0.40625,-0.296875 -0.95312,-0.296875 -0.59375,0 -1.04688,0.34375 -0.28125,0.203125 -0.51562,0.734375 z m 8.0373,-4.125 h 1.48437 l 2.9375,7.65625 h -1.51562 l -0.59375,-1.578125 h -3.125 l -0.625,1.578125 h -1.51563 z m 0.75,2.03125 -1.01563,2.625 h 2.03125 z m 10.19543,1.109375 -1.1875,0.65625 q -0.32812,-0.359375 -0.65625,-0.484375 -0.32812,-0.140625 -0.76562,-0.140625 -0.79688,0 -1.29688,0.484375 -0.48437,0.46875 -0.48437,1.21875 0,0.71875 0.46875,1.171875 0.48437,0.453125 1.25,0.453125 0.95312,0 1.48437,-0.640625 l 1.125,0.765625 q -0.92187,1.171875 -2.57812,1.171875 -1.48438,0 -2.34375,-0.875 -0.84375,-0.890625 -0.84375,-2.078125 0,-0.8125 0.40625,-1.5 0.42187,-0.703125 1.15625,-1.09375 0.73437,-0.40625 1.64062,-0.40625 0.84375,0 1.51563,0.34375 0.67187,0.328125 1.10937,0.953125 z m 1.44647,-3.234375 h 1.42188 v 2.09375 h 0.82812 v 1.21875 h -0.82812 v 4.4375 h -1.42188 v -4.4375 h -0.73437 v -1.21875 h 0.73437 z m 3.58539,-0.25 q 0.375,0 0.64063,0.28125 0.26562,0.265625 0.26562,0.65625 0,0.375 -0.26562,0.640625 -0.26563,0.265625 -0.64063,0.265625 -0.375,0 -0.64062,-0.265625 -0.26563,-0.28125 -0.26563,-0.671875 0,-0.375 0.26563,-0.640625 0.26562,-0.265625 0.64062,-0.265625 z m -0.71875,2.34375 h 1.42188 v 5.65625 h -1.42188 z m 2.10169,0 h 1.45312 l 1.42188,3.328125 1.42187,-3.328125 h 1.45313 l -2.42188,5.65625 h -0.90625 z m 10.04626,0.78125 -0.89062,0.890625 q -0.53125,-0.53125 -0.96875,-0.53125 -0.23438,0 -0.375,0.109375 -0.125,0.09375 -0.125,0.234375 0,0.125 0.0781,0.21875 0.0937,0.09375 0.42188,0.265625 l 0.51562,0.25 q 0.82813,0.40625 1.125,0.828125 0.3125,0.421875 0.3125,0.984375 0,0.765625 -0.5625,1.265625 -0.54687,0.5 -1.46875,0.5 -1.23437,0 -1.98437,-0.96875 l 0.875,-0.953125 q 0.25,0.296875 0.57812,0.484375 0.34375,0.171875 0.60938,0.171875 0.28125,0 0.45312,-0.125 0.17188,-0.140625 0.17188,-0.328125 0,-0.328125 -0.625,-0.640625 l -0.46875,-0.234375 q -1.375,-0.6875 -1.375,-1.734375 0,-0.671875 0.51562,-1.140625 0.51563,-0.484375 1.32813,-0.484375 0.54687,0 1.03125,0.25 0.48437,0.234375 0.82812,0.6875 z"
       fill-rule="nonzero"
       id="path17" />
    <path
       fill="#4ea5b7"
       d="m 808.27954,114.30978 v 0 c 0,-2.08162 1.6875,-3.7691 3.7691,-3.7691 h 112.3988 c 0.99964,0 1.95832,0.3971 2.66517,1.10395 0.70684,0.70684 1.10394,1.66553 1.10394,2.66515 v 15.07598 c 0,2.08162 -1.6875,3.7691 -3.76911,3.7691 h -112.3988 v 0 c -2.0816,0 -3.7691,-1.68748 -3.7691,-3.7691 z"
       fill-rule="evenodd"
       id="path18" />
    <path
       stroke="#000000"
       stroke-width="1"
       stroke-linejoin="round"
       stroke-linecap="butt"
       d="m 808.27954,114.30978 v 0 c 0,-2.08162 1.6875,-3.7691 3.7691,-3.7691 h 112.3988 c 0.99964,0 1.95832,0.3971 2.66517,1.10395 0.70684,0.70684 1.10394,1.66553 1.10394,2.66515 v 15.07598 c 0,2.08162 -1.6875,3.7691 -3.76911,3.7691 h -112.3988 v 0 c -2.0816,0 -3.7691,-1.68748 -3.7691,-3.7691 z"
       fill-rule="evenodd"
       id="path19" />
    <path
       fill="#ffffff"
       d="m 826.9905,117.06964 h 4.75 v 1.78125 h -2.95313 v 1.73438 h 2.95313 v 1.75 h -2.95313 v 4.3125 h -1.79687 z m 9.49097,2.3125 q 1,0 1.875,0.5 0.89062,0.5 1.39062,1.35938 0.5,0.85937 0.5,1.85937 0,1 -0.5,1.875 -0.5,0.875 -1.35937,1.375 -0.85938,0.48438 -1.89063,0.48438 -1.53125,0 -2.60937,-1.07813 -1.07813,-1.09375 -1.07813,-2.64062 0,-1.65625 1.21875,-2.76563 1.07813,-0.96875 2.45313,-0.96875 z m 0.0312,1.67188 q -0.82813,0 -1.375,0.57812 -0.54688,0.57813 -0.54688,1.46875 0,0.9375 0.53125,1.51563 0.54688,0.5625 1.39063,0.5625 0.82812,0 1.375,-0.57813 0.5625,-0.57812 0.5625,-1.5 0,-0.90625 -0.54688,-1.46875 -0.54687,-0.57812 -1.39062,-0.57812 z m 4.76623,-1.48438 h 1.51563 v 0.89063 q 0.25,-0.53125 0.65625,-0.79688 0.42187,-0.28125 0.90625,-0.28125 0.34375,0 0.71875,0.1875 l -0.54688,1.53125 q -0.3125,-0.15625 -0.51562,-0.15625 -0.40625,0 -0.70313,0.51563 -0.28125,0.5 -0.28125,1.98437 l 0.0156,0.34375 v 2.85938 h -1.76563 z m 3.88764,0 h 1.73437 l 1.4375,4.03125 1.53125,-4.03125 h 1.0625 l 1.5,3.98438 1.42188,-3.98438 h 1.75 l -2.57813,7.07813 h -1.125 l -1.51562,-4.03125 -1.54688,4.03125 h -1.125 z m 16.67553,0 h 1.78125 v 7.07813 h -1.78125 v -0.75 q -0.51562,0.5 -1.04687,0.71875 -0.51563,0.21875 -1.125,0.21875 -1.375,0 -2.375,-1.0625 -1,-1.07813 -1,-2.65625 0,-1.64063 0.96875,-2.6875 0.96875,-1.04688 2.34375,-1.04688 0.64062,0 1.20312,0.25 0.5625,0.23438 1.03125,0.71875 z m -1.85937,1.45313 q -0.82813,0 -1.375,0.59375 -0.54688,0.57812 -0.54688,1.48437 0,0.92188 0.54688,1.51563 0.5625,0.59375 1.375,0.59375 0.84375,0 1.39062,-0.57813 0.5625,-0.59375 0.5625,-1.53125 0,-0.9375 -0.5625,-1.5 -0.54687,-0.57812 -1.39062,-0.57812 z m 5.01739,-1.45313 h 1.51563 v 0.89063 q 0.25,-0.53125 0.65625,-0.79688 0.42187,-0.28125 0.90625,-0.28125 0.34375,0 0.71875,0.1875 l -0.54688,1.53125 q -0.3125,-0.15625 -0.51562,-0.15625 -0.40625,0 -0.70313,0.51563 -0.28125,0.5 -0.28125,1.98437 l 0.0156,0.34375 v 2.85938 h -1.76563 z m 9.90332,-2.73437 h 1.78125 v 9.8125 h -1.78125 v -0.75 q -0.51562,0.5 -1.04687,0.71875 -0.51563,0.21875 -1.125,0.21875 -1.375,0 -2.375,-1.0625 -1,-1.07813 -1,-2.65625 0,-1.64063 0.96875,-2.6875 0.96875,-1.04688 2.34375,-1.04688 0.64062,0 1.20312,0.25 0.5625,0.23438 1.03125,0.71875 z m -1.85937,4.1875 q -0.82813,0 -1.375,0.59375 -0.54688,0.57812 -0.54688,1.48437 0,0.92188 0.54688,1.51563 0.5625,0.59375 1.375,0.59375 0.84375,0 1.39062,-0.57813 0.5625,-0.59375 0.5625,-1.53125 0,-0.9375 -0.5625,-1.5 -0.54687,-0.57812 -1.39062,-0.57812 z m 10.91827,-1.45313 v 0.78125 q 0.48438,-0.48437 1.04688,-0.71875 0.5625,-0.25 1.20312,-0.25 1.375,0 2.34375,1.04688 0.96875,1.04687 0.96875,2.6875 0,1.57812 -1,2.65625 -1,1.0625 -2.375,1.0625 -0.60937,0 -1.14062,-0.21875 -0.51563,-0.21875 -1.04688,-0.71875 v 3.34374 h -1.76562 v -9.67187 z m 1.875,1.45313 q -0.84375,0 -1.40625,0.57812 -0.54687,0.5625 -0.54687,1.5 0,0.9375 0.54687,1.53125 0.5625,0.57813 1.40625,0.57813 0.8125,0 1.35938,-0.59375 0.5625,-0.59375 0.5625,-1.51563 0,-0.90625 -0.54688,-1.48437 -0.54687,-0.59375 -1.375,-0.59375 z m 10.3924,-1.45313 h 1.78125 v 7.07813 h -1.78125 v -0.75 q -0.51563,0.5 -1.04688,0.71875 -0.51562,0.21875 -1.125,0.21875 -1.375,0 -2.375,-1.0625 -1,-1.07813 -1,-2.65625 0,-1.64063 0.96875,-2.6875 0.96875,-1.04688 2.34375,-1.04688 0.64063,0 1.20313,0.25 0.5625,0.23438 1.03125,0.71875 z m -1.85938,1.45313 q -0.82812,0 -1.375,0.59375 -0.54687,0.57812 -0.54687,1.48437 0,0.92188 0.54687,1.51563 0.5625,0.59375 1.375,0.59375 0.84375,0 1.39063,-0.57813 0.5625,-0.59375 0.5625,-1.53125 0,-0.9375 -0.5625,-1.5 -0.54688,-0.57812 -1.39063,-0.57812 z m 9.7674,-0.46875 -1.10938,1.10937 q -0.65625,-0.67187 -1.20312,-0.67187 -0.3125,0 -0.48438,0.125 -0.15625,0.125 -0.15625,0.3125 0,0.15625 0.10938,0.28125 0.10937,0.10937 0.53125,0.3125 l 0.64062,0.32812 q 1.03125,0.51563 1.40625,1.04688 0.39063,0.51562 0.39063,1.21875 0,0.95312 -0.70313,1.59375 -0.6875,0.625 -1.84375,0.625 -1.54687,0 -2.46875,-1.21875 l 1.09375,-1.1875 q 0.3125,0.35937 0.71875,0.59375 0.42188,0.21875 0.75,0.21875 0.35938,0 0.5625,-0.17188 0.21875,-0.17187 0.21875,-0.39062 0,-0.40625 -0.76562,-0.79688 l -0.60938,-0.29687 q -1.71875,-0.875 -1.71875,-2.17188 0,-0.84375 0.64063,-1.4375 0.65625,-0.59375 1.67187,-0.59375 0.6875,0 1.29688,0.3125 0.60937,0.29688 1.03125,0.85938 z m 5.86358,0 -1.10937,1.10937 q -0.65625,-0.67187 -1.20313,-0.67187 -0.3125,0 -0.48437,0.125 -0.15625,0.125 -0.15625,0.3125 0,0.15625 0.10937,0.28125 0.10938,0.10937 0.53125,0.3125 l 0.64063,0.32812 q 1.03125,0.51563 1.40625,1.04688 0.39062,0.51562 0.39062,1.21875 0,0.95312 -0.70312,1.59375 -0.6875,0.625 -1.84375,0.625 -1.54688,0 -2.46875,-1.21875 l 1.09375,-1.1875 q 0.3125,0.35937 0.71875,0.59375 0.42187,0.21875 0.75,0.21875 0.35937,0 0.5625,-0.17188 0.21875,-0.17187 0.21875,-0.39062 0,-0.40625 -0.76563,-0.79688 l -0.60937,-0.29687 q -1.71875,-0.875 -1.71875,-2.17188 0,-0.84375 0.64062,-1.4375 0.65625,-0.59375 1.67188,-0.59375 0.6875,0 1.29687,0.3125 0.60938,0.29688 1.03125,0.85938 z"
       fill-rule="nonzero"
       id="path20" />
    <path
       fill="#4ea5b7"
       d="m 458.51666,108.15631 v 0 c 0,-3.85593 3.12585,-6.98177 6.98178,-6.98177 h 48.08371 c 1.85169,0 3.6275,0.73558 4.93683,2.04491 1.30939,1.30933 2.04492,3.08518 2.04492,4.93686 v 27.92622 c 0,3.85593 -3.12585,6.98177 -6.98175,6.98177 h -48.08371 c -3.85593,0 -6.98178,-3.12584 -6.98178,-6.98177 z"
       fill-rule="evenodd"
       id="path21" />
    <path
       stroke="#000000"
       stroke-width="1"
       stroke-linejoin="round"
       stroke-linecap="butt"
       d="m 458.51666,108.15631 v 0 c 0,-3.85593 3.12585,-6.98177 6.98178,-6.98177 h 48.08371 c 1.85169,0 3.6275,0.73558 4.93683,2.04491 1.30939,1.30933 2.04492,3.08518 2.04492,4.93686 v 27.92622 c 0,3.85593 -3.12585,6.98177 -6.98175,6.98177 h -48.08371 c -3.85593,0 -6.98178,-3.12584 -6.98178,-6.98177 z"
       fill-rule="evenodd"
       id="path22" />
    <path
       fill="#ffffff"
       d="m 482.4174,118.90379 -1.28125,1.28125 q -1.21875,-1.29687 -2.84375,-1.29687 -1.40625,0 -2.35938,0.9375 -0.95312,0.9375 -0.95312,2.28125 0,1.39062 0.98437,2.35937 0.98438,0.95313 2.4375,0.95313 0.9375,0 1.57813,-0.39063 0.65625,-0.40625 1.0625,-1.25 h -2.78125 v -1.71875 h 4.8125 l 0.0156,0.40625 q 0,1.25 -0.65625,2.39063 -0.64062,1.125 -1.67187,1.71875 -1.03125,0.57812 -2.4375,0.57812 -1.48438,0 -2.65625,-0.64062 -1.15625,-0.64063 -1.84375,-1.84375 -0.6875,-1.20313 -0.6875,-2.57813 0,-1.90625 1.26562,-3.3125 1.48438,-1.67187 3.875,-1.67187 1.25,0 2.34375,0.45312 0.90625,0.39063 1.79688,1.34375 z m 9.24042,4.98438 h -5.70313 q 0.125,0.76562 0.65625,1.21875 0.54688,0.4375 1.375,0.4375 1,0 1.71875,-0.70313 l 1.48438,0.70313 q -0.54688,0.79687 -1.32813,1.1875 -0.78125,0.375 -1.85937,0.375 -1.67188,0 -2.71875,-1.04688 -1.04688,-1.0625 -1.04688,-2.64062 0,-1.625 1.04688,-2.6875 1.04687,-1.07813 2.625,-1.07813 1.67187,0 2.71875,1.07813 1.04687,1.0625 1.04687,2.82812 z m -1.78125,-1.39063 q -0.17188,-0.59375 -0.6875,-0.96875 -0.51563,-0.375 -1.20313,-0.375 -0.73437,0 -1.29687,0.42188 -0.35938,0.26562 -0.65625,0.92187 z m 3.42245,-5.15625 h 1.82813 v 7.84375 h 2.65625 v 1.73438 h -4.48438 z m 5.80112,0 h 1.82812 v 6.20313 q 0,0.79687 0.14063,1.14062 0.14062,0.32813 0.45312,0.53125 0.32813,0.1875 0.78125,0.1875 0.48438,0 0.82813,-0.21875 0.35937,-0.21875 0.48437,-0.5625 0.14063,-0.34375 0.14063,-1.3125 v -5.96875 h 1.82812 v 5.71875 q 0,1.4375 -0.17187,2 -0.15625,0.5625 -0.625,1.07813 -0.45313,0.51562 -1.0625,0.76562 -0.59375,0.25 -1.375,0.25 -1.04688,0 -1.82813,-0.46875 -0.76562,-0.48437 -1.09375,-1.20312 -0.32812,-0.71875 -0.32812,-2.42188 z"
       fill-rule="nonzero"
       id="path23" />
    <path
       fill="#4ea5b7"
       d="m 521.1419,108.15631 v 0 c 0,-3.85593 3.12585,-6.98177 6.98181,-6.98177 h 48.08368 c 1.85169,0 3.62756,0.73558 4.93689,2.04491 1.30933,1.30933 2.04492,3.08518 2.04492,4.93686 v 27.92622 c 0,3.85593 -3.12585,6.98177 -6.98181,6.98177 h -48.08368 c -3.85596,0 -6.98181,-3.12584 -6.98181,-6.98177 z"
       fill-rule="evenodd"
       id="path24" />
    <path
       stroke="#000000"
       stroke-width="1"
       stroke-linejoin="round"
       stroke-linecap="butt"
       d="m 521.1419,108.15631 v 0 c 0,-3.85593 3.12585,-6.98177 6.98181,-6.98177 h 48.08368 c 1.85169,0 3.62756,0.73558 4.93689,2.04491 1.30933,1.30933 2.04492,3.08518 2.04492,4.93686 v 27.92622 c 0,3.85593 -3.12585,6.98177 -6.98181,6.98177 h -48.08368 c -3.85596,0 -6.98181,-3.12584 -6.98181,-6.98177 z"
       fill-rule="evenodd"
       id="path25" />
    <path
       fill="#ffffff"
       d="m 541.16315,117.34129 h 4.75 v 1.78125 h -2.95313 v 1.73438 h 2.95313 v 1.75 h -2.95313 v 4.3125 h -1.79687 z m 15.16284,1.6875 -1.28125,1.21875 q -1.29687,-1.375 -2.92187,-1.375 -1.375,0 -2.3125,0.9375 -0.9375,0.9375 -0.9375,2.3125 0,0.95313 0.40625,1.70313 0.42187,0.73437 1.1875,1.15625 0.76562,0.42187 1.6875,0.42187 0.79687,0 1.45312,-0.29687 0.65625,-0.29688 1.4375,-1.07813 l 1.25,1.29688 q -1.0625,1.03125 -2.01562,1.4375 -0.9375,0.39062 -2.15625,0.39062 -2.21875,0 -3.64063,-1.40625 -1.42187,-1.42187 -1.42187,-3.625 0,-1.4375 0.64062,-2.54687 0.64063,-1.10938 1.84375,-1.78125 1.21875,-0.6875 2.60938,-0.6875 1.1875,0 2.28125,0.5 1.09375,0.5 1.89062,1.42187 z m 2.83057,1.40625 h -1.78125 q 0.0781,-1.54687 0.96875,-2.4375 0.90625,-0.89062 2.3125,-0.89062 0.875,0 1.54687,0.375 0.67188,0.35937 1.0625,1.0625 0.40625,0.6875 0.40625,1.40625 0,0.84375 -0.48437,1.82812 -0.48438,0.98438 -1.78125,2.32813 l -1.07813,1.125 h 3.42188 v 1.6875 h -6.64063 v -0.875 l 2.96875,-3.01563 q 1.07813,-1.09375 1.42188,-1.75 0.35937,-0.65625 0.35937,-1.1875 0,-0.5625 -0.375,-0.92187 -0.35937,-0.35938 -0.9375,-0.35938 -0.59375,0 -0.98437,0.4375 -0.39063,0.4375 -0.40625,1.1875 z"
       fill-rule="nonzero"
       id="path26" />
    <path
       fill="#000000"
       fill-opacity="0"
       d="m 394.2743,46.90696 -0.78741,99.21259"
       fill-rule="evenodd"
       id="path27" />
    <path
       stroke="#000000"
       stroke-width="3"
       stroke-linejoin="round"
       stroke-linecap="butt"
       stroke-dasharray="12, 9"
       d="m 394.2743,46.90696 -0.78741,99.21259"
       fill-rule="evenodd"
       id="path28" />
    <path
       fill="#4ea5b7"
       d="m 331.52936,108.15762 v 0 c 0,-3.85593 3.12582,-6.98177 6.98175,-6.98177 h 48.08371 c 1.85169,0 3.62753,0.73558 4.93686,2.04491 1.30933,1.30933 2.04492,3.08518 2.04492,4.93686 v 27.92622 c 0,3.85593 -3.12585,6.98177 -6.98178,6.98177 h -48.08371 c -3.85593,0 -6.98175,-3.12584 -6.98175,-6.98177 z"
       fill-rule="evenodd"
       id="path29" />
    <path
       stroke="#000000"
       stroke-width="1"
       stroke-linejoin="round"
       stroke-linecap="butt"
       d="m 331.52936,108.15762 v 0 c 0,-3.85593 3.12582,-6.98177 6.98175,-6.98177 h 48.08371 c 1.85169,0 3.62753,0.73558 4.93686,2.04491 1.30933,1.30933 2.04492,3.08518 2.04492,4.93686 v 27.92622 c 0,3.85593 -3.12585,6.98177 -6.98178,6.98177 h -48.08371 c -3.85593,0 -6.98175,-3.12584 -6.98175,-6.98177 z"
       fill-rule="evenodd"
       id="path30" />
    <path
       fill="#ffffff"
       d="m 335.2966,118.20448 h 1.45312 v 6.26563 h 2.125 v 1.39062 h -3.57812 z m 8.71939,2 h 1.40625 v 5.65625 h -1.40625 v -0.59375 q -0.42187,0.39063 -0.84375,0.5625 -0.42187,0.17188 -0.90625,0.17188 -1.09375,0 -1.90625,-0.84375 -0.79687,-0.85938 -0.79687,-2.10938 0,-1.3125 0.78125,-2.15625 0.78125,-0.84375 1.875,-0.84375 0.51562,0 0.95312,0.20313 0.45313,0.1875 0.84375,0.57812 z m -1.5,1.15625 q -0.65625,0 -1.09375,0.46875 -0.4375,0.46875 -0.4375,1.20313 0,0.71875 0.4375,1.20312 0.45313,0.46875 1.09375,0.46875 0.67188,0 1.10938,-0.46875 0.45312,-0.46875 0.45312,-1.21875 0,-0.73437 -0.45312,-1.1875 -0.4375,-0.46875 -1.10938,-0.46875 z m 3.72229,-1.15625 h 1.45313 l 1.46875,3.54688 1.625,-3.54688 h 1.45312 l -3.54687,7.73438 h -1.46875 l 1.17187,-2.5 z m 12.47833,3.23438 h -4.5625 q 0.0937,0.60937 0.51563,0.96875 0.4375,0.34375 1.10937,0.34375 0.79688,0 1.35938,-0.54688 l 1.20312,0.5625 q -0.45312,0.625 -1.07812,0.9375 -0.625,0.29688 -1.48438,0.29688 -1.32812,0 -2.17187,-0.82813 -0.82813,-0.84375 -0.82813,-2.10937 0,-1.29688 0.82813,-2.15625 0.84375,-0.85938 2.09375,-0.85938 1.34375,0 2.17187,0.85938 0.84375,0.85937 0.84375,2.26562 z m -1.42187,-1.10938 q -0.14063,-0.48437 -0.5625,-0.78125 -0.40625,-0.29687 -0.95313,-0.29687 -0.59375,0 -1.04687,0.34375 -0.28125,0.20312 -0.51563,0.73437 z m 2.24332,-2.125 h 1.21875 v 0.70313 q 0.1875,-0.42188 0.51562,-0.64063 0.32813,-0.21875 0.71875,-0.21875 0.28125,0 0.57813,0.15625 l -0.4375,1.21875 q -0.25,-0.125 -0.40625,-0.125 -0.32813,0 -0.5625,0.40625 -0.21875,0.40625 -0.21875,1.59375 v 0.26563 2.29687 h -1.40625 z m 3.89251,-2 h 1.40625 l 3.28125,5.03125 v -5.03125 h 1.45313 v 7.65625 h -1.40625 l -3.26563,-5.01562 v 5.01562 h -1.46875 z m 10.38291,1.84375 q 0.79687,0 1.5,0.40625 0.71875,0.40625 1.10937,1.09375 0.39063,0.6875 0.39063,1.48438 0,0.79687 -0.40625,1.5 -0.39063,0.6875 -1.07813,1.07812 -0.6875,0.39063 -1.51562,0.39063 -1.20313,0 -2.07813,-0.85938 -0.85937,-0.875 -0.85937,-2.10937 0,-1.32813 0.98437,-2.20313 0.84375,-0.78125 1.95313,-0.78125 z m 0.0156,1.34375 q -0.65625,0 -1.09375,0.46875 -0.4375,0.45313 -0.4375,1.17188 0,0.73437 0.42188,1.20312 0.4375,0.45313 1.10937,0.45313 0.67188,0 1.10938,-0.46875 0.4375,-0.46875 0.4375,-1.1875 0,-0.73438 -0.4375,-1.1875 -0.42188,-0.45313 -1.10938,-0.45313 z m 3.82147,-1.1875 h 1.21875 v 0.70313 q 0.1875,-0.42188 0.51563,-0.64063 0.32812,-0.21875 0.71875,-0.21875 0.28125,0 0.57812,0.15625 l -0.4375,1.21875 q -0.25,-0.125 -0.40625,-0.125 -0.32812,0 -0.5625,0.40625 -0.21875,0.40625 -0.21875,1.59375 v 0.26563 2.29687 h -1.40625 z m 3.72061,0 h 1.4375 v 0.64063 q 0.35938,-0.39063 0.79688,-0.59375 0.45312,-0.20313 0.96875,-0.20313 0.53125,0 0.95312,0.26563 0.4375,0.26562 0.70313,0.76562 0.32812,-0.5 0.8125,-0.76562 0.5,-0.26563 1.09375,-0.26563 0.59375,0 1.04687,0.28125 0.46875,0.28125 0.65625,0.73438 0.20313,0.45312 0.20313,1.48437 v 3.3125 h -1.42188 v -2.875 q 0,-0.95312 -0.25,-1.29687 -0.23437,-0.34375 -0.70312,-0.34375 -0.375,0 -0.67188,0.21875 -0.28125,0.20312 -0.42187,0.57812 -0.14063,0.35938 -0.14063,1.15625 v 2.5625 h -1.42187 v -2.73437 q 0,-0.76563 -0.125,-1.10938 -0.10938,-0.34375 -0.32813,-0.5 -0.21875,-0.17187 -0.54687,-0.17187 -0.34375,0 -0.64063,0.21875 -0.28125,0.20312 -0.42187,0.59375 -0.14063,0.375 -0.14063,1.1875 v 2.51562 h -1.4375 z"
       fill-rule="nonzero"
       id="path31" />
    <path
       fill="#4ea5b7"
       d="m 678.4393,107.37809 v 0 c 0,-3.85592 3.12585,-6.98177 6.98181,-6.98177 h 48.08368 c 1.85169,0 3.6275,0.73558 4.93689,2.04492 1.30933,1.30933 2.04486,3.08517 2.04486,4.93685 v 27.92623 c 0,3.85593 -3.12579,6.98177 -6.98175,6.98177 h -48.08368 c -3.85596,0 -6.98181,-3.12584 -6.98181,-6.98177 z"
       fill-rule="evenodd"
       id="path32" />
    <path
       stroke="#000000"
       stroke-width="1"
       stroke-linejoin="round"
       stroke-linecap="butt"
       d="m 678.4393,107.37809 v 0 c 0,-3.85592 3.12585,-6.98177 6.98181,-6.98177 h 48.08368 c 1.85169,0 3.6275,0.73558 4.93689,2.04492 1.30933,1.30933 2.04486,3.08517 2.04486,4.93685 v 27.92623 c 0,3.85593 -3.12579,6.98177 -6.98175,6.98177 h -48.08368 c -3.85596,0 -6.98181,-3.12584 -6.98181,-6.98177 z"
       fill-rule="evenodd"
       id="path33" />
    <path
       fill="#ffffff"
       d="m 682.20654,117.42496 h 1.45313 v 6.26563 h 2.125 v 1.39062 h -3.57813 z m 8.71942,2 h 1.40625 v 5.65625 h -1.40625 v -0.59375 q -0.42187,0.39063 -0.84375,0.5625 -0.42187,0.17188 -0.90625,0.17188 -1.09375,0 -1.90625,-0.84375 -0.79687,-0.85938 -0.79687,-2.10938 0,-1.3125 0.78125,-2.15625 0.78125,-0.84375 1.875,-0.84375 0.51562,0 0.95312,0.20313 0.45313,0.1875 0.84375,0.57812 z m -1.5,1.15625 q -0.65625,0 -1.09375,0.46875 -0.4375,0.46875 -0.4375,1.20313 0,0.71875 0.4375,1.20312 0.45313,0.46875 1.09375,0.46875 0.67188,0 1.10938,-0.46875 0.45312,-0.46875 0.45312,-1.21875 0,-0.73437 -0.45312,-1.1875 -0.4375,-0.46875 -1.10938,-0.46875 z m 3.72229,-1.15625 h 1.45313 l 1.46875,3.54688 1.625,-3.54688 h 1.45312 l -3.54687,7.73438 h -1.46875 l 1.17187,-2.5 z m 12.47833,3.23438 h -4.5625 q 0.0937,0.60937 0.51563,0.96875 0.4375,0.34375 1.10937,0.34375 0.79688,0 1.35938,-0.54688 l 1.20312,0.5625 q -0.45312,0.625 -1.07812,0.9375 -0.625,0.29688 -1.48438,0.29688 -1.32812,0 -2.17187,-0.82813 -0.82813,-0.84375 -0.82813,-2.10937 0,-1.29688 0.82813,-2.15625 0.84375,-0.85938 2.09375,-0.85938 1.34375,0 2.17187,0.85938 0.84375,0.85937 0.84375,2.26562 z m -1.42187,-1.10938 q -0.14063,-0.48437 -0.5625,-0.78125 -0.40625,-0.29687 -0.95313,-0.29687 -0.59375,0 -1.04687,0.34375 -0.28125,0.20312 -0.51563,0.73437 z m 2.24328,-2.125 h 1.21875 v 0.70313 q 0.1875,-0.42188 0.51563,-0.64063 0.32812,-0.21875 0.71875,-0.21875 0.28125,0 0.57812,0.15625 l -0.4375,1.21875 q -0.25,-0.125 -0.40625,-0.125 -0.32812,0 -0.5625,0.40625 -0.21875,0.40625 -0.21875,1.59375 v 0.26563 2.29687 h -1.40625 z m 3.89252,-2 h 1.40625 l 3.28125,5.03125 v -5.03125 h 1.45313 v 7.65625 h -1.40625 l -3.26563,-5.01562 v 5.01562 h -1.46875 z m 10.38294,1.84375 q 0.79687,0 1.5,0.40625 0.71875,0.40625 1.10937,1.09375 0.39063,0.6875 0.39063,1.48438 0,0.79687 -0.40625,1.5 -0.39063,0.6875 -1.07813,1.07812 -0.6875,0.39063 -1.51562,0.39063 -1.20313,0 -2.07813,-0.85938 -0.85937,-0.875 -0.85937,-2.10937 0,-1.32813 0.98437,-2.20313 0.84375,-0.78125 1.95313,-0.78125 z m 0.0156,1.34375 q -0.65625,0 -1.09375,0.46875 -0.4375,0.45313 -0.4375,1.17188 0,0.73437 0.42188,1.20312 0.4375,0.45313 1.10937,0.45313 0.67188,0 1.10938,-0.46875 0.4375,-0.46875 0.4375,-1.1875 0,-0.73438 -0.4375,-1.1875 -0.42188,-0.45313 -1.10938,-0.45313 z m 3.82147,-1.1875 h 1.21875 v 0.70313 q 0.1875,-0.42188 0.51563,-0.64063 0.32812,-0.21875 0.71875,-0.21875 0.28125,0 0.57812,0.15625 l -0.4375,1.21875 q -0.25,-0.125 -0.40625,-0.125 -0.32812,0 -0.5625,0.40625 -0.21875,0.40625 -0.21875,1.59375 v 0.26563 2.29687 h -1.40625 z m 3.72058,0 h 1.4375 v 0.64063 q 0.35938,-0.39063 0.79688,-0.59375 0.45312,-0.20313 0.96875,-0.20313 0.53125,0 0.95312,0.26563 0.4375,0.26562 0.70313,0.76562 0.32812,-0.5 0.8125,-0.76562 0.5,-0.26563 1.09375,-0.26563 0.59375,0 1.04687,0.28125 0.46875,0.28125 0.65625,0.73438 0.20313,0.45312 0.20313,1.48437 v 3.3125 h -1.42188 v -2.875 q 0,-0.95312 -0.25,-1.29687 -0.23437,-0.34375 -0.70312,-0.34375 -0.375,0 -0.67188,0.21875 -0.28125,0.20312 -0.42187,0.57812 -0.14063,0.35938 -0.14063,1.15625 v 2.5625 h -1.42187 v -2.73437 q 0,-0.76563 -0.125,-1.10938 -0.10938,-0.34375 -0.32813,-0.5 -0.21875,-0.17187 -0.54687,-0.17187 -0.34375,0 -0.64063,0.21875 -0.28125,0.20312 -0.42187,0.59375 -0.14063,0.375 -0.14063,1.1875 v 2.51562 h -1.4375 z"
       fill-rule="nonzero"
       id="path34" />
    <path
       fill="#000000"
       fill-opacity="0"
       d="m 618.7572,46.127434 -0.78741,99.212586"
       fill-rule="evenodd"
       id="path35" />
    <path
       stroke="#000000"
       stroke-width="3"
       stroke-linejoin="round"
       stroke-linecap="butt"
       stroke-dasharray="12, 9"
       d="m 618.7572,46.127434 -0.78741,99.212586"
       fill-rule="evenodd"
       id="path36" />
  </g>
</svg>
