<?xml version="1.0" encoding="UTF-8" standalone="no"?>
<svg
   version="1.1"
   viewBox="0 0 800.93304 147.23752"
   fill="none"
   stroke="none"
   stroke-linecap="square"
   stroke-miterlimit="10"
   id="svg46"
   sodipodi:docname="tp_sp_overlap.svg"
   width="800.93304"
   height="147.23752"
   xmlns:inkscape="http://www.inkscape.org/namespaces/inkscape"
   xmlns:sodipodi="http://sodipodi.sourceforge.net/DTD/sodipodi-0.dtd"
   xmlns="http://www.w3.org/2000/svg"
   xmlns:svg="http://www.w3.org/2000/svg">
  <defs
     id="defs46" />
  <sodipodi:namedview
     id="namedview46"
     pagecolor="#ffffff"
     bordercolor="#000000"
     borderopacity="0.25"
     inkscape:showpageshadow="2"
     inkscape:pageopacity="0.0"
     inkscape:pagecheckerboard="0"
     inkscape:deskcolor="#d1d1d1"
     fit-margin-top="20"
     fit-margin-left="20"
     fit-margin-right="20"
     fit-margin-bottom="20" />
  <clipPath
     id="g32f95b5bfe3_0_1176.0">
    <path
       d="M 0,0 H 960 V 540 H 0 Z"
       clip-rule="nonzero"
       id="path1" />
  </clipPath>
  <g
     clip-path="url(#g32f95b5bfe3_0_1176.0)"
     id="g46"
     transform="translate(-125.55118,-216.43832)">
    <path
       fill="#000000"
       fill-opacity="0"
       d="m 249.82152,217.58792 h 166.11024 v 42.01575 H 249.82152 Z"
       fill-rule="evenodd"
       id="path3" />
    <path
       fill="#000000"
       d="m 299.82043,232.9298 -1.875,1.67187 q -1,-1.39062 -2.03125,-1.39062 -0.5,0 -0.82813,0.26562 -0.3125,0.26563 -0.3125,0.60938 0,0.34375 0.23438,0.64062 0.3125,0.40625 1.875,1.71875 1.45312,1.21875 1.76562,1.54688 0.76563,0.78125 1.09375,1.5 0.32813,0.70312 0.32813,1.54687 0,1.65625 -1.14063,2.73438 -1.14062,1.07812 -2.96875,1.07812 -1.4375,0 -2.5,-0.70312 -1.0625,-0.70313 -1.8125,-2.20313 l 2.14063,-1.29687 q 0.96875,1.76562 2.21875,1.76562 0.65625,0 1.09375,-0.375 0.45312,-0.375 0.45312,-0.89062 0,-0.45313 -0.34375,-0.90625 -0.32812,-0.45313 -1.46875,-1.39063 -2.1875,-1.78125 -2.82812,-2.75 -0.64063,-0.96875 -0.64063,-1.9375 0,-1.39062 1.0625,-2.39062 1.0625,-1 2.625,-1 1,0 1.90625,0.46875 0.90625,0.45312 1.95313,1.6875 z m 2.67038,-1.82813 h 2.71875 q 2.1875,0 3.15625,0.40625 0.96875,0.40625 1.53125,1.3125 0.5625,0.90625 0.5625,2.17188 0,1.40625 -0.73438,2.34375 -0.73437,0.92187 -1.98437,1.28125 -0.75,0.21875 -2.6875,0.21875 v 5.67187 h -2.5625 z m 2.5625,5.25 h 0.79687 q 0.96875,0 1.34375,-0.14062 0.375,-0.14063 0.57813,-0.45313 0.21875,-0.3125 0.21875,-0.76562 0,-0.76563 -0.60938,-1.125 -0.4375,-0.26563 -1.60937,-0.26563 h -0.71875 z m 12.26208,-1.75 h 2.14063 v 1.25 q 0.34375,-0.75 0.90625,-1.125 0.57812,-0.39062 1.26562,-0.39062 0.48438,0 1.01563,0.26562 l -0.78125,2.14063 q -0.4375,-0.21875 -0.71875,-0.21875 -0.57813,0 -0.96875,0.71875 -0.39063,0.70312 -0.39063,2.78125 v 0.46875 4.01562 h -2.46875 z m 16.48233,5.67188 h -7.98437 q 0.17187,1.0625 0.92187,1.6875 0.75,0.60937 1.92188,0.60937 1.39062,0 2.39062,-0.96875 l 2.09375,0.98438 q -0.78125,1.10937 -1.875,1.64062 -1.09375,0.53125 -2.59375,0.53125 -2.34375,0 -3.8125,-1.46875 -1.45312,-1.46875 -1.45312,-3.6875 0,-2.26562 1.45312,-3.76562 1.46875,-1.5 3.67188,-1.5 2.34375,0 3.8125,1.5 1.46875,1.5 1.46875,3.96875 z m -2.5,-1.95313 q -0.25,-0.82812 -0.96875,-1.34375 -0.71875,-0.53125 -1.67187,-0.53125 -1.04688,0 -1.82813,0.57813 -0.5,0.375 -0.90625,1.29687 z m 11.8332,-3.71875 h 2.48437 v 8.48438 q 0,2.51562 -1.01562,3.70312 -1.35938,1.59375 -4.09375,1.59375 -1.45313,0 -2.45313,-0.35937 -0.98437,-0.35938 -1.67187,-1.07813 -0.6875,-0.70312 -1.01563,-1.70312 h 2.75 q 0.35938,0.40625 0.9375,0.625 0.57813,0.21875 1.35938,0.21875 1,0 1.60937,-0.3125 0.60938,-0.3125 0.85938,-0.8125 0.25,-0.48438 0.25,-1.6875 -0.65625,0.65625 -1.375,0.95312 -0.71875,0.28125 -1.625,0.28125 -2,0 -3.375,-1.4375 -1.375,-1.4375 -1.375,-3.64062 0,-2.35938 1.45312,-3.79688 1.32813,-1.29687 3.15625,-1.29687 0.85938,0 1.60938,0.32812 0.76562,0.3125 1.53125,1.03125 z m -2.57813,2.0625 q -1.17187,0 -1.9375,0.79688 -0.76562,0.78125 -0.76562,1.96875 0,1.25 0.78125,2.04687 0.78125,0.78125 1.96875,0.78125 1.15625,0 1.90625,-0.76562 0.75,-0.78125 0.75,-2.04688 0,-1.23437 -0.75,-2 -0.75,-0.78125 -1.95313,-0.78125 z m 8.55042,-6.15625 q 0.65625,0 1.125,0.48438 0.46875,0.46875 0.46875,1.14062 0,0.67188 -0.46875,1.14063 -0.46875,0.46875 -1.10938,0.46875 -0.67187,0 -1.14062,-0.46875 -0.46875,-0.48438 -0.46875,-1.17188 0,-0.65625 0.46875,-1.125 0.46875,-0.46875 1.125,-0.46875 z m -1.25,4.09375 h 2.5 v 9.90625 h -2.5 z m 9.39462,-0.26562 q 1.40625,0 2.64062,0.70312 1.23438,0.70313 1.92188,1.90625 0.70312,1.20313 0.70312,2.59375 0,1.40625 -0.70312,2.625 -0.6875,1.21875 -1.89063,1.90625 -1.20312,0.6875 -2.65625,0.6875 -2.125,0 -3.64062,-1.51562 -1.5,-1.51563 -1.5,-3.6875 0,-2.3125 1.70312,-3.85938 1.48438,-1.35937 3.42188,-1.35937 z m 0.0469,2.34375 q -1.15625,0 -1.9375,0.8125 -0.76562,0.79687 -0.76562,2.0625 0,1.29687 0.75,2.09375 0.76562,0.79687 1.9375,0.79687 1.17187,0 1.9375,-0.8125 0.78125,-0.8125 0.78125,-2.07812 0,-1.28125 -0.76563,-2.07813 -0.76562,-0.79687 -1.9375,-0.79687 z m 7.23944,-2.07813 h 2.48438 v 1 q 0.84375,-0.70312 1.53125,-0.98437 0.6875,-0.28125 1.40625,-0.28125 1.48437,0 2.51562,1.03125 0.85938,0.875 0.85938,2.59375 v 6.54687 h -2.45313 v -4.34375 q 0,-1.78125 -0.17187,-2.35937 -0.15625,-0.57813 -0.54688,-0.875 -0.39062,-0.3125 -0.98437,-0.3125 -0.75,0 -1.29688,0.5 -0.54687,0.5 -0.75,1.39062 -0.10937,0.46875 -0.10937,2.01563 v 3.98437 h -2.48438 z"
       fill-rule="nonzero"
       id="path4" />
    <path
       fill="#000000"
       fill-opacity="0"
       d="m 428.25198,217.21785 h 166.1102 v 42.01573 h -166.1102 z"
       fill-rule="evenodd"
       id="path5" />
    <path
       fill="#000000"
       d="m 443.42126,230.7316 h 7.40625 v 2.51562 h -2.4375 v 10.89063 h -2.57812 v -10.89063 h -2.39063 z m 9.14667,0 h 2.71875 q 2.1875,0 3.15625,0.40625 0.96875,0.40625 1.53125,1.3125 0.5625,0.90625 0.5625,2.17187 0,1.40625 -0.73438,2.34375 -0.73437,0.92188 -1.98437,1.28125 -0.75,0.21875 -2.6875,0.21875 v 5.67188 h -2.5625 z m 2.5625,5.25 h 0.79687 q 0.96875,0 1.34375,-0.14063 0.375,-0.14062 0.57813,-0.45312 0.21875,-0.3125 0.21875,-0.76563 0,-0.76562 -0.60938,-1.125 -0.4375,-0.26562 -1.60937,-0.26562 h -0.71875 z m 12.26208,-1.75 h 2.14063 v 1.25 q 0.34375,-0.75 0.90625,-1.125 0.57812,-0.39063 1.26562,-0.39063 0.48438,0 1.01563,0.26563 l -0.78125,2.14062 q -0.4375,-0.21875 -0.71875,-0.21875 -0.57813,0 -0.96875,0.71875 -0.39063,0.70313 -0.39063,2.78125 v 0.46875 4.01563 h -2.46875 z m 16.48236,5.67187 h -7.98437 q 0.17187,1.0625 0.92187,1.6875 0.75,0.60938 1.92188,0.60938 1.39062,0 2.39062,-0.96875 l 2.09375,0.98437 q -0.78125,1.10938 -1.875,1.64063 -1.09375,0.53125 -2.59375,0.53125 -2.34375,0 -3.8125,-1.46875 -1.45312,-1.46875 -1.45312,-3.6875 0,-2.26563 1.45312,-3.76563 1.46875,-1.5 3.67188,-1.5 2.34375,0 3.8125,1.5 1.46875,1.5 1.46875,3.96875 z m -2.5,-1.95312 q -0.25,-0.82813 -0.96875,-1.34375 -0.71875,-0.53125 -1.67187,-0.53125 -1.04688,0 -1.82813,0.57812 -0.5,0.375 -0.90625,1.29688 z m 11.83316,-3.71875 h 2.48438 v 8.48437 q 0,2.51563 -1.01563,3.70313 -1.35937,1.59375 -4.09375,1.59375 -1.45312,0 -2.45312,-0.35938 -0.98438,-0.35937 -1.67188,-1.07812 -0.6875,-0.70313 -1.01562,-1.70313 h 2.75 q 0.35937,0.40625 0.9375,0.625 0.57812,0.21875 1.35937,0.21875 1,0 1.60938,-0.3125 0.60937,-0.3125 0.85937,-0.8125 0.25,-0.48437 0.25,-1.6875 -0.65625,0.65625 -1.375,0.95313 -0.71875,0.28125 -1.625,0.28125 -2,0 -3.375,-1.4375 -1.375,-1.4375 -1.375,-3.64063 0,-2.35937 1.45313,-3.79687 1.32812,-1.29688 3.15625,-1.29688 0.85937,0 1.60937,0.32813 0.76563,0.3125 1.53125,1.03125 z m -2.57812,2.0625 q -1.17188,0 -1.9375,0.79687 -0.76563,0.78125 -0.76563,1.96875 0,1.25 0.78125,2.04688 0.78125,0.78125 1.96875,0.78125 1.15625,0 1.90625,-0.76563 0.75,-0.78125 0.75,-2.04687 0,-1.23438 -0.75,-2 -0.75,-0.78125 -1.95312,-0.78125 z m 8.55041,-6.15625 q 0.65625,0 1.125,0.48437 0.46875,0.46875 0.46875,1.14063 0,0.67187 -0.46875,1.14062 -0.46875,0.46875 -1.10937,0.46875 -0.67188,0 -1.14063,-0.46875 -0.46875,-0.48437 -0.46875,-1.17187 0,-0.65625 0.46875,-1.125 0.46875,-0.46875 1.125,-0.46875 z m -1.25,4.09375 h 2.5 v 9.90625 h -2.5 z m 9.39466,-0.26563 q 1.40625,0 2.64062,0.70313 1.23438,0.70312 1.92188,1.90625 0.70309,1.20312 0.70309,2.59375 0,1.40625 -0.70309,2.625 -0.6875,1.21875 -1.89063,1.90625 -1.20312,0.6875 -2.65625,0.6875 -2.125,0 -3.64062,-1.51563 -1.5,-1.51562 -1.5,-3.6875 0,-2.3125 1.70312,-3.85937 1.48438,-1.35938 3.42188,-1.35938 z m 0.0469,2.34375 q -1.15625,0 -1.9375,0.8125 -0.76562,0.79688 -0.76562,2.0625 0,1.29688 0.75,2.09375 0.76562,0.79688 1.9375,0.79688 1.17187,0 1.9375,-0.8125 0.78125,-0.8125 0.78125,-2.07813 0,-1.28125 -0.76563,-2.07812 -0.76562,-0.79688 -1.9375,-0.79688 z m 7.23941,-2.07812 h 2.48438 v 1 q 0.84375,-0.70313 1.53125,-0.98438 0.6875,-0.28125 1.40625,-0.28125 1.48437,0 2.51562,1.03125 0.85938,0.875 0.85938,2.59375 v 6.54688 h -2.45313 v -4.34375 q 0,-1.78125 -0.17187,-2.35938 -0.15625,-0.57812 -0.54688,-0.875 -0.39062,-0.3125 -0.98437,-0.3125 -0.75,0 -1.29688,0.5 -0.54687,0.5 -0.75,1.39063 -0.10937,0.46875 -0.10937,2.01562 v 3.98438 h -2.48438 z m 18.63409,-4.09375 h 3.14063 q -1.625,1.84375 -2.42188,3.98437 -0.79687,2.14063 -0.79687,4.89063 0,2.96875 0.89062,5.23437 0.6875,1.73438 2.32813,3.76563 h -3.14063 q -1.46875,-2.3125 -2.04687,-4.32813 -0.57813,-2.01562 -0.57813,-4.75 0,-2.67187 0.60938,-4.6875 0.60937,-2.01562 2.01562,-4.10937 z m 6.44654,0.59375 h 2.48437 l 3.10938,9.35937 3.14062,-9.35937 h 2.45313 l 2.26562,13.40625 h -2.46875 l -1.4375,-8.46875 -2.84375,8.46875 h -2.25 l -2.8125,-8.46875 -1.46875,8.46875 h -2.48437 z m 15.49194,0 h 2.54688 v 10.96875 h 3.71875 v 2.4375 h -6.26563 z m 8.19202,0 h 2.71875 q 2.1875,0 3.15625,0.40625 0.96875,0.40625 1.53125,1.3125 0.5625,0.90625 0.5625,2.17187 0,1.40625 -0.73438,2.34375 -0.73437,0.92188 -1.98437,1.28125 -0.75,0.21875 -2.6875,0.21875 v 5.67188 h -2.5625 z m 2.5625,5.25 h 0.79687 q 0.96875,0 1.34375,-0.14063 0.375,-0.14062 0.57813,-0.45312 0.21875,-0.3125 0.21875,-0.76563 0,-0.76562 -0.60938,-1.125 -0.4375,-0.26562 -1.60937,-0.26562 h -0.71875 z m 10.01111,12.03125 h -3.15625 q 1.625,-1.82813 2.42187,-3.95313 0.79688,-2.14062 0.79688,-4.90625 0,-2.98437 -0.89063,-5.23437 -0.6875,-1.73438 -2.32812,-3.78125 h 3.15625 q 1.45312,2.32812 2.03125,4.34375 0.57812,2.01562 0.57812,4.75 0,2.67187 -0.60937,4.6875 -0.60938,2.01562 -2,4.09375 z"
       fill-rule="nonzero"
       id="path6" />
    <path
       fill="#000000"
       fill-opacity="0"
       d="m 125.55118,290.6404 h 166.11023 v 19.40158 H 125.55118 Z"
       fill-rule="evenodd"
       id="path7" />
    <path
       fill="#000000"
       d="m 146.47305,296.37543 -1.53125,1.53125 q -1.46875,-1.54688 -3.40625,-1.54688 -1.70313,0 -2.84375,1.125 -1.14063,1.125 -1.14063,2.73438 0,1.65625 1.1875,2.8125 1.1875,1.15625 2.92188,1.15625 1.14062,0 1.90625,-0.46875 0.78125,-0.48438 1.26562,-1.5 h -3.32812 v -2.04688 h 5.78125 l 0.0156,0.48438 q 0,1.5 -0.78125,2.85937 -0.78125,1.34375 -2.03125,2.0625 -1.23437,0.71875 -2.90625,0.71875 -1.79687,0 -3.20312,-0.78125 -1.39063,-0.78125 -2.21875,-2.21875 -0.8125,-1.4375 -0.8125,-3.10937 0,-2.28125 1.51562,-3.96875 1.78125,-2 4.65625,-2 1.5,0 2.79688,0.54687 1.10937,0.46875 2.15625,1.60938 z m 2.82812,-1.875 h 2.3125 q 1.89063,0 2.71875,0.35937 0.82813,0.34375 1.3125,1.125 0.48438,0.76563 0.48438,1.85938 0,1.20312 -0.64063,2 -0.625,0.79687 -1.70312,1.10937 -0.625,0.17188 -2.29688,0.17188 v 4.875 h -2.1875 z m 2.1875,4.5 h 0.6875 q 0.82813,0 1.14063,-0.10938 0.32812,-0.125 0.5,-0.39062 0.1875,-0.28125 0.1875,-0.65625 0,-0.67188 -0.51563,-0.96875 -0.375,-0.23438 -1.39062,-0.23438 h -0.60938 z m 6.69532,-4.5 h 2.20312 v 7.4375 q 0,0.96875 0.15625,1.375 0.17188,0.39062 0.5625,0.625 0.39063,0.23437 0.9375,0.23437 0.57813,0 0.98438,-0.26562 0.42187,-0.26563 0.57812,-0.67188 0.17188,-0.40625 0.17188,-1.5625 v -7.17187 h 2.1875 v 6.85937 q 0,1.73438 -0.20313,2.40625 -0.1875,0.67188 -0.73437,1.29688 -0.54688,0.625 -1.26563,0.9375 -0.71875,0.29687 -1.67187,0.29687 -1.25,0 -2.1875,-0.57812 -0.92188,-0.57813 -1.32813,-1.4375 -0.39062,-0.875 -0.39062,-2.92188 z m 25.35937,2.03125 -1.53125,1.45312 q -1.5625,-1.64062 -3.51562,-1.64062 -1.64063,0 -2.78125,1.125 -1.125,1.125 -1.125,2.76562 0,1.15625 0.5,2.04688 0.5,0.89062 1.40625,1.40625 0.92187,0.5 2.04687,0.5 0.95313,0 1.73438,-0.35938 0.79687,-0.35937 1.73437,-1.29687 l 1.48438,1.54687 q -1.26563,1.25 -2.40625,1.73438 -1.125,0.48437 -2.57813,0.48437 -2.6875,0 -4.39062,-1.70312 -1.70313,-1.70313 -1.70313,-4.35938 0,-1.71875 0.76563,-3.04687 0.78125,-1.34375 2.23437,-2.15625 1.45313,-0.8125 3.125,-0.8125 1.42188,0 2.73438,0.60937 1.3125,0.59375 2.26562,1.70313 z m 5.67969,0.75 q 1.20312,0 2.25,0.60937 1.0625,0.59375 1.65625,1.625 0.59375,1.03125 0.59375,2.21875 0,1.20313 -0.59375,2.25 -0.59375,1.04688 -1.625,1.64063 -1.03125,0.59375 -2.28125,0.59375 -1.82813,0 -3.125,-1.29688 -1.28125,-1.3125 -1.28125,-3.17187 0,-1.98438 1.45312,-3.3125 1.28125,-1.15625 2.95313,-1.15625 z m 0.0312,2 q -1,0 -1.65625,0.70312 -0.65625,0.6875 -0.65625,1.76563 0,1.10937 0.64062,1.79687 0.65625,0.6875 1.65625,0.6875 1,0 1.65625,-0.6875 0.67188,-0.70312 0.67188,-1.79687 0,-1.09375 -0.65625,-1.78125 -0.64063,-0.6875 -1.65625,-0.6875 z m 6.19531,-1.78125 h 2.14063 v 0.96875 q 0.54687,-0.59375 1.21875,-0.89063 0.67187,-0.29687 1.45312,-0.29687 0.79688,0 1.4375,0.39062 0.64063,0.39063 1.03125,1.14063 0.51563,-0.75 1.25,-1.14063 0.73438,-0.39062 1.60938,-0.39062 0.90625,0 1.59375,0.42187 0.6875,0.42188 0.98437,1.10938 0.3125,0.67187 0.3125,2.20312 v 4.98438 h -2.15625 v -4.3125 q 0,-1.45313 -0.35937,-1.95313 -0.35938,-0.51562 -1.07813,-0.51562 -0.54687,0 -0.98437,0.3125 -0.42188,0.3125 -0.64063,0.85937 -0.20312,0.54688 -0.20312,1.76563 v 3.84375 h -2.15625 v -4.125 q 0,-1.14063 -0.17188,-1.64063 -0.15625,-0.51562 -0.5,-0.76562 -0.32812,-0.25 -0.8125,-0.25 -0.53125,0 -0.96875,0.3125 -0.42187,0.3125 -0.64062,0.89062 -0.21875,0.5625 -0.21875,1.79688 v 3.78125 h -2.14063 z m 17.17969,0 v 0.9375 q 0.57813,-0.57813 1.25,-0.85938 0.67188,-0.29687 1.4375,-0.29687 1.65625,0 2.8125,1.26562 1.17188,1.25 1.17188,3.21875 0,1.89063 -1.20313,3.17188 -1.20312,1.28125 -2.84375,1.28125 -0.73437,0 -1.375,-0.26563 -0.625,-0.26562 -1.25,-0.85937 v 4.01562 h -2.125 v -11.60937 z m 2.23438,1.75 q -1,0 -1.67188,0.6875 -0.65625,0.6875 -0.65625,1.79687 0,1.125 0.65625,1.82813 0.67188,0.70312 1.67188,0.70312 0.98437,0 1.64062,-0.70312 0.67188,-0.71875 0.67188,-1.82813 0,-1.09375 -0.65625,-1.78125 -0.65625,-0.70312 -1.65625,-0.70312 z m 6.20312,-1.75 h 2.15625 v 4.09375 q 0,1.1875 0.15625,1.65625 0.17188,0.46875 0.53125,0.73437 0.35938,0.25 0.89063,0.25 0.53125,0 0.90625,-0.25 0.375,-0.26562 0.54687,-0.75 0.14063,-0.375 0.14063,-1.57812 v -4.15625 h 2.14062 v 3.59375 q 0,2.23437 -0.35937,3.04687 -0.42188,1 -1.26563,1.54688 -0.82812,0.53125 -2.125,0.53125 -1.39062,0 -2.26562,-0.625 -0.85938,-0.625 -1.20313,-1.75 -0.25,-0.76563 -0.25,-2.8125 z m 9.86719,-3.14063 h 2.125 v 3.14063 h 1.26562 v 1.82812 h -1.26562 v 6.67188 h -2.125 v -6.67188 h -1.09375 v -1.82812 h 1.09375 z m 10.8125,3.14063 h 2.125 v 8.5 h -2.125 v -0.90625 q -0.625,0.59375 -1.25,0.85937 -0.625,0.26563 -1.35938,0.26563 -1.65625,0 -2.85937,-1.28125 -1.20313,-1.28125 -1.20313,-3.17188 0,-1.96875 1.15625,-3.21875 1.17188,-1.26562 2.84375,-1.26562 0.76563,0 1.4375,0.29687 0.67188,0.28125 1.23438,0.85938 z m -2.23438,1.75 q -1,0 -1.65625,0.70312 -0.65625,0.6875 -0.65625,1.78125 0,1.10938 0.67188,1.82813 0.67187,0.70312 1.64062,0.70312 1.01563,0 1.67188,-0.70312 0.67187,-0.70313 0.67187,-1.82813 0,-1.10937 -0.67187,-1.79687 -0.65625,-0.6875 -1.67188,-0.6875 z m 6.78125,-4.89063 h 2.125 v 3.14063 h 1.26563 v 1.82812 h -1.26563 v 6.67188 h -2.125 v -6.67188 h -1.09375 v -1.82812 h 1.09375 z m 5.375,-0.35937 q 0.5625,0 0.95313,0.40625 0.40625,0.40625 0.40625,0.98437 0,0.5625 -0.40625,0.96875 -0.39063,0.40625 -0.9375,0.40625 -0.57813,0 -0.98438,-0.40625 -0.39062,-0.42187 -0.39062,-1 0,-0.5625 0.39062,-0.95312 0.40625,-0.40625 0.96875,-0.40625 z m -1.07812,3.5 h 2.14062 v 8.5 h -2.14062 z m 8.07031,-0.21875 q 1.20313,0 2.25,0.60937 1.0625,0.59375 1.65625,1.625 0.59375,1.03125 0.59375,2.21875 0,1.20313 -0.59375,2.25 -0.59375,1.04688 -1.625,1.64063 -1.03125,0.59375 -2.28125,0.59375 -1.82812,0 -3.125,-1.29688 -1.28125,-1.3125 -1.28125,-3.17187 0,-1.98438 1.45313,-3.3125 1.28125,-1.15625 2.95312,-1.15625 z m 0.0312,2 q -1,0 -1.65625,0.70312 -0.65625,0.6875 -0.65625,1.76563 0,1.10937 0.64063,1.79687 0.65625,0.6875 1.65625,0.6875 1,0 1.65625,-0.6875 0.67187,-0.70312 0.67187,-1.79687 0,-1.09375 -0.65625,-1.78125 -0.64062,-0.6875 -1.65625,-0.6875 z m 6.21094,-1.78125 h 2.125 v 0.85937 q 0.73437,-0.60937 1.3125,-0.84375 0.59375,-0.23437 1.21875,-0.23437 1.26562,0 2.14062,0.875 0.75,0.75 0.75,2.21875 v 5.625 h -2.10937 v -3.73438 q 0,-1.51562 -0.14063,-2.01562 -0.14062,-0.5 -0.48437,-0.76563 -0.32813,-0.26562 -0.82813,-0.26562 -0.65625,0 -1.125,0.4375 -0.45312,0.4375 -0.64062,1.20312 -0.0937,0.39063 -0.0937,1.71875 v 3.42188 h -2.125 z m 10.77344,-0.21875 q 0.5,0 0.85937,0.35937 0.35938,0.35938 0.35938,0.85938 0,0.5 -0.35938,0.85937 -0.35937,0.35938 -0.85937,0.35938 -0.51563,0 -0.875,-0.34375 -0.35938,-0.35938 -0.35938,-0.875 0,-0.5 0.35938,-0.85938 0.35937,-0.35937 0.875,-0.35937 z m 0,6.48437 q 0.5,0 0.85937,0.35938 0.35938,0.35937 0.35938,0.85937 0,0.51563 -0.35938,0.875 -0.35937,0.35938 -0.85937,0.35938 -0.51563,0 -0.875,-0.35938 -0.35938,-0.35937 -0.35938,-0.875 0,-0.5 0.35938,-0.85937 0.35937,-0.35938 0.875,-0.35938 z"
       fill-rule="nonzero"
       id="path8" />
    <path
       fill="#000000"
       fill-opacity="0"
       d="m 125.55118,332.53018 h 186.96063 v 19.40158 H 125.55118 Z"
       fill-rule="evenodd"
       id="path9" />
    <path
       fill="#000000"
       d="m 146.47305,338.2652 -1.53125,1.53125 q -1.46875,-1.54688 -3.40625,-1.54688 -1.70313,0 -2.84375,1.125 -1.14063,1.125 -1.14063,2.73438 0,1.65625 1.1875,2.8125 1.1875,1.15625 2.92188,1.15625 1.14062,0 1.90625,-0.46875 0.78125,-0.48438 1.26562,-1.5 h -3.32812 v -2.04688 h 5.78125 l 0.0156,0.48438 q 0,1.5 -0.78125,2.85937 -0.78125,1.34375 -2.03125,2.0625 -1.23437,0.71875 -2.90625,0.71875 -1.79687,0 -3.20312,-0.78125 -1.39063,-0.78125 -2.21875,-2.21875 -0.8125,-1.4375 -0.8125,-3.10937 0,-2.28125 1.51562,-3.96875 1.78125,-2 4.65625,-2 1.5,0 2.79688,0.54687 1.10937,0.46875 2.15625,1.60938 z m 2.82812,-1.875 h 2.3125 q 1.89063,0 2.71875,0.35937 0.82813,0.34375 1.3125,1.125 0.48438,0.76563 0.48438,1.85938 0,1.20312 -0.64063,2 -0.625,0.79687 -1.70312,1.10937 -0.625,0.17188 -2.29688,0.17188 v 4.875 h -2.1875 z m 2.1875,4.5 h 0.6875 q 0.82813,0 1.14063,-0.10938 0.32812,-0.125 0.5,-0.39062 0.1875,-0.28125 0.1875,-0.65625 0,-0.67188 -0.51563,-0.96875 -0.375,-0.23438 -1.39062,-0.23438 h -0.60938 z m 6.69532,-4.5 h 2.20312 v 7.4375 q 0,0.96875 0.15625,1.375 0.17188,0.39062 0.5625,0.625 0.39063,0.23437 0.9375,0.23437 0.57813,0 0.98438,-0.26562 0.42187,-0.26563 0.57812,-0.67188 0.17188,-0.40625 0.17188,-1.5625 v -7.17187 h 2.1875 v 6.85937 q 0,1.73438 -0.20313,2.40625 -0.1875,0.67188 -0.73437,1.29688 -0.54688,0.625 -1.26563,0.9375 -0.71875,0.29687 -1.67187,0.29687 -1.25,0 -2.1875,-0.57812 -0.92188,-0.57813 -1.32813,-1.4375 -0.39062,-0.875 -0.39062,-2.92188 z m 25.35937,2.03125 -1.53125,1.45312 q -1.5625,-1.64062 -3.51562,-1.64062 -1.64063,0 -2.78125,1.125 -1.125,1.125 -1.125,2.76562 0,1.15625 0.5,2.04688 0.5,0.89062 1.40625,1.40625 0.92187,0.5 2.04687,0.5 0.95313,0 1.73438,-0.35938 0.79687,-0.35937 1.73437,-1.29687 l 1.48438,1.54687 q -1.26563,1.25 -2.40625,1.73438 -1.125,0.48437 -2.57813,0.48437 -2.6875,0 -4.39062,-1.70312 -1.70313,-1.70313 -1.70313,-4.35938 0,-1.71875 0.76563,-3.04687 0.78125,-1.34375 2.23437,-2.15625 1.45313,-0.8125 3.125,-0.8125 1.42188,0 2.73438,0.60937 1.3125,0.59375 2.26562,1.70313 z m 5.67969,0.75 q 1.20312,0 2.25,0.60937 1.0625,0.59375 1.65625,1.625 0.59375,1.03125 0.59375,2.21875 0,1.20313 -0.59375,2.25 -0.59375,1.04688 -1.625,1.64063 -1.03125,0.59375 -2.28125,0.59375 -1.82813,0 -3.125,-1.29688 -1.28125,-1.3125 -1.28125,-3.17187 0,-1.98438 1.45312,-3.3125 1.28125,-1.15625 2.95313,-1.15625 z m 0.0312,2 q -1,0 -1.65625,0.70312 -0.65625,0.6875 -0.65625,1.76563 0,1.10937 0.64062,1.79687 0.65625,0.6875 1.65625,0.6875 1,0 1.65625,-0.6875 0.67188,-0.70312 0.67188,-1.79687 0,-1.09375 -0.65625,-1.78125 -0.64063,-0.6875 -1.65625,-0.6875 z m 6.19531,-1.78125 h 2.14063 v 0.96875 q 0.54687,-0.59375 1.21875,-0.89063 0.67187,-0.29687 1.45312,-0.29687 0.79688,0 1.4375,0.39062 0.64063,0.39063 1.03125,1.14063 0.51563,-0.75 1.25,-1.14063 0.73438,-0.39062 1.60938,-0.39062 0.90625,0 1.59375,0.42187 0.6875,0.42188 0.98437,1.10938 0.3125,0.67187 0.3125,2.20312 v 4.98438 h -2.15625 v -4.3125 q 0,-1.45313 -0.35937,-1.95313 -0.35938,-0.51562 -1.07813,-0.51562 -0.54687,0 -0.98437,0.3125 -0.42188,0.3125 -0.64063,0.85937 -0.20312,0.54688 -0.20312,1.76563 v 3.84375 h -2.15625 v -4.125 q 0,-1.14063 -0.17188,-1.64063 -0.15625,-0.51562 -0.5,-0.76562 -0.32812,-0.25 -0.8125,-0.25 -0.53125,0 -0.96875,0.3125 -0.42187,0.3125 -0.64062,0.89062 -0.21875,0.5625 -0.21875,1.79688 v 3.78125 h -2.14063 z m 15.03906,0 h 2.14063 v 0.96875 q 0.54687,-0.59375 1.21875,-0.89063 0.67187,-0.29687 1.45312,-0.29687 0.79688,0 1.4375,0.39062 0.64063,0.39063 1.03125,1.14063 0.51563,-0.75 1.25,-1.14063 0.73438,-0.39062 1.60938,-0.39062 0.90625,0 1.59375,0.42187 0.6875,0.42188 0.98437,1.10938 0.3125,0.67187 0.3125,2.20312 v 4.98438 h -2.15625 v -4.3125 q 0,-1.45313 -0.35937,-1.95313 -0.35938,-0.51562 -1.07813,-0.51562 -0.54687,0 -0.98437,0.3125 -0.42188,0.3125 -0.64063,0.85937 -0.20312,0.54688 -0.20312,1.76563 v 3.84375 h -2.15625 v -4.125 q 0,-1.14063 -0.17188,-1.64063 -0.15625,-0.51562 -0.5,-0.76562 -0.32812,-0.25 -0.8125,-0.25 -0.53125,0 -0.96875,0.3125 -0.42187,0.3125 -0.64062,0.89062 -0.21875,0.5625 -0.21875,1.79688 v 3.78125 h -2.14063 z m 15.05469,0 h 2.15625 v 4.09375 q 0,1.1875 0.15625,1.65625 0.17188,0.46875 0.53125,0.73437 0.35938,0.25 0.89063,0.25 0.53125,0 0.90625,-0.25 0.375,-0.26562 0.54687,-0.75 0.14063,-0.375 0.14063,-1.57812 v -4.15625 h 2.14062 v 3.59375 q 0,2.23437 -0.35937,3.04687 -0.42188,1 -1.26563,1.54688 -0.82812,0.53125 -2.125,0.53125 -1.39062,0 -2.26562,-0.625 -0.85938,-0.625 -1.20313,-1.75 -0.25,-0.76563 -0.25,-2.8125 z m 9.60156,0 h 2.125 v 0.85937 q 0.73438,-0.60937 1.3125,-0.84375 0.59375,-0.23437 1.21875,-0.23437 1.26563,0 2.14063,0.875 0.75,0.75 0.75,2.21875 v 5.625 h -2.10938 v -3.73438 q 0,-1.51562 -0.14062,-2.01562 -0.14063,-0.5 -0.48438,-0.76563 -0.32812,-0.26562 -0.82812,-0.26562 -0.65625,0 -1.125,0.4375 -0.45313,0.4375 -0.64063,1.20312 -0.0937,0.39063 -0.0937,1.71875 v 3.42188 h -2.125 z m 10.44532,-3.5 q 0.5625,0 0.95312,0.40625 0.40625,0.40625 0.40625,0.98437 0,0.5625 -0.40625,0.96875 -0.39062,0.40625 -0.9375,0.40625 -0.57812,0 -0.98437,-0.40625 -0.39063,-0.42187 -0.39063,-1 0,-0.5625 0.39063,-0.95312 0.40625,-0.40625 0.96875,-0.40625 z m -1.07813,3.5 h 2.14063 v 8.5 h -2.14063 z m 12.39844,1.71875 -1.78125,0.96875 q -0.5,-0.51563 -0.98438,-0.71875 -0.48437,-0.20313 -1.14062,-0.20313 -1.20313,0 -1.9375,0.71875 -0.73438,0.70313 -0.73438,1.82813 0,1.07812 0.70313,1.76562 0.71875,0.6875 1.875,0.6875 1.42187,0 2.21875,-0.96875 l 1.6875,1.14063 q -1.375,1.78125 -3.85938,1.78125 -2.25,0 -3.51562,-1.32813 -1.26563,-1.32812 -1.26563,-3.10937 0,-1.23438 0.60938,-2.26563 0.625,-1.04687 1.71875,-1.64062 1.10937,-0.59375 2.48437,-0.59375 1.26563,0 2.26563,0.5 1.01562,0.5 1.65625,1.4375 z m 8.19531,-1.71875 h 2.125 v 8.5 h -2.125 v -0.90625 q -0.625,0.59375 -1.25,0.85937 -0.625,0.26563 -1.35937,0.26563 -1.65625,0 -2.85938,-1.28125 -1.20312,-1.28125 -1.20312,-3.17188 0,-1.96875 1.15625,-3.21875 1.17187,-1.26562 2.84375,-1.26562 0.76562,0 1.4375,0.29687 0.67187,0.28125 1.23437,0.85938 z m -2.23437,1.75 q -1,0 -1.65625,0.70312 -0.65625,0.6875 -0.65625,1.78125 0,1.10938 0.67187,1.82813 0.67188,0.70312 1.64063,0.70312 1.01562,0 1.67187,-0.70312 0.67188,-0.70313 0.67188,-1.82813 0,-1.10937 -0.67188,-1.79687 -0.65625,-0.6875 -1.67187,-0.6875 z m 6.78125,-4.89063 h 2.125 v 3.14063 h 1.26562 v 1.82812 h -1.26562 v 6.67188 h -2.125 v -6.67188 h -1.09375 v -1.82812 h 1.09375 z m 5.375,-0.35937 q 0.5625,0 0.95312,0.40625 0.40625,0.40625 0.40625,0.98437 0,0.5625 -0.40625,0.96875 -0.39062,0.40625 -0.9375,0.40625 -0.57812,0 -0.98437,-0.40625 -0.39063,-0.42187 -0.39063,-1 0,-0.5625 0.39063,-0.95312 0.40625,-0.40625 0.96875,-0.40625 z m -1.07813,3.5 h 2.14063 v 8.5 h -2.14063 z m 8.07031,-0.21875 q 1.20313,0 2.25,0.60937 1.0625,0.59375 1.65625,1.625 0.59375,1.03125 0.59375,2.21875 0,1.20313 -0.59375,2.25 -0.59375,1.04688 -1.625,1.64063 -1.03125,0.59375 -2.28125,0.59375 -1.82812,0 -3.125,-1.29688 -1.28125,-1.3125 -1.28125,-3.17187 0,-1.98438 1.45313,-3.3125 1.28125,-1.15625 2.95312,-1.15625 z m 0.0312,2 q -1,0 -1.65625,0.70312 -0.65625,0.6875 -0.65625,1.76563 0,1.10937 0.64063,1.79687 0.65625,0.6875 1.65625,0.6875 1,0 1.65625,-0.6875 0.67187,-0.70312 0.67187,-1.79687 0,-1.09375 -0.65625,-1.78125 -0.64062,-0.6875 -1.65625,-0.6875 z m 6.21094,-1.78125 h 2.125 v 0.85937 q 0.73438,-0.60937 1.3125,-0.84375 0.59375,-0.23437 1.21875,-0.23437 1.26563,0 2.14063,0.875 0.75,0.75 0.75,2.21875 v 5.625 h -2.10938 v -3.73438 q 0,-1.51562 -0.14062,-2.01562 -0.14063,-0.5 -0.48438,-0.76563 -0.32812,-0.26562 -0.82812,-0.26562 -0.65625,0 -1.125,0.4375 -0.45313,0.4375 -0.64063,1.20312 -0.0937,0.39063 -0.0937,1.71875 v 3.42188 h -2.125 z m 10.77344,-0.21875 q 0.5,0 0.85937,0.35937 0.35938,0.35938 0.35938,0.85938 0,0.5 -0.35938,0.85937 -0.35937,0.35938 -0.85937,0.35938 -0.51563,0 -0.875,-0.34375 -0.35938,-0.35938 -0.35938,-0.875 0,-0.5 0.35938,-0.85938 0.35937,-0.35937 0.875,-0.35937 z m 0,6.48437 q 0.5,0 0.85937,0.35938 0.35938,0.35937 0.35938,0.85937 0,0.51563 -0.35938,0.875 -0.35937,0.35938 -0.85937,0.35938 -0.51563,0 -0.875,-0.35938 -0.35938,-0.35937 -0.35938,-0.875 0,-0.5 0.35938,-0.85937 0.35937,-0.35938 0.875,-0.35938 z"
       fill-rule="nonzero"
       id="path10" />
    <path
       fill="#cec0fa"
       d="m 605.39703,328.26785 v 0 c 0,-3.85593 3.12585,-6.98175 6.98181,-6.98175 h 53.24902 c 1.85169,0 3.62751,0.73556 4.93689,2.04489 1.30933,1.30936 2.04486,3.08518 2.04486,4.93686 v 27.92624 c 0,3.85593 -3.12579,6.98175 -6.98175,6.98175 h -53.24902 c -3.85596,0 -6.98181,-3.12582 -6.98181,-6.98175 z"
       fill-rule="evenodd"
       id="path11" />
    <path
       stroke="#000000"
       stroke-width="1"
       stroke-linejoin="round"
       stroke-linecap="butt"
       d="m 605.39703,328.26785 v 0 c 0,-3.85593 3.12585,-6.98175 6.98181,-6.98175 h 53.24902 c 1.85169,0 3.62751,0.73556 4.93689,2.04489 1.30933,1.30936 2.04486,3.08518 2.04486,4.93686 v 27.92624 c 0,3.85593 -3.12579,6.98175 -6.98175,6.98175 h -53.24902 c -3.85596,0 -6.98181,-3.12582 -6.98181,-6.98175 z"
       fill-rule="evenodd"
       id="path12" />
    <path
       fill="#ffffff"
       d="m 632.891,337.45285 h 1.9375 q 1.57812,0 2.25,0.29687 0.67187,0.28125 1.07812,0.9375 0.42188,0.65625 0.42188,1.54688 0,0.95312 -0.45313,1.59375 -0.45312,0.625 -1.35937,0.95312 l 2.26562,4.25 h -2 l -2.15625,-4.04687 h -0.15625 v 4.04687 H 632.891 Z m 1.82812,3.75 h 0.5625 q 0.875,0 1.20313,-0.21875 0.32812,-0.23438 0.32812,-0.76563 0,-0.3125 -0.17187,-0.54687 -0.15625,-0.23438 -0.4375,-0.32813 -0.26563,-0.10937 -0.98438,-0.10937 h -0.5 z m 10.79383,-2.4375 -1.34375,1.1875 q -0.71875,-0.98438 -1.45313,-0.98438 -0.34375,0 -0.57812,0.1875 -0.23438,0.1875 -0.23438,0.4375 0,0.23438 0.17188,0.45313 0.21875,0.28125 1.32812,1.21875 1.04688,0.875 1.26563,1.10937 0.54687,0.5625 0.78125,1.07813 0.23437,0.5 0.23437,1.10937 0,1.17188 -0.8125,1.9375 -0.8125,0.76563 -2.125,0.76563 -1.01562,0 -1.78125,-0.5 -0.75,-0.5 -1.29687,-1.5625 l 1.53125,-0.9375 q 0.6875,1.28125 1.59375,1.28125 0.46875,0 0.78125,-0.26563 0.3125,-0.28125 0.3125,-0.64062 0,-0.32813 -0.23438,-0.65625 -0.23437,-0.32813 -1.0625,-1 -1.5625,-1.26563 -2.01562,-1.95313 -0.45313,-0.70312 -0.45313,-1.39062 0,-1 0.75,-1.70313 0.76563,-0.71875 1.875,-0.71875 0.71875,0 1.35938,0.32813 0.65625,0.32812 1.40625,1.21875 z"
       fill-rule="nonzero"
       id="path13" />
    <path
       fill="#e889ab"
       d="m 368.72513,328.26785 v 0 c 0,-3.85593 3.12585,-6.98175 6.98178,-6.98175 h 53.24905 c 1.85169,0 3.62754,0.73556 4.93686,2.04489 1.30933,1.30936 2.04493,3.08518 2.04493,4.93686 v 27.92624 c 0,3.85593 -3.12586,6.98175 -6.98179,6.98175 h -53.24905 c -3.85593,0 -6.98178,-3.12582 -6.98178,-6.98175 z"
       fill-rule="evenodd"
       id="path14" />
    <path
       stroke="#000000"
       stroke-width="1"
       stroke-linejoin="round"
       stroke-linecap="butt"
       d="m 368.72513,328.26785 v 0 c 0,-3.85593 3.12585,-6.98175 6.98178,-6.98175 h 53.24905 c 1.85169,0 3.62754,0.73556 4.93686,2.04489 1.30933,1.30936 2.04493,3.08518 2.04493,4.93686 v 27.92624 c 0,3.85593 -3.12586,6.98175 -6.98179,6.98175 h -53.24905 c -3.85593,0 -6.98178,-3.12582 -6.98178,-6.98175 z"
       fill-rule="evenodd"
       id="path15" />
    <path
       fill="#ffffff"
       d="m 395.82056,337.45285 h 1.84375 l 3.6875,9.57812 h -1.90625 l -0.75,-1.96875 h -3.89063 l -0.78125,1.96875 h -1.90625 z m 0.9375,2.54687 -1.28125,3.28125 h 2.54687 z m 14.84381,-0.98437 -1.28125,1.28125 q -1.21875,-1.29688 -2.84375,-1.29688 -1.40625,0 -2.35937,0.9375 -0.95313,0.9375 -0.95313,2.28125 0,1.39063 0.98438,2.35938 0.98437,0.95312 2.4375,0.95312 0.9375,0 1.57812,-0.39062 0.65625,-0.40625 1.0625,-1.25 h -2.78125 v -1.71875 h 4.8125 l 0.0156,0.40625 q 0,1.25 -0.65625,2.39062 -0.64063,1.125 -1.67188,1.71875 -1.03125,0.57813 -2.4375,0.57813 -1.48437,0 -2.65625,-0.64063 -1.15625,-0.64062 -1.84375,-1.84375 -0.6875,-1.20312 -0.6875,-2.57812 0,-1.90625 1.26563,-3.3125 1.48437,-1.67188 3.875,-1.67188 1.25,0 2.34375,0.45313 0.90625,0.39062 1.79687,1.34375 z"
       fill-rule="nonzero"
       id="path16" />
    <path
       fill="#4ea5b7"
       d="m 417.6551,286.37808 v 0 c 0,-3.85593 3.12585,-6.98175 6.98178,-6.98175 h 48.08371 c 1.85169,0 3.62753,0.73556 4.93686,2.04489 1.30933,1.30936 2.04492,3.08518 2.04492,4.93686 v 27.92624 c 0,3.85593 -3.12585,6.98178 -6.98178,6.98178 h -48.08371 c -3.85593,0 -6.98178,-3.12585 -6.98178,-6.98178 z"
       fill-rule="evenodd"
       id="path17" />
    <path
       stroke="#000000"
       stroke-width="1"
       stroke-linejoin="round"
       stroke-linecap="butt"
       d="m 417.6551,286.37808 v 0 c 0,-3.85593 3.12585,-6.98175 6.98178,-6.98175 h 48.08371 c 1.85169,0 3.62753,0.73556 4.93686,2.04489 1.30933,1.30936 2.04492,3.08518 2.04492,4.93686 v 27.92624 c 0,3.85593 -3.12585,6.98178 -6.98178,6.98178 h -48.08371 c -3.85593,0 -6.98178,-3.12585 -6.98178,-6.98178 z"
       fill-rule="evenodd"
       id="path18" />
    <path
       fill="#ffffff"
       d="m 437.6763,295.56308 h 4.75 v 1.78125 h -2.95312 v 1.73438 h 2.95312 v 1.75 h -2.95312 v 4.3125 h -1.79688 z m 15.16287,1.6875 -1.28125,1.21875 q -1.29687,-1.375 -2.92187,-1.375 -1.375,0 -2.3125,0.9375 -0.9375,0.9375 -0.9375,2.3125 0,0.95313 0.40625,1.70313 0.42187,0.73437 1.1875,1.15625 0.76562,0.42187 1.6875,0.42187 0.79687,0 1.45312,-0.29687 0.65625,-0.29688 1.4375,-1.07813 l 1.25,1.29688 q -1.0625,1.03125 -2.01562,1.4375 -0.9375,0.39062 -2.15625,0.39062 -2.21875,0 -3.64063,-1.40625 -1.42187,-1.42187 -1.42187,-3.625 0,-1.4375 0.64062,-2.54687 0.64063,-1.10938 1.84375,-1.78125 1.21875,-0.6875 2.60938,-0.6875 1.1875,0 2.28125,0.5 1.09375,0.5 1.89062,1.42187 z m 2.68994,-1.6875 h 2.73438 v 9.57813 h -1.8125 v -7.85938 h -1.96875 z"
       fill-rule="nonzero"
       id="path19" />
    <path
       fill="#e889ab"
       d="m 806.04724,252.98695 v 0 c 0,-2.08162 1.6875,-3.7691 3.7691,-3.7691 h 112.3988 c 0.99964,0 1.95832,0.39709 2.66517,1.10394 0.70684,0.70685 1.10394,1.66553 1.10394,2.66516 v 15.07597 c 0,2.08161 -1.6875,3.76911 -3.76911,3.76911 h -112.3988 v 0 c -2.0816,0 -3.7691,-1.6875 -3.7691,-3.76911 z"
       fill-rule="evenodd"
       id="path20" />
    <path
       stroke="#000000"
       stroke-width="1"
       stroke-linejoin="round"
       stroke-linecap="butt"
       d="m 806.04724,252.98695 v 0 c 0,-2.08162 1.6875,-3.7691 3.7691,-3.7691 h 112.3988 c 0.99964,0 1.95832,0.39709 2.66517,1.10394 0.70684,0.70685 1.10394,1.66553 1.10394,2.66516 v 15.07597 c 0,2.08161 -1.6875,3.76911 -3.76911,3.76911 h -112.3988 v 0 c -2.0816,0 -3.7691,-1.6875 -3.7691,-3.76911 z"
       fill-rule="evenodd"
       id="path21" />
    <path
       fill="#ffffff"
       d="m 827.775,256.60867 h 1.48437 l 2.9375,7.65625 h -1.51562 l -0.59375,-1.57812 h -3.125 l -0.625,1.57812 h -1.51563 z m 0.75,2.03125 -1.01563,2.625 h 2.03125 z m 4.49231,-2.21875 h 1.42187 v 7.84375 h -1.42187 z m 2.55475,0 h 1.42187 v 7.84375 h -1.42187 z m 9.92981,1.4375 -1.01563,1.01563 q -0.98437,-1.03125 -2.28125,-1.03125 -1.125,0 -1.89062,0.75 -0.75,0.75 -0.75,1.82812 0,1.10938 0.78125,1.875 0.79687,0.76563 1.95312,0.76563 0.75,0 1.26563,-0.3125 0.53125,-0.32813 0.84375,-1 h -2.21875 v -1.35938 h 3.84375 l 0.0156,0.3125 q 0,1 -0.51562,1.90625 -0.51563,0.90625 -1.34375,1.375 -0.82813,0.46875 -1.95313,0.46875 -1.1875,0 -2.125,-0.51562 -0.92187,-0.51563 -1.46875,-1.46875 -0.54687,-0.95313 -0.54687,-2.0625 0,-1.53125 1,-2.65625 1.1875,-1.32813 3.10937,-1.32813 1,0 1.85938,0.35938 0.73437,0.3125 1.4375,1.07812 z m 5.91833,0.75 h 1.40625 v 5.65625 h -1.40625 v -0.59375 q -0.42187,0.39063 -0.84375,0.5625 -0.42187,0.17188 -0.90625,0.17188 -1.09375,0 -1.90625,-0.84375 -0.79687,-0.85938 -0.79687,-2.10938 0,-1.3125 0.78125,-2.15625 0.78125,-0.84375 1.875,-0.84375 0.51562,0 0.95312,0.20313 0.45313,0.1875 0.84375,0.57812 z m -1.5,1.15625 q -0.65625,0 -1.09375,0.46875 -0.4375,0.46875 -0.4375,1.20313 0,0.71875 0.4375,1.20312 0.45313,0.46875 1.09375,0.46875 0.67188,0 1.10938,-0.46875 0.45312,-0.46875 0.45312,-1.21875 0,-0.73437 -0.45312,-1.1875 -0.4375,-0.46875 -1.10938,-0.46875 z m 4.51917,-3.25 h 1.42187 v 2.09375 h 0.82813 v 1.21875 h -0.82813 v 4.4375 h -1.42187 v -4.4375 h -0.73438 v -1.21875 h 0.73438 z m 3.02295,-0.0937 h 1.42187 v 2.75 q 0.40625,-0.35937 0.82813,-0.53125 0.42187,-0.1875 0.85937,-0.1875 0.84375,0 1.42188,0.59375 0.48437,0.5 0.48437,1.48438 v 3.73437 h -1.39062 v -2.48437 q 0,-0.98438 -0.0937,-1.32813 -0.0937,-0.34375 -0.32813,-0.51562 -0.21875,-0.17188 -0.5625,-0.17188 -0.42187,0 -0.73437,0.28125 -0.3125,0.28125 -0.42188,0.78125 -0.0625,0.25 -0.0625,1.15625 v 2.28125 h -1.42187 z m 12.06665,5.42188 h -4.5625 q 0.0937,0.60937 0.51562,0.96875 0.4375,0.34375 1.10938,0.34375 0.79687,0 1.35937,-0.54688 l 1.20313,0.5625 q -0.45313,0.625 -1.07813,0.9375 -0.625,0.29688 -1.48437,0.29688 -1.32813,0 -2.17188,-0.82813 -0.82812,-0.84375 -0.82812,-2.10937 0,-1.29688 0.82812,-2.15625 0.84375,-0.85938 2.09375,-0.85938 1.34375,0 2.17188,0.85938 0.84375,0.85937 0.84375,2.26562 z m -1.42188,-1.10938 q -0.14062,-0.48437 -0.5625,-0.78125 -0.40625,-0.29687 -0.95312,-0.29687 -0.59375,0 -1.04688,0.34375 -0.28125,0.20312 -0.51562,0.73437 z m 2.24335,-2.125 h 1.21875 v 0.70313 q 0.1875,-0.42188 0.51562,-0.64063 0.32813,-0.21875 0.71875,-0.21875 0.28125,0 0.57813,0.15625 l -0.4375,1.21875 q -0.25,-0.125 -0.40625,-0.125 -0.32813,0 -0.5625,0.40625 -0.21875,0.40625 -0.21875,1.59375 v 0.26563 2.29687 h -1.40625 z m 9.20209,-2 h 1.48437 l 2.9375,7.65625 h -1.51562 l -0.59375,-1.57812 h -3.125 l -0.625,1.57812 h -1.51563 z m 0.75,2.03125 -1.01563,2.625 h 2.03125 z m 10.19537,1.10938 -1.1875,0.65625 q -0.32812,-0.35938 -0.65625,-0.48438 -0.32812,-0.14062 -0.76562,-0.14062 -0.79688,0 -1.29688,0.48437 -0.48437,0.46875 -0.48437,1.21875 0,0.71875 0.46875,1.17188 0.48437,0.45312 1.25,0.45312 0.95312,0 1.48437,-0.64062 l 1.125,0.76562 q -0.92187,1.17188 -2.57812,1.17188 -1.48438,0 -2.34375,-0.875 -0.84375,-0.89063 -0.84375,-2.07813 0,-0.8125 0.40625,-1.5 0.42187,-0.70312 1.15625,-1.09375 0.73437,-0.40625 1.64062,-0.40625 0.84375,0 1.51563,0.34375 0.67187,0.32813 1.10937,0.95313 z m 1.44647,-3.23438 h 1.42188 v 2.09375 h 0.82812 v 1.21875 h -0.82812 v 4.4375 h -1.42188 v -4.4375 H 891.21 v -1.21875 h 0.73437 z m 3.58545,-0.25 q 0.375,0 0.64063,0.28125 0.26562,0.26563 0.26562,0.65625 0,0.375 -0.26562,0.64063 -0.26563,0.26562 -0.64063,0.26562 -0.375,0 -0.64062,-0.26562 -0.26563,-0.28125 -0.26563,-0.67188 0,-0.375 0.26563,-0.64062 0.26562,-0.26563 0.64062,-0.26563 z m -0.71875,2.34375 h 1.42188 v 5.65625 h -1.42188 z m 2.10163,0 h 1.45312 l 1.42188,3.32813 1.42187,-3.32813 h 1.45313 l -2.42188,5.65625 h -0.90625 z m 10.04626,0.78125 -0.89062,0.89063 q -0.53125,-0.53125 -0.96875,-0.53125 -0.23438,0 -0.375,0.10937 -0.125,0.0937 -0.125,0.23438 0,0.125 0.0781,0.21875 0.0937,0.0937 0.42188,0.26562 l 0.51562,0.25 q 0.82813,0.40625 1.125,0.82813 0.3125,0.42187 0.3125,0.98437 0,0.76563 -0.5625,1.26563 -0.54687,0.5 -1.46875,0.5 -1.23437,0 -1.98437,-0.96875 l 0.875,-0.95313 q 0.25,0.29688 0.57812,0.48438 0.34375,0.17187 0.60938,0.17187 0.28125,0 0.45312,-0.125 0.17188,-0.14062 0.17188,-0.32812 0,-0.32813 -0.625,-0.64063 l -0.46875,-0.23437 q -1.375,-0.6875 -1.375,-1.73438 0,-0.67187 0.51562,-1.14062 0.51563,-0.48438 1.32813,-0.48438 0.54687,0 1.03125,0.25 0.48437,0.23438 0.82812,0.6875 z"
       fill-rule="nonzero"
       id="path22" />
    <path
       fill="#cec0fa"
       d="m 806.04724,280.7586 v 0 c 0,-2.0816 1.6875,-3.7691 3.7691,-3.7691 h 112.3988 c 0.99964,0 1.95832,0.39709 2.66517,1.10394 0.70684,0.70685 1.10394,1.66553 1.10394,2.66516 v 15.07596 c 0,2.08163 -1.6875,3.7691 -3.76911,3.7691 h -112.3988 v 0 c -2.0816,0 -3.7691,-1.68747 -3.7691,-3.7691 z"
       fill-rule="evenodd"
       id="path23" />
    <path
       stroke="#000000"
       stroke-width="1"
       stroke-linejoin="round"
       stroke-linecap="butt"
       d="m 806.04724,280.7586 v 0 c 0,-2.0816 1.6875,-3.7691 3.7691,-3.7691 h 112.3988 c 0.99964,0 1.95832,0.39709 2.66517,1.10394 0.70684,0.70685 1.10394,1.66553 1.10394,2.66516 v 15.07596 c 0,2.08163 -1.6875,3.7691 -3.76911,3.7691 h -112.3988 v 0 c -2.0816,0 -3.7691,-1.68747 -3.7691,-3.7691 z"
       fill-rule="evenodd"
       id="path24" />
    <path
       fill="#ffffff"
       d="m 811.8925,284.38034 h 1.54688 q 1.26562,0 1.79687,0.23437 0.54688,0.21875 0.875,0.75 0.32813,0.51563 0.32813,1.23438 0,0.76562 -0.35938,1.28125 -0.35937,0.5 -1.09375,0.75 l 1.8125,3.40625 H 815.205 l -1.71875,-3.23438 h -0.125 v 3.23438 h -1.46875 z m 1.46875,3 h 0.45313 q 0.6875,0 0.95312,-0.1875 0.26563,-0.1875 0.26563,-0.60938 0,-0.25 -0.14063,-0.42187 -0.125,-0.1875 -0.34375,-0.26563 -0.21875,-0.0937 -0.79687,-0.0937 h -0.39063 z m 10.13458,2.23437 h -4.5625 q 0.0937,0.60938 0.51563,0.96875 0.4375,0.34375 1.10937,0.34375 0.79688,0 1.35938,-0.54687 l 1.20312,0.5625 q -0.45312,0.625 -1.07812,0.9375 -0.625,0.29687 -1.48438,0.29687 -1.32812,0 -2.17187,-0.82812 -0.82813,-0.84375 -0.82813,-2.10938 0,-1.29687 0.82813,-2.15625 0.84375,-0.85937 2.09375,-0.85937 1.34375,0 2.17187,0.85937 0.84375,0.85938 0.84375,2.26563 z m -1.42187,-1.10937 q -0.14063,-0.48438 -0.5625,-0.78125 -0.40625,-0.29688 -0.95313,-0.29688 -0.59375,0 -1.04687,0.34375 -0.28125,0.20313 -0.51563,0.73438 z m 6.75897,-4.3125 h 1.40625 v 7.84375 h -1.40625 v -0.59375 q -0.42188,0.39062 -0.84375,0.5625 -0.42188,0.17187 -0.90625,0.17187 -1.09375,0 -1.90625,-0.84375 -0.79688,-0.85937 -0.79688,-2.10937 0,-1.3125 0.78125,-2.15625 0.78125,-0.84375 1.875,-0.84375 0.51563,0 0.95313,0.20312 0.45312,0.1875 0.84375,0.57813 z m -1.5,3.34375 q -0.65625,0 -1.09375,0.46875 -0.4375,0.46875 -0.4375,1.20312 0,0.71875 0.4375,1.20313 0.45312,0.46875 1.09375,0.46875 0.67187,0 1.10937,-0.46875 0.45313,-0.46875 0.45313,-1.21875 0,-0.73438 -0.45313,-1.1875 -0.4375,-0.46875 -1.10937,-0.46875 z m 4.34729,-1.15625 h 1.4375 v 2.71875 q 0,0.79687 0.10937,1.10937 0.10938,0.3125 0.34375,0.48438 0.23438,0.17187 0.59375,0.17187 0.35938,0 0.59375,-0.17187 0.25,-0.17188 0.375,-0.5 0.0937,-0.25 0.0937,-1.04688 v -2.76562 h 1.42188 v 2.39062 q 0,1.48438 -0.23438,2.03125 -0.28125,0.67188 -0.84375,1.03125 -0.5625,0.34375 -1.42187,0.34375 -0.92188,0 -1.5,-0.40625 -0.57813,-0.42187 -0.8125,-1.17187 -0.15625,-0.51563 -0.15625,-1.85938 z m 11.94165,1.14062 -1.1875,0.65625 q -0.32813,-0.35937 -0.65625,-0.48437 -0.32813,-0.14063 -0.76563,-0.14063 -0.79687,0 -1.29687,0.48438 -0.48438,0.46875 -0.48438,1.21875 0,0.71875 0.46875,1.17187 0.48438,0.45313 1.25,0.45313 0.95313,0 1.48438,-0.64063 l 1.125,0.76563 q -0.92188,1.17187 -2.57813,1.17187 -1.48437,0 -2.34375,-0.875 -0.84375,-0.89062 -0.84375,-2.07812 0,-0.8125 0.40625,-1.5 0.42188,-0.70313 1.15625,-1.09375 0.73438,-0.40625 1.64063,-0.40625 0.84375,0 1.51562,0.34375 0.67188,0.32812 1.10938,0.95312 z m 6.94647,2.09375 h -4.5625 q 0.0937,0.60938 0.51563,0.96875 0.4375,0.34375 1.10937,0.34375 0.79688,0 1.35938,-0.54687 l 1.20312,0.5625 q -0.45312,0.625 -1.07812,0.9375 -0.625,0.29687 -1.48438,0.29687 -1.32812,0 -2.17187,-0.82812 -0.82813,-0.84375 -0.82813,-2.10938 0,-1.29687 0.82813,-2.15625 0.84375,-0.85937 2.09375,-0.85937 1.34375,0 2.17187,0.85937 0.84375,0.85938 0.84375,2.26563 z m -1.42187,-1.10937 q -0.14063,-0.48438 -0.5625,-0.78125 -0.40625,-0.29688 -0.95313,-0.29688 -0.59375,0 -1.04687,0.34375 -0.28125,0.20313 -0.51563,0.73438 z m 6.74334,-3.07813 -1.07812,0.95313 q -0.57813,-0.79688 -1.15625,-0.79688 -0.28125,0 -0.46875,0.15625 -0.1875,0.15625 -0.1875,0.34375 0,0.1875 0.14062,0.35938 0.17188,0.23437 1.0625,0.98437 0.82813,0.70313 1,0.89063 0.45313,0.4375 0.625,0.84375 0.1875,0.40625 0.1875,0.89062 0,0.95313 -0.65625,1.5625 -0.64062,0.60938 -1.6875,0.60938 -0.8125,0 -1.42187,-0.39063 -0.60938,-0.40625 -1.03125,-1.26562 l 1.21875,-0.73438 q 0.54687,1.01563 1.26562,1.01563 0.375,0 0.625,-0.21875 0.26563,-0.21875 0.26563,-0.51563 0,-0.25 -0.20313,-0.5 -0.1875,-0.26562 -0.84375,-0.8125 -1.25,-1.01562 -1.60937,-1.5625 -0.35938,-0.5625 -0.35938,-1.10937 0,-0.79688 0.59375,-1.35938 0.60938,-0.57812 1.5,-0.57812 0.57813,0 1.09375,0.26562 0.51563,0.26563 1.125,0.96875 z m 6.91645,2.09375 -1.1875,0.65625 q -0.32813,-0.35937 -0.65625,-0.48437 -0.32813,-0.14063 -0.76563,-0.14063 -0.79687,0 -1.29687,0.48438 -0.48438,0.46875 -0.48438,1.21875 0,0.71875 0.46875,1.17187 0.48438,0.45313 1.25,0.45313 0.95313,0 1.48438,-0.64063 l 1.125,0.76563 q -0.92188,1.17187 -2.57813,1.17187 -1.48437,0 -2.34375,-0.875 -0.84375,-0.89062 -0.84375,-2.07812 0,-0.8125 0.40625,-1.5 0.42188,-0.70313 1.15625,-1.09375 0.73438,-0.40625 1.64063,-0.40625 0.84375,0 1.51562,0.34375 0.67188,0.32812 1.10938,0.95312 z m 5.46209,-1.14062 h 1.40625 v 5.65625 h -1.40625 v -0.59375 q -0.42187,0.39062 -0.84375,0.5625 -0.42187,0.17187 -0.90625,0.17187 -1.09375,0 -1.90625,-0.84375 -0.79687,-0.85937 -0.79687,-2.10937 0,-1.3125 0.78125,-2.15625 0.78125,-0.84375 1.875,-0.84375 0.51562,0 0.95312,0.20312 0.45313,0.1875 0.84375,0.57813 z m -1.5,1.15625 q -0.65625,0 -1.09375,0.46875 -0.4375,0.46875 -0.4375,1.20312 0,0.71875 0.4375,1.20313 0.45313,0.46875 1.09375,0.46875 0.67188,0 1.10938,-0.46875 0.45312,-0.46875 0.45312,-1.21875 0,-0.73438 -0.45312,-1.1875 -0.4375,-0.46875 -1.10938,-0.46875 z m 4.51917,-3.25 h 1.42187 v 2.09375 h 0.82813 v 1.21875 h -0.82813 v 4.4375 h -1.42187 v -4.4375 h -0.73438 v -1.21875 h 0.73438 z m 3.19476,0 h 1.42188 v 2.09375 h 0.82812 v 1.21875 h -0.82812 v 4.4375 h -1.42188 v -4.4375 h -0.73437 v -1.21875 h 0.73437 z m 8.69483,5.32812 h -4.5625 q 0.0937,0.60938 0.51562,0.96875 0.4375,0.34375 1.10938,0.34375 0.79687,0 1.35937,-0.54687 l 1.20313,0.5625 q -0.45313,0.625 -1.07813,0.9375 -0.625,0.29687 -1.48437,0.29687 -1.32813,0 -2.17188,-0.82812 -0.82812,-0.84375 -0.82812,-2.10938 0,-1.29687 0.82812,-2.15625 0.84375,-0.85937 2.09375,-0.85937 1.34375,0 2.17188,0.85937 0.84375,0.85938 0.84375,2.26563 z m -1.42188,-1.10937 q -0.14062,-0.48438 -0.5625,-0.78125 -0.40625,-0.29688 -0.95312,-0.29688 -0.59375,0 -1.04688,0.34375 -0.28125,0.20313 -0.51562,0.73438 z m 2.24329,-2.125 h 1.21875 v 0.70312 q 0.1875,-0.42187 0.51562,-0.64062 0.32813,-0.21875 0.71875,-0.21875 0.28125,0 0.57813,0.15625 l -0.4375,1.21875 q -0.25,-0.125 -0.40625,-0.125 -0.32813,0 -0.5625,0.40625 -0.21875,0.40625 -0.21875,1.59375 v 0.26562 2.29688 h -1.40625 z m 9.20208,-2 h 1.48438 l 2.9375,7.65625 h -1.51563 l -0.59375,-1.57813 h -3.125 l -0.625,1.57813 h -1.51562 z m 0.75,2.03125 -1.01562,2.625 h 2.03125 z m 10.19544,1.10937 -1.1875,0.65625 q -0.32813,-0.35937 -0.65625,-0.48437 -0.32813,-0.14063 -0.76563,-0.14063 -0.79687,0 -1.29687,0.48438 -0.48438,0.46875 -0.48438,1.21875 0,0.71875 0.46875,1.17187 0.48438,0.45313 1.25,0.45313 0.95313,0 1.48438,-0.64063 l 1.125,0.76563 q -0.92188,1.17187 -2.57813,1.17187 -1.48437,0 -2.34375,-0.875 -0.84375,-0.89062 -0.84375,-2.07812 0,-0.8125 0.40625,-1.5 0.42188,-0.70313 1.15625,-1.09375 0.73438,-0.40625 1.64063,-0.40625 0.84375,0 1.51562,0.34375 0.67188,0.32812 1.10938,0.95312 z m 1.44647,-3.23437 h 1.42188 v 2.09375 h 0.82812 v 1.21875 h -0.82812 v 4.4375 h -1.42188 v -4.4375 h -0.73437 v -1.21875 h 0.73437 z m 3.58539,-0.25 q 0.375,0 0.64062,0.28125 0.26563,0.26562 0.26563,0.65625 0,0.375 -0.26563,0.64062 -0.26562,0.26563 -0.64062,0.26563 -0.375,0 -0.64063,-0.26563 -0.26562,-0.28125 -0.26562,-0.67187 0,-0.375 0.26562,-0.64063 0.26563,-0.26562 0.64063,-0.26562 z m -0.71875,2.34375 h 1.42187 v 5.65625 h -1.42187 z m 2.10168,0 h 1.45313 l 1.42187,3.32812 1.42188,-3.32812 h 1.45312 l -2.42187,5.65625 h -0.90625 z m 10.04627,0.78125 -0.89063,0.89062 q -0.53125,-0.53125 -0.96875,-0.53125 -0.23437,0 -0.375,0.10938 -0.125,0.0937 -0.125,0.23437 0,0.125 0.0781,0.21875 0.0937,0.0937 0.42187,0.26563 l 0.51563,0.25 q 0.82812,0.40625 1.125,0.82812 0.3125,0.42188 0.3125,0.98438 0,0.76562 -0.5625,1.26562 -0.54688,0.5 -1.46875,0.5 -1.23438,0 -1.98438,-0.96875 l 0.875,-0.95312 q 0.25,0.29687 0.57813,0.48437 0.34375,0.17188 0.60937,0.17188 0.28125,0 0.45313,-0.125 0.17187,-0.14063 0.17187,-0.32813 0,-0.32812 -0.625,-0.64062 l -0.46875,-0.23438 q -1.375,-0.6875 -1.375,-1.73437 0,-0.67188 0.51563,-1.14063 0.51562,-0.48437 1.32812,-0.48437 0.54688,0 1.03125,0.25 0.48438,0.23437 0.82813,0.6875 z"
       fill-rule="nonzero"
       id="path25" />
    <path
       fill="#4ea5b7"
       d="m 806.04724,308.53027 v 0 c 0,-2.08163 1.6875,-3.7691 3.7691,-3.7691 h 112.3988 c 0.99964,0 1.95832,0.39709 2.66517,1.10394 0.70684,0.70682 1.10394,1.66553 1.10394,2.66516 v 15.07596 c 0,2.0816 -1.6875,3.7691 -3.76911,3.7691 h -112.3988 v 0 c -2.0816,0 -3.7691,-1.6875 -3.7691,-3.7691 z"
       fill-rule="evenodd"
       id="path26" />
    <path
       stroke="#000000"
       stroke-width="1"
       stroke-linejoin="round"
       stroke-linecap="butt"
       d="m 806.04724,308.53027 v 0 c 0,-2.08163 1.6875,-3.7691 3.7691,-3.7691 h 112.3988 c 0.99964,0 1.95832,0.39709 2.66517,1.10394 0.70684,0.70682 1.10394,1.66553 1.10394,2.66516 v 15.07596 c 0,2.0816 -1.6875,3.7691 -3.76911,3.7691 h -112.3988 v 0 c -2.0816,0 -3.7691,-1.6875 -3.7691,-3.7691 z"
       fill-rule="evenodd"
       id="path27" />
    <path
       fill="#ffffff"
       d="m 824.7582,311.29013 h 4.75 v 1.78125 h -2.95313 v 1.73437 h 2.95313 v 1.75 h -2.95313 v 4.3125 h -1.79687 z m 9.49103,2.3125 q 1,0 1.875,0.5 0.89062,0.5 1.39062,1.35937 0.5,0.85938 0.5,1.85938 0,1 -0.5,1.875 -0.5,0.875 -1.35937,1.375 -0.85938,0.48437 -1.89063,0.48437 -1.53125,0 -2.60937,-1.07812 -1.07813,-1.09375 -1.07813,-2.64063 0,-1.65625 1.21875,-2.76562 1.07813,-0.96875 2.45313,-0.96875 z m 0.0312,1.67187 q -0.82813,0 -1.375,0.57813 -0.54688,0.57812 -0.54688,1.46875 0,0.9375 0.53125,1.51562 0.54688,0.5625 1.39063,0.5625 0.82812,0 1.375,-0.57812 0.5625,-0.57813 0.5625,-1.5 0,-0.90625 -0.54688,-1.46875 -0.54687,-0.57813 -1.39062,-0.57813 z m 4.76617,-1.48437 h 1.51563 v 0.89062 q 0.25,-0.53125 0.65625,-0.79687 0.42187,-0.28125 0.90625,-0.28125 0.34375,0 0.71875,0.1875 l -0.54688,1.53125 q -0.3125,-0.15625 -0.51562,-0.15625 -0.40625,0 -0.70313,0.51562 -0.28125,0.5 -0.28125,1.98438 l 0.0156,0.34375 v 2.85937 h -1.76563 z m 3.8877,0 h 1.73437 l 1.4375,4.03125 1.53125,-4.03125 h 1.0625 l 1.5,3.98437 1.42188,-3.98437 h 1.75 l -2.57813,7.07812 h -1.125 l -1.51562,-4.03125 -1.54688,4.03125 h -1.125 z m 16.67553,0 h 1.78125 v 7.07812 h -1.78125 v -0.75 q -0.51562,0.5 -1.04687,0.71875 -0.51563,0.21875 -1.125,0.21875 -1.375,0 -2.375,-1.0625 -1,-1.07812 -1,-2.65625 0,-1.64062 0.96875,-2.6875 0.96875,-1.04687 2.34375,-1.04687 0.64062,0 1.20312,0.25 0.5625,0.23437 1.03125,0.71875 z m -1.85937,1.45312 q -0.82813,0 -1.375,0.59375 -0.54688,0.57813 -0.54688,1.48438 0,0.92187 0.54688,1.51562 0.5625,0.59375 1.375,0.59375 0.84375,0 1.39062,-0.57812 0.5625,-0.59375 0.5625,-1.53125 0,-0.9375 -0.5625,-1.5 -0.54687,-0.57813 -1.39062,-0.57813 z m 5.01739,-1.45312 h 1.51563 v 0.89062 q 0.25,-0.53125 0.65625,-0.79687 0.42187,-0.28125 0.90625,-0.28125 0.34375,0 0.71875,0.1875 l -0.54688,1.53125 q -0.3125,-0.15625 -0.51562,-0.15625 -0.40625,0 -0.70313,0.51562 -0.28125,0.5 -0.28125,1.98438 l 0.0156,0.34375 v 2.85937 h -1.76563 z m 9.90326,-2.73438 h 1.78125 v 9.8125 h -1.78125 v -0.75 q -0.51562,0.5 -1.04687,0.71875 -0.51563,0.21875 -1.125,0.21875 -1.375,0 -2.375,-1.0625 -1,-1.07812 -1,-2.65625 0,-1.64062 0.96875,-2.6875 0.96875,-1.04687 2.34375,-1.04687 0.64062,0 1.20312,0.25 0.5625,0.23437 1.03125,0.71875 z m -1.85937,4.1875 q -0.82813,0 -1.375,0.59375 -0.54688,0.57813 -0.54688,1.48438 0,0.92187 0.54688,1.51562 0.5625,0.59375 1.375,0.59375 0.84375,0 1.39062,-0.57812 0.5625,-0.59375 0.5625,-1.53125 0,-0.9375 -0.5625,-1.5 -0.54687,-0.57813 -1.39062,-0.57813 z m 10.91827,-1.45312 v 0.78125 q 0.48438,-0.48438 1.04688,-0.71875 0.5625,-0.25 1.20312,-0.25 1.375,0 2.34375,1.04687 0.96875,1.04688 0.96875,2.6875 0,1.57813 -1,2.65625 -1,1.0625 -2.375,1.0625 -0.60937,0 -1.14062,-0.21875 -0.51563,-0.21875 -1.04688,-0.71875 v 3.34375 h -1.76562 v -9.67187 z m 1.875,1.45312 q -0.84375,0 -1.40625,0.57813 -0.54687,0.5625 -0.54687,1.5 0,0.9375 0.54687,1.53125 0.5625,0.57812 1.40625,0.57812 0.8125,0 1.35938,-0.59375 0.5625,-0.59375 0.5625,-1.51562 0,-0.90625 -0.54688,-1.48438 -0.54687,-0.59375 -1.375,-0.59375 z m 10.3924,-1.45312 h 1.78125 v 7.07812 h -1.78125 v -0.75 q -0.51563,0.5 -1.04688,0.71875 -0.51562,0.21875 -1.125,0.21875 -1.375,0 -2.375,-1.0625 -1,-1.07812 -1,-2.65625 0,-1.64062 0.96875,-2.6875 0.96875,-1.04687 2.34375,-1.04687 0.64063,0 1.20313,0.25 0.5625,0.23437 1.03125,0.71875 z m -1.85938,1.45312 q -0.82812,0 -1.375,0.59375 -0.54687,0.57813 -0.54687,1.48438 0,0.92187 0.54687,1.51562 0.5625,0.59375 1.375,0.59375 0.84375,0 1.39063,-0.57812 0.5625,-0.59375 0.5625,-1.53125 0,-0.9375 -0.5625,-1.5 -0.54688,-0.57813 -1.39063,-0.57813 z m 9.7674,-0.46875 -1.10938,1.10938 q -0.65625,-0.67188 -1.20312,-0.67188 -0.3125,0 -0.48438,0.125 -0.15625,0.125 -0.15625,0.3125 0,0.15625 0.10938,0.28125 0.10937,0.10938 0.53125,0.3125 l 0.64062,0.32813 q 1.03125,0.51562 1.40625,1.04687 0.39063,0.51563 0.39063,1.21875 0,0.95313 -0.70313,1.59375 -0.6875,0.625 -1.84375,0.625 -1.54687,0 -2.46875,-1.21875 l 1.09375,-1.1875 q 0.3125,0.35938 0.71875,0.59375 0.42188,0.21875 0.75,0.21875 0.35938,0 0.5625,-0.17187 0.21875,-0.17188 0.21875,-0.39063 0,-0.40625 -0.76562,-0.79687 l -0.60938,-0.29688 q -1.71875,-0.875 -1.71875,-2.17187 0,-0.84375 0.64063,-1.4375 0.65625,-0.59375 1.67187,-0.59375 0.6875,0 1.29688,0.3125 0.60937,0.29687 1.03125,0.85937 z m 5.86365,0 -1.10938,1.10938 q -0.65625,-0.67188 -1.20312,-0.67188 -0.3125,0 -0.48438,0.125 -0.15625,0.125 -0.15625,0.3125 0,0.15625 0.10938,0.28125 0.10937,0.10938 0.53125,0.3125 l 0.64062,0.32813 q 1.03125,0.51562 1.40625,1.04687 0.39063,0.51563 0.39063,1.21875 0,0.95313 -0.70313,1.59375 -0.6875,0.625 -1.84375,0.625 -1.54687,0 -2.46875,-1.21875 l 1.09375,-1.1875 q 0.3125,0.35938 0.71875,0.59375 0.42188,0.21875 0.75,0.21875 0.35938,0 0.5625,-0.17187 0.21875,-0.17188 0.21875,-0.39063 0,-0.40625 -0.76562,-0.79687 l -0.60938,-0.29688 q -1.71875,-0.875 -1.71875,-2.17187 0,-0.84375 0.64063,-1.4375 0.65625,-0.59375 1.67187,-0.59375 0.6875,0 1.29688,0.3125 0.60937,0.29687 1.03125,0.85937 z"
       fill-rule="nonzero"
       id="path28" />
    <path
       fill="#4ea5b7"
       d="m 480.2844,286.37677 v 0 c 0,-3.85593 3.12585,-6.98175 6.98175,-6.98175 h 48.08371 c 1.85169,0 3.62756,0.73556 4.93689,2.04489 1.30933,1.30936 2.04492,3.08518 2.04492,4.93686 v 27.92624 c 0,3.85593 -3.12585,6.98178 -6.98181,6.98178 h -48.08371 c -3.8559,0 -6.98175,-3.12585 -6.98175,-6.98178 z"
       fill-rule="evenodd"
       id="path29" />
    <path
       stroke="#000000"
       stroke-width="1"
       stroke-linejoin="round"
       stroke-linecap="butt"
       d="m 480.2844,286.37677 v 0 c 0,-3.85593 3.12585,-6.98175 6.98175,-6.98175 h 48.08371 c 1.85169,0 3.62756,0.73556 4.93689,2.04489 1.30933,1.30936 2.04492,3.08518 2.04492,4.93686 v 27.92624 c 0,3.85593 -3.12585,6.98178 -6.98181,6.98178 h -48.08371 c -3.8559,0 -6.98175,-3.12585 -6.98175,-6.98178 z"
       fill-rule="evenodd"
       id="path30" />
    <path
       fill="#ffffff"
       d="m 504.18512,297.12427 -1.28125,1.28125 q -1.21875,-1.29687 -2.84375,-1.29687 -1.40625,0 -2.35938,0.9375 -0.95312,0.9375 -0.95312,2.28125 0,1.39062 0.98437,2.35937 0.98438,0.95313 2.4375,0.95313 0.9375,0 1.57813,-0.39063 0.65625,-0.40625 1.0625,-1.25 h -2.78125 v -1.71875 h 4.8125 l 0.0156,0.40625 q 0,1.25 -0.65625,2.39063 -0.64062,1.125 -1.67187,1.71875 -1.03125,0.57812 -2.4375,0.57812 -1.48438,0 -2.65625,-0.64062 -1.15625,-0.64063 -1.84375,-1.84375 -0.6875,-1.20313 -0.6875,-2.57813 0,-1.90625 1.26562,-3.3125 1.48438,-1.67187 3.875,-1.67187 1.25,0 2.34375,0.45312 0.90625,0.39063 1.79688,1.34375 z m 9.24042,4.98438 h -5.70313 q 0.125,0.76562 0.65625,1.21875 0.54688,0.4375 1.375,0.4375 1,0 1.71875,-0.70313 l 1.48438,0.70313 q -0.54688,0.79687 -1.32813,1.1875 -0.78125,0.375 -1.85937,0.375 -1.67188,0 -2.71875,-1.04688 -1.04688,-1.0625 -1.04688,-2.64062 0,-1.625 1.04688,-2.6875 1.04687,-1.07813 2.625,-1.07813 1.67187,0 2.71875,1.07813 1.04687,1.0625 1.04687,2.82812 z m -1.78125,-1.39063 q -0.17188,-0.59375 -0.6875,-0.96875 -0.51563,-0.375 -1.20313,-0.375 -0.73437,0 -1.29687,0.42188 -0.35938,0.26562 -0.65625,0.92187 z m 3.42242,-5.15625 h 1.82813 v 7.84375 h 2.65625 v 1.73438 h -4.48438 z m 5.80115,0 h 1.82812 v 6.20313 q 0,0.79687 0.14063,1.14062 0.14062,0.32813 0.45312,0.53125 0.32813,0.1875 0.78125,0.1875 0.48438,0 0.82813,-0.21875 0.35937,-0.21875 0.48437,-0.5625 0.14063,-0.34375 0.14063,-1.3125 v -5.96875 h 1.82812 v 5.71875 q 0,1.4375 -0.17187,2 -0.15625,0.5625 -0.625,1.07813 -0.45313,0.51562 -1.0625,0.76562 -0.59375,0.25 -1.375,0.25 -1.04688,0 -1.82813,-0.46875 -0.76562,-0.48437 -1.09375,-1.20312 -0.32812,-0.71875 -0.32812,-2.42188 z"
       fill-rule="nonzero"
       id="path31" />
    <path
       fill="#4ea5b7"
       d="m 542.90967,286.37677 v 0 c 0,-3.85593 3.12585,-6.98175 6.98175,-6.98175 h 48.08374 c 1.85162,0 3.6275,0.73556 4.93683,2.04489 1.30933,1.30936 2.04492,3.08518 2.04492,4.93686 v 27.92624 c 0,3.85593 -3.12585,6.98178 -6.98175,6.98178 h -48.08374 c -3.8559,0 -6.98175,-3.12585 -6.98175,-6.98178 z"
       fill-rule="evenodd"
       id="path32" />
    <path
       stroke="#000000"
       stroke-width="1"
       stroke-linejoin="round"
       stroke-linecap="butt"
       d="m 542.90967,286.37677 v 0 c 0,-3.85593 3.12585,-6.98175 6.98175,-6.98175 h 48.08374 c 1.85162,0 3.6275,0.73556 4.93683,2.04489 1.30933,1.30936 2.04492,3.08518 2.04492,4.93686 v 27.92624 c 0,3.85593 -3.12585,6.98178 -6.98175,6.98178 h -48.08374 c -3.8559,0 -6.98175,-3.12585 -6.98175,-6.98178 z"
       fill-rule="evenodd"
       id="path33" />
    <path
       fill="#ffffff"
       d="m 562.93085,295.56177 h 4.75 v 1.78125 h -2.95313 v 1.73438 h 2.95313 v 1.75 h -2.95313 v 4.3125 h -1.79687 z m 15.16284,1.6875 -1.28125,1.21875 q -1.29687,-1.375 -2.92187,-1.375 -1.375,0 -2.3125,0.9375 -0.9375,0.9375 -0.9375,2.3125 0,0.95313 0.40625,1.70313 0.42187,0.73437 1.1875,1.15625 0.76562,0.42187 1.6875,0.42187 0.79687,0 1.45312,-0.29687 0.65625,-0.29688 1.4375,-1.07813 l 1.25,1.29688 q -1.0625,1.03125 -2.01562,1.4375 -0.9375,0.39062 -2.15625,0.39062 -2.21875,0 -3.64063,-1.40625 -1.42187,-1.42187 -1.42187,-3.625 0,-1.4375 0.64062,-2.54687 0.64063,-1.10938 1.84375,-1.78125 1.21875,-0.6875 2.60938,-0.6875 1.1875,0 2.28125,0.5 1.09375,0.5 1.89062,1.42187 z m 2.83063,1.40625 h -1.78125 q 0.0781,-1.54687 0.96875,-2.4375 0.90625,-0.89062 2.3125,-0.89062 0.875,0 1.54687,0.375 0.67188,0.35937 1.0625,1.0625 0.40625,0.6875 0.40625,1.40625 0,0.84375 -0.48437,1.82812 -0.48438,0.98438 -1.78125,2.32813 l -1.07813,1.125 h 3.42188 v 1.6875 h -6.64063 v -0.875 l 2.96875,-3.01563 q 1.07813,-1.09375 1.42188,-1.75 0.35937,-0.65625 0.35937,-1.1875 0,-0.5625 -0.375,-0.92187 -0.35937,-0.35938 -0.9375,-0.35938 -0.59375,0 -0.98437,0.4375 -0.39063,0.4375 -0.40625,1.1875 z"
       fill-rule="nonzero"
       id="path34" />
    <path
       fill="#000000"
       fill-opacity="0"
       d="m 400.042,225.12743 -0.78738,99.2126"
       fill-rule="evenodd"
       id="path35" />
    <path
       stroke="#000000"
       stroke-width="3"
       stroke-linejoin="round"
       stroke-linecap="butt"
       stroke-dasharray="12, 9"
       d="m 400.042,225.12743 -0.78738,99.2126"
       fill-rule="evenodd"
       id="path36" />
    <path
       fill="#4ea5b7"
       d="m 306.33154,286.37808 v 0 c 0,-3.85593 3.12585,-6.98175 6.98178,-6.98175 h 48.08371 c 1.85166,0 3.6275,0.73556 4.93683,2.04489 1.30936,1.30936 2.04492,3.08518 2.04492,4.93686 v 27.92624 c 0,3.85593 -3.12582,6.98178 -6.98175,6.98178 h -48.08371 c -3.85593,0 -6.98178,-3.12585 -6.98178,-6.98178 z"
       fill-rule="evenodd"
       id="path37" />
    <path
       stroke="#000000"
       stroke-width="1"
       stroke-linejoin="round"
       stroke-linecap="butt"
       d="m 306.33154,286.37808 v 0 c 0,-3.85593 3.12585,-6.98175 6.98178,-6.98175 h 48.08371 c 1.85166,0 3.6275,0.73556 4.93683,2.04489 1.30936,1.30936 2.04492,3.08518 2.04492,4.93686 v 27.92624 c 0,3.85593 -3.12582,6.98178 -6.98175,6.98178 h -48.08371 c -3.85593,0 -6.98178,-3.12585 -6.98178,-6.98178 z"
       fill-rule="evenodd"
       id="path38" />
    <path
       fill="#ffffff"
       d="m 310.09882,296.42496 h 1.45312 v 6.26562 h 2.125 v 1.39063 h -3.57812 z m 8.71936,2 h 1.40625 v 5.65625 h -1.40625 v -0.59375 q -0.42188,0.39062 -0.84375,0.5625 -0.42188,0.17187 -0.90625,0.17187 -1.09375,0 -1.90625,-0.84375 -0.79688,-0.85937 -0.79688,-2.10937 0,-1.3125 0.78125,-2.15625 0.78125,-0.84375 1.875,-0.84375 0.51563,0 0.95313,0.20312 0.45312,0.1875 0.84375,0.57813 z m -1.5,1.15625 q -0.65625,0 -1.09375,0.46875 -0.4375,0.46875 -0.4375,1.20312 0,0.71875 0.4375,1.20313 0.45312,0.46875 1.09375,0.46875 0.67187,0 1.10937,-0.46875 0.45313,-0.46875 0.45313,-1.21875 0,-0.73438 -0.45313,-1.1875 -0.4375,-0.46875 -1.10937,-0.46875 z m 3.72229,-1.15625 h 1.45312 l 1.46875,3.54687 1.625,-3.54687 h 1.45313 l -3.54688,7.73437 h -1.46875 l 1.17188,-2.5 z m 12.47833,3.23437 h -4.5625 q 0.0937,0.60938 0.51563,0.96875 0.4375,0.34375 1.10937,0.34375 0.79688,0 1.35938,-0.54687 l 1.20312,0.5625 q -0.45312,0.625 -1.07812,0.9375 -0.625,0.29687 -1.48438,0.29687 -1.32812,0 -2.17187,-0.82812 -0.82813,-0.84375 -0.82813,-2.10938 0,-1.29687 0.82813,-2.15625 0.84375,-0.85937 2.09375,-0.85937 1.34375,0 2.17187,0.85937 0.84375,0.85938 0.84375,2.26563 z m -1.42187,-1.10937 q -0.14063,-0.48438 -0.5625,-0.78125 -0.40625,-0.29688 -0.95313,-0.29688 -0.59375,0 -1.04687,0.34375 -0.28125,0.20313 -0.51563,0.73438 z m 2.24334,-2.125 h 1.21875 v 0.70312 q 0.1875,-0.42187 0.51563,-0.64062 0.32812,-0.21875 0.71875,-0.21875 0.28125,0 0.57812,0.15625 l -0.4375,1.21875 q -0.25,-0.125 -0.40625,-0.125 -0.32812,0 -0.5625,0.40625 -0.21875,0.40625 -0.21875,1.59375 v 0.26562 2.29688 h -1.40625 z m 3.89249,-2 h 1.40625 l 3.28125,5.03125 v -5.03125 h 1.45313 v 7.65625 h -1.40625 l -3.26563,-5.01563 v 5.01563 h -1.46875 z m 10.38294,1.84375 q 0.79687,0 1.5,0.40625 0.71875,0.40625 1.10937,1.09375 0.39063,0.6875 0.39063,1.48437 0,0.79688 -0.40625,1.5 -0.39063,0.6875 -1.07813,1.07813 -0.6875,0.39062 -1.51562,0.39062 -1.20313,0 -2.07813,-0.85937 -0.85937,-0.875 -0.85937,-2.10938 0,-1.32812 0.98437,-2.20312 0.84375,-0.78125 1.95313,-0.78125 z m 0.0156,1.34375 q -0.65625,0 -1.09375,0.46875 -0.4375,0.45312 -0.4375,1.17187 0,0.73438 0.42188,1.20313 0.4375,0.45312 1.10937,0.45312 0.67188,0 1.10938,-0.46875 0.4375,-0.46875 0.4375,-1.1875 0,-0.73437 -0.4375,-1.1875 -0.42188,-0.45312 -1.10938,-0.45312 z m 3.82144,-1.1875 h 1.21875 v 0.70312 q 0.1875,-0.42187 0.51563,-0.64062 0.32812,-0.21875 0.71875,-0.21875 0.28125,0 0.57812,0.15625 l -0.4375,1.21875 q -0.25,-0.125 -0.40625,-0.125 -0.32812,0 -0.5625,0.40625 -0.21875,0.40625 -0.21875,1.59375 v 0.26562 2.29688 h -1.40625 z m 3.72064,0 h 1.4375 v 0.64062 q 0.35938,-0.39062 0.79688,-0.59375 0.45312,-0.20312 0.96875,-0.20312 0.53125,0 0.95312,0.26562 0.4375,0.26563 0.70313,0.76563 0.32812,-0.5 0.8125,-0.76563 0.5,-0.26562 1.09375,-0.26562 0.59375,0 1.04687,0.28125 0.46875,0.28125 0.65625,0.73437 0.20313,0.45313 0.20313,1.48438 v 3.3125 h -1.42188 v -2.875 q 0,-0.95313 -0.25,-1.29688 -0.23437,-0.34375 -0.70312,-0.34375 -0.375,0 -0.67188,0.21875 -0.28125,0.20313 -0.42187,0.57813 -0.14063,0.35937 -0.14063,1.15625 v 2.5625 h -1.42187 v -2.73438 q 0,-0.76562 -0.125,-1.10937 -0.10938,-0.34375 -0.32813,-0.5 -0.21875,-0.17188 -0.54687,-0.17188 -0.34375,0 -0.64063,0.21875 -0.28125,0.20313 -0.42187,0.59375 -0.14063,0.375 -0.14063,1.1875 v 2.51563 h -1.4375 z"
       fill-rule="nonzero"
       id="path39" />
    <path
       fill="#000000"
       fill-opacity="0"
       d="m 636.126,216.43832 h 166.11023 v 42.01575 H 636.126 Z"
       fill-rule="evenodd"
       id="path40" />
    <path
       fill="#000000"
       d="m 686.1249,231.7802 -1.875,1.67187 q -1,-1.39062 -2.03125,-1.39062 -0.5,0 -0.82812,0.26562 -0.3125,0.26563 -0.3125,0.60938 0,0.34375 0.23437,0.64062 0.3125,0.40625 1.875,1.71875 1.45313,1.21875 1.76563,1.54688 0.76562,0.78125 1.09375,1.5 0.32812,0.70312 0.32812,1.54687 0,1.65625 -1.14062,2.73438 -1.14063,1.07812 -2.96875,1.07812 -1.4375,0 -2.5,-0.70312 -1.0625,-0.70313 -1.8125,-2.20313 l 2.14062,-1.29687 q 0.96875,1.76562 2.21875,1.76562 0.65625,0 1.09375,-0.375 0.45313,-0.375 0.45313,-0.89062 0,-0.45313 -0.34375,-0.90625 -0.32813,-0.45313 -1.46875,-1.39063 -2.1875,-1.78125 -2.82813,-2.75 -0.64062,-0.96875 -0.64062,-1.9375 0,-1.39062 1.0625,-2.39062 1.0625,-1 2.625,-1 1,0 1.90625,0.46875 0.90625,0.45312 1.95312,1.6875 z m 2.67041,-1.82813 h 2.71875 q 2.1875,0 3.15625,0.40625 0.96875,0.40625 1.53125,1.3125 0.5625,0.90625 0.5625,2.17188 0,1.40625 -0.73437,2.34375 -0.73438,0.92187 -1.98438,1.28125 -0.75,0.21875 -2.6875,0.21875 v 5.67187 h -2.5625 z m 2.5625,5.25 h 0.79688 q 0.96875,0 1.34375,-0.14062 0.375,-0.14063 0.57812,-0.45313 0.21875,-0.3125 0.21875,-0.76562 0,-0.76563 -0.60937,-1.125 -0.4375,-0.26563 -1.60938,-0.26563 h -0.71875 z m 12.26209,-1.75 h 2.14062 v 1.25 q 0.34375,-0.75 0.90625,-1.125 0.57813,-0.39062 1.26563,-0.39062 0.48437,0 1.01562,0.26562 l -0.78125,2.14063 q -0.4375,-0.21875 -0.71875,-0.21875 -0.57812,0 -0.96875,0.71875 -0.39062,0.70312 -0.39062,2.78125 v 0.46875 4.01562 h -2.46875 z m 16.4823,5.67188 h -7.98438 q 0.17188,1.0625 0.92188,1.6875 0.75,0.60937 1.92187,0.60937 1.39063,0 2.39063,-0.96875 l 2.09375,0.98438 q -0.78125,1.10937 -1.875,1.64062 -1.09375,0.53125 -2.59375,0.53125 -2.34375,0 -3.8125,-1.46875 -1.45313,-1.46875 -1.45313,-3.6875 0,-2.26562 1.45313,-3.76562 1.46875,-1.5 3.67187,-1.5 2.34375,0 3.8125,1.5 1.46875,1.5 1.46875,3.96875 z m -2.5,-1.95313 q -0.25,-0.82812 -0.96875,-1.34375 -0.71875,-0.53125 -1.67188,-0.53125 -1.04687,0 -1.82812,0.57813 -0.5,0.375 -0.90625,1.29687 z m 11.83319,-3.71875 h 2.48437 v 8.48438 q 0,2.51562 -1.01562,3.70312 -1.35938,1.59375 -4.09375,1.59375 -1.45313,0 -2.45313,-0.35937 -0.98437,-0.35938 -1.67187,-1.07813 -0.6875,-0.70312 -1.01563,-1.70312 h 2.75 q 0.35938,0.40625 0.9375,0.625 0.57813,0.21875 1.35938,0.21875 1,0 1.60937,-0.3125 0.60938,-0.3125 0.85938,-0.8125 0.25,-0.48438 0.25,-1.6875 -0.65625,0.65625 -1.375,0.95312 -0.71875,0.28125 -1.625,0.28125 -2,0 -3.375,-1.4375 -1.375,-1.4375 -1.375,-3.64062 0,-2.35938 1.45312,-3.79688 1.32813,-1.29687 3.15625,-1.29687 0.85938,0 1.60938,0.32812 0.76562,0.3125 1.53125,1.03125 z m -2.57813,2.0625 q -1.17187,0 -1.9375,0.79688 -0.76562,0.78125 -0.76562,1.96875 0,1.25 0.78125,2.04687 0.78125,0.78125 1.96875,0.78125 1.15625,0 1.90625,-0.76562 0.75,-0.78125 0.75,-2.04688 0,-1.23437 -0.75,-2 -0.75,-0.78125 -1.95313,-0.78125 z m 8.55042,-6.15625 q 0.65625,0 1.125,0.48438 0.46875,0.46875 0.46875,1.14062 0,0.67188 -0.46875,1.14063 -0.46875,0.46875 -1.10938,0.46875 -0.67187,0 -1.14062,-0.46875 -0.46875,-0.48438 -0.46875,-1.17188 0,-0.65625 0.46875,-1.125 0.46875,-0.46875 1.125,-0.46875 z m -1.25,4.09375 h 2.5 v 9.90625 h -2.5 z m 9.39465,-0.26562 q 1.40625,0 2.64062,0.70312 1.23438,0.70313 1.92188,1.90625 0.70312,1.20313 0.70312,2.59375 0,1.40625 -0.70312,2.625 -0.6875,1.21875 -1.89063,1.90625 -1.20312,0.6875 -2.65625,0.6875 -2.125,0 -3.64062,-1.51562 -1.5,-1.51563 -1.5,-3.6875 0,-2.3125 1.70312,-3.85938 1.48438,-1.35937 3.42188,-1.35937 z m 0.0469,2.34375 q -1.15625,0 -1.9375,0.8125 -0.76562,0.79687 -0.76562,2.0625 0,1.29687 0.75,2.09375 0.76562,0.79687 1.9375,0.79687 1.17187,0 1.9375,-0.8125 0.78125,-0.8125 0.78125,-2.07812 0,-1.28125 -0.76563,-2.07813 -0.76562,-0.79687 -1.9375,-0.79687 z m 7.23945,-2.07813 h 2.48437 v 1 q 0.84375,-0.70312 1.53125,-0.98437 0.6875,-0.28125 1.40625,-0.28125 1.48438,0 2.51563,1.03125 0.85937,0.875 0.85937,2.59375 v 6.54687 h -2.45312 v -4.34375 q 0,-1.78125 -0.17188,-2.35937 -0.15625,-0.57813 -0.54687,-0.875 -0.39063,-0.3125 -0.98438,-0.3125 -0.75,0 -1.29687,0.5 -0.54688,0.5 -0.75,1.39062 -0.10938,0.46875 -0.10938,2.01563 v 3.98437 h -2.48437 z"
       fill-rule="nonzero"
       id="path41" />
    <path
       fill="#4ea5b7"
       d="m 674.13806,285.59857 v 0 c 0,-3.85593 3.12585,-6.98178 6.98175,-6.98178 h 48.08368 c 1.85169,0 3.62756,0.73559 4.93689,2.04492 1.30933,1.30933 2.04492,3.08518 2.04492,4.93686 v 27.92621 c 0,3.85592 -3.12585,6.98178 -6.98181,6.98178 h -48.08368 c -3.8559,0 -6.98175,-3.12586 -6.98175,-6.98178 z"
       fill-rule="evenodd"
       id="path42" />
    <path
       stroke="#000000"
       stroke-width="1"
       stroke-linejoin="round"
       stroke-linecap="butt"
       d="m 674.13806,285.59857 v 0 c 0,-3.85593 3.12585,-6.98178 6.98175,-6.98178 h 48.08368 c 1.85169,0 3.62756,0.73559 4.93689,2.04492 1.30933,1.30933 2.04492,3.08518 2.04492,4.93686 v 27.92621 c 0,3.85592 -3.12585,6.98178 -6.98181,6.98178 h -48.08368 c -3.8559,0 -6.98175,-3.12586 -6.98175,-6.98178 z"
       fill-rule="evenodd"
       id="path43" />
    <path
       fill="#ffffff"
       d="m 677.90533,295.64542 h 1.45313 v 6.26562 h 2.125 v 1.39063 h -3.57813 z m 8.71936,2 h 1.40625 v 5.65625 h -1.40625 v -0.59375 q -0.42187,0.39062 -0.84375,0.5625 -0.42187,0.17187 -0.90625,0.17187 -1.09375,0 -1.90625,-0.84375 -0.79687,-0.85937 -0.79687,-2.10937 0,-1.3125 0.78125,-2.15625 0.78125,-0.84375 1.875,-0.84375 0.51562,0 0.95312,0.20312 0.45313,0.1875 0.84375,0.57813 z m -1.5,1.15625 q -0.65625,0 -1.09375,0.46875 -0.4375,0.46875 -0.4375,1.20312 0,0.71875 0.4375,1.20313 0.45313,0.46875 1.09375,0.46875 0.67188,0 1.10938,-0.46875 0.45312,-0.46875 0.45312,-1.21875 0,-0.73438 -0.45312,-1.1875 -0.4375,-0.46875 -1.10938,-0.46875 z m 3.72229,-1.15625 h 1.45313 l 1.46875,3.54687 1.625,-3.54687 h 1.45312 l -3.54687,7.73437 h -1.46875 l 1.17187,-2.5 z m 12.47833,3.23437 h -4.5625 q 0.0937,0.60938 0.51563,0.96875 0.4375,0.34375 1.10937,0.34375 0.79688,0 1.35938,-0.54687 l 1.20312,0.5625 q -0.45312,0.625 -1.07812,0.9375 -0.625,0.29687 -1.48438,0.29687 -1.32812,0 -2.17187,-0.82812 -0.82813,-0.84375 -0.82813,-2.10938 0,-1.29687 0.82813,-2.15625 0.84375,-0.85937 2.09375,-0.85937 1.34375,0 2.17187,0.85937 0.84375,0.85938 0.84375,2.26563 z m -1.42187,-1.10937 q -0.14063,-0.48438 -0.5625,-0.78125 -0.40625,-0.29688 -0.95313,-0.29688 -0.59375,0 -1.04687,0.34375 -0.28125,0.20313 -0.51563,0.73438 z m 2.24334,-2.125 h 1.21875 v 0.70312 q 0.1875,-0.42187 0.51563,-0.64062 0.32812,-0.21875 0.71875,-0.21875 0.28125,0 0.57812,0.15625 l -0.4375,1.21875 q -0.25,-0.125 -0.40625,-0.125 -0.32812,0 -0.5625,0.40625 -0.21875,0.40625 -0.21875,1.59375 v 0.26562 2.29688 h -1.40625 z m 3.89246,-2 h 1.40625 l 3.28125,5.03125 v -5.03125 h 1.45313 v 7.65625 h -1.40625 l -3.26563,-5.01563 v 5.01563 h -1.46875 z m 10.38294,1.84375 q 0.79687,0 1.5,0.40625 0.71875,0.40625 1.10937,1.09375 0.39063,0.6875 0.39063,1.48437 0,0.79688 -0.40625,1.5 -0.39063,0.6875 -1.07813,1.07813 -0.6875,0.39062 -1.51562,0.39062 -1.20313,0 -2.07813,-0.85937 -0.85937,-0.875 -0.85937,-2.10938 0,-1.32812 0.98437,-2.20312 0.84375,-0.78125 1.95313,-0.78125 z m 0.0156,1.34375 q -0.65625,0 -1.09375,0.46875 -0.4375,0.45312 -0.4375,1.17187 0,0.73438 0.42188,1.20313 0.4375,0.45312 1.10937,0.45312 0.67188,0 1.10938,-0.46875 0.4375,-0.46875 0.4375,-1.1875 0,-0.73437 -0.4375,-1.1875 -0.42188,-0.45312 -1.10938,-0.45312 z m 3.82147,-1.1875 h 1.21875 v 0.70312 q 0.1875,-0.42187 0.51563,-0.64062 0.32812,-0.21875 0.71875,-0.21875 0.28125,0 0.57812,0.15625 l -0.4375,1.21875 q -0.25,-0.125 -0.40625,-0.125 -0.32812,0 -0.5625,0.40625 -0.21875,0.40625 -0.21875,1.59375 v 0.26562 2.29688 h -1.40625 z m 3.72064,0 h 1.4375 v 0.64062 q 0.35938,-0.39062 0.79688,-0.59375 0.45312,-0.20312 0.96875,-0.20312 0.53125,0 0.95312,0.26562 0.4375,0.26563 0.70313,0.76563 0.32812,-0.5 0.8125,-0.76563 0.5,-0.26562 1.09375,-0.26562 0.59375,0 1.04687,0.28125 0.46875,0.28125 0.65625,0.73437 0.20313,0.45313 0.20313,1.48438 v 3.3125 h -1.42188 v -2.875 q 0,-0.95313 -0.25,-1.29688 -0.23437,-0.34375 -0.70312,-0.34375 -0.375,0 -0.67188,0.21875 -0.28125,0.20313 -0.42187,0.57813 -0.14063,0.35937 -0.14063,1.15625 v 2.5625 h -1.42187 v -2.73438 q 0,-0.76562 -0.125,-1.10937 -0.10938,-0.34375 -0.32813,-0.5 -0.21875,-0.17188 -0.54687,-0.17188 -0.34375,0 -0.64063,0.21875 -0.28125,0.20313 -0.42187,0.59375 -0.14063,0.375 -0.14063,1.1875 v 2.51563 h -1.4375 z"
       fill-rule="nonzero"
       id="path44" />
    <path
       fill="#000000"
       fill-opacity="0"
       d="m 640.52496,224.3479 -0.78741,99.21262"
       fill-rule="evenodd"
       id="path45" />
    <path
       stroke="#000000"
       stroke-width="3"
       stroke-linejoin="round"
       stroke-linecap="butt"
       stroke-dasharray="12, 9"
       d="m 640.52496,224.3479 -0.78741,99.21262"
       fill-rule="evenodd"
       id="path46" />
  </g>
</svg>
